<svg width="41.000000" height="43.416016" viewBox="0 0 41 43.416" fill="none" xmlns="http://www.w3.org/2000/svg" xmlns:xlink="http://www.w3.org/1999/xlink">
	<desc>
			Created with Pixso.
	</desc>
	<defs>
		<filter id="filter_2092_2137_dd" x="0.716797" y="15.040039" width="38.850098" height="28.375977" filterUnits="userSpaceOnUse" color-interpolation-filters="sRGB">
			<feFlood flood-opacity="0" result="BackgroundImageFix"/>
			<feBlend mode="normal" in="SourceGraphic" in2="BackgroundImageFix" result="shape"/>
			<feGaussianBlur stdDeviation="1.82" result="effect_layerBlur_1"/>
		</filter>
		<filter id="filter_2092_2139_dd" x="12.299805" y="12.299805" width="16.399902" height="16.400391" filterUnits="userSpaceOnUse" color-interpolation-filters="sRGB">
			<feFlood flood-opacity="0" result="BackgroundImageFix"/>
			<feBlend mode="normal" in="SourceGraphic" in2="BackgroundImageFix" result="shape"/>
			<feColorMatrix in="SourceAlpha" type="matrix" values="0 0 0 0 0 0 0 0 0 0 0 0 0 0 0 0 0 0 127 0" result="hardAlpha"/>
			<feOffset dx="0" dy="0.5"/>
			<feGaussianBlur stdDeviation="0.833333"/>
			<feComposite in2="hardAlpha" operator="arithmetic" k2="-1" k3="1"/>
			<feColorMatrix type="matrix" values="0 0 0 0 0 0 0 0 0 0 0 0 0 0 0 0 0 0 0.1 0"/>
			<feBlend mode="normal" in2="shape" result="effect_innerShadow_1"/>
		</filter>
		<clipPath id="clip2092_2139">
			<rect id="Frame" rx="-0.109170" width="16.181660" height="16.181660" transform="translate(12.408975 12.408975)" fill="white" fill-opacity="0"/>
		</clipPath>
		<linearGradient x1="3.446503" y1="2.685595" x2="33.883179" y2="41.000008" id="paint_linear_2092_2136_0" gradientUnits="userSpaceOnUse">
			<stop stop-color="#FBFBFC"/>
			<stop offset="1.000000" stop-color="#DBDDE8"/>
		</linearGradient>
		<linearGradient x1="8.636760" y1="21.800961" x2="31.912140" y2="37.530766" id="paint_linear_2092_2137_0" gradientUnits="userSpaceOnUse">
			<stop stop-color="#0088CC"/>
			<stop offset="0.000100" stop-color="#5865F2"/>
			<stop offset="1.000000" stop-color="#4D5CFF"/>
		</linearGradient>
		<linearGradient x1="7.995073" y1="7.585079" x2="33.210075" y2="34.850079" id="paint_linear_2092_2138_0" gradientUnits="userSpaceOnUse">
			<stop stop-color="#0088CC"/>
			<stop offset="0.000100" stop-color="#5865F2"/>
			<stop offset="1.000000" stop-color="#4D5CFF"/>
		</linearGradient>
	</defs>
	<rect id="Rectangle 1698" rx="14.000000" width="41.000000" height="41.000000" fill="url(#paint_linear_2092_2136_0)" fill-opacity="1.000000"/>
	<g opacity="0.250000" filter="url(#filter_2092_2137_dd)">
		<rect id="Rectangle 1700" x="6.176758" y="20.500000" rx="8.728167" width="27.930130" height="17.456333" fill="url(#paint_linear_2092_2137_0)" fill-opacity="1.000000"/>
	</g>
	<rect id="Rectangle 1699" x="5.330078" y="5.330078" rx="15.128820" width="30.257641" height="30.257641" fill="url(#paint_linear_2092_2138_0)" fill-opacity="1.000000"/>
	<g filter="url(#filter_2092_2139_dd)">
		<g clip-path="url(#clip2092_2139)">
			<path id="Vector" d="M25.91 15.35C27.67 17.96 28.54 20.9 28.22 24.28C28.22 24.3 28.21 24.31 28.2 24.32C26.87 25.3 25.57 25.9 24.3 26.3C24.29 26.3 24.28 26.3 24.27 26.3C24.26 26.29 24.25 26.29 24.25 26.28C23.95 25.87 23.68 25.43 23.45 24.98C23.44 24.95 23.45 24.92 23.48 24.91C23.9 24.75 24.31 24.55 24.69 24.32C24.72 24.31 24.73 24.26 24.7 24.24C24.62 24.18 24.53 24.11 24.46 24.05C24.44 24.04 24.42 24.04 24.4 24.04C21.89 25.22 19.12 25.22 16.58 24.04C16.56 24.04 16.54 24.04 16.52 24.05C16.45 24.12 16.36 24.18 16.28 24.24C16.25 24.26 16.26 24.31 16.29 24.32C16.68 24.55 17.08 24.75 17.5 24.91C17.53 24.92 17.54 24.95 17.53 24.98C17.3 25.43 17.03 25.87 16.73 26.28C16.72 26.3 16.7 26.3 16.68 26.3C15.41 25.9 14.12 25.3 12.79 24.32C12.78 24.31 12.77 24.3 12.77 24.28C12.5 21.35 13.05 18.39 15.07 15.35C15.08 15.35 15.08 15.34 15.09 15.34C16.09 14.88 17.15 14.54 18.26 14.35C18.28 14.34 18.3 14.35 18.31 14.37C18.45 14.62 18.61 14.93 18.72 15.19C19.89 15.01 21.08 15.01 22.28 15.19C22.38 14.93 22.54 14.62 22.67 14.37C22.68 14.36 22.68 14.35 22.69 14.35C22.7 14.34 22.71 14.34 22.72 14.35C23.84 14.54 24.9 14.88 25.89 15.34C25.9 15.34 25.91 15.35 25.91 15.35ZM19.31 20.92C19.32 20.05 18.7 19.34 17.91 19.34C17.13 19.34 16.51 20.05 16.51 20.92C16.51 21.79 17.14 22.5 17.91 22.5C18.69 22.5 19.31 21.79 19.31 20.92ZM24.49 20.92C24.5 20.05 23.87 19.34 23.09 19.34C22.31 19.34 21.69 20.05 21.69 20.92C21.69 21.79 22.32 22.5 23.09 22.5C23.87 22.5 24.49 21.79 24.49 20.92Z" fill="#FFFFFF" fill-opacity="1.000000" fill-rule="nonzero"/>
		</g>
	</g>
</svg>
