<svg width="41.000000" height="43.416016" viewBox="0 0 41 43.416" fill="none" xmlns="http://www.w3.org/2000/svg" xmlns:xlink="http://www.w3.org/1999/xlink">
	<desc>
			Created with Pixso.
	</desc>
	<defs>
		<filter id="filter_2092_2129_dd" x="0.716797" y="15.040039" width="38.850098" height="28.375977" filterUnits="userSpaceOnUse" color-interpolation-filters="sRGB">
			<feFlood flood-opacity="0" result="BackgroundImageFix"/>
			<feBlend mode="normal" in="SourceGraphic" in2="BackgroundImageFix" result="shape"/>
			<feGaussianBlur stdDeviation="1.82" result="effect_layerBlur_1"/>
		</filter>
		<filter id="filter_2092_2131_dd" x="11.069824" y="11.070312" width="18.450195" height="18.450195" filterUnits="userSpaceOnUse" color-interpolation-filters="sRGB">
			<feFlood flood-opacity="0" result="BackgroundImageFix"/>
			<feBlend mode="normal" in="SourceGraphic" in2="BackgroundImageFix" result="shape"/>
			<feColorMatrix in="SourceAlpha" type="matrix" values="0 0 0 0 0 0 0 0 0 0 0 0 0 0 0 0 0 0 127 0" result="hardAlpha"/>
			<feOffset dx="0" dy="0.5"/>
			<feGaussianBlur stdDeviation="0.833333"/>
			<feComposite in2="hardAlpha" operator="arithmetic" k2="-1" k3="1"/>
			<feColorMatrix type="matrix" values="0 0 0 0 0 0 0 0 0 0 0 0 0 0 0 0 0 0 0.1 0"/>
			<feBlend mode="normal" in2="shape" result="effect_innerShadow_1"/>
		</filter>
		<clipPath id="clip2092_2131">
			<rect id="Frame" rx="-0.109170" width="18.231661" height="18.231661" transform="translate(11.178994 11.179482)" fill="white" fill-opacity="0"/>
		</clipPath>
		<linearGradient x1="3.446503" y1="2.685595" x2="33.883179" y2="41.000008" id="paint_linear_2092_2128_0" gradientUnits="userSpaceOnUse">
			<stop stop-color="#FBFBFC"/>
			<stop offset="1.000000" stop-color="#DBDDE8"/>
		</linearGradient>
		<linearGradient x1="22.072145" y1="38.476921" x2="9.015219" y2="20.500008" id="paint_linear_2092_2129_0" gradientUnits="userSpaceOnUse">
			<stop stop-color="#006699"/>
			<stop offset="1.000000" stop-color="#058CCF"/>
		</linearGradient>
		<linearGradient x1="22.550079" y1="36.490070" x2="8.405067" y2="5.330081" id="paint_linear_2092_2130_0" gradientUnits="userSpaceOnUse">
			<stop stop-color="#006699"/>
			<stop offset="1.000000" stop-color="#058CCF"/>
		</linearGradient>
	</defs>
	<rect id="Rectangle 1698" rx="14.000000" width="41.000000" height="41.000000" fill="url(#paint_linear_2092_2128_0)" fill-opacity="1.000000"/>
	<g opacity="0.250000" filter="url(#filter_2092_2129_dd)">
		<rect id="Rectangle 1700" x="6.176758" y="20.500000" rx="8.728167" width="27.930130" height="17.456333" fill="url(#paint_linear_2092_2129_0)" fill-opacity="1.000000"/>
	</g>
	<rect id="Rectangle 1699" x="5.330078" y="5.330078" rx="15.128820" width="30.257641" height="30.257641" fill="url(#paint_linear_2092_2130_0)" fill-opacity="1.000000"/>
	<g filter="url(#filter_2092_2131_dd)">
		<g clip-path="url(#clip2092_2131)">
			<path id="Vector" d="M15.86 27.73L15.86 17.59L12.49 17.59L12.49 27.73L15.86 27.73L15.86 27.73ZM14.18 16.21C15.35 16.21 16.08 15.43 16.08 14.46C16.06 13.46 15.35 12.71 14.2 12.71C13.05 12.71 12.29 13.46 12.29 14.46C12.29 15.43 13.03 16.21 14.16 16.21L14.18 16.21L14.18 16.21ZM17.73 27.73L21.09 27.73L21.09 22.07C21.09 21.77 21.11 21.47 21.2 21.25C21.45 20.64 22 20.02 22.93 20.02C24.15 20.02 24.64 20.95 24.64 22.31L24.64 27.73L28 27.73L28 21.92C28 18.8 26.34 17.36 24.13 17.36C22.31 17.36 21.51 18.37 21.07 19.06L21.09 19.06L21.09 17.59L17.73 17.59C17.77 18.54 17.73 27.73 17.73 27.73L17.73 27.73Z" fill="#FFFFFF" fill-opacity="1.000000" fill-rule="nonzero"/>
		</g>
	</g>
</svg>
