<svg width="41.000000" height="43.416016" viewBox="0 0 41 43.416" fill="none" xmlns="http://www.w3.org/2000/svg" xmlns:xlink="http://www.w3.org/1999/xlink">
	<desc>
			Created with Pixso.
	</desc>
	<defs>
		<filter id="filter_2048_3877_dd" x="0.716797" y="15.040039" width="38.850098" height="28.375977" filterUnits="userSpaceOnUse" color-interpolation-filters="sRGB">
			<feFlood flood-opacity="0" result="BackgroundImageFix"/>
			<feBlend mode="normal" in="SourceGraphic" in2="BackgroundImageFix" result="shape"/>
			<feGaussianBlur stdDeviation="1.82" result="effect_layerBlur_1"/>
		</filter>
		<filter id="filter_2048_3879_dd" x="11.069824" y="11.070312" width="18.450195" height="18.450195" filterUnits="userSpaceOnUse" color-interpolation-filters="sRGB">
			<feFlood flood-opacity="0" result="BackgroundImageFix"/>
			<feBlend mode="normal" in="SourceGraphic" in2="BackgroundImageFix" result="shape"/>
			<feColorMatrix in="SourceAlpha" type="matrix" values="0 0 0 0 0 0 0 0 0 0 0 0 0 0 0 0 0 0 127 0" result="hardAlpha"/>
			<feOffset dx="0" dy="0.5"/>
			<feGaussianBlur stdDeviation="0.833333"/>
			<feComposite in2="hardAlpha" operator="arithmetic" k2="-1" k3="1"/>
			<feColorMatrix type="matrix" values="0 0 0 0 0 0 0 0 0 0 0 0 0 0 0 0 0 0 0.1 0"/>
			<feBlend mode="normal" in2="shape" result="effect_innerShadow_1"/>
		</filter>
		<clipPath id="clip2048_3879">
			<rect id="Frame" rx="-0.109170" width="18.231661" height="18.231661" transform="translate(11.178994 11.179482)" fill="white" fill-opacity="0"/>
		</clipPath>
		<linearGradient x1="3.446503" y1="2.685595" x2="33.883179" y2="41.000008" id="paint_linear_2048_3876_0" gradientUnits="userSpaceOnUse">
			<stop stop-color="#FBFBFC"/>
			<stop offset="1.000000" stop-color="#DBDDE8"/>
		</linearGradient>
		<linearGradient x1="8.636760" y1="21.800961" x2="31.912140" y2="37.530766" id="paint_linear_2048_3877_0" gradientUnits="userSpaceOnUse">
			<stop stop-color="#0088CC"/>
			<stop offset="1.000000" stop-color="#0083C5"/>
		</linearGradient>
		<linearGradient x1="7.995073" y1="7.585079" x2="33.210075" y2="34.850079" id="paint_linear_2048_3878_0" gradientUnits="userSpaceOnUse">
			<stop stop-color="#0088CC"/>
			<stop offset="1.000000" stop-color="#0083C5"/>
		</linearGradient>
	</defs>
	<rect id="Rectangle 1698" rx="14.000000" width="41.000000" height="41.000000" fill="url(#paint_linear_2048_3876_0)" fill-opacity="1.000000"/>
	<g opacity="0.250000" filter="url(#filter_2048_3877_dd)">
		<rect id="Rectangle 1700" x="6.176758" y="20.500000" rx="8.728167" width="27.930130" height="17.456333" fill="url(#paint_linear_2048_3877_0)" fill-opacity="1.000000"/>
	</g>
	<rect id="Rectangle 1699" x="5.330078" y="5.330078" rx="15.128820" width="30.257641" height="30.257641" fill="url(#paint_linear_2048_3878_0)" fill-opacity="1.000000"/>
	<g filter="url(#filter_2048_3879_dd)">
		<g clip-path="url(#clip2048_3879)">
			<path id="Vector" d="M13.3 19.5C13.3 19.5 20.55 16.28 23.07 15.15C24.03 14.69 27.3 13.24 27.3 13.24C27.3 13.24 28.81 12.61 28.69 14.15C28.65 14.79 28.31 17 27.97 19.41C27.47 22.8 26.93 26.52 26.93 26.52C26.93 26.52 26.84 27.56 26.13 27.74C25.42 27.92 24.24 27.11 24.03 26.93C23.87 26.79 20.89 24.75 19.8 23.76C19.51 23.48 19.17 22.94 19.84 22.31C21.35 20.81 23.15 18.95 24.24 17.78C24.75 17.23 25.25 15.96 23.15 17.5C20.18 19.72 17.24 21.81 17.24 21.81C17.24 21.81 16.57 22.26 15.31 21.85C14.06 21.45 12.59 20.9 12.59 20.9C12.59 20.9 11.58 20.22 13.3 19.5Z" fill="#FFFFFF" fill-opacity="1.000000" fill-rule="nonzero"/>
		</g>
	</g>
</svg>
