<svg width="48.000000" height="48.000000" viewBox="0 0 48 48" fill="none" xmlns="http://www.w3.org/2000/svg" xmlns:xlink="http://www.w3.org/1999/xlink">
	<desc>
			Created with Pixso.
	</desc>
	<defs/>
	<mask id="mask_2064_3988" fill="white">
		<path id="Subtract" d="M18.283 18.404C16.8706 19.8467 16 21.8217 16 24C16 28.4183 19.5818 32 24 32C26.1782 32 28.1533 31.1294 29.5959 29.7171L18.283 18.404ZM31.3303 27.2089C31.761 26.2266 32 25.1412 32 24C32 19.5817 28.4182 16 24 16C22.8589 16 21.7734 16.239 20.791 16.6696L31.3303 27.2089Z" clip-rule="evenodd" fill="" fill-opacity="1.000000" fill-rule="evenodd"/>
	</mask>
	<path id="Subtract" d="M18.283 18.404C16.8706 19.8467 16 21.8217 16 24C16 28.4183 19.5818 32 24 32C26.1782 32 28.1533 31.1294 29.5959 29.7171L18.283 18.404ZM31.3303 27.2089C31.761 26.2266 32 25.1412 32 24C32 19.5817 28.4182 16 24 16C22.8589 16 21.7734 16.239 20.791 16.6696L31.3303 27.2089Z" clip-rule="evenodd" fill="#0B0C2B" fill-opacity="1.000000" fill-rule="evenodd" mask="url(#mask_2064_3988)"/>
	<path id="Subtract" d="M31.7622 25.9436C31.6531 26.3807 31.508 26.8036 31.3303 27.2089L30.4071 26.2857L21.7144 17.593L20.791 16.6696C21.1964 16.4919 21.6193 16.3469 22.0564 16.2378C22.6786 16.0824 23.3297 16 24 16C28.4182 16 32 19.5817 32 24C32 24.6703 31.9175 25.3214 31.7622 25.9436ZM30.7393 24.9207Q30.8 24.4675 30.8 24Q30.8 23.2206 30.6308 22.48Q30.4994 21.9051 30.2661 21.3535Q30.0265 20.787 29.6951 20.2805Q29.3128 19.6961 28.8083 19.1917Q28.3041 18.6874 27.7201 18.3052Q27.2133 17.9736 26.6465 17.7339Q26.0954 17.5008 25.5211 17.3695Q24.7799 17.2 24 17.2Q23.5326 17.2 23.0794 17.2608L30.7393 24.9207ZM17.5071 19.3254C17.7426 18.9989 18.0021 18.6909 18.283 18.404L19.1315 19.2526L28.7474 28.8686L29.5959 29.7171C29.309 29.998 29.001 30.2575 28.6746 30.4929C27.3596 31.4412 25.745 32 24 32C19.5818 32 16 28.4183 16 24C16 22.2549 16.5587 20.6403 17.5071 19.3254ZM18.3679 20.1861Q18.3202 20.2563 18.2744 20.3277Q17.9523 20.8289 17.7195 21.3875Q17.4938 21.9293 17.3662 22.4933Q17.2 23.2278 17.2 24Q17.2 24.7794 17.3692 25.52Q17.5006 26.0949 17.7339 26.6465Q17.9735 27.213 18.3049 27.7195Q18.6872 28.3039 19.1917 28.8083Q19.6959 29.3126 20.2799 29.6948Q20.7867 30.0264 21.3535 30.2661Q21.9046 30.4992 22.4789 30.6305Q23.2201 30.8 24 30.8Q24.7711 30.8 25.5046 30.6342Q26.0697 30.5065 26.6125 30.2804Q27.1686 30.0488 27.6678 29.7286Q27.7414 29.6813 27.8138 29.6322L18.3679 20.1861Z" clip-rule="evenodd" fill="#E5E5E8" fill-opacity="1.000000" fill-rule="evenodd"/>
	<path id="Subtract" d="M14.96 15.0813C10.6357 17.9508 7.45532 21.9978 6.38916 23.4526C6.14893 23.7802 6.14893 24.2198 6.38916 24.5474C8.11035 26.896 15.3413 36 24 36C27.2349 36 30.2705 34.7294 32.8938 33.0151L14.96 15.0813ZM35.3352 31.2138C38.4778 28.6291 40.7439 25.7307 41.6111 24.5474C41.8513 24.2198 41.8513 23.7802 41.6111 23.4526C39.8899 21.104 32.6589 12 24 12C21.7695 12 19.6338 12.6041 17.6626 13.5412L35.3352 31.2138Z" clip-rule="evenodd" fill="#6B34FA" fill-opacity="1.000000" fill-rule="evenodd"/>
	<mask id="mask_2064_3994" fill="white">
		<path id="Subtract" d="M18.283 18.404C16.8706 19.8467 16 21.8217 16 24C16 28.4183 19.5818 32 24 32C26.1782 32 28.1533 31.1294 29.5959 29.7171L18.283 18.404ZM31.3303 27.2089C31.761 26.2266 32 25.1412 32 24C32 19.5817 28.4182 16 24 16C22.8589 16 21.7734 16.239 20.791 16.6696L31.3303 27.2089Z" clip-rule="evenodd" fill="" fill-opacity="1.000000" fill-rule="evenodd"/>
	</mask>
	<path id="Subtract" d="M18.283 18.404C16.8706 19.8467 16 21.8217 16 24C16 28.4183 19.5818 32 24 32C26.1782 32 28.1533 31.1294 29.5959 29.7171L18.283 18.404ZM31.3303 27.2089C31.761 26.2266 32 25.1412 32 24C32 19.5817 28.4182 16 24 16C22.8589 16 21.7734 16.239 20.791 16.6696L31.3303 27.2089Z" clip-rule="evenodd" fill="#0B0C2B" fill-opacity="1.000000" fill-rule="evenodd" mask="url(#mask_2064_3994)"/>
	<path id="Subtract" d="M31.3303 27.2089C31.6346 26.515 31.8431 25.7696 31.9394 24.9895C31.9794 24.6653 32 24.335 32 24C32 19.5817 28.4182 16 24 16C23.665 16 23.3348 16.0206 23.0105 16.0606C22.2304 16.1568 21.485 16.3654 20.791 16.6696L22.3498 18.2284L29.7716 25.6502L31.3303 27.2089ZM29.9117 22.9617Q29.8835 22.7994 29.8463 22.6392Q29.7311 22.1422 29.5293 21.6651Q29.3201 21.1706 29.0316 20.7278Q28.6921 20.2068 28.2427 19.7574Q27.7912 19.306 27.2677 18.9655Q26.8269 18.6788 26.335 18.4707Q25.8564 18.2683 25.3576 18.1529Q25.199 18.1162 25.0383 18.0883L29.9117 22.9617ZM17.063 20.0126C17.4013 19.4253 17.812 18.8851 18.283 18.404L29.5959 29.7171C29.1149 30.188 28.5746 30.5987 27.9874 30.937C26.8135 31.6132 25.4519 32 24 32C19.5818 32 16 28.4183 16 24C16 22.548 16.3868 21.1864 17.063 20.0126ZM18.5455 21.4951Q18.5001 21.5941 18.458 21.6952Q18.2632 22.163 18.1512 22.6498Q18 23.3075 18 24Q18 24.6982 18.1537 25.3608Q18.2689 25.8578 18.4707 26.3349Q18.6799 26.8294 18.9684 27.2722Q19.3079 27.7932 19.7573 28.2426Q20.2088 28.694 20.7323 29.0345Q21.1731 29.3212 21.665 29.5293Q22.1436 29.7317 22.6424 29.8471Q23.3035 30 24 30Q24.6917 30 25.3487 29.8491Q25.8364 29.7371 26.3049 29.5419Q26.4059 29.4998 26.5048 29.4544L18.5455 21.4951Z" clip-rule="evenodd" fill="#E5E5E8" fill-opacity="1.000000" fill-rule="evenodd"/>
	<path id="Vector 116" d="M16 10L40 34" stroke="#E5E5E8" stroke-opacity="1.000000" stroke-width="2.000000"/>
	<circle id="Ellipse 47" cx="40.000000" cy="17.000000" r="5.250000" fill="#FF0B0B" fill-opacity="1.000000"/>
	<path id="Vector 8" d="M37.66 17L42.33 17" stroke="#FFFFFF" stroke-opacity="1.000000" stroke-width="1.200000"/>
</svg>
