<svg width="48.000000" height="48.000000" viewBox="0 0 48 48" fill="none" xmlns="http://www.w3.org/2000/svg" xmlns:xlink="http://www.w3.org/1999/xlink">
	<desc>
			Created with Pixso.
	</desc>
	<defs/>
	<path id="Subtract" d="M9.20166 30.0828C10.4141 33.0361 12.5166 35.657 15.4131 37.496C18.7891 39.6451 22.9697 40.5397 27.1943 39.6743C31.1162 38.8757 34.7451 36.6161 37.1836 33.0593C39.4507 29.7611 40.4927 25.615 39.7769 21.3622C39.1172 17.4147 36.9873 13.7082 33.519 11.1454C30.4272 8.85568 26.5132 7.66965 22.4165 8.07916C22.1416 8.10663 21.9487 8.35852 21.9849 8.63232L22.5112 12.6479L25.3833 23.3657L25.4028 23.445L25.4033 23.4467L25.4126 23.5278L25.4561 23.9863L25.4624 24.293L25.4614 24.299L25.3281 24.5754L25.1626 24.8618L24.9902 25.1153L24.9854 25.1195L24.7168 25.2673L24.2979 25.4586L24.2227 25.4911L24.2212 25.4916L24.1426 25.5144L9.53223 29.4292C9.24805 29.5055 9.08984 29.8103 9.20166 30.0828Z" clip-rule="evenodd" fill="#6B34FA" fill-opacity="1.000000" fill-rule="evenodd"/>
	<path id="Ellipse 52" d="M18.34 4.81C15.02 5.79 12.14 7.56 9.85 9.85C7.28 12.43 5.55 15.53 4.68 18.82C3.78 22.16 3.79 25.54 4.55 28.69C4.62 28.96 4.89 29.11 5.16 29.04L23.04 24.25L23.81 23.9L23.82 23.88L23.74 23.04L18.95 5.16C18.88 4.89 18.6 4.73 18.34 4.81Z" fill="#FFFFFF" fill-opacity="1.000000" fill-rule="evenodd"/>
	<path id="Ellipse 52" d="M9.85 9.85C7.28 12.43 5.55 15.53 4.68 18.82C3.78 22.16 3.79 25.54 4.55 28.69C4.62 28.96 4.89 29.11 5.16 29.04L23.04 24.25L23.81 23.9L23.82 23.88L23.74 23.04L18.95 5.16C18.88 4.89 18.6 4.73 18.34 4.81C15.02 5.79 12.14 7.56 9.85 9.85Z" stroke="#FFFFFF" stroke-opacity="1.000000" stroke-width="1.200000"/>
	<circle id="Ellipse 47" cx="39.000000" cy="17.000000" r="5.250000" fill="#FF0B0B" fill-opacity="1.000000"/>
	<path id="Vector 8" d="M36.66 17L41.33 17" stroke="#FFFFFF" stroke-opacity="1.000000" stroke-width="1.200000"/>
</svg>
