<svg width="48.000000" height="48.000000" viewBox="0 0 48 48" fill="none" xmlns="http://www.w3.org/2000/svg" xmlns:xlink="http://www.w3.org/1999/xlink">
	<desc>
			Created with Pixso.
	</desc>
	<defs/>
	<path id="Vector 57" d="M30 18L30 13.17C30 11.63 30 10.86 30.34 10.21C30.35 10.19 30.35 10.18 30.36 10.16C30.72 9.51 31.36 9.09 32.64 8.23L36 6L9.95 6C8.11 6 7.18 6 6.6 6.56C6.59 6.57 6.57 6.59 6.56 6.6C6 7.18 6 8.11 6 9.96L6 41.07L6.12 41.75L6.13 41.75L6.76 41.48L11.72 38.18L11.99 38.05L12 38.05L12.27 38.18L17.72 41.81L17.99 41.94L18 41.94L18.27 41.81L23.72 38.18L23.99 38.05L24 38.05L24.27 38.18L29.23 41.48L29.86 41.75L29.87 41.75L30 41.07L30 18Z" fill="#6B34FA" fill-opacity="1.000000" fill-rule="evenodd"/>
	<path id="Rectangle 4117" d="M30 9C30 7.34 31.34 6 33 6L39 6C40.65 6 42 7.34 42 9L42 17C42 17.55 41.55 18 41 18L30.5 18C30.22 18 30 17.77 30 17.5L30 9Z" fill="#FFFFFF" fill-opacity="1.000000" fill-rule="nonzero"/>
	<path id="Rectangle 4117" d="M33 6C31.34 6 30 7.34 30 9L30 17.5C30 17.77 30.22 18 30.5 18L41 18C41.55 18 42 17.55 42 17L42 9C42 7.34 40.65 6 39 6L33 6ZM33 7L39 7Q39.23 7 39.46 7.05Q39.62 7.09 39.77 7.15Q39.94 7.22 40.08 7.32Q40.26 7.43 40.41 7.58Q40.56 7.73 40.67 7.91Q40.77 8.05 40.84 8.22Q40.9 8.37 40.94 8.53Q41 8.76 41 9L41 17L31 17L31 9Q31 8.76 31.05 8.53Q31.09 8.37 31.15 8.22Q31.22 8.05 31.32 7.91Q31.43 7.73 31.58 7.58Q31.73 7.43 31.91 7.32Q32.05 7.22 32.22 7.15Q32.37 7.09 32.53 7.05Q32.76 7 33 7Z" fill="#FFFFFF" fill-opacity="1.000000" fill-rule="evenodd"/>
	<path id="Vector 55" d="M11 18L25 18L25 20L11 20L11 18ZM11.02 19.98L11 20C10.43 20 10 19.56 10 19C10 18.44 10.43 18 11 18L11.02 18.02L11.02 19.98ZM24.98 18.02L25 18C25.56 18 26 18.44 26 19C26 19.56 25.56 20 25 20L24.98 19.98L24.98 18.02Z" fill="#FFFFFF" fill-opacity="1.000000" fill-rule="evenodd"/>
	<path id="Vector 56" d="M11 24L19 24L19 26L11 26L11 24ZM11.02 25.98L11 26C10.43 26 10 25.56 10 25C10 24.44 10.43 24 11 24L11.02 24.02L11.02 25.98ZM18.98 24.02L19 24C19.56 24 20 24.44 20 25C20 25.56 19.56 26 19 26L18.98 25.98L18.98 24.02Z" fill="#FFFFFF" fill-opacity="1.000000" fill-rule="evenodd"/>
	<path id="Vector 58" d="M11 30L23 30L23 32L11 32L11 30ZM11.02 31.98L11 32C10.43 32 10 31.56 10 31C10 30.44 10.43 30 11 30L11.02 30.02L11.02 31.98ZM22.98 30.02L23 30C23.56 30 24 30.44 24 31C24 31.56 23.56 32 23 32L22.98 31.98L22.98 30.02Z" fill="#FFFFFF" fill-opacity="1.000000" fill-rule="evenodd"/>
	<circle id="Ellipse 47" cx="41.000000" cy="17.000000" r="5.250000" fill="#FF0B0B" fill-opacity="1.000000"/>
	<path id="Vector 8" d="M38.66 17L43.33 17" stroke="#FFFFFF" stroke-opacity="1.000000" stroke-width="1.200000"/>
</svg>
