<svg width="48.000000" height="48.000000" viewBox="0 0 48 48" fill="none" xmlns="http://www.w3.org/2000/svg" xmlns:xlink="http://www.w3.org/1999/xlink">
	<desc>
			Created with Pixso.
	</desc>
	<defs/>
	<path id="Rectangle 1" d="M11.93 8L36.06 8C38.83 8 40.21 8 41.08 8.84C41.11 8.86 41.13 8.88 41.15 8.91C42 9.78 42 11.16 42 13.94L42 23.7L41.95 23.95L41.95 23.95L41.7 24L31.96 24C30.11 24 29.18 24 28.6 24.56C28.59 24.57 28.57 24.59 28.56 24.6C28 25.18 28 26.11 28 27.96L28 30.04C28 31.88 28 32.81 28.56 33.39C28.57 33.4 28.59 33.42 28.6 33.43C29.18 34 30.11 34 31.96 34L41.71 34L41.94 34.03L41.96 34.05L42 34.28C42 36.83 42 38.11 41.27 38.95C41.17 39.07 41.07 39.17 40.95 39.27C40.11 40 38.83 40 36.28 40L11.93 40C9.16 40 7.78 40 6.91 39.15C6.88 39.13 6.86 39.11 6.84 39.08C6 38.21 6 36.83 6 34.06L6 13.94C6 11.16 6 9.78 6.84 8.91C6.86 8.88 6.88 8.86 6.91 8.84C7.78 8 9.16 8 11.93 8Z" fill="#6B34FA" fill-opacity="1.000000" fill-rule="nonzero"/>
	<path id="Rectangle 4132" d="M28 26C28 24.89 28.89 24 30 24L41.85 24C41.93 24 42 24.06 42 24.15L42 33.84C42 33.93 41.93 34 41.85 34L30 34C28.89 34 28 33.1 28 32L28 26Z" fill="#FFFFFF" fill-opacity="1.000000" fill-rule="nonzero"/>
	<path id="Rectangle 4132" d="M30 24C28.89 24 28 24.89 28 26L28 32C28 33.1 28.89 34 30 34L41.85 34C41.93 34 42 33.93 42 33.84L42 24.15C42 24.06 41.93 24 41.85 24L30 24ZM41 25L30 25Q29.87 25 29.75 25.02Q29.68 25.04 29.61 25.07Q29.53 25.11 29.46 25.15Q29.37 25.21 29.29 25.29Q29.21 25.37 29.15 25.46Q29.11 25.53 29.07 25.61Q29.04 25.68 29.02 25.75Q29 25.87 29 26L29 32Q29 32.12 29.02 32.24Q29.04 32.31 29.07 32.38Q29.11 32.46 29.15 32.53Q29.21 32.62 29.29 32.7Q29.37 32.78 29.46 32.84Q29.53 32.88 29.61 32.92Q29.68 32.95 29.75 32.97Q29.87 33 30 33L41 33L41 25Z" fill="#FFFFFF" fill-opacity="1.000000" fill-rule="evenodd"/>
	<rect id="Rectangle 4133" x="12.000000" y="14.000000" rx="1.000000" width="12.000000" height="2.000000" fill="#FFFFFF" fill-opacity="1.000000"/>
	<rect id="Rectangle 4133" x="12.500000" y="14.500000" rx="0.500000" width="11.000000" height="1.000000" stroke="#FFFFFF" stroke-opacity="1.000000" stroke-width="1.000000"/>
	<circle id="Ellipse 47" cx="41.000000" cy="9.000000" r="5.250000" fill="#FF0B0B" fill-opacity="1.000000"/>
	<path id="Vector 8" d="M38.66 9L43.33 9" stroke="#FFFFFF" stroke-opacity="1.000000" stroke-width="1.200000"/>
</svg>
