<svg width="42.000000" height="42.000000" viewBox="0 0 42 42" fill="none" xmlns="http://www.w3.org/2000/svg" xmlns:xlink="http://www.w3.org/1999/xlink">
	<desc>
			Created with Pixso.
	</desc>
	<defs>
		<filter id="filter_2112_15986_dd" x="0.000000" y="0.000000" width="42.000000" height="42.000000" filterUnits="userSpaceOnUse" color-interpolation-filters="sRGB">
			<feFlood flood-opacity="0" result="BackgroundImageFix"/>
			<feBlend mode="normal" in="SourceGraphic" in2="BackgroundImageFix" result="shape"/>
			<feColorMatrix in="SourceAlpha" type="matrix" values="0 0 0 0 0 0 0 0 0 0 0 0 0 0 0 0 0 0 127 0" result="hardAlpha"/>
			<feOffset dx="0" dy="0"/>
			<feGaussianBlur stdDeviation="1.83333"/>
			<feComposite in2="hardAlpha" operator="arithmetic" k2="-1" k3="1"/>
			<feColorMatrix type="matrix" values="0 0 0 0 0.54118 0 0 0 0 0.31765 0 0 0 0 0.90196 0 0 0 1 0"/>
			<feBlend mode="normal" in2="shape" result="effect_innerShadow_1"/>
		</filter>
		<filter id="filter_2112_16096_dd" x="-10.158203" y="-21.597412" width="60.905762" height="53.192566" filterUnits="userSpaceOnUse" color-interpolation-filters="sRGB">
			<feFlood flood-opacity="0" result="BackgroundImageFix"/>
			<feBlend mode="normal" in="SourceGraphic" in2="BackgroundImageFix" result="shape"/>
			<feGaussianBlur stdDeviation="2.77667" result="effect_layerBlur_1"/>
		</filter>
		<filter id="filter_2112_16097_dd" x="-11.346680" y="-26.365723" width="62.737305" height="62.001160" filterUnits="userSpaceOnUse" color-interpolation-filters="sRGB">
			<feFlood flood-opacity="0" result="BackgroundImageFix"/>
			<feBlend mode="normal" in="SourceGraphic" in2="BackgroundImageFix" result="shape"/>
			<feGaussianBlur stdDeviation="2.77667" result="effect_layerBlur_1"/>
		</filter>
	</defs>
	<g filter="url(#filter_2112_15986_dd)">
		<circle id="Ellipse 223" cx="21.000000" cy="21.000000" r="21.000000" fill="#6B34FA" fill-opacity="0.100000"/>
	</g>
	<circle id="Ellipse 223" cx="21.000000" cy="21.000000" r="20.750000" stroke="#6B34FA" stroke-opacity="1.000000" stroke-width="0.500000"/>
	<mask id="mask2112_16092" mask-type="alpha" maskUnits="userSpaceOnUse" x="4.000000" y="4.000000" width="34.000000" height="34.000000">
		<path id="Vector" d="M21 4C30.38 4 38 11.61 38 21C38 30.38 30.38 38 21 38C11.61 38 4 30.38 4 21C4 11.61 11.61 4 21 4Z" fill="#FFFFFF" fill-opacity="1.000000" fill-rule="evenodd"/>
	</mask>
	<g mask="url(#mask2112_16092)">
		<path id="Vector" d="M4 4L38 4L38 38L4 38L4 4Z" fill="#805AED" fill-opacity="1.000000" fill-rule="evenodd"/>
		<g filter="url(#filter_2112_16096_dd)">
			<path id="Vector" d="M39.41 11.46L42.41 -0.75L38.34 -13.27L-1.83 -0.22L5.3 21.72L14.48 23.26L26.3 7.5L39.41 11.46Z" fill="#A459E8" fill-opacity="1.000000" fill-rule="nonzero"/>
		</g>
		<g filter="url(#filter_2112_16097_dd)" style="mix-blend-mode:multiply">
			<path id="Vector" d="M26.3 27.3L43.06 18.51L42.08 -5.66L6.13 -18.04L-3.02 16.07L10.38 17.92L6.75 4.11L25 -7.1L26.3 27.3Z" fill="#060A23" fill-opacity="0.520000" fill-rule="nonzero"/>
		</g>
	</g>
</svg>
