<svg width="1060.902344" height="831.224121" viewBox="0 0 1060.9 831.224" fill="none" xmlns="http://www.w3.org/2000/svg" xmlns:xlink="http://www.w3.org/1999/xlink">
	<desc>
			Created with Pixso.
	</desc>
	<defs>
		<filter id="filter_2090_1709_dd" x="0.000000" y="0.000000" width="1060.902344" height="831.224121" filterUnits="userSpaceOnUse" color-interpolation-filters="sRGB">
			<feFlood flood-opacity="0" result="BackgroundImageFix"/>
			<feColorMatrix in="SourceAlpha" type="matrix" values="0 0 0 0 0 0 0 0 0 0 0 0 0 0 0 0 0 0 127 0" result="hardAlpha"/>
			<feOffset dx="0" dy="21.5951"/>
			<feGaussianBlur stdDeviation="0"/>
			<feComposite in2="hardAlpha" operator="out" k2="-1" k3="1"/>
			<feColorMatrix type="matrix" values="0 0 0 0 0.39608 0 0 0 0 0.18431 0 0 0 0 1 0 0 0 0.12 0"/>
			<feBlend mode="normal" in2="BackgroundImageFix" result="effect_dropShadow_1"/>
			<feColorMatrix in="SourceAlpha" type="matrix" values="0 0 0 0 0 0 0 0 0 0 0 0 0 0 0 0 0 0 127 0" result="hardAlpha"/>
			<feOffset dx="0" dy="44.6373"/>
			<feGaussianBlur stdDeviation="0"/>
			<feComposite in2="hardAlpha" operator="out" k2="-1" k3="1"/>
			<feColorMatrix type="matrix" values="0 0 0 0 0.39608 0 0 0 0 0.18431 0 0 0 0 1 0 0 0 0.18 0"/>
			<feBlend mode="normal" in2="effect_dropShadow_1" result="effect_dropShadow_2"/>
			<feColorMatrix in="SourceAlpha" type="matrix" values="0 0 0 0 0 0 0 0 0 0 0 0 0 0 0 0 0 0 127 0" result="hardAlpha"/>
			<feOffset dx="0" dy="69.5995"/>
			<feGaussianBlur stdDeviation="0.278594"/>
			<feComposite in2="hardAlpha" operator="out" k2="-1" k3="1"/>
			<feColorMatrix type="matrix" values="0 0 0 0 0.39608 0 0 0 0 0.18431 0 0 0 0 1 0 0 0 0.22 0"/>
			<feBlend mode="normal" in2="effect_dropShadow_2" result="effect_dropShadow_3"/>
			<feColorMatrix in="SourceAlpha" type="matrix" values="0 0 0 0 0 0 0 0 0 0 0 0 0 0 0 0 0 0 127 0" result="hardAlpha"/>
			<feOffset dx="0" dy="97.1981"/>
			<feGaussianBlur stdDeviation="2.06401"/>
			<feComposite in2="hardAlpha" operator="out" k2="-1" k3="1"/>
			<feColorMatrix type="matrix" values="0 0 0 0 0.39608 0 0 0 0 0.18431 0 0 0 0 1 0 0 0 0.25 0"/>
			<feBlend mode="normal" in2="effect_dropShadow_3" result="effect_dropShadow_4"/>
			<feColorMatrix in="SourceAlpha" type="matrix" values="0 0 0 0 0 0 0 0 0 0 0 0 0 0 0 0 0 0 127 0" result="hardAlpha"/>
			<feOffset dx="0" dy="128.489"/>
			<feGaussianBlur stdDeviation="5.53305"/>
			<feComposite in2="hardAlpha" operator="out" k2="-1" k3="1"/>
			<feColorMatrix type="matrix" values="0 0 0 0 0.39608 0 0 0 0 0.18431 0 0 0 0 1 0 0 0 0.29 0"/>
			<feBlend mode="normal" in2="effect_dropShadow_4" result="effect_dropShadow_5"/>
			<feColorMatrix in="SourceAlpha" type="matrix" values="0 0 0 0 0 0 0 0 0 0 0 0 0 0 0 0 0 0 127 0" result="hardAlpha"/>
			<feOffset dx="0" dy="164.608"/>
			<feGaussianBlur stdDeviation="11.9331"/>
			<feComposite in2="hardAlpha" operator="out" k2="-1" k3="1"/>
			<feColorMatrix type="matrix" values="0 0 0 0 0.39608 0 0 0 0 0.18431 0 0 0 0 1 0 0 0 0.33 0"/>
			<feBlend mode="normal" in2="effect_dropShadow_5" result="effect_dropShadow_6"/>
			<feColorMatrix in="SourceAlpha" type="matrix" values="0 0 0 0 0 0 0 0 0 0 0 0 0 0 0 0 0 0 127 0" result="hardAlpha"/>
			<feOffset dx="0" dy="204.64"/>
			<feGaussianBlur stdDeviation="24.2543"/>
			<feComposite in2="hardAlpha" operator="out" k2="-1" k3="1"/>
			<feColorMatrix type="matrix" values="0 0 0 0 0.39608 0 0 0 0 0.18431 0 0 0 0 1 0 0 0 0.39 0"/>
			<feBlend mode="normal" in2="effect_dropShadow_6" result="effect_dropShadow_7"/>
			<feColorMatrix in="SourceAlpha" type="matrix" values="0 0 0 0 0 0 0 0 0 0 0 0 0 0 0 0 0 0 127 0" result="hardAlpha"/>
			<feOffset dx="0" dy="243"/>
			<feGaussianBlur stdDeviation="52.3333"/>
			<feComposite in2="hardAlpha" operator="out" k2="-1" k3="1"/>
			<feColorMatrix type="matrix" values="0 0 0 0 0.39608 0 0 0 0 0.18431 0 0 0 0 1 0 0 0 0.51 0"/>
			<feBlend mode="normal" in2="effect_dropShadow_7" result="effect_dropShadow_8"/>
			<feBlend mode="normal" in="SourceGraphic" in2="effect_dropShadow_8" result="shape"/>
		</filter>
	</defs>
	<g filter="url(#filter_2090_1709_dd)">
		<path id="Union" d="M496.082 102.833L529.734 83.4043L696.191 179.508L662.539 198.937L627.401 178.65L455.998 277.61L423.062 258.595L594.465 159.635L496.082 102.833Z" clip-rule="evenodd" fill="#060A23" fill-opacity="1.000000" fill-rule="evenodd"/>
		<mask id="mask2090_1718" mask-type="alpha" maskUnits="userSpaceOnUse" x="185.569336" y="0.000000" width="541.058105" height="341.717285">
			<path id="Vector" d="M530.45 14.66L726.62 127.93L381.74 327.04L185.57 213.78L530.45 14.66Z" fill="#000000" fill-opacity="1.000000" fill-rule="nonzero"/>
		</mask>
		<g mask="url(#mask2090_1718)">
			<path id="Vector" d="M334.05 235.58C323.22 199.83 341.64 161.7 389.36 134.15C467.15 89.24 593.74 89.24 671.53 134.15C677.1 137.36 682.29 140.73 687.04 144.22L720.17 125.09C715.25 121.65 710.01 118.33 704.47 115.14C680.98 101.57 653.58 91.07 623.05 83.91C593.55 77.02 562.39 73.51 530.45 73.51C498.5 73.51 467.34 77.02 437.85 83.91C407.31 91.07 379.91 101.57 356.42 115.14C332.93 128.7 314.76 144.5 302.35 162.14C290.4 179.18 284.35 197.15 284.32 215.61C284.32 234.05 290.4 252.04 302.35 269.07C306.1 274.38 310.36 279.55 315.15 284.52L493.88 181.33L460.94 162.32L334.05 235.58Z" fill="#060A23" fill-opacity="1.000000" fill-rule="nonzero"/>
		</g>
		<mask id="mask2090_1723" mask-type="alpha" maskUnits="userSpaceOnUse" x="334.270508" y="89.444336" width="541.156738" height="341.779785">
			<path id="Vector" d="M679.25 104.11L875.42 217.37L530.44 416.55L334.27 303.29L679.25 104.11Z" fill="#000000" fill-opacity="1.000000" fill-rule="nonzero"/>
		</mask>
		<g mask="url(#mask2090_1723)">
			<path id="Vector" d="M758.54 269.07C770.49 252.04 776.57 234.05 776.57 215.61C776.54 197.15 770.49 179.18 758.54 162.14C754.81 156.82 750.53 151.67 745.73 146.67L566.99 249.87L599.95 268.9L726.87 195.62C737.7 231.37 719.25 269.51 671.53 297.06C593.74 341.97 467.17 341.96 389.38 297.05C383.82 293.84 378.62 290.47 373.85 287L340.72 306.13C345.66 309.55 350.88 312.88 356.42 316.08C379.91 329.64 407.31 340.15 437.84 347.3C467.34 354.19 498.47 357.69 530.44 357.71C562.41 357.69 593.54 354.19 623.04 347.3C653.6 340.13 680.98 329.64 704.47 316.08C727.96 302.52 746.15 286.7 758.54 269.07Z" fill="#060A23" fill-opacity="1.000000" fill-rule="nonzero"/>
		</g>
	</g>
</svg>
