<svg width="372.000000" height="376.000000" viewBox="0 0 372 376" fill="none" xmlns="http://www.w3.org/2000/svg" xmlns:xlink="http://www.w3.org/1999/xlink">
	<desc>
			Created with Pixso.
	</desc>
	<defs>
		<filter id="filter_2118_1816_dd" x="0.000000" y="0.000000" width="372.000000" height="376.000000" filterUnits="userSpaceOnUse" color-interpolation-filters="sRGB">
			<feFlood flood-opacity="0" result="BackgroundImageFix"/>
			<feBlend mode="normal" in="SourceGraphic" in2="BackgroundImageFix" result="shape"/>
			<feColorMatrix in="SourceAlpha" type="matrix" values="0 0 0 0 0 0 0 0 0 0 0 0 0 0 0 0 0 0 127 0" result="hardAlpha"/>
			<feOffset dx="0" dy="0"/>
			<feGaussianBlur stdDeviation="13.9"/>
			<feComposite in2="hardAlpha" operator="arithmetic" k2="-1" k3="1"/>
			<feColorMatrix type="matrix" values="0 0 0 0 0.098039 0 0 0 0 0.11765 0 0 0 0 0.21961 0 0 0 0.4 0"/>
			<feBlend mode="normal" in2="shape" result="effect_innerShadow_1"/>
		</filter>
		<filter id="filter_2118_1822_dd" x="-354.654297" y="-443.654480" width="1081.308594" height="1081.308960" filterUnits="userSpaceOnUse" color-interpolation-filters="sRGB">
			<feFlood flood-opacity="0" result="BackgroundImageFix"/>
			<feColorMatrix in="SourceAlpha" type="matrix" values="0 0 0 0 0 0 0 0 0 0 0 0 0 0 0 0 0 0 127 0" result="hardAlpha"/>
			<feOffset dx="0" dy="0"/>
			<feGaussianBlur stdDeviation="3.18773"/>
			<feComposite in2="hardAlpha" operator="out" k2="-1" k3="1"/>
			<feColorMatrix type="matrix" values="0 0 0 0 0.15294 0 0 0 0 0.16078 0 0 0 0 0.30588 0 0 0 1 0"/>
			<feBlend mode="normal" in2="BackgroundImageFix" result="effect_dropShadow_1"/>
			<feColorMatrix in="SourceAlpha" type="matrix" values="0 0 0 0 0 0 0 0 0 0 0 0 0 0 0 0 0 0 127 0" result="hardAlpha"/>
			<feOffset dx="0" dy="0"/>
			<feGaussianBlur stdDeviation="6.37547"/>
			<feComposite in2="hardAlpha" operator="out" k2="-1" k3="1"/>
			<feColorMatrix type="matrix" values="0 0 0 0 0.15294 0 0 0 0 0.16078 0 0 0 0 0.30588 0 0 0 1 0"/>
			<feBlend mode="normal" in2="effect_dropShadow_1" result="effect_dropShadow_2"/>
			<feColorMatrix in="SourceAlpha" type="matrix" values="0 0 0 0 0 0 0 0 0 0 0 0 0 0 0 0 0 0 127 0" result="hardAlpha"/>
			<feOffset dx="0" dy="0"/>
			<feGaussianBlur stdDeviation="22.3141"/>
			<feComposite in2="hardAlpha" operator="out" k2="-1" k3="1"/>
			<feColorMatrix type="matrix" values="0 0 0 0 0.15294 0 0 0 0 0.16078 0 0 0 0 0.30588 0 0 0 1 0"/>
			<feBlend mode="normal" in2="effect_dropShadow_2" result="effect_dropShadow_3"/>
			<feColorMatrix in="SourceAlpha" type="matrix" values="0 0 0 0 0 0 0 0 0 0 0 0 0 0 0 0 0 0 127 0" result="hardAlpha"/>
			<feOffset dx="0" dy="0"/>
			<feGaussianBlur stdDeviation="44.6283"/>
			<feComposite in2="hardAlpha" operator="out" k2="-1" k3="1"/>
			<feColorMatrix type="matrix" values="0 0 0 0 0.15294 0 0 0 0 0.16078 0 0 0 0 0.30588 0 0 0 1 0"/>
			<feBlend mode="normal" in2="effect_dropShadow_3" result="effect_dropShadow_4"/>
			<feColorMatrix in="SourceAlpha" type="matrix" values="0 0 0 0 0 0 0 0 0 0 0 0 0 0 0 0 0 0 127 0" result="hardAlpha"/>
			<feOffset dx="0" dy="0"/>
			<feGaussianBlur stdDeviation="76.5056"/>
			<feComposite in2="hardAlpha" operator="out" k2="-1" k3="1"/>
			<feColorMatrix type="matrix" values="0 0 0 0 0.15294 0 0 0 0 0.16078 0 0 0 0 0.30588 0 0 0 1 0"/>
			<feBlend mode="normal" in2="effect_dropShadow_4" result="effect_dropShadow_5"/>
			<feColorMatrix in="SourceAlpha" type="matrix" values="0 0 0 0 0 0 0 0 0 0 0 0 0 0 0 0 0 0 127 0" result="hardAlpha"/>
			<feOffset dx="0" dy="0"/>
			<feGaussianBlur stdDeviation="133.885"/>
			<feComposite in2="hardAlpha" operator="out" k2="-1" k3="1"/>
			<feColorMatrix type="matrix" values="0 0 0 0 0.15294 0 0 0 0 0.16078 0 0 0 0 0.30588 0 0 0 1 0"/>
			<feBlend mode="normal" in2="effect_dropShadow_5" result="effect_dropShadow_6"/>
			<feBlend mode="normal" in="SourceGraphic" in2="effect_dropShadow_6" result="shape"/>
		</filter>
		<filter id="filter_2118_1819_dd" x="108.000000" y="19.000000" width="156.000000" height="156.000000" filterUnits="userSpaceOnUse" color-interpolation-filters="sRGB">
			<feFlood flood-opacity="0" result="BackgroundImageFix"/>
			<feBlend mode="normal" in="SourceGraphic" in2="BackgroundImageFix" result="shape"/>
			<feColorMatrix in="SourceAlpha" type="matrix" values="0 0 0 0 0 0 0 0 0 0 0 0 0 0 0 0 0 0 127 0" result="hardAlpha"/>
			<feOffset dx="0" dy="0"/>
			<feGaussianBlur stdDeviation="13.9"/>
			<feComposite in2="hardAlpha" operator="arithmetic" k2="-1" k3="1"/>
			<feColorMatrix type="matrix" values="0 0 0 0 0.098039 0 0 0 0 0.11765 0 0 0 0 0.21961 0 0 0 0.4 0"/>
			<feBlend mode="normal" in2="shape" result="effect_innerShadow_1"/>
		</filter>
		<filter id="filter_2118_1818_dd" x="132.000000" y="43.000000" width="108.000000" height="108.000000" filterUnits="userSpaceOnUse" color-interpolation-filters="sRGB">
			<feFlood flood-opacity="0" result="BackgroundImageFix"/>
			<feBlend mode="normal" in="SourceGraphic" in2="BackgroundImageFix" result="shape"/>
			<feColorMatrix in="SourceAlpha" type="matrix" values="0 0 0 0 0 0 0 0 0 0 0 0 0 0 0 0 0 0 127 0" result="hardAlpha"/>
			<feOffset dx="0" dy="0"/>
			<feGaussianBlur stdDeviation="13.9"/>
			<feComposite in2="hardAlpha" operator="arithmetic" k2="-1" k3="1"/>
			<feColorMatrix type="matrix" values="0 0 0 0 0.098039 0 0 0 0 0.11765 0 0 0 0 0.21961 0 0 0 0.4 0"/>
			<feBlend mode="normal" in2="shape" result="effect_innerShadow_1"/>
		</filter>
		<filter id="filter_2118_1786_dd" x="-6371.000000" y="242.000000" width="0.000000" height="0.000000" filterUnits="userSpaceOnUse" color-interpolation-filters="sRGB">
			<feFlood flood-opacity="0" result="BackgroundImageFix"/>
			<feBlend mode="normal" in="SourceGraphic" in2="BackgroundImageFix" result="shape"/>
			<feGaussianBlur stdDeviation="1.82" result="effect_layerBlur_1"/>
		</filter>
		<filter id="filter_2118_1788_dd" x="166.971191" y="78.146484" width="37.647949" height="37.648026" filterUnits="userSpaceOnUse" color-interpolation-filters="sRGB">
			<feFlood flood-opacity="0" result="BackgroundImageFix"/>
			<feBlend mode="normal" in="SourceGraphic" in2="BackgroundImageFix" result="shape"/>
			<feColorMatrix in="SourceAlpha" type="matrix" values="0 0 0 0 0 0 0 0 0 0 0 0 0 0 0 0 0 0 127 0" result="hardAlpha"/>
			<feOffset dx="0" dy="0.5"/>
			<feGaussianBlur stdDeviation="0.833333"/>
			<feComposite in2="hardAlpha" operator="arithmetic" k2="-1" k3="1"/>
			<feColorMatrix type="matrix" values="0 0 0 0 0 0 0 0 0 0 0 0 0 0 0 0 0 0 0.1 0"/>
			<feBlend mode="normal" in2="shape" result="effect_innerShadow_1"/>
		</filter>
		<clipPath id="clip2118_1788">
			<rect id="Frame" rx="-0.109170" width="37.429680" height="37.429680" transform="translate(167.080368 78.255653)" fill="white" fill-opacity="0"/>
		</clipPath>
		<filter id="filter_2118_1812_dd" x="-6371.000000" y="242.000000" width="0.000000" height="0.000000" filterUnits="userSpaceOnUse" color-interpolation-filters="sRGB">
			<feFlood flood-opacity="0" result="BackgroundImageFix"/>
			<feBlend mode="normal" in="SourceGraphic" in2="BackgroundImageFix" result="shape"/>
			<feGaussianBlur stdDeviation="1.82" result="effect_layerBlur_1"/>
		</filter>
		<filter id="filter_2118_1814_dd" x="98.969727" y="90.299988" width="16.399902" height="16.399994" filterUnits="userSpaceOnUse" color-interpolation-filters="sRGB">
			<feFlood flood-opacity="0" result="BackgroundImageFix"/>
			<feBlend mode="normal" in="SourceGraphic" in2="BackgroundImageFix" result="shape"/>
			<feColorMatrix in="SourceAlpha" type="matrix" values="0 0 0 0 0 0 0 0 0 0 0 0 0 0 0 0 0 0 127 0" result="hardAlpha"/>
			<feOffset dx="0" dy="0.5"/>
			<feGaussianBlur stdDeviation="0.833333"/>
			<feComposite in2="hardAlpha" operator="arithmetic" k2="-1" k3="1"/>
			<feColorMatrix type="matrix" values="0 0 0 0 0 0 0 0 0 0 0 0 0 0 0 0 0 0 0.1 0"/>
			<feBlend mode="normal" in2="shape" result="effect_innerShadow_1"/>
		</filter>
		<clipPath id="clip2118_1814">
			<rect id="Frame" rx="-0.109170" width="16.181660" height="16.181660" transform="translate(99.078896 90.409157)" fill="white" fill-opacity="0"/>
		</clipPath>
		<filter id="filter_2118_1804_dd" x="-6371.000000" y="242.000000" width="0.000000" height="0.000000" filterUnits="userSpaceOnUse" color-interpolation-filters="sRGB">
			<feFlood flood-opacity="0" result="BackgroundImageFix"/>
			<feBlend mode="normal" in="SourceGraphic" in2="BackgroundImageFix" result="shape"/>
			<feGaussianBlur stdDeviation="1.82" result="effect_layerBlur_1"/>
		</filter>
		<filter id="filter_2118_1806_dd" x="319.410156" y="48.740051" width="18.450195" height="18.449997" filterUnits="userSpaceOnUse" color-interpolation-filters="sRGB">
			<feFlood flood-opacity="0" result="BackgroundImageFix"/>
			<feBlend mode="normal" in="SourceGraphic" in2="BackgroundImageFix" result="shape"/>
			<feColorMatrix in="SourceAlpha" type="matrix" values="0 0 0 0 0 0 0 0 0 0 0 0 0 0 0 0 0 0 127 0" result="hardAlpha"/>
			<feOffset dx="0" dy="0.5"/>
			<feGaussianBlur stdDeviation="0.833333"/>
			<feComposite in2="hardAlpha" operator="arithmetic" k2="-1" k3="1"/>
			<feColorMatrix type="matrix" values="0 0 0 0 0 0 0 0 0 0 0 0 0 0 0 0 0 0 0.1 0"/>
			<feBlend mode="normal" in2="shape" result="effect_innerShadow_1"/>
		</filter>
		<clipPath id="clip2118_1806">
			<rect id="Frame" rx="-0.109170" width="18.231661" height="18.231661" transform="translate(319.519318 48.849220)" fill="white" fill-opacity="0"/>
		</clipPath>
		<filter id="filter_2118_1780_dd" x="-6371.000000" y="242.000000" width="0.000000" height="0.000000" filterUnits="userSpaceOnUse" color-interpolation-filters="sRGB">
			<feFlood flood-opacity="0" result="BackgroundImageFix"/>
			<feBlend mode="normal" in="SourceGraphic" in2="BackgroundImageFix" result="shape"/>
			<feGaussianBlur stdDeviation="1.82" result="effect_layerBlur_1"/>
		</filter>
		<filter id="filter_2118_1782_dd" x="41.740234" y="49.070007" width="18.450195" height="18.449997" filterUnits="userSpaceOnUse" color-interpolation-filters="sRGB">
			<feFlood flood-opacity="0" result="BackgroundImageFix"/>
			<feBlend mode="normal" in="SourceGraphic" in2="BackgroundImageFix" result="shape"/>
			<feColorMatrix in="SourceAlpha" type="matrix" values="0 0 0 0 0 0 0 0 0 0 0 0 0 0 0 0 0 0 127 0" result="hardAlpha"/>
			<feOffset dx="0" dy="0.5"/>
			<feGaussianBlur stdDeviation="0.833333"/>
			<feComposite in2="hardAlpha" operator="arithmetic" k2="-1" k3="1"/>
			<feColorMatrix type="matrix" values="0 0 0 0 0 0 0 0 0 0 0 0 0 0 0 0 0 0 0.1 0"/>
			<feBlend mode="normal" in2="shape" result="effect_innerShadow_1"/>
		</filter>
		<clipPath id="clip2118_1782">
			<rect id="Frame" rx="-0.109170" width="18.231661" height="18.231661" transform="translate(41.849403 49.179176)" fill="white" fill-opacity="0"/>
		</clipPath>
		<filter id="filter_2118_1792_dd" x="-6371.000000" y="242.000000" width="0.000000" height="0.000000" filterUnits="userSpaceOnUse" color-interpolation-filters="sRGB">
			<feFlood flood-opacity="0" result="BackgroundImageFix"/>
			<feBlend mode="normal" in="SourceGraphic" in2="BackgroundImageFix" result="shape"/>
			<feGaussianBlur stdDeviation="1.82" result="effect_layerBlur_1"/>
		</filter>
		<filter id="filter_2118_1794_dd" x="260.740234" y="89.070007" width="18.450195" height="18.449997" filterUnits="userSpaceOnUse" color-interpolation-filters="sRGB">
			<feFlood flood-opacity="0" result="BackgroundImageFix"/>
			<feBlend mode="normal" in="SourceGraphic" in2="BackgroundImageFix" result="shape"/>
			<feColorMatrix in="SourceAlpha" type="matrix" values="0 0 0 0 0 0 0 0 0 0 0 0 0 0 0 0 0 0 127 0" result="hardAlpha"/>
			<feOffset dx="0" dy="0.5"/>
			<feGaussianBlur stdDeviation="0.833333"/>
			<feComposite in2="hardAlpha" operator="arithmetic" k2="-1" k3="1"/>
			<feColorMatrix type="matrix" values="0 0 0 0 0 0 0 0 0 0 0 0 0 0 0 0 0 0 0.1 0"/>
			<feBlend mode="normal" in2="shape" result="effect_innerShadow_1"/>
		</filter>
		<filter id="filter_2118_1795_dd" x="265.250000" y="89.480042" width="9.605957" height="18.040009" filterUnits="userSpaceOnUse" color-interpolation-filters="sRGB">
			<feFlood flood-opacity="0" result="BackgroundImageFix"/>
			<feBlend mode="normal" in="SourceGraphic" in2="BackgroundImageFix" result="shape"/>
			<feColorMatrix in="SourceAlpha" type="matrix" values="0 0 0 0 0 0 0 0 0 0 0 0 0 0 0 0 0 0 127 0" result="hardAlpha"/>
			<feOffset dx="0" dy="0.5"/>
			<feGaussianBlur stdDeviation="0.666667"/>
			<feComposite in2="hardAlpha" operator="arithmetic" k2="-1" k3="1"/>
			<feColorMatrix type="matrix" values="0 0 0 0 0 0 0 0 0 0 0 0 0 0 0 0 0 0 0.2 0"/>
			<feBlend mode="normal" in2="shape" result="effect_innerShadow_1"/>
		</filter>
		<clipPath id="clip2118_1794">
			<rect id="Frame" rx="-0.109170" width="18.231661" height="18.231661" transform="translate(260.849396 89.179176)" fill="white" fill-opacity="0"/>
		</clipPath>
		<filter id="filter_2118_1798_dd" x="-6371.000000" y="242.000000" width="0.000000" height="0.000000" filterUnits="userSpaceOnUse" color-interpolation-filters="sRGB">
			<feFlood flood-opacity="0" result="BackgroundImageFix"/>
			<feBlend mode="normal" in="SourceGraphic" in2="BackgroundImageFix" result="shape"/>
			<feColorMatrix in="SourceAlpha" type="matrix" values="0 0 0 0 0 0 0 0 0 0 0 0 0 0 0 0 0 0 127 0" result="hardAlpha"/>
			<feOffset dx="0" dy="0.5"/>
			<feGaussianBlur stdDeviation="0.833333"/>
			<feComposite in2="hardAlpha" operator="arithmetic" k2="-1" k3="1"/>
			<feColorMatrix type="matrix" values="0 0 0 0 0 0 0 0 0 0 0 0 0 0 0 0 0 0 0.2 0"/>
			<feBlend mode="normal" in2="shape" result="effect_innerShadow_1"/>
		</filter>
		<linearGradient x1="186.000000" y1="-42.000000" x2="186.000000" y2="236.000000" id="paint_linear_2118_1822_0" gradientUnits="userSpaceOnUse">
			<stop stop-color="#060A23"/>
			<stop offset="1.000000" stop-color="#060A23" stop-opacity="0.000000"/>
		</linearGradient>
		<linearGradient x1="186.000000" y1="-42.000000" x2="186.000000" y2="236.000000" id="paint_linear_2118_1822_1" gradientUnits="userSpaceOnUse">
			<stop stop-color="#191E38"/>
			<stop offset="1.000000" stop-color="#191E38" stop-opacity="0.000000"/>
		</linearGradient>
		<linearGradient x1="186.000000" y1="19.000000" x2="186.000000" y2="175.000000" id="paint_linear_2118_1819_0" gradientUnits="userSpaceOnUse">
			<stop stop-color="#060A23"/>
			<stop offset="1.000000" stop-color="#060A23" stop-opacity="0.000000"/>
		</linearGradient>
		<linearGradient x1="186.000000" y1="19.000000" x2="186.000000" y2="175.000000" id="paint_linear_2118_1819_1" gradientUnits="userSpaceOnUse">
			<stop stop-color="#191E38"/>
			<stop offset="1.000000" stop-color="#191E38" stop-opacity="0.000000"/>
		</linearGradient>
		<linearGradient x1="186.000000" y1="43.000000" x2="186.000000" y2="151.000000" id="paint_linear_2118_1818_0" gradientUnits="userSpaceOnUse">
			<stop stop-color="#191E38" stop-opacity="0.000000"/>
			<stop offset="1.000000" stop-color="#191E38"/>
		</linearGradient>
		<linearGradient x1="151.414581" y1="61.037682" x2="213.521942" y2="139.219879" id="paint_linear_2118_1785_0" gradientUnits="userSpaceOnUse">
			<stop stop-color="#FBFBFC"/>
			<stop offset="1.000000" stop-color="#DBDDE8"/>
		</linearGradient>
		<linearGradient x1="162.005569" y1="100.043457" x2="209.500000" y2="132.140823" id="paint_linear_2118_1786_0" gradientUnits="userSpaceOnUse">
			<stop stop-color="#0088CC"/>
			<stop offset="1.000000" stop-color="#0083C5"/>
		</linearGradient>
		<linearGradient x1="57.997711" y1="96.000000" x2="307.902466" y2="96.000000" id="paint_linear_2118_1826_0" gradientUnits="userSpaceOnUse">
			<stop stop-color="#1A2039" stop-opacity="0.000000"/>
			<stop offset="0.515000" stop-color="#1A2039"/>
			<stop offset="1.000000" stop-color="#1A2039" stop-opacity="0.000000"/>
		</linearGradient>
		<linearGradient x1="186.497711" y1="-31.500000" x2="436.402466" y2="-31.500000" id="paint_linear_2118_1824_0" gradientUnits="userSpaceOnUse">
			<stop stop-color="#1A2039" stop-opacity="0.000000"/>
			<stop offset="0.515000" stop-color="#1A2039"/>
			<stop offset="1.000000" stop-color="#1A2039" stop-opacity="0.000000"/>
		</linearGradient>
		<linearGradient x1="160.695862" y1="71.035065" x2="212.148148" y2="126.670486" id="paint_linear_2118_1787_0" gradientUnits="userSpaceOnUse">
			<stop stop-color="#0088CC"/>
			<stop offset="1.000000" stop-color="#0083C5"/>
		</linearGradient>
		<linearGradient x1="90.116425" y1="80.685593" x2="120.553101" y2="119.000008" id="paint_linear_2118_1811_0" gradientUnits="userSpaceOnUse">
			<stop stop-color="#FBFBFC"/>
			<stop offset="1.000000" stop-color="#DBDDE8"/>
		</linearGradient>
		<linearGradient x1="95.306679" y1="99.800964" x2="118.582062" y2="115.530762" id="paint_linear_2118_1812_0" gradientUnits="userSpaceOnUse">
			<stop stop-color="#0088CC"/>
			<stop offset="0.000100" stop-color="#5865F2"/>
			<stop offset="1.000000" stop-color="#4D5CFF"/>
		</linearGradient>
		<linearGradient x1="94.664993" y1="85.584961" x2="119.879997" y2="112.849960" id="paint_linear_2118_1813_0" gradientUnits="userSpaceOnUse">
			<stop stop-color="#0088CC"/>
			<stop offset="0.000100" stop-color="#5865F2"/>
			<stop offset="1.000000" stop-color="#4D5CFF"/>
		</linearGradient>
		<linearGradient x1="311.786346" y1="40.355637" x2="342.223022" y2="78.670052" id="paint_linear_2118_1803_0" gradientUnits="userSpaceOnUse">
			<stop stop-color="#FBFBFC"/>
			<stop offset="1.000000" stop-color="#DBDDE8"/>
		</linearGradient>
		<linearGradient x1="330.411987" y1="76.146965" x2="317.355072" y2="58.170052" id="paint_linear_2118_1804_0" gradientUnits="userSpaceOnUse">
			<stop stop-color="#006699"/>
			<stop offset="1.000000" stop-color="#058CCF"/>
		</linearGradient>
		<linearGradient x1="330.889923" y1="74.159988" x2="316.744904" y2="43.000004" id="paint_linear_2118_1805_0" gradientUnits="userSpaceOnUse">
			<stop stop-color="#006699"/>
			<stop offset="1.000000" stop-color="#058CCF"/>
		</linearGradient>
		<linearGradient x1="34.116425" y1="40.685593" x2="64.553101" y2="79.000008" id="paint_linear_2118_1779_0" gradientUnits="userSpaceOnUse">
			<stop stop-color="#FBFBFC"/>
			<stop offset="1.000000" stop-color="#DBDDE8"/>
		</linearGradient>
		<linearGradient x1="37.414368" y1="58.499996" x2="61.446678" y2="77.304802" id="paint_linear_2118_1780_0" gradientUnits="userSpaceOnUse">
			<stop stop-color="#00A2F4"/>
			<stop offset="1.000000" stop-color="#05ABFF"/>
		</linearGradient>
		<linearGradient x1="36.615002" y1="43.329956" x2="62.650002" y2="75.924957" id="paint_linear_2118_1781_0" gradientUnits="userSpaceOnUse">
			<stop stop-color="#0CA8F7"/>
			<stop offset="1.000000" stop-color="#0096E1"/>
		</linearGradient>
		<linearGradient x1="253.116425" y1="80.685593" x2="283.553101" y2="119.000008" id="paint_linear_2118_1791_0" gradientUnits="userSpaceOnUse">
			<stop stop-color="#FBFBFC"/>
			<stop offset="1.000000" stop-color="#DBDDE8"/>
		</linearGradient>
		<linearGradient x1="269.811737" y1="115.446297" x2="269.811737" y2="98.500000" id="paint_linear_2118_1792_0" gradientUnits="userSpaceOnUse">
			<stop stop-color="#0062E0"/>
			<stop offset="1.000000" stop-color="#19AFFF"/>
		</linearGradient>
		<linearGradient x1="270.128815" y1="112.703598" x2="270.128815" y2="83.330017" id="paint_linear_2118_1793_0" gradientUnits="userSpaceOnUse">
			<stop stop-color="#0062E0"/>
			<stop offset="1.000000" stop-color="#19AFFF"/>
		</linearGradient>
	</defs>
	<mask id="mask2118_1816" mask-type="alpha" maskUnits="userSpaceOnUse" x="0.000000" y="0.000000" width="372.000000" height="376.000000">
		<g filter="url(#filter_2118_1816_dd)">
			<rect id="Rectangle 40453" rx="28.000000" width="372.000000" height="376.000000" fill="#060A23" fill-opacity="1.000000"/>
		</g>
		<rect id="Rectangle 40453" x="0.500000" y="0.500000" rx="28.000000" width="371.000000" height="375.000000" stroke="#191E38" stroke-opacity="1.000000" stroke-width="1.000000"/>
	</mask>
	<g mask="url(#mask2118_1816)">
		<g opacity="0.200000" filter="url(#filter_2118_1822_dd)">
			<rect id="Rectangle 1703" x="47.000000" y="-42.000000" rx="139.000000" width="278.000000" height="278.000000" fill="url(#paint_linear_2118_1822_0)" fill-opacity="1.000000"/>
			<rect id="Rectangle 1703" x="47.500000" y="-41.500000" rx="138.500000" width="277.000000" height="277.000000" stroke="url(#paint_linear_2118_1822_1)" stroke-opacity="1.000000" stroke-width="1.000000"/>
		</g>
		<g opacity="0.300000" filter="url(#filter_2118_1819_dd)">
			<rect id="Rectangle 1702" x="108.000000" y="19.000000" rx="78.000000" width="156.000000" height="156.000000" fill="url(#paint_linear_2118_1819_0)" fill-opacity="1.000000"/>
		</g>
		<rect id="Rectangle 1702" x="108.500000" y="19.500000" rx="77.500000" width="155.000000" height="155.000000" stroke="url(#paint_linear_2118_1819_1)" stroke-opacity="1.000000" stroke-width="1.000000"/>
		<g opacity="0.800000" filter="url(#filter_2118_1818_dd)">
			<rect id="Rectangle 1701" x="132.000000" y="43.000000" rx="54.000000" width="108.000000" height="108.000000" fill="#060A23" fill-opacity="1.000000"/>
		</g>
		<rect id="Rectangle 1701" x="132.500000" y="43.500000" rx="53.500000" width="107.000000" height="107.000000" stroke="url(#paint_linear_2118_1818_0)" stroke-opacity="1.000000" stroke-width="1.000000"/>
		<line id="Line 29" x1="58.000000" y1="95.500000" x2="314.000000" y2="95.500000" stroke="url(#paint_linear_2118_1826_0)" stroke-opacity="1.000000" stroke-width="1.000000"/>
		<line id="Line 28" x1="186.500000" y1="-32.000000" x2="186.500000" y2="224.000000" stroke="url(#paint_linear_2118_1824_0)" stroke-opacity="1.000000" stroke-width="1.000000"/>
		<rect id="Rectangle 1699" x="155.257812" y="66.433655" rx="30.871008" width="61.742016" height="61.742016" fill="url(#paint_linear_2118_1787_0)" fill-opacity="1.000000"/>
		<g filter="url(#filter_2118_1788_dd)">
			<g clip-path="url(#clip2118_1788)">
				<path id="Vector" d="M171.53 95.35C171.53 95.35 186.33 88.78 191.46 86.47C193.43 85.55 200.1 82.59 200.1 82.59C200.1 82.59 203.18 81.29 202.93 84.44C202.84 85.73 202.16 90.26 201.47 95.16C200.45 102.1 199.33 109.68 199.33 109.68C199.33 109.68 199.16 111.8 197.71 112.17C196.25 112.54 193.86 110.88 193.43 110.51C193.09 110.23 187.01 106.07 184.79 104.04C184.19 103.48 183.51 102.37 184.87 101.08C187.95 98.03 191.63 94.24 193.86 91.83C194.88 90.72 195.91 88.14 191.63 91.28C185.56 95.81 179.57 100.06 179.57 100.06C179.57 100.06 178.2 100.99 175.63 100.15C173.07 99.32 170.07 98.21 170.07 98.21C170.07 98.21 168.02 96.83 171.53 95.35Z" fill="#FFFFFF" fill-opacity="1.000000" fill-rule="nonzero"/>
			</g>
		</g>
	</g>
	<g mask="url(#mask2118_1816)">
		<rect id="Rectangle 1699" x="92.000000" y="83.329956" rx="10.000000" width="30.257641" height="30.257641" fill="url(#paint_linear_2118_1813_0)" fill-opacity="1.000000"/>
		<g filter="url(#filter_2118_1814_dd)">
			<g clip-path="url(#clip2118_1814)">
				<path id="Vector" d="M112.58 93.35C114.34 95.96 115.21 98.9 114.89 102.28C114.89 102.3 114.88 102.31 114.87 102.32C113.54 103.3 112.24 103.9 110.97 104.3C110.96 104.3 110.95 104.3 110.94 104.3C110.93 104.29 110.92 104.29 110.92 104.28C110.62 103.87 110.36 103.43 110.12 102.98C110.11 102.95 110.12 102.92 110.15 102.91C110.57 102.75 110.98 102.55 111.36 102.32C111.39 102.31 111.4 102.26 111.37 102.24C111.29 102.18 111.2 102.12 111.13 102.05C111.11 102.04 111.09 102.04 111.08 102.04C108.56 103.22 105.79 103.22 103.25 102.04C103.23 102.04 103.21 102.04 103.19 102.05C103.12 102.12 103.04 102.18 102.95 102.24C102.93 102.26 102.93 102.31 102.96 102.32C103.35 102.55 103.75 102.75 104.17 102.91C104.2 102.92 104.21 102.95 104.2 102.98C103.97 103.43 103.7 103.87 103.41 104.28C103.39 104.3 103.37 104.3 103.35 104.3C102.08 103.9 100.79 103.3 99.46 102.32C99.45 102.31 99.44 102.3 99.44 102.28C99.17 99.36 99.72 96.39 101.74 93.35C101.75 93.35 101.75 93.34 101.76 93.34C102.76 92.88 103.82 92.54 104.93 92.35C104.95 92.34 104.97 92.35 104.98 92.37C105.12 92.62 105.28 92.93 105.39 93.19C106.56 93.01 107.75 93.01 108.95 93.19C109.05 92.94 109.21 92.62 109.34 92.37C109.35 92.36 109.35 92.35 109.36 92.35C109.37 92.35 109.38 92.34 109.39 92.35C110.51 92.54 111.57 92.88 112.56 93.34C112.57 93.34 112.58 93.35 112.58 93.35ZM105.98 98.92C105.99 98.05 105.37 97.34 104.58 97.34C103.8 97.34 103.18 98.05 103.18 98.92C103.18 99.79 103.81 100.5 104.58 100.5C105.36 100.5 105.98 99.79 105.98 98.92ZM111.16 98.92C111.17 98.05 110.54 97.34 109.76 97.34C108.98 97.34 108.36 98.05 108.36 98.92C108.36 99.79 108.99 100.5 109.76 100.5C110.54 100.5 111.16 99.79 111.16 98.92Z" fill="#FFFFFF" fill-opacity="1.000000" fill-rule="nonzero"/>
			</g>
		</g>
	</g>
	<g mask="url(#mask2118_1816)">
		<rect id="Rectangle 1699" x="313.669922" y="43.000000" rx="10.000000" width="30.257641" height="30.257641" fill="url(#paint_linear_2118_1805_0)" fill-opacity="1.000000"/>
		<g filter="url(#filter_2118_1806_dd)">
			<g clip-path="url(#clip2118_1806)">
				<path id="Vector" d="M324.2 65.4L324.2 55.26L320.83 55.26L320.83 65.4L324.2 65.4L324.2 65.4ZM322.52 53.88C323.69 53.88 324.42 53.1 324.42 52.13C324.4 51.13 323.69 50.38 322.54 50.38C321.39 50.38 320.64 51.13 320.64 52.13C320.64 53.1 321.37 53.88 322.5 53.88L322.52 53.88L322.52 53.88ZM326.07 65.4L329.43 65.4L329.43 59.74C329.43 59.44 329.45 59.14 329.54 58.92C329.79 58.31 330.34 57.69 331.27 57.69C332.49 57.69 332.98 58.62 332.98 59.98L332.98 65.4L336.34 65.4L336.34 59.59C336.34 56.48 334.68 55.03 332.47 55.03C330.65 55.03 329.85 56.04 329.41 56.73L329.43 56.73L329.43 55.26L326.07 55.26C326.11 56.22 326.07 65.4 326.07 65.4L326.07 65.4Z" fill="#FFFFFF" fill-opacity="1.000000" fill-rule="nonzero"/>
			</g>
		</g>
	</g>
	<g mask="url(#mask2118_1816)">
		<rect id="Rectangle 1699" x="36.000000" y="43.329956" rx="10.000000" width="30.257641" height="30.257641" fill="url(#paint_linear_2118_1781_0)" fill-opacity="1.000000"/>
		<g filter="url(#filter_2118_1782_dd)">
			<g clip-path="url(#clip2118_1782)">
				<path id="Vector" d="M60.1 52.53C59.51 52.79 58.88 52.97 58.24 53.07C58.54 53.01 58.98 52.47 59.15 52.25C59.42 51.92 59.63 51.55 59.76 51.14C59.76 51.11 59.79 51.07 59.76 51.05C59.74 51.04 59.72 51.03 59.71 51.03C59.69 51.03 59.67 51.04 59.66 51.05C58.96 51.43 58.22 51.71 57.45 51.91C57.42 51.91 57.39 51.92 57.36 51.91C57.34 51.9 57.31 51.89 57.29 51.87C57.23 51.8 57.17 51.73 57.1 51.67C56.79 51.38 56.43 51.15 56.04 50.98C55.52 50.77 54.96 50.68 54.4 50.71C53.86 50.75 53.32 50.89 52.84 51.14C52.36 51.4 51.94 51.76 51.6 52.19C51.25 52.63 50.99 53.14 50.85 53.69C50.74 54.22 50.72 54.76 50.81 55.28C50.81 55.37 50.81 55.39 50.73 55.37C47.68 54.92 45.16 53.84 43.11 51.5C43.02 51.4 42.98 51.4 42.9 51.5C42.01 52.86 42.44 55.01 43.56 56.07C43.71 56.21 43.86 56.35 44.03 56.48C43.52 56.44 43.02 56.3 42.56 56.07C42.47 56.01 42.43 56.04 42.42 56.15C42.41 56.29 42.41 56.43 42.42 56.58C42.51 57.26 42.78 57.91 43.2 58.46C43.63 59 44.19 59.43 44.83 59.69C44.98 59.75 45.14 59.8 45.31 59.84C44.84 59.93 44.35 59.94 43.87 59.88C43.77 59.86 43.73 59.91 43.77 60.01C44.4 61.73 45.77 62.25 46.77 62.55C46.91 62.57 47.05 62.57 47.2 62.6C47.2 62.6 47.2 62.6 47.18 62.63C46.88 63.17 45.68 63.53 45.13 63.72C44.13 64.08 43.06 64.22 42 64.13C41.83 64.1 41.8 64.11 41.75 64.13C41.71 64.15 41.75 64.2 41.8 64.24C42.01 64.38 42.23 64.5 42.45 64.62C43.12 64.99 43.82 65.28 44.55 65.48C48.31 66.52 52.55 65.76 55.38 62.95C57.61 60.74 58.39 57.69 58.39 54.64C58.39 54.53 58.53 54.46 58.61 54.4C59.17 53.96 59.67 53.44 60.08 52.86C60.15 52.77 60.19 52.66 60.18 52.55C60.18 52.49 60.18 52.5 60.1 52.53Z" fill="#FFFFFF" fill-opacity="1.000000" fill-rule="nonzero"/>
			</g>
		</g>
	</g>
	<g mask="url(#mask2118_1816)">
		<rect id="Rectangle 1699" x="255.000000" y="83.330017" rx="10.000000" width="30.257641" height="30.257641" fill="url(#paint_linear_2118_1793_0)" fill-opacity="1.000000"/>
		<g filter="url(#filter_2118_1794_dd)">
			<g clip-path="url(#clip2118_1794)">
				<g filter="url(#filter_2118_1795_dd)">
					<path id="Vector" d="M274.2 99.62L274.7 96.36L271.59 96.36L271.59 94.24C271.59 93.35 272.03 92.47 273.42 92.47L274.85 92.47L274.85 89.69C274.01 89.56 273.17 89.49 272.32 89.48C269.76 89.48 268.09 91.04 268.09 93.87L268.09 96.36L265.25 96.36L265.25 99.62L268.09 99.62L268.09 107.52L271.59 107.52L271.59 99.62L274.2 99.62Z" fill="#FFFFFF" fill-opacity="1.000000" fill-rule="nonzero"/>
				</g>
			</g>
		</g>
	</g>
</svg>
