<svg width="745.885742" height="484.885742" viewBox="0 0 745.886 484.886" fill="none" xmlns="http://www.w3.org/2000/svg" xmlns:xlink="http://www.w3.org/1999/xlink">
	<desc>
			Created with Pixso.
	</desc>
	<defs>
		<radialGradient gradientTransform="translate(372.943 273.998) rotate(90) scale(320.445 352.071)" cx="0.000000" cy="0.000000" r="1.000000" id="paint_radial_2092_2143_0" gradientUnits="userSpaceOnUse">
			<stop stop-color="#060A23"/>
			<stop offset="1.000000" stop-color="#060A23" stop-opacity="0.000000"/>
		</radialGradient>
	</defs>
	<mask id="mask2092_2143" mask-type="alpha" maskUnits="userSpaceOnUse" x="0.942871" y="0.942871" width="744.000000" height="483.000000">
		<rect id="Gradient" x="0.942871" y="0.942871" width="744.000000" height="483.000000" fill="url(#paint_radial_2092_2143_0)" fill-opacity="1.000000"/>
		<rect id="Gradient" x="0.471436" y="0.471680" width="744.942871" height="483.942871" stroke="#0A101F" stroke-opacity="1.000000" stroke-width="0.942857"/>
	</mask>
	<g mask="url(#mask2092_2143)">
		<rect id="Square" x="-161.738281" y="-17.178223" rx="9.000000" width="46.508602" height="46.508602" stroke="#151A34" stroke-opacity="1.000000" stroke-width="0.500000"/>
		<rect id="Square" x="-115.229980" y="-17.178223" rx="9.000000" width="46.508602" height="46.508602" stroke="#151A34" stroke-opacity="1.000000" stroke-width="0.500000"/>
		<rect id="Square" x="-68.721191" y="-17.178223" rx="9.000000" width="46.508602" height="46.508602" stroke="#151A34" stroke-opacity="1.000000" stroke-width="0.500000"/>
		<rect id="Square" x="-22.212402" y="-17.178223" rx="9.000000" width="46.508602" height="46.508602" stroke="#151A34" stroke-opacity="1.000000" stroke-width="0.500000"/>
		<rect id="Square" x="24.296143" y="-17.178223" rx="9.000000" width="46.508602" height="46.508602" stroke="#151A34" stroke-opacity="1.000000" stroke-width="0.500000"/>
		<rect id="Square" x="70.804443" y="-17.178223" rx="9.000000" width="46.508602" height="46.508602" stroke="#151A34" stroke-opacity="1.000000" stroke-width="0.500000"/>
		<rect id="Square" x="117.313232" y="-17.178223" rx="9.000000" width="46.508602" height="46.508602" stroke="#151A34" stroke-opacity="1.000000" stroke-width="0.500000"/>
		<rect id="Square" x="163.821777" y="-17.178223" rx="9.000000" width="46.508602" height="46.508602" stroke="#151A34" stroke-opacity="1.000000" stroke-width="0.500000"/>
		<rect id="Square" x="210.330811" y="-17.178223" rx="9.000000" width="46.508602" height="46.508602" stroke="#151A34" stroke-opacity="1.000000" stroke-width="0.500000"/>
		<rect id="Square" x="256.839111" y="-17.178223" rx="9.000000" width="46.508602" height="46.508602" stroke="#151A34" stroke-opacity="1.000000" stroke-width="0.500000"/>
		<rect id="Square" x="303.347412" y="-17.178223" rx="9.000000" width="46.508602" height="46.508602" stroke="#151A34" stroke-opacity="1.000000" stroke-width="0.500000"/>
		<rect id="Square" x="349.855713" y="-17.178223" rx="9.000000" width="46.508602" height="46.508602" stroke="#151A34" stroke-opacity="1.000000" stroke-width="0.500000"/>
		<rect id="Square" x="396.364746" y="-17.178223" rx="9.000000" width="46.508602" height="46.508602" stroke="#151A34" stroke-opacity="1.000000" stroke-width="0.500000"/>
		<rect id="Square" x="442.872803" y="-17.178223" rx="9.000000" width="46.508602" height="46.508602" stroke="#151A34" stroke-opacity="1.000000" stroke-width="0.500000"/>
		<rect id="Square" x="489.382324" y="-17.178223" rx="9.000000" width="46.508602" height="46.508602" stroke="#151A34" stroke-opacity="1.000000" stroke-width="0.500000"/>
		<rect id="Square" x="535.890381" y="-17.178223" rx="9.000000" width="46.508602" height="46.508602" stroke="#151A34" stroke-opacity="1.000000" stroke-width="0.500000"/>
		<rect id="Square" x="582.398926" y="-17.178223" rx="9.000000" width="46.508602" height="46.508602" stroke="#151A34" stroke-opacity="1.000000" stroke-width="0.500000"/>
		<rect id="Square" x="628.908203" y="-17.178223" rx="9.000000" width="46.508602" height="46.508602" stroke="#151A34" stroke-opacity="1.000000" stroke-width="0.500000"/>
		<rect id="Square" x="675.415527" y="-17.178223" rx="9.000000" width="46.508602" height="46.508602" stroke="#151A34" stroke-opacity="1.000000" stroke-width="0.500000"/>
		<rect id="Square" x="721.924805" y="-17.178223" rx="9.000000" width="46.508602" height="46.508602" stroke="#151A34" stroke-opacity="1.000000" stroke-width="0.500000"/>
		<rect id="Square" x="768.434570" y="-17.178223" rx="9.000000" width="46.508602" height="46.508602" stroke="#151A34" stroke-opacity="1.000000" stroke-width="0.500000"/>
		<rect id="Square" x="-161.738281" y="29.330566" rx="9.000000" width="46.508602" height="46.508602" stroke="#151A34" stroke-opacity="1.000000" stroke-width="0.500000"/>
		<rect id="Square" x="-115.229980" y="29.330566" rx="9.000000" width="46.508602" height="46.508602" stroke="#151A34" stroke-opacity="1.000000" stroke-width="0.500000"/>
		<rect id="Square" x="-68.721191" y="29.330566" rx="9.000000" width="46.508602" height="46.508602" fill="#151A34" fill-opacity="1.000000"/>
		<rect id="Square" x="-68.721191" y="29.330566" rx="9.000000" width="46.508602" height="46.508602" stroke="#151A34" stroke-opacity="1.000000" stroke-width="0.500000"/>
		<rect id="Square" x="-22.212402" y="29.330566" rx="9.000000" width="46.508602" height="46.508602" stroke="#151A34" stroke-opacity="1.000000" stroke-width="0.500000"/>
		<rect id="Square" x="24.296143" y="29.330566" rx="9.000000" width="46.508602" height="46.508602" stroke="#151A34" stroke-opacity="1.000000" stroke-width="0.500000"/>
		<rect id="Square" x="70.804443" y="29.330566" rx="9.000000" width="46.508602" height="46.508602" stroke="#151A34" stroke-opacity="1.000000" stroke-width="0.500000"/>
		<rect id="Square" x="117.313232" y="29.330566" rx="9.000000" width="46.508602" height="46.508602" stroke="#151A34" stroke-opacity="1.000000" stroke-width="0.500000"/>
		<rect id="Square" x="163.821777" y="29.330566" rx="9.000000" width="46.508602" height="46.508602" stroke="#151A34" stroke-opacity="1.000000" stroke-width="0.500000"/>
		<rect id="Square" x="210.330811" y="29.330566" rx="9.000000" width="46.508602" height="46.508602" stroke="#151A34" stroke-opacity="1.000000" stroke-width="0.500000"/>
		<rect id="Square" x="256.839111" y="29.330566" rx="9.000000" width="46.508602" height="46.508602" fill="#151A34" fill-opacity="1.000000"/>
		<rect id="Square" x="256.839111" y="29.330566" rx="9.000000" width="46.508602" height="46.508602" stroke="#151A34" stroke-opacity="1.000000" stroke-width="0.500000"/>
		<rect id="Square" x="303.347412" y="29.330566" rx="9.000000" width="46.508602" height="46.508602" stroke="#151A34" stroke-opacity="1.000000" stroke-width="0.500000"/>
		<rect id="Square" x="349.855713" y="29.330566" rx="9.000000" width="46.508602" height="46.508602" stroke="#151A34" stroke-opacity="1.000000" stroke-width="0.500000"/>
		<rect id="Square" x="396.364746" y="29.330566" rx="9.000000" width="46.508602" height="46.508602" stroke="#151A34" stroke-opacity="1.000000" stroke-width="0.500000"/>
		<rect id="Square" x="442.872803" y="29.330566" rx="9.000000" width="46.508602" height="46.508602" stroke="#151A34" stroke-opacity="1.000000" stroke-width="0.500000"/>
		<rect id="Square" x="489.382324" y="29.330566" rx="9.000000" width="46.508602" height="46.508602" stroke="#151A34" stroke-opacity="1.000000" stroke-width="0.500000"/>
		<rect id="Square" x="535.890381" y="29.330566" rx="9.000000" width="46.508602" height="46.508602" stroke="#151A34" stroke-opacity="1.000000" stroke-width="0.500000"/>
		<rect id="Square" x="582.398926" y="29.330566" rx="9.000000" width="46.508602" height="46.508602" stroke="#151A34" stroke-opacity="1.000000" stroke-width="0.500000"/>
		<rect id="Square" x="628.908203" y="29.330566" rx="9.000000" width="46.508602" height="46.508602" stroke="#151A34" stroke-opacity="1.000000" stroke-width="0.500000"/>
		<rect id="Square" x="675.415527" y="29.330566" rx="9.000000" width="46.508602" height="46.508602" stroke="#151A34" stroke-opacity="1.000000" stroke-width="0.500000"/>
		<rect id="Square" x="721.924805" y="29.330566" rx="9.000000" width="46.508602" height="46.508602" stroke="#151A34" stroke-opacity="1.000000" stroke-width="0.500000"/>
		<rect id="Square" x="768.434570" y="29.330566" rx="9.000000" width="46.508602" height="46.508602" stroke="#151A34" stroke-opacity="1.000000" stroke-width="0.500000"/>
		<rect id="Square" x="-161.738281" y="75.838867" rx="9.000000" width="46.508602" height="46.508602" stroke="#151A34" stroke-opacity="1.000000" stroke-width="0.500000"/>
		<rect id="Square" x="-115.229980" y="75.838867" rx="9.000000" width="46.508602" height="46.508602" stroke="#151A34" stroke-opacity="1.000000" stroke-width="0.500000"/>
		<rect id="Square" x="-68.721191" y="75.838867" rx="9.000000" width="46.508602" height="46.508602" stroke="#151A34" stroke-opacity="1.000000" stroke-width="0.500000"/>
		<rect id="Square" x="-22.212402" y="75.838867" rx="9.000000" width="46.508602" height="46.508602" stroke="#151A34" stroke-opacity="1.000000" stroke-width="0.500000"/>
		<rect id="Square" x="24.296143" y="75.838867" rx="9.000000" width="46.508602" height="46.508602" stroke="#151A34" stroke-opacity="1.000000" stroke-width="0.500000"/>
		<rect id="Square" x="70.804443" y="75.838867" rx="9.000000" width="46.508602" height="46.508602" stroke="#151A34" stroke-opacity="1.000000" stroke-width="0.500000"/>
		<rect id="Square" x="117.313232" y="75.838867" rx="9.000000" width="46.508602" height="46.508602" stroke="#151A34" stroke-opacity="1.000000" stroke-width="0.500000"/>
		<rect id="Square" x="163.821777" y="75.838867" rx="9.000000" width="46.508602" height="46.508602" stroke="#151A34" stroke-opacity="1.000000" stroke-width="0.500000"/>
		<rect id="Square" x="210.330811" y="75.838867" rx="9.000000" width="46.508602" height="46.508602" stroke="#151A34" stroke-opacity="1.000000" stroke-width="0.500000"/>
		<rect id="Square" x="256.839111" y="75.838867" rx="9.000000" width="46.508602" height="46.508602" stroke="#151A34" stroke-opacity="1.000000" stroke-width="0.500000"/>
		<rect id="Square" x="303.347412" y="75.838867" rx="9.000000" width="46.508602" height="46.508602" stroke="#151A34" stroke-opacity="1.000000" stroke-width="0.500000"/>
		<rect id="Square" x="349.855713" y="75.838867" rx="9.000000" width="46.508602" height="46.508602" stroke="#151A34" stroke-opacity="1.000000" stroke-width="0.500000"/>
		<rect id="Square" x="396.364746" y="75.838867" rx="9.000000" width="46.508602" height="46.508602" stroke="#151A34" stroke-opacity="1.000000" stroke-width="0.500000"/>
		<rect id="Square" x="442.872803" y="75.838867" rx="9.000000" width="46.508602" height="46.508602" stroke="#151A34" stroke-opacity="1.000000" stroke-width="0.500000"/>
		<rect id="Square" x="489.382324" y="75.838867" rx="9.000000" width="46.508602" height="46.508602" stroke="#151A34" stroke-opacity="1.000000" stroke-width="0.500000"/>
		<rect id="Square" x="535.890381" y="75.838867" rx="9.000000" width="46.508602" height="46.508602" stroke="#151A34" stroke-opacity="1.000000" stroke-width="0.500000"/>
		<rect id="Square" x="582.398926" y="75.838867" rx="9.000000" width="46.508602" height="46.508602" fill="#151A34" fill-opacity="1.000000"/>
		<rect id="Square" x="582.398926" y="75.838867" rx="9.000000" width="46.508602" height="46.508602" stroke="#151A34" stroke-opacity="1.000000" stroke-width="0.500000"/>
		<rect id="Square" x="628.908203" y="75.838867" rx="9.000000" width="46.508602" height="46.508602" stroke="#151A34" stroke-opacity="1.000000" stroke-width="0.500000"/>
		<rect id="Square" x="675.415527" y="75.838867" rx="9.000000" width="46.508602" height="46.508602" stroke="#151A34" stroke-opacity="1.000000" stroke-width="0.500000"/>
		<rect id="Square" x="721.924805" y="75.838867" rx="9.000000" width="46.508602" height="46.508602" stroke="#151A34" stroke-opacity="1.000000" stroke-width="0.500000"/>
		<rect id="Square" x="768.434570" y="75.838867" rx="9.000000" width="46.508602" height="46.508602" stroke="#151A34" stroke-opacity="1.000000" stroke-width="0.500000"/>
		<rect id="Square" x="-161.738281" y="122.347656" rx="9.000000" width="46.508602" height="46.508602" stroke="#151A34" stroke-opacity="1.000000" stroke-width="0.500000"/>
		<rect id="Square" x="-115.229980" y="122.347656" rx="9.000000" width="46.508602" height="46.508602" stroke="#151A34" stroke-opacity="1.000000" stroke-width="0.500000"/>
		<rect id="Square" x="-68.721191" y="122.347656" rx="9.000000" width="46.508602" height="46.508602" stroke="#151A34" stroke-opacity="1.000000" stroke-width="0.500000"/>
		<rect id="Square" x="-22.212402" y="122.347656" rx="9.000000" width="46.508602" height="46.508602" stroke="#151A34" stroke-opacity="1.000000" stroke-width="0.500000"/>
		<rect id="Square" x="24.296143" y="122.347656" rx="9.000000" width="46.508602" height="46.508602" stroke="#151A34" stroke-opacity="1.000000" stroke-width="0.500000"/>
		<rect id="Square" x="70.804443" y="122.347656" rx="9.000000" width="46.508602" height="46.508602" stroke="#151A34" stroke-opacity="1.000000" stroke-width="0.500000"/>
		<rect id="Square" x="117.313232" y="122.347656" rx="9.000000" width="46.508602" height="46.508602" stroke="#151A34" stroke-opacity="1.000000" stroke-width="0.500000"/>
		<rect id="Square" x="163.821777" y="122.347656" rx="9.000000" width="46.508602" height="46.508602" stroke="#151A34" stroke-opacity="1.000000" stroke-width="0.500000"/>
		<rect id="Square" x="210.330811" y="122.347656" rx="9.000000" width="46.508602" height="46.508602" stroke="#151A34" stroke-opacity="1.000000" stroke-width="0.500000"/>
		<rect id="Square" x="256.839111" y="122.347656" rx="9.000000" width="46.508602" height="46.508602" stroke="#151A34" stroke-opacity="1.000000" stroke-width="0.500000"/>
		<rect id="Square" x="303.347412" y="122.347656" rx="9.000000" width="46.508602" height="46.508602" stroke="#151A34" stroke-opacity="1.000000" stroke-width="0.500000"/>
		<rect id="Square" x="349.855713" y="122.347656" rx="9.000000" width="46.508602" height="46.508602" stroke="#151A34" stroke-opacity="1.000000" stroke-width="0.500000"/>
		<rect id="Square" x="396.364746" y="122.347656" rx="9.000000" width="46.508602" height="46.508602" stroke="#151A34" stroke-opacity="1.000000" stroke-width="0.500000"/>
		<rect id="Square" x="442.872803" y="122.347656" rx="9.000000" width="46.508602" height="46.508602" stroke="#151A34" stroke-opacity="1.000000" stroke-width="0.500000"/>
		<rect id="Square" x="489.382324" y="122.347656" rx="9.000000" width="46.508602" height="46.508602" stroke="#151A34" stroke-opacity="1.000000" stroke-width="0.500000"/>
		<rect id="Square" x="535.890381" y="122.347656" rx="9.000000" width="46.508602" height="46.508602" stroke="#151A34" stroke-opacity="1.000000" stroke-width="0.500000"/>
		<rect id="Square" x="582.398926" y="122.347656" rx="9.000000" width="46.508602" height="46.508602" stroke="#151A34" stroke-opacity="1.000000" stroke-width="0.500000"/>
		<rect id="Square" x="628.908203" y="122.347656" rx="9.000000" width="46.508602" height="46.508602" stroke="#151A34" stroke-opacity="1.000000" stroke-width="0.500000"/>
		<rect id="Square" x="675.415527" y="122.347656" rx="9.000000" width="46.508602" height="46.508602" stroke="#151A34" stroke-opacity="1.000000" stroke-width="0.500000"/>
		<rect id="Square" x="721.924805" y="122.347656" rx="9.000000" width="46.508602" height="46.508602" stroke="#151A34" stroke-opacity="1.000000" stroke-width="0.500000"/>
		<rect id="Square" x="768.434570" y="122.347656" rx="9.000000" width="46.508602" height="46.508602" stroke="#151A34" stroke-opacity="1.000000" stroke-width="0.500000"/>
		<rect id="Square" x="-161.738281" y="168.855957" rx="9.000000" width="46.508602" height="46.508602" stroke="#151A34" stroke-opacity="1.000000" stroke-width="0.500000"/>
		<rect id="Square" x="-115.229980" y="168.855957" rx="9.000000" width="46.508602" height="46.508602" stroke="#151A34" stroke-opacity="1.000000" stroke-width="0.500000"/>
		<rect id="Square" x="-68.721191" y="168.855957" rx="9.000000" width="46.508602" height="46.508602" stroke="#151A34" stroke-opacity="1.000000" stroke-width="0.500000"/>
		<rect id="Square" x="-22.212402" y="168.855957" rx="9.000000" width="46.508602" height="46.508602" fill="#151A34" fill-opacity="1.000000"/>
		<rect id="Square" x="-22.212402" y="168.855957" rx="9.000000" width="46.508602" height="46.508602" stroke="#151A34" stroke-opacity="1.000000" stroke-width="0.500000"/>
		<rect id="Square" x="24.296143" y="168.855957" rx="9.000000" width="46.508602" height="46.508602" stroke="#151A34" stroke-opacity="1.000000" stroke-width="0.500000"/>
		<rect id="Square" x="70.804443" y="168.855957" rx="9.000000" width="46.508602" height="46.508602" stroke="#151A34" stroke-opacity="1.000000" stroke-width="0.500000"/>
		<rect id="Square" x="117.313232" y="168.855957" rx="9.000000" width="46.508602" height="46.508602" stroke="#151A34" stroke-opacity="1.000000" stroke-width="0.500000"/>
		<rect id="Square" x="163.821777" y="168.855957" rx="9.000000" width="46.508602" height="46.508602" stroke="#151A34" stroke-opacity="1.000000" stroke-width="0.500000"/>
		<rect id="Square" x="210.330811" y="168.855957" rx="9.000000" width="46.508602" height="46.508602" stroke="#151A34" stroke-opacity="1.000000" stroke-width="0.500000"/>
		<rect id="Square" x="256.839111" y="168.855957" rx="9.000000" width="46.508602" height="46.508602" stroke="#151A34" stroke-opacity="1.000000" stroke-width="0.500000"/>
		<rect id="Square" x="303.347412" y="168.855957" rx="9.000000" width="46.508602" height="46.508602" stroke="#151A34" stroke-opacity="1.000000" stroke-width="0.500000"/>
		<rect id="Square" x="349.855713" y="168.855957" rx="9.000000" width="46.508602" height="46.508602" stroke="#151A34" stroke-opacity="1.000000" stroke-width="0.500000"/>
		<rect id="Square" x="396.364746" y="168.855957" rx="9.000000" width="46.508602" height="46.508602" fill="#151A34" fill-opacity="1.000000"/>
		<rect id="Square" x="396.364746" y="168.855957" rx="9.000000" width="46.508602" height="46.508602" stroke="#151A34" stroke-opacity="1.000000" stroke-width="0.500000"/>
		<rect id="Square" x="442.872803" y="168.855957" rx="9.000000" width="46.508602" height="46.508602" stroke="#151A34" stroke-opacity="1.000000" stroke-width="0.500000"/>
		<rect id="Square" x="489.382324" y="168.855957" rx="9.000000" width="46.508602" height="46.508602" stroke="#151A34" stroke-opacity="1.000000" stroke-width="0.500000"/>
		<rect id="Square" x="535.890381" y="168.855957" rx="9.000000" width="46.508602" height="46.508602" stroke="#151A34" stroke-opacity="1.000000" stroke-width="0.500000"/>
		<rect id="Square" x="582.398926" y="168.855957" rx="9.000000" width="46.508602" height="46.508602" stroke="#151A34" stroke-opacity="1.000000" stroke-width="0.500000"/>
		<rect id="Square" x="628.908203" y="168.855957" rx="9.000000" width="46.508602" height="46.508602" stroke="#151A34" stroke-opacity="1.000000" stroke-width="0.500000"/>
		<rect id="Square" x="675.416992" y="168.855957" rx="9.000000" width="46.508602" height="46.508602" stroke="#151A34" stroke-opacity="1.000000" stroke-width="0.500000"/>
		<rect id="Square" x="721.924805" y="168.855957" rx="9.000000" width="46.508602" height="46.508602" stroke="#151A34" stroke-opacity="1.000000" stroke-width="0.500000"/>
		<rect id="Square" x="768.434570" y="168.855957" rx="9.000000" width="46.508602" height="46.508602" stroke="#151A34" stroke-opacity="1.000000" stroke-width="0.500000"/>
		<rect id="Square" x="-161.738281" y="215.364746" rx="9.000000" width="46.508602" height="46.508602" stroke="#151A34" stroke-opacity="1.000000" stroke-width="0.500000"/>
		<rect id="Square" x="-115.229980" y="215.364746" rx="9.000000" width="46.508602" height="46.508602" stroke="#151A34" stroke-opacity="1.000000" stroke-width="0.500000"/>
		<rect id="Square" x="-68.721191" y="215.364746" rx="9.000000" width="46.508602" height="46.508602" stroke="#151A34" stroke-opacity="1.000000" stroke-width="0.500000"/>
		<rect id="Square" x="-22.212402" y="215.364746" rx="9.000000" width="46.508602" height="46.508602" stroke="#151A34" stroke-opacity="1.000000" stroke-width="0.500000"/>
		<rect id="Square" x="24.296143" y="215.364746" rx="9.000000" width="46.508602" height="46.508602" stroke="#151A34" stroke-opacity="1.000000" stroke-width="0.500000"/>
		<rect id="Square" x="70.804443" y="215.364746" rx="9.000000" width="46.508602" height="46.508602" stroke="#151A34" stroke-opacity="1.000000" stroke-width="0.500000"/>
		<rect id="Square" x="117.313232" y="215.364746" rx="9.000000" width="46.508602" height="46.508602" stroke="#151A34" stroke-opacity="1.000000" stroke-width="0.500000"/>
		<rect id="Square" x="163.821777" y="215.364746" rx="9.000000" width="46.508602" height="46.508602" stroke="#151A34" stroke-opacity="1.000000" stroke-width="0.500000"/>
		<rect id="Square" x="210.330811" y="215.364746" rx="9.000000" width="46.508602" height="46.508602" stroke="#151A34" stroke-opacity="1.000000" stroke-width="0.500000"/>
		<rect id="Square" x="256.839111" y="215.364746" rx="9.000000" width="46.508602" height="46.508602" stroke="#151A34" stroke-opacity="1.000000" stroke-width="0.500000"/>
		<rect id="Square" x="303.347412" y="215.364746" rx="9.000000" width="46.508602" height="46.508602" stroke="#151A34" stroke-opacity="1.000000" stroke-width="0.500000"/>
		<rect id="Square" x="349.855713" y="215.364746" rx="9.000000" width="46.508602" height="46.508602" stroke="#151A34" stroke-opacity="1.000000" stroke-width="0.500000"/>
		<rect id="Square" x="396.364746" y="215.364746" rx="9.000000" width="46.508602" height="46.508602" stroke="#151A34" stroke-opacity="1.000000" stroke-width="0.500000"/>
		<rect id="Square" x="442.872803" y="215.364746" rx="9.000000" width="46.508602" height="46.508602" stroke="#151A34" stroke-opacity="1.000000" stroke-width="0.500000"/>
		<rect id="Square" x="489.382324" y="215.364746" rx="9.000000" width="46.508602" height="46.508602" stroke="#151A34" stroke-opacity="1.000000" stroke-width="0.500000"/>
		<rect id="Square" x="535.890381" y="215.364746" rx="9.000000" width="46.508602" height="46.508602" stroke="#151A34" stroke-opacity="1.000000" stroke-width="0.500000"/>
		<rect id="Square" x="582.398926" y="215.364746" rx="9.000000" width="46.508602" height="46.508602" stroke="#151A34" stroke-opacity="1.000000" stroke-width="0.500000"/>
		<rect id="Square" x="628.908203" y="215.364746" rx="9.000000" width="46.508602" height="46.508602" stroke="#151A34" stroke-opacity="1.000000" stroke-width="0.500000"/>
		<rect id="Square" x="675.415527" y="215.364746" rx="9.000000" width="46.508602" height="46.508602" fill="#151A34" fill-opacity="1.000000"/>
		<rect id="Square" x="675.415527" y="215.364746" rx="9.000000" width="46.508602" height="46.508602" stroke="#151A34" stroke-opacity="1.000000" stroke-width="0.500000"/>
		<rect id="Square" x="721.924805" y="215.364746" rx="9.000000" width="46.508602" height="46.508602" stroke="#151A34" stroke-opacity="1.000000" stroke-width="0.500000"/>
		<rect id="Square" x="768.434570" y="215.364746" rx="9.000000" width="46.508602" height="46.508602" stroke="#151A34" stroke-opacity="1.000000" stroke-width="0.500000"/>
		<rect id="Square" x="-161.738281" y="261.873047" rx="9.000000" width="46.508602" height="46.508602" stroke="#151A34" stroke-opacity="1.000000" stroke-width="0.500000"/>
		<rect id="Square" x="-115.229980" y="261.873047" rx="9.000000" width="46.508602" height="46.508602" stroke="#151A34" stroke-opacity="1.000000" stroke-width="0.500000"/>
		<rect id="Square" x="-68.721191" y="261.873047" rx="9.000000" width="46.508602" height="46.508602" stroke="#151A34" stroke-opacity="1.000000" stroke-width="0.500000"/>
		<rect id="Square" x="-22.212402" y="261.873047" rx="9.000000" width="46.508602" height="46.508602" stroke="#151A34" stroke-opacity="1.000000" stroke-width="0.500000"/>
		<rect id="Square" x="24.296143" y="261.873047" rx="9.000000" width="46.508602" height="46.508602" stroke="#151A34" stroke-opacity="1.000000" stroke-width="0.500000"/>
		<rect id="Square" x="70.804443" y="261.873047" rx="9.000000" width="46.508602" height="46.508602" stroke="#151A34" stroke-opacity="1.000000" stroke-width="0.500000"/>
		<rect id="Square" x="117.313232" y="261.873047" rx="9.000000" width="46.508602" height="46.508602" stroke="#151A34" stroke-opacity="1.000000" stroke-width="0.500000"/>
		<rect id="Square" x="163.821777" y="261.873047" rx="9.000000" width="46.508602" height="46.508602" stroke="#151A34" stroke-opacity="1.000000" stroke-width="0.500000"/>
		<rect id="Square" x="210.330811" y="261.873047" rx="9.000000" width="46.508602" height="46.508602" stroke="#151A34" stroke-opacity="1.000000" stroke-width="0.500000"/>
		<rect id="Square" x="256.839111" y="261.873047" rx="9.000000" width="46.508602" height="46.508602" stroke="#151A34" stroke-opacity="1.000000" stroke-width="0.500000"/>
		<rect id="Square" x="303.347412" y="261.873047" rx="9.000000" width="46.508602" height="46.508602" stroke="#151A34" stroke-opacity="1.000000" stroke-width="0.500000"/>
		<rect id="Square" x="349.855713" y="261.873047" rx="9.000000" width="46.508602" height="46.508602" stroke="#151A34" stroke-opacity="1.000000" stroke-width="0.500000"/>
		<rect id="Square" x="396.364746" y="261.873047" rx="9.000000" width="46.508602" height="46.508602" stroke="#151A34" stroke-opacity="1.000000" stroke-width="0.500000"/>
		<rect id="Square" x="442.872803" y="261.873047" rx="9.000000" width="46.508602" height="46.508602" stroke="#151A34" stroke-opacity="1.000000" stroke-width="0.500000"/>
		<rect id="Square" x="489.382324" y="261.873047" rx="9.000000" width="46.508602" height="46.508602" stroke="#151A34" stroke-opacity="1.000000" stroke-width="0.500000"/>
		<rect id="Square" x="535.890381" y="261.873047" rx="9.000000" width="46.508602" height="46.508602" stroke="#151A34" stroke-opacity="1.000000" stroke-width="0.500000"/>
		<rect id="Square" x="582.398926" y="261.873047" rx="9.000000" width="46.508602" height="46.508602" stroke="#151A34" stroke-opacity="1.000000" stroke-width="0.500000"/>
		<rect id="Square" x="628.908203" y="261.873047" rx="9.000000" width="46.508602" height="46.508602" stroke="#151A34" stroke-opacity="1.000000" stroke-width="0.500000"/>
		<rect id="Square" x="675.415527" y="261.873047" rx="9.000000" width="46.508602" height="46.508602" stroke="#151A34" stroke-opacity="1.000000" stroke-width="0.500000"/>
		<rect id="Square" x="721.924805" y="261.873047" rx="9.000000" width="46.508602" height="46.508602" stroke="#151A34" stroke-opacity="1.000000" stroke-width="0.500000"/>
		<rect id="Square" x="768.434570" y="261.873047" rx="9.000000" width="46.508602" height="46.508602" stroke="#151A34" stroke-opacity="1.000000" stroke-width="0.500000"/>
		<rect id="Square" x="-161.738281" y="308.381836" rx="9.000000" width="46.508602" height="46.508602" stroke="#151A34" stroke-opacity="1.000000" stroke-width="0.500000"/>
		<rect id="Square" x="-115.229980" y="308.381836" rx="9.000000" width="46.508602" height="46.508602" stroke="#151A34" stroke-opacity="1.000000" stroke-width="0.500000"/>
		<rect id="Square" x="-68.721191" y="308.381836" rx="9.000000" width="46.508602" height="46.508602" stroke="#151A34" stroke-opacity="1.000000" stroke-width="0.500000"/>
		<rect id="Square" x="-22.212402" y="308.381836" rx="9.000000" width="46.508602" height="46.508602" stroke="#151A34" stroke-opacity="1.000000" stroke-width="0.500000"/>
		<rect id="Square" x="24.296143" y="308.381836" rx="9.000000" width="46.508602" height="46.508602" stroke="#151A34" stroke-opacity="1.000000" stroke-width="0.500000"/>
		<rect id="Square" x="70.804443" y="308.381836" rx="9.000000" width="46.508602" height="46.508602" stroke="#151A34" stroke-opacity="1.000000" stroke-width="0.500000"/>
		<rect id="Square" x="117.313232" y="308.381836" rx="9.000000" width="46.508602" height="46.508602" stroke="#151A34" stroke-opacity="1.000000" stroke-width="0.500000"/>
		<rect id="Square" x="163.821777" y="308.381836" rx="9.000000" width="46.508602" height="46.508602" stroke="#151A34" stroke-opacity="1.000000" stroke-width="0.500000"/>
		<rect id="Square" x="210.330811" y="308.381836" rx="9.000000" width="46.508602" height="46.508602" fill="#151A34" fill-opacity="1.000000"/>
		<rect id="Square" x="210.330811" y="308.381836" rx="9.000000" width="46.508602" height="46.508602" stroke="#151A34" stroke-opacity="1.000000" stroke-width="0.500000"/>
		<rect id="Square" x="256.839111" y="308.381836" rx="9.000000" width="46.508602" height="46.508602" stroke="#151A34" stroke-opacity="1.000000" stroke-width="0.500000"/>
		<rect id="Square" x="303.347412" y="308.381836" rx="9.000000" width="46.508602" height="46.508602" stroke="#151A34" stroke-opacity="1.000000" stroke-width="0.500000"/>
		<rect id="Square" x="349.855713" y="308.381836" rx="9.000000" width="46.508602" height="46.508602" stroke="#151A34" stroke-opacity="1.000000" stroke-width="0.500000"/>
		<rect id="Square" x="396.364746" y="308.381836" rx="9.000000" width="46.508602" height="46.508602" stroke="#151A34" stroke-opacity="1.000000" stroke-width="0.500000"/>
		<rect id="Square" x="442.872803" y="308.381836" rx="9.000000" width="46.508602" height="46.508602" stroke="#151A34" stroke-opacity="1.000000" stroke-width="0.500000"/>
		<rect id="Square" x="489.382324" y="308.381836" rx="9.000000" width="46.508602" height="46.508602" stroke="#151A34" stroke-opacity="1.000000" stroke-width="0.500000"/>
		<rect id="Square" x="535.890381" y="308.381836" rx="9.000000" width="46.508602" height="46.508602" stroke="#151A34" stroke-opacity="1.000000" stroke-width="0.500000"/>
		<rect id="Square" x="582.398926" y="308.381836" rx="9.000000" width="46.508602" height="46.508602" stroke="#151A34" stroke-opacity="1.000000" stroke-width="0.500000"/>
		<rect id="Square" x="628.908203" y="308.381836" rx="9.000000" width="46.508602" height="46.508602" stroke="#151A34" stroke-opacity="1.000000" stroke-width="0.500000"/>
		<rect id="Square" x="675.416992" y="308.381836" rx="9.000000" width="46.508602" height="46.508602" stroke="#151A34" stroke-opacity="1.000000" stroke-width="0.500000"/>
		<rect id="Square" x="721.924805" y="308.381836" rx="9.000000" width="46.508602" height="46.508602" stroke="#151A34" stroke-opacity="1.000000" stroke-width="0.500000"/>
		<rect id="Square" x="768.434570" y="308.381836" rx="9.000000" width="46.508602" height="46.508602" stroke="#151A34" stroke-opacity="1.000000" stroke-width="0.500000"/>
		<rect id="Square" x="-161.738281" y="354.890137" rx="9.000000" width="46.508602" height="46.508602" stroke="#151A34" stroke-opacity="1.000000" stroke-width="0.500000"/>
		<rect id="Square" x="-115.229980" y="354.890137" rx="9.000000" width="46.508602" height="46.508602" stroke="#151A34" stroke-opacity="1.000000" stroke-width="0.500000"/>
		<rect id="Square" x="-68.721191" y="354.890137" rx="9.000000" width="46.508602" height="46.508602" stroke="#151A34" stroke-opacity="1.000000" stroke-width="0.500000"/>
		<rect id="Square" x="-22.212402" y="354.890137" rx="9.000000" width="46.508602" height="46.508602" stroke="#151A34" stroke-opacity="1.000000" stroke-width="0.500000"/>
		<rect id="Square" x="24.296143" y="354.890137" rx="9.000000" width="46.508602" height="46.508602" fill="#151A34" fill-opacity="1.000000"/>
		<rect id="Square" x="24.296143" y="354.890137" rx="9.000000" width="46.508602" height="46.508602" stroke="#151A34" stroke-opacity="1.000000" stroke-width="0.500000"/>
		<rect id="Square" x="70.804443" y="354.890137" rx="9.000000" width="46.508602" height="46.508602" stroke="#151A34" stroke-opacity="1.000000" stroke-width="0.500000"/>
		<rect id="Square" x="117.313232" y="354.890137" rx="9.000000" width="46.508602" height="46.508602" stroke="#151A34" stroke-opacity="1.000000" stroke-width="0.500000"/>
		<rect id="Square" x="163.821777" y="354.890137" rx="9.000000" width="46.508602" height="46.508602" stroke="#151A34" stroke-opacity="1.000000" stroke-width="0.500000"/>
		<rect id="Square" x="210.330811" y="354.890137" rx="9.000000" width="46.508602" height="46.508602" stroke="#151A34" stroke-opacity="1.000000" stroke-width="0.500000"/>
		<rect id="Square" x="256.839111" y="354.890137" rx="9.000000" width="46.508602" height="46.508602" stroke="#151A34" stroke-opacity="1.000000" stroke-width="0.500000"/>
		<rect id="Square" x="303.347412" y="354.890137" rx="9.000000" width="46.508602" height="46.508602" stroke="#151A34" stroke-opacity="1.000000" stroke-width="0.500000"/>
		<rect id="Square" x="349.855713" y="354.890137" rx="9.000000" width="46.508602" height="46.508602" stroke="#151A34" stroke-opacity="1.000000" stroke-width="0.500000"/>
		<rect id="Square" x="396.364746" y="354.890137" rx="9.000000" width="46.508602" height="46.508602" stroke="#151A34" stroke-opacity="1.000000" stroke-width="0.500000"/>
		<rect id="Square" x="442.872803" y="354.890137" rx="9.000000" width="46.508602" height="46.508602" stroke="#151A34" stroke-opacity="1.000000" stroke-width="0.500000"/>
		<rect id="Square" x="489.382324" y="354.890137" rx="9.000000" width="46.508602" height="46.508602" stroke="#151A34" stroke-opacity="1.000000" stroke-width="0.500000"/>
		<rect id="Square" x="535.890381" y="354.890137" rx="9.000000" width="46.508602" height="46.508602" stroke="#151A34" stroke-opacity="1.000000" stroke-width="0.500000"/>
		<rect id="Square" x="582.398926" y="354.890137" rx="9.000000" width="46.508602" height="46.508602" stroke="#151A34" stroke-opacity="1.000000" stroke-width="0.500000"/>
		<rect id="Square" x="628.908203" y="354.890137" rx="9.000000" width="46.508602" height="46.508602" stroke="#151A34" stroke-opacity="1.000000" stroke-width="0.500000"/>
		<rect id="Square" x="675.415527" y="354.890137" rx="9.000000" width="46.508602" height="46.508602" stroke="#151A34" stroke-opacity="1.000000" stroke-width="0.500000"/>
		<rect id="Square" x="721.924805" y="354.890137" rx="9.000000" width="46.508602" height="46.508602" stroke="#151A34" stroke-opacity="1.000000" stroke-width="0.500000"/>
		<rect id="Square" x="768.434570" y="354.890137" rx="9.000000" width="46.508602" height="46.508602" stroke="#151A34" stroke-opacity="1.000000" stroke-width="0.500000"/>
		<rect id="Square" x="-161.738281" y="401.398926" rx="9.000000" width="46.508602" height="46.508602" stroke="#151A34" stroke-opacity="1.000000" stroke-width="0.500000"/>
		<rect id="Square" x="-115.229980" y="401.398926" rx="9.000000" width="46.508602" height="46.508602" stroke="#151A34" stroke-opacity="1.000000" stroke-width="0.500000"/>
		<rect id="Square" x="-68.721191" y="401.398926" rx="9.000000" width="46.508602" height="46.508602" stroke="#151A34" stroke-opacity="1.000000" stroke-width="0.500000"/>
		<rect id="Square" x="-22.212402" y="401.398926" rx="9.000000" width="46.508602" height="46.508602" stroke="#151A34" stroke-opacity="1.000000" stroke-width="0.500000"/>
		<rect id="Square" x="24.296143" y="401.398926" rx="9.000000" width="46.508602" height="46.508602" stroke="#151A34" stroke-opacity="1.000000" stroke-width="0.500000"/>
		<rect id="Square" x="70.804443" y="401.398926" rx="9.000000" width="46.508602" height="46.508602" stroke="#151A34" stroke-opacity="1.000000" stroke-width="0.500000"/>
		<rect id="Square" x="117.313232" y="401.398926" rx="9.000000" width="46.508602" height="46.508602" stroke="#151A34" stroke-opacity="1.000000" stroke-width="0.500000"/>
		<rect id="Square" x="163.821777" y="401.398926" rx="9.000000" width="46.508602" height="46.508602" stroke="#151A34" stroke-opacity="1.000000" stroke-width="0.500000"/>
		<rect id="Square" x="210.330811" y="401.398926" rx="9.000000" width="46.508602" height="46.508602" stroke="#151A34" stroke-opacity="1.000000" stroke-width="0.500000"/>
		<rect id="Square" x="256.839111" y="401.398926" rx="9.000000" width="46.508602" height="46.508602" stroke="#151A34" stroke-opacity="1.000000" stroke-width="0.500000"/>
		<rect id="Square" x="303.347412" y="401.398926" rx="9.000000" width="46.508602" height="46.508602" stroke="#151A34" stroke-opacity="1.000000" stroke-width="0.500000"/>
		<rect id="Square" x="349.855713" y="401.398926" rx="9.000000" width="46.508602" height="46.508602" stroke="#151A34" stroke-opacity="1.000000" stroke-width="0.500000"/>
		<rect id="Square" x="396.364746" y="401.398926" rx="9.000000" width="46.508602" height="46.508602" stroke="#151A34" stroke-opacity="1.000000" stroke-width="0.500000"/>
		<rect id="Square" x="442.872803" y="401.398926" rx="9.000000" width="46.508602" height="46.508602" stroke="#151A34" stroke-opacity="1.000000" stroke-width="0.500000"/>
		<rect id="Square" x="489.382324" y="401.398926" rx="9.000000" width="46.508602" height="46.508602" stroke="#151A34" stroke-opacity="1.000000" stroke-width="0.500000"/>
		<rect id="Square" x="535.890381" y="401.398926" rx="9.000000" width="46.508602" height="46.508602" stroke="#151A34" stroke-opacity="1.000000" stroke-width="0.500000"/>
		<rect id="Square" x="582.398926" y="401.398926" rx="9.000000" width="46.508602" height="46.508602" stroke="#151A34" stroke-opacity="1.000000" stroke-width="0.500000"/>
		<rect id="Square" x="628.908203" y="401.398926" rx="9.000000" width="46.508602" height="46.508602" stroke="#151A34" stroke-opacity="1.000000" stroke-width="0.500000"/>
		<rect id="Square" x="675.415527" y="401.398926" rx="9.000000" width="46.508602" height="46.508602" stroke="#151A34" stroke-opacity="1.000000" stroke-width="0.500000"/>
		<rect id="Square" x="721.924805" y="401.398926" rx="9.000000" width="46.508602" height="46.508602" stroke="#151A34" stroke-opacity="1.000000" stroke-width="0.500000"/>
		<rect id="Square" x="768.434570" y="401.398926" rx="9.000000" width="46.508602" height="46.508602" stroke="#151A34" stroke-opacity="1.000000" stroke-width="0.500000"/>
		<rect id="Square" x="-161.738281" y="447.907715" rx="9.000000" width="46.508602" height="46.508602" stroke="#151A34" stroke-opacity="1.000000" stroke-width="0.500000"/>
		<rect id="Square" x="-115.229980" y="447.907715" rx="9.000000" width="46.508602" height="46.508602" stroke="#151A34" stroke-opacity="1.000000" stroke-width="0.500000"/>
		<rect id="Square" x="-68.721191" y="447.907715" rx="9.000000" width="46.508602" height="46.508602" stroke="#151A34" stroke-opacity="1.000000" stroke-width="0.500000"/>
		<rect id="Square" x="-22.212402" y="447.907715" rx="9.000000" width="46.508602" height="46.508602" stroke="#151A34" stroke-opacity="1.000000" stroke-width="0.500000"/>
		<rect id="Square" x="24.296143" y="447.907715" rx="9.000000" width="46.508602" height="46.508602" stroke="#151A34" stroke-opacity="1.000000" stroke-width="0.500000"/>
		<rect id="Square" x="70.804443" y="447.907715" rx="9.000000" width="46.508602" height="46.508602" stroke="#151A34" stroke-opacity="1.000000" stroke-width="0.500000"/>
		<rect id="Square" x="117.313232" y="447.907715" rx="9.000000" width="46.508602" height="46.508602" stroke="#151A34" stroke-opacity="1.000000" stroke-width="0.500000"/>
		<rect id="Square" x="163.821777" y="447.907715" rx="9.000000" width="46.508602" height="46.508602" stroke="#151A34" stroke-opacity="1.000000" stroke-width="0.500000"/>
		<rect id="Square" x="210.330811" y="447.907715" rx="9.000000" width="46.508602" height="46.508602" stroke="#151A34" stroke-opacity="1.000000" stroke-width="0.500000"/>
		<rect id="Square" x="256.839111" y="447.907715" rx="9.000000" width="46.508602" height="46.508602" stroke="#151A34" stroke-opacity="1.000000" stroke-width="0.500000"/>
		<rect id="Square" x="303.347412" y="447.907715" rx="9.000000" width="46.508602" height="46.508602" stroke="#151A34" stroke-opacity="1.000000" stroke-width="0.500000"/>
		<rect id="Square" x="349.855713" y="447.907715" rx="9.000000" width="46.508602" height="46.508602" stroke="#151A34" stroke-opacity="1.000000" stroke-width="0.500000"/>
		<rect id="Square" x="396.364746" y="447.907715" rx="9.000000" width="46.508602" height="46.508602" stroke="#151A34" stroke-opacity="1.000000" stroke-width="0.500000"/>
		<rect id="Square" x="442.872803" y="447.907715" rx="9.000000" width="46.508602" height="46.508602" stroke="#151A34" stroke-opacity="1.000000" stroke-width="0.500000"/>
		<rect id="Square" x="489.382324" y="447.907715" rx="9.000000" width="46.508602" height="46.508602" stroke="#151A34" stroke-opacity="1.000000" stroke-width="0.500000"/>
		<rect id="Square" x="535.890381" y="447.907715" rx="9.000000" width="46.508602" height="46.508602" stroke="#151A34" stroke-opacity="1.000000" stroke-width="0.500000"/>
		<rect id="Square" x="582.398926" y="447.907715" rx="9.000000" width="46.508602" height="46.508602" stroke="#151A34" stroke-opacity="1.000000" stroke-width="0.500000"/>
		<rect id="Square" x="628.908203" y="447.907715" rx="9.000000" width="46.508602" height="46.508602" stroke="#151A34" stroke-opacity="1.000000" stroke-width="0.500000"/>
		<rect id="Square" x="675.415527" y="447.907715" rx="9.000000" width="46.508602" height="46.508602" stroke="#151A34" stroke-opacity="1.000000" stroke-width="0.500000"/>
		<rect id="Square" x="721.924805" y="447.907715" rx="9.000000" width="46.508602" height="46.508602" stroke="#151A34" stroke-opacity="1.000000" stroke-width="0.500000"/>
		<rect id="Square" x="768.434570" y="447.907715" rx="9.000000" width="46.508602" height="46.508602" stroke="#151A34" stroke-opacity="1.000000" stroke-width="0.500000"/>
		<rect id="Square" x="-161.738281" y="494.416504" rx="9.000000" width="46.508602" height="46.508602" stroke="#151A34" stroke-opacity="1.000000" stroke-width="0.500000"/>
		<rect id="Square" x="-115.229980" y="494.416504" rx="9.000000" width="46.508602" height="46.508602" stroke="#151A34" stroke-opacity="1.000000" stroke-width="0.500000"/>
		<rect id="Square" x="-68.721191" y="494.416504" rx="9.000000" width="46.508602" height="46.508602" stroke="#151A34" stroke-opacity="1.000000" stroke-width="0.500000"/>
		<rect id="Square" x="-22.212402" y="494.416504" rx="9.000000" width="46.508602" height="46.508602" stroke="#151A34" stroke-opacity="1.000000" stroke-width="0.500000"/>
		<rect id="Square" x="24.296143" y="494.416504" rx="9.000000" width="46.508602" height="46.508602" stroke="#151A34" stroke-opacity="1.000000" stroke-width="0.500000"/>
		<rect id="Square" x="70.804443" y="494.416504" rx="9.000000" width="46.508602" height="46.508602" stroke="#151A34" stroke-opacity="1.000000" stroke-width="0.500000"/>
		<rect id="Square" x="117.313232" y="494.416504" rx="9.000000" width="46.508602" height="46.508602" stroke="#151A34" stroke-opacity="1.000000" stroke-width="0.500000"/>
		<rect id="Square" x="163.821777" y="494.416504" rx="9.000000" width="46.508602" height="46.508602" stroke="#151A34" stroke-opacity="1.000000" stroke-width="0.500000"/>
		<rect id="Square" x="210.330811" y="494.416504" rx="9.000000" width="46.508602" height="46.508602" stroke="#151A34" stroke-opacity="1.000000" stroke-width="0.500000"/>
		<rect id="Square" x="256.839111" y="494.416504" rx="9.000000" width="46.508602" height="46.508602" stroke="#151A34" stroke-opacity="1.000000" stroke-width="0.500000"/>
		<rect id="Square" x="303.347412" y="494.416504" rx="9.000000" width="46.508602" height="46.508602" stroke="#151A34" stroke-opacity="1.000000" stroke-width="0.500000"/>
		<rect id="Square" x="349.855713" y="494.416504" rx="9.000000" width="46.508602" height="46.508602" stroke="#151A34" stroke-opacity="1.000000" stroke-width="0.500000"/>
		<rect id="Square" x="396.364746" y="494.416504" rx="9.000000" width="46.508602" height="46.508602" stroke="#151A34" stroke-opacity="1.000000" stroke-width="0.500000"/>
		<rect id="Square" x="442.872803" y="494.416504" rx="9.000000" width="46.508602" height="46.508602" stroke="#151A34" stroke-opacity="1.000000" stroke-width="0.500000"/>
		<rect id="Square" x="489.382324" y="494.416504" rx="9.000000" width="46.508602" height="46.508602" stroke="#151A34" stroke-opacity="1.000000" stroke-width="0.500000"/>
		<rect id="Square" x="535.890381" y="494.416504" rx="9.000000" width="46.508602" height="46.508602" stroke="#151A34" stroke-opacity="1.000000" stroke-width="0.500000"/>
		<rect id="Square" x="582.398926" y="494.416504" rx="9.000000" width="46.508602" height="46.508602" stroke="#151A34" stroke-opacity="1.000000" stroke-width="0.500000"/>
		<rect id="Square" x="628.908203" y="494.416504" rx="9.000000" width="46.508602" height="46.508602" stroke="#151A34" stroke-opacity="1.000000" stroke-width="0.500000"/>
		<rect id="Square" x="675.415527" y="494.416504" rx="9.000000" width="46.508602" height="46.508602" stroke="#151A34" stroke-opacity="1.000000" stroke-width="0.500000"/>
		<rect id="Square" x="721.924805" y="494.416504" rx="9.000000" width="46.508602" height="46.508602" stroke="#151A34" stroke-opacity="1.000000" stroke-width="0.500000"/>
		<rect id="Square" x="768.434570" y="494.416504" rx="9.000000" width="46.508602" height="46.508602" stroke="#151A34" stroke-opacity="1.000000" stroke-width="0.500000"/>
		<rect id="Square" x="-161.738281" y="540.925293" rx="9.000000" width="46.508602" height="46.508602" stroke="#151A34" stroke-opacity="1.000000" stroke-width="0.500000"/>
		<rect id="Square" x="-115.229980" y="540.925293" rx="9.000000" width="46.508602" height="46.508602" stroke="#151A34" stroke-opacity="1.000000" stroke-width="0.500000"/>
		<rect id="Square" x="-68.721191" y="540.925293" rx="9.000000" width="46.508602" height="46.508602" stroke="#151A34" stroke-opacity="1.000000" stroke-width="0.500000"/>
		<rect id="Square" x="-22.212402" y="540.925293" rx="9.000000" width="46.508602" height="46.508602" stroke="#151A34" stroke-opacity="1.000000" stroke-width="0.500000"/>
		<rect id="Square" x="24.296143" y="540.925293" rx="9.000000" width="46.508602" height="46.508602" stroke="#151A34" stroke-opacity="1.000000" stroke-width="0.500000"/>
		<rect id="Square" x="70.804443" y="540.925293" rx="9.000000" width="46.508602" height="46.508602" stroke="#151A34" stroke-opacity="1.000000" stroke-width="0.500000"/>
		<rect id="Square" x="117.313232" y="540.925293" rx="9.000000" width="46.508602" height="46.508602" stroke="#151A34" stroke-opacity="1.000000" stroke-width="0.500000"/>
		<rect id="Square" x="163.821777" y="540.925293" rx="9.000000" width="46.508602" height="46.508602" stroke="#151A34" stroke-opacity="1.000000" stroke-width="0.500000"/>
		<rect id="Square" x="210.330811" y="540.925293" rx="9.000000" width="46.508602" height="46.508602" stroke="#151A34" stroke-opacity="1.000000" stroke-width="0.500000"/>
		<rect id="Square" x="256.839111" y="540.925293" rx="9.000000" width="46.508602" height="46.508602" stroke="#151A34" stroke-opacity="1.000000" stroke-width="0.500000"/>
		<rect id="Square" x="303.347412" y="540.925293" rx="9.000000" width="46.508602" height="46.508602" stroke="#151A34" stroke-opacity="1.000000" stroke-width="0.500000"/>
		<rect id="Square" x="349.855713" y="540.925293" rx="9.000000" width="46.508602" height="46.508602" stroke="#151A34" stroke-opacity="1.000000" stroke-width="0.500000"/>
		<rect id="Square" x="396.364746" y="540.925293" rx="9.000000" width="46.508602" height="46.508602" stroke="#151A34" stroke-opacity="1.000000" stroke-width="0.500000"/>
		<rect id="Square" x="442.872803" y="540.925293" rx="9.000000" width="46.508602" height="46.508602" stroke="#151A34" stroke-opacity="1.000000" stroke-width="0.500000"/>
		<rect id="Square" x="489.382324" y="540.925293" rx="9.000000" width="46.508602" height="46.508602" stroke="#151A34" stroke-opacity="1.000000" stroke-width="0.500000"/>
		<rect id="Square" x="535.890381" y="540.925293" rx="9.000000" width="46.508602" height="46.508602" stroke="#151A34" stroke-opacity="1.000000" stroke-width="0.500000"/>
		<rect id="Square" x="582.398926" y="540.925293" rx="9.000000" width="46.508602" height="46.508602" stroke="#151A34" stroke-opacity="1.000000" stroke-width="0.500000"/>
		<rect id="Square" x="628.908203" y="540.925293" rx="9.000000" width="46.508602" height="46.508602" stroke="#151A34" stroke-opacity="1.000000" stroke-width="0.500000"/>
		<rect id="Square" x="675.415527" y="540.925293" rx="9.000000" width="46.508602" height="46.508602" stroke="#151A34" stroke-opacity="1.000000" stroke-width="0.500000"/>
		<rect id="Square" x="721.924805" y="540.925293" rx="9.000000" width="46.508602" height="46.508602" stroke="#151A34" stroke-opacity="1.000000" stroke-width="0.500000"/>
		<rect id="Square" x="768.434570" y="540.925293" rx="9.000000" width="46.508602" height="46.508602" stroke="#151A34" stroke-opacity="1.000000" stroke-width="0.500000"/>
	</g>
</svg>
