<svg width="1582.885742" height="752.885742" viewBox="0 0 1582.89 752.886" fill="none" xmlns="http://www.w3.org/2000/svg" xmlns:xlink="http://www.w3.org/1999/xlink">
	<desc>
			Created with Pixso.
	</desc>
	<defs>
		<radialGradient gradientTransform="translate(791.443 425.507) rotate(90) scale(532.436 799.485)" cx="0.000000" cy="0.000000" r="1.000000" id="paint_radial_2039_1438_0" gradientUnits="userSpaceOnUse">
			<stop stop-color="#060A23"/>
			<stop offset="1.000000" stop-color="#060A23" stop-opacity="0.000000"/>
		</radialGradient>
	</defs>
	<mask id="mask2039_1438" mask-type="alpha" maskUnits="userSpaceOnUse" x="0.942871" y="0.942871" width="1581.000000" height="751.000000">
		<rect id="Gradient" x="0.942871" y="0.942871" width="1581.000000" height="751.000000" fill="url(#paint_radial_2039_1438_0)" fill-opacity="1.000000"/>
		<rect id="Gradient" x="0.471680" y="0.471680" width="1581.942871" height="751.942871" stroke="#0A101F" stroke-opacity="1.000000" stroke-width="0.942857"/>
	</mask>
	<g mask="url(#mask2039_1438)">
		<rect id="Square" x="92.261719" y="116.821777" rx="9.000000" width="46.508602" height="46.508602" stroke="#151A34" stroke-opacity="1.000000" stroke-width="0.500000"/>
		<rect id="Square" x="138.770020" y="116.821777" rx="9.000000" width="46.508602" height="46.508602" stroke="#151A34" stroke-opacity="1.000000" stroke-width="0.500000"/>
		<rect id="Square" x="185.278809" y="116.821777" rx="9.000000" width="46.508602" height="46.508602" stroke="#151A34" stroke-opacity="1.000000" stroke-width="0.500000"/>
		<rect id="Square" x="231.787598" y="116.821777" rx="9.000000" width="46.508602" height="46.508602" stroke="#151A34" stroke-opacity="1.000000" stroke-width="0.500000"/>
		<rect id="Square" x="278.296387" y="116.821777" rx="9.000000" width="46.508602" height="46.508602" stroke="#151A34" stroke-opacity="1.000000" stroke-width="0.500000"/>
		<rect id="Square" x="324.804199" y="116.821777" rx="9.000000" width="46.508602" height="46.508602" stroke="#151A34" stroke-opacity="1.000000" stroke-width="0.500000"/>
		<rect id="Square" x="371.312988" y="116.821777" rx="9.000000" width="46.508602" height="46.508602" stroke="#151A34" stroke-opacity="1.000000" stroke-width="0.500000"/>
		<rect id="Square" x="417.821777" y="116.821777" rx="9.000000" width="46.508602" height="46.508602" stroke="#151A34" stroke-opacity="1.000000" stroke-width="0.500000"/>
		<rect id="Square" x="464.330566" y="116.821777" rx="9.000000" width="46.508602" height="46.508602" stroke="#151A34" stroke-opacity="1.000000" stroke-width="0.500000"/>
		<rect id="Square" x="510.839355" y="116.821777" rx="9.000000" width="46.508602" height="46.508602" stroke="#151A34" stroke-opacity="1.000000" stroke-width="0.500000"/>
		<rect id="Square" x="557.347168" y="116.821777" rx="9.000000" width="46.508602" height="46.508602" stroke="#151A34" stroke-opacity="1.000000" stroke-width="0.500000"/>
		<rect id="Square" x="603.855957" y="116.821777" rx="9.000000" width="46.508602" height="46.508602" stroke="#151A34" stroke-opacity="1.000000" stroke-width="0.500000"/>
		<rect id="Square" x="650.364746" y="116.821777" rx="9.000000" width="46.508602" height="46.508602" stroke="#151A34" stroke-opacity="1.000000" stroke-width="0.500000"/>
		<rect id="Square" x="696.872559" y="116.821777" rx="9.000000" width="46.508602" height="46.508602" stroke="#151A34" stroke-opacity="1.000000" stroke-width="0.500000"/>
		<rect id="Square" x="743.382324" y="116.821777" rx="9.000000" width="46.508602" height="46.508602" stroke="#151A34" stroke-opacity="1.000000" stroke-width="0.500000"/>
		<rect id="Square" x="789.890137" y="116.821777" rx="9.000000" width="46.508602" height="46.508602" stroke="#151A34" stroke-opacity="1.000000" stroke-width="0.500000"/>
		<rect id="Square" x="836.398926" y="116.821777" rx="9.000000" width="46.508602" height="46.508602" stroke="#151A34" stroke-opacity="1.000000" stroke-width="0.500000"/>
		<rect id="Square" x="882.907715" y="116.821777" rx="9.000000" width="46.508602" height="46.508602" stroke="#151A34" stroke-opacity="1.000000" stroke-width="0.500000"/>
		<rect id="Square" x="929.415527" y="116.821777" rx="9.000000" width="46.508602" height="46.508602" stroke="#151A34" stroke-opacity="1.000000" stroke-width="0.500000"/>
		<rect id="Square" x="975.924805" y="116.821777" rx="9.000000" width="46.508602" height="46.508602" stroke="#151A34" stroke-opacity="1.000000" stroke-width="0.500000"/>
		<rect id="Square" x="1022.434570" y="116.821777" rx="9.000000" width="46.508602" height="46.508602" stroke="#151A34" stroke-opacity="1.000000" stroke-width="0.500000"/>
		<rect id="Square" x="92.261719" y="163.330566" rx="9.000000" width="46.508602" height="46.508602" stroke="#151A34" stroke-opacity="1.000000" stroke-width="0.500000"/>
		<rect id="Square" x="138.770020" y="163.330566" rx="9.000000" width="46.508602" height="46.508602" stroke="#151A34" stroke-opacity="1.000000" stroke-width="0.500000"/>
		<rect id="Square" x="185.278809" y="163.330566" rx="9.000000" width="46.508602" height="46.508602" fill="#151A34" fill-opacity="1.000000"/>
		<rect id="Square" x="185.278809" y="163.330566" rx="9.000000" width="46.508602" height="46.508602" stroke="#151A34" stroke-opacity="1.000000" stroke-width="0.500000"/>
		<rect id="Square" x="231.787598" y="163.330566" rx="9.000000" width="46.508602" height="46.508602" stroke="#151A34" stroke-opacity="1.000000" stroke-width="0.500000"/>
		<rect id="Square" x="278.296387" y="163.330566" rx="9.000000" width="46.508602" height="46.508602" stroke="#151A34" stroke-opacity="1.000000" stroke-width="0.500000"/>
		<rect id="Square" x="324.804199" y="163.330566" rx="9.000000" width="46.508602" height="46.508602" stroke="#151A34" stroke-opacity="1.000000" stroke-width="0.500000"/>
		<rect id="Square" x="371.312988" y="163.330566" rx="9.000000" width="46.508602" height="46.508602" stroke="#151A34" stroke-opacity="1.000000" stroke-width="0.500000"/>
		<rect id="Square" x="417.821777" y="163.330566" rx="9.000000" width="46.508602" height="46.508602" stroke="#151A34" stroke-opacity="1.000000" stroke-width="0.500000"/>
		<rect id="Square" x="464.330566" y="163.330566" rx="9.000000" width="46.508602" height="46.508602" stroke="#151A34" stroke-opacity="1.000000" stroke-width="0.500000"/>
		<rect id="Square" x="510.839355" y="163.330566" rx="9.000000" width="46.508602" height="46.508602" fill="#151A34" fill-opacity="1.000000"/>
		<rect id="Square" x="510.839355" y="163.330566" rx="9.000000" width="46.508602" height="46.508602" stroke="#151A34" stroke-opacity="1.000000" stroke-width="0.500000"/>
		<rect id="Square" x="557.347168" y="163.330566" rx="9.000000" width="46.508602" height="46.508602" stroke="#151A34" stroke-opacity="1.000000" stroke-width="0.500000"/>
		<rect id="Square" x="603.855957" y="163.330566" rx="9.000000" width="46.508602" height="46.508602" stroke="#151A34" stroke-opacity="1.000000" stroke-width="0.500000"/>
		<rect id="Square" x="650.364746" y="163.330566" rx="9.000000" width="46.508602" height="46.508602" stroke="#151A34" stroke-opacity="1.000000" stroke-width="0.500000"/>
		<rect id="Square" x="696.872559" y="163.330566" rx="9.000000" width="46.508602" height="46.508602" stroke="#151A34" stroke-opacity="1.000000" stroke-width="0.500000"/>
		<rect id="Square" x="743.382324" y="163.330566" rx="9.000000" width="46.508602" height="46.508602" stroke="#151A34" stroke-opacity="1.000000" stroke-width="0.500000"/>
		<rect id="Square" x="789.890137" y="163.330566" rx="9.000000" width="46.508602" height="46.508602" stroke="#151A34" stroke-opacity="1.000000" stroke-width="0.500000"/>
		<rect id="Square" x="836.398926" y="163.330566" rx="9.000000" width="46.508602" height="46.508602" stroke="#151A34" stroke-opacity="1.000000" stroke-width="0.500000"/>
		<rect id="Square" x="882.907715" y="163.330566" rx="9.000000" width="46.508602" height="46.508602" stroke="#151A34" stroke-opacity="1.000000" stroke-width="0.500000"/>
		<rect id="Square" x="929.415527" y="163.330566" rx="9.000000" width="46.508602" height="46.508602" stroke="#151A34" stroke-opacity="1.000000" stroke-width="0.500000"/>
		<rect id="Square" x="975.924805" y="163.330566" rx="9.000000" width="46.508602" height="46.508602" stroke="#151A34" stroke-opacity="1.000000" stroke-width="0.500000"/>
		<rect id="Square" x="1022.434570" y="163.330566" rx="9.000000" width="46.508602" height="46.508602" stroke="#151A34" stroke-opacity="1.000000" stroke-width="0.500000"/>
		<rect id="Square" x="92.261719" y="209.838867" rx="9.000000" width="46.508602" height="46.508602" stroke="#151A34" stroke-opacity="1.000000" stroke-width="0.500000"/>
		<rect id="Square" x="138.770020" y="209.838867" rx="9.000000" width="46.508602" height="46.508602" stroke="#151A34" stroke-opacity="1.000000" stroke-width="0.500000"/>
		<rect id="Square" x="185.278809" y="209.838867" rx="9.000000" width="46.508602" height="46.508602" stroke="#151A34" stroke-opacity="1.000000" stroke-width="0.500000"/>
		<rect id="Square" x="231.787598" y="209.838867" rx="9.000000" width="46.508602" height="46.508602" stroke="#151A34" stroke-opacity="1.000000" stroke-width="0.500000"/>
		<rect id="Square" x="278.296387" y="209.838867" rx="9.000000" width="46.508602" height="46.508602" stroke="#151A34" stroke-opacity="1.000000" stroke-width="0.500000"/>
		<rect id="Square" x="324.804199" y="209.838867" rx="9.000000" width="46.508602" height="46.508602" stroke="#151A34" stroke-opacity="1.000000" stroke-width="0.500000"/>
		<rect id="Square" x="371.312988" y="209.838867" rx="9.000000" width="46.508602" height="46.508602" stroke="#151A34" stroke-opacity="1.000000" stroke-width="0.500000"/>
		<rect id="Square" x="417.821777" y="209.838867" rx="9.000000" width="46.508602" height="46.508602" stroke="#151A34" stroke-opacity="1.000000" stroke-width="0.500000"/>
		<rect id="Square" x="464.330566" y="209.838867" rx="9.000000" width="46.508602" height="46.508602" stroke="#151A34" stroke-opacity="1.000000" stroke-width="0.500000"/>
		<rect id="Square" x="510.839355" y="209.838867" rx="9.000000" width="46.508602" height="46.508602" stroke="#151A34" stroke-opacity="1.000000" stroke-width="0.500000"/>
		<rect id="Square" x="557.347168" y="209.838867" rx="9.000000" width="46.508602" height="46.508602" stroke="#151A34" stroke-opacity="1.000000" stroke-width="0.500000"/>
		<rect id="Square" x="603.855957" y="209.838867" rx="9.000000" width="46.508602" height="46.508602" stroke="#151A34" stroke-opacity="1.000000" stroke-width="0.500000"/>
		<rect id="Square" x="650.364746" y="209.838867" rx="9.000000" width="46.508602" height="46.508602" stroke="#151A34" stroke-opacity="1.000000" stroke-width="0.500000"/>
		<rect id="Square" x="696.872559" y="209.838867" rx="9.000000" width="46.508602" height="46.508602" stroke="#151A34" stroke-opacity="1.000000" stroke-width="0.500000"/>
		<rect id="Square" x="743.382324" y="209.838867" rx="9.000000" width="46.508602" height="46.508602" stroke="#151A34" stroke-opacity="1.000000" stroke-width="0.500000"/>
		<rect id="Square" x="789.890137" y="209.838867" rx="9.000000" width="46.508602" height="46.508602" stroke="#151A34" stroke-opacity="1.000000" stroke-width="0.500000"/>
		<rect id="Square" x="836.398926" y="209.838867" rx="9.000000" width="46.508602" height="46.508602" fill="#151A34" fill-opacity="1.000000"/>
		<rect id="Square" x="836.398926" y="209.838867" rx="9.000000" width="46.508602" height="46.508602" stroke="#151A34" stroke-opacity="1.000000" stroke-width="0.500000"/>
		<rect id="Square" x="882.907715" y="209.838867" rx="9.000000" width="46.508602" height="46.508602" stroke="#151A34" stroke-opacity="1.000000" stroke-width="0.500000"/>
		<rect id="Square" x="929.415527" y="209.838867" rx="9.000000" width="46.508602" height="46.508602" stroke="#151A34" stroke-opacity="1.000000" stroke-width="0.500000"/>
		<rect id="Square" x="975.924805" y="209.838867" rx="9.000000" width="46.508602" height="46.508602" stroke="#151A34" stroke-opacity="1.000000" stroke-width="0.500000"/>
		<rect id="Square" x="1022.434570" y="209.838867" rx="9.000000" width="46.508602" height="46.508602" stroke="#151A34" stroke-opacity="1.000000" stroke-width="0.500000"/>
		<rect id="Square" x="92.261719" y="256.347656" rx="9.000000" width="46.508602" height="46.508602" stroke="#151A34" stroke-opacity="1.000000" stroke-width="0.500000"/>
		<rect id="Square" x="138.770020" y="256.347656" rx="9.000000" width="46.508602" height="46.508602" stroke="#151A34" stroke-opacity="1.000000" stroke-width="0.500000"/>
		<rect id="Square" x="185.278809" y="256.347656" rx="9.000000" width="46.508602" height="46.508602" stroke="#151A34" stroke-opacity="1.000000" stroke-width="0.500000"/>
		<rect id="Square" x="231.787598" y="256.347656" rx="9.000000" width="46.508602" height="46.508602" stroke="#151A34" stroke-opacity="1.000000" stroke-width="0.500000"/>
		<rect id="Square" x="278.296387" y="256.347656" rx="9.000000" width="46.508602" height="46.508602" stroke="#151A34" stroke-opacity="1.000000" stroke-width="0.500000"/>
		<rect id="Square" x="324.804199" y="256.347656" rx="9.000000" width="46.508602" height="46.508602" stroke="#151A34" stroke-opacity="1.000000" stroke-width="0.500000"/>
		<rect id="Square" x="371.312988" y="256.347656" rx="9.000000" width="46.508602" height="46.508602" stroke="#151A34" stroke-opacity="1.000000" stroke-width="0.500000"/>
		<rect id="Square" x="417.821777" y="256.347656" rx="9.000000" width="46.508602" height="46.508602" stroke="#151A34" stroke-opacity="1.000000" stroke-width="0.500000"/>
		<rect id="Square" x="464.330566" y="256.347656" rx="9.000000" width="46.508602" height="46.508602" stroke="#151A34" stroke-opacity="1.000000" stroke-width="0.500000"/>
		<rect id="Square" x="510.839355" y="256.347656" rx="9.000000" width="46.508602" height="46.508602" stroke="#151A34" stroke-opacity="1.000000" stroke-width="0.500000"/>
		<rect id="Square" x="557.347168" y="256.347656" rx="9.000000" width="46.508602" height="46.508602" stroke="#151A34" stroke-opacity="1.000000" stroke-width="0.500000"/>
		<rect id="Square" x="603.855957" y="256.347656" rx="9.000000" width="46.508602" height="46.508602" stroke="#151A34" stroke-opacity="1.000000" stroke-width="0.500000"/>
		<rect id="Square" x="650.364746" y="256.347656" rx="9.000000" width="46.508602" height="46.508602" stroke="#151A34" stroke-opacity="1.000000" stroke-width="0.500000"/>
		<rect id="Square" x="696.872559" y="256.347656" rx="9.000000" width="46.508602" height="46.508602" stroke="#151A34" stroke-opacity="1.000000" stroke-width="0.500000"/>
		<rect id="Square" x="743.382324" y="256.347656" rx="9.000000" width="46.508602" height="46.508602" stroke="#151A34" stroke-opacity="1.000000" stroke-width="0.500000"/>
		<rect id="Square" x="789.890137" y="256.347656" rx="9.000000" width="46.508602" height="46.508602" stroke="#151A34" stroke-opacity="1.000000" stroke-width="0.500000"/>
		<rect id="Square" x="836.398926" y="256.347656" rx="9.000000" width="46.508602" height="46.508602" stroke="#151A34" stroke-opacity="1.000000" stroke-width="0.500000"/>
		<rect id="Square" x="882.907715" y="256.347656" rx="9.000000" width="46.508602" height="46.508602" stroke="#151A34" stroke-opacity="1.000000" stroke-width="0.500000"/>
		<rect id="Square" x="929.415527" y="256.347656" rx="9.000000" width="46.508602" height="46.508602" stroke="#151A34" stroke-opacity="1.000000" stroke-width="0.500000"/>
		<rect id="Square" x="975.924805" y="256.347656" rx="9.000000" width="46.508602" height="46.508602" stroke="#151A34" stroke-opacity="1.000000" stroke-width="0.500000"/>
		<rect id="Square" x="1022.434570" y="256.347656" rx="9.000000" width="46.508602" height="46.508602" stroke="#151A34" stroke-opacity="1.000000" stroke-width="0.500000"/>
		<rect id="Square" x="92.261719" y="302.855957" rx="9.000000" width="46.508602" height="46.508602" stroke="#151A34" stroke-opacity="1.000000" stroke-width="0.500000"/>
		<rect id="Square" x="138.770020" y="302.855957" rx="9.000000" width="46.508602" height="46.508602" stroke="#151A34" stroke-opacity="1.000000" stroke-width="0.500000"/>
		<rect id="Square" x="185.278809" y="302.855957" rx="9.000000" width="46.508602" height="46.508602" stroke="#151A34" stroke-opacity="1.000000" stroke-width="0.500000"/>
		<rect id="Square" x="231.787598" y="302.855957" rx="9.000000" width="46.508602" height="46.508602" fill="#151A34" fill-opacity="1.000000"/>
		<rect id="Square" x="231.787598" y="302.855957" rx="9.000000" width="46.508602" height="46.508602" stroke="#151A34" stroke-opacity="1.000000" stroke-width="0.500000"/>
		<rect id="Square" x="278.296387" y="302.855957" rx="9.000000" width="46.508602" height="46.508602" stroke="#151A34" stroke-opacity="1.000000" stroke-width="0.500000"/>
		<rect id="Square" x="324.804199" y="302.855957" rx="9.000000" width="46.508602" height="46.508602" stroke="#151A34" stroke-opacity="1.000000" stroke-width="0.500000"/>
		<rect id="Square" x="371.312988" y="302.855957" rx="9.000000" width="46.508602" height="46.508602" stroke="#151A34" stroke-opacity="1.000000" stroke-width="0.500000"/>
		<rect id="Square" x="417.821777" y="302.855957" rx="9.000000" width="46.508602" height="46.508602" stroke="#151A34" stroke-opacity="1.000000" stroke-width="0.500000"/>
		<rect id="Square" x="464.330566" y="302.855957" rx="9.000000" width="46.508602" height="46.508602" stroke="#151A34" stroke-opacity="1.000000" stroke-width="0.500000"/>
		<rect id="Square" x="510.839355" y="302.855957" rx="9.000000" width="46.508602" height="46.508602" stroke="#151A34" stroke-opacity="1.000000" stroke-width="0.500000"/>
		<rect id="Square" x="557.347168" y="302.855957" rx="9.000000" width="46.508602" height="46.508602" stroke="#151A34" stroke-opacity="1.000000" stroke-width="0.500000"/>
		<rect id="Square" x="603.855957" y="302.855957" rx="9.000000" width="46.508602" height="46.508602" stroke="#151A34" stroke-opacity="1.000000" stroke-width="0.500000"/>
		<rect id="Square" x="650.364746" y="302.855957" rx="9.000000" width="46.508602" height="46.508602" fill="#151A34" fill-opacity="1.000000"/>
		<rect id="Square" x="650.364746" y="302.855957" rx="9.000000" width="46.508602" height="46.508602" stroke="#151A34" stroke-opacity="1.000000" stroke-width="0.500000"/>
		<rect id="Square" x="696.872559" y="302.855957" rx="9.000000" width="46.508602" height="46.508602" stroke="#151A34" stroke-opacity="1.000000" stroke-width="0.500000"/>
		<rect id="Square" x="743.382324" y="302.855957" rx="9.000000" width="46.508602" height="46.508602" stroke="#151A34" stroke-opacity="1.000000" stroke-width="0.500000"/>
		<rect id="Square" x="789.890137" y="302.855957" rx="9.000000" width="46.508602" height="46.508602" stroke="#151A34" stroke-opacity="1.000000" stroke-width="0.500000"/>
		<rect id="Square" x="836.398926" y="302.855957" rx="9.000000" width="46.508602" height="46.508602" stroke="#151A34" stroke-opacity="1.000000" stroke-width="0.500000"/>
		<rect id="Square" x="882.907715" y="302.855957" rx="9.000000" width="46.508602" height="46.508602" stroke="#151A34" stroke-opacity="1.000000" stroke-width="0.500000"/>
		<rect id="Square" x="929.416992" y="302.855957" rx="9.000000" width="46.508602" height="46.508602" stroke="#151A34" stroke-opacity="1.000000" stroke-width="0.500000"/>
		<rect id="Square" x="975.924805" y="302.855957" rx="9.000000" width="46.508602" height="46.508602" stroke="#151A34" stroke-opacity="1.000000" stroke-width="0.500000"/>
		<rect id="Square" x="1022.434570" y="302.855957" rx="9.000000" width="46.508602" height="46.508602" stroke="#151A34" stroke-opacity="1.000000" stroke-width="0.500000"/>
		<rect id="Square" x="92.261719" y="349.364746" rx="9.000000" width="46.508602" height="46.508602" stroke="#151A34" stroke-opacity="1.000000" stroke-width="0.500000"/>
		<rect id="Square" x="138.770020" y="349.364746" rx="9.000000" width="46.508602" height="46.508602" stroke="#151A34" stroke-opacity="1.000000" stroke-width="0.500000"/>
		<rect id="Square" x="185.278809" y="349.364746" rx="9.000000" width="46.508602" height="46.508602" stroke="#151A34" stroke-opacity="1.000000" stroke-width="0.500000"/>
		<rect id="Square" x="231.787598" y="349.364746" rx="9.000000" width="46.508602" height="46.508602" stroke="#151A34" stroke-opacity="1.000000" stroke-width="0.500000"/>
		<rect id="Square" x="278.296387" y="349.364746" rx="9.000000" width="46.508602" height="46.508602" stroke="#151A34" stroke-opacity="1.000000" stroke-width="0.500000"/>
		<rect id="Square" x="324.804199" y="349.364746" rx="9.000000" width="46.508602" height="46.508602" stroke="#151A34" stroke-opacity="1.000000" stroke-width="0.500000"/>
		<rect id="Square" x="371.312988" y="349.364746" rx="9.000000" width="46.508602" height="46.508602" stroke="#151A34" stroke-opacity="1.000000" stroke-width="0.500000"/>
		<rect id="Square" x="417.821777" y="349.364746" rx="9.000000" width="46.508602" height="46.508602" stroke="#151A34" stroke-opacity="1.000000" stroke-width="0.500000"/>
		<rect id="Square" x="464.330566" y="349.364746" rx="9.000000" width="46.508602" height="46.508602" stroke="#151A34" stroke-opacity="1.000000" stroke-width="0.500000"/>
		<rect id="Square" x="510.839355" y="349.364746" rx="9.000000" width="46.508602" height="46.508602" stroke="#151A34" stroke-opacity="1.000000" stroke-width="0.500000"/>
		<rect id="Square" x="557.347168" y="349.364746" rx="9.000000" width="46.508602" height="46.508602" stroke="#151A34" stroke-opacity="1.000000" stroke-width="0.500000"/>
		<rect id="Square" x="603.855957" y="349.364746" rx="9.000000" width="46.508602" height="46.508602" stroke="#151A34" stroke-opacity="1.000000" stroke-width="0.500000"/>
		<rect id="Square" x="650.364746" y="349.364746" rx="9.000000" width="46.508602" height="46.508602" stroke="#151A34" stroke-opacity="1.000000" stroke-width="0.500000"/>
		<rect id="Square" x="696.872559" y="349.364746" rx="9.000000" width="46.508602" height="46.508602" stroke="#151A34" stroke-opacity="1.000000" stroke-width="0.500000"/>
		<rect id="Square" x="743.382324" y="349.364746" rx="9.000000" width="46.508602" height="46.508602" stroke="#151A34" stroke-opacity="1.000000" stroke-width="0.500000"/>
		<rect id="Square" x="789.890137" y="349.364746" rx="9.000000" width="46.508602" height="46.508602" stroke="#151A34" stroke-opacity="1.000000" stroke-width="0.500000"/>
		<rect id="Square" x="836.398926" y="349.364746" rx="9.000000" width="46.508602" height="46.508602" stroke="#151A34" stroke-opacity="1.000000" stroke-width="0.500000"/>
		<rect id="Square" x="882.907715" y="349.364746" rx="9.000000" width="46.508602" height="46.508602" stroke="#151A34" stroke-opacity="1.000000" stroke-width="0.500000"/>
		<rect id="Square" x="929.415527" y="349.364746" rx="9.000000" width="46.508602" height="46.508602" fill="#151A34" fill-opacity="1.000000"/>
		<rect id="Square" x="929.415527" y="349.364746" rx="9.000000" width="46.508602" height="46.508602" stroke="#151A34" stroke-opacity="1.000000" stroke-width="0.500000"/>
		<rect id="Square" x="975.924805" y="349.364746" rx="9.000000" width="46.508602" height="46.508602" stroke="#151A34" stroke-opacity="1.000000" stroke-width="0.500000"/>
		<rect id="Square" x="1022.434570" y="349.364746" rx="9.000000" width="46.508602" height="46.508602" stroke="#151A34" stroke-opacity="1.000000" stroke-width="0.500000"/>
		<rect id="Square" x="92.261719" y="395.873047" rx="9.000000" width="46.508602" height="46.508602" stroke="#151A34" stroke-opacity="1.000000" stroke-width="0.500000"/>
		<rect id="Square" x="138.770020" y="395.873047" rx="9.000000" width="46.508602" height="46.508602" stroke="#151A34" stroke-opacity="1.000000" stroke-width="0.500000"/>
		<rect id="Square" x="185.278809" y="395.873047" rx="9.000000" width="46.508602" height="46.508602" stroke="#151A34" stroke-opacity="1.000000" stroke-width="0.500000"/>
		<rect id="Square" x="231.787598" y="395.873047" rx="9.000000" width="46.508602" height="46.508602" stroke="#151A34" stroke-opacity="1.000000" stroke-width="0.500000"/>
		<rect id="Square" x="278.296387" y="395.873047" rx="9.000000" width="46.508602" height="46.508602" stroke="#151A34" stroke-opacity="1.000000" stroke-width="0.500000"/>
		<rect id="Square" x="324.804199" y="395.873047" rx="9.000000" width="46.508602" height="46.508602" stroke="#151A34" stroke-opacity="1.000000" stroke-width="0.500000"/>
		<rect id="Square" x="371.312988" y="395.873047" rx="9.000000" width="46.508602" height="46.508602" stroke="#151A34" stroke-opacity="1.000000" stroke-width="0.500000"/>
		<rect id="Square" x="417.821777" y="395.873047" rx="9.000000" width="46.508602" height="46.508602" stroke="#151A34" stroke-opacity="1.000000" stroke-width="0.500000"/>
		<rect id="Square" x="464.330566" y="395.873047" rx="9.000000" width="46.508602" height="46.508602" stroke="#151A34" stroke-opacity="1.000000" stroke-width="0.500000"/>
		<rect id="Square" x="510.839355" y="395.873047" rx="9.000000" width="46.508602" height="46.508602" stroke="#151A34" stroke-opacity="1.000000" stroke-width="0.500000"/>
		<rect id="Square" x="557.347168" y="395.873047" rx="9.000000" width="46.508602" height="46.508602" stroke="#151A34" stroke-opacity="1.000000" stroke-width="0.500000"/>
		<rect id="Square" x="603.855957" y="395.873047" rx="9.000000" width="46.508602" height="46.508602" stroke="#151A34" stroke-opacity="1.000000" stroke-width="0.500000"/>
		<rect id="Square" x="650.364746" y="395.873047" rx="9.000000" width="46.508602" height="46.508602" stroke="#151A34" stroke-opacity="1.000000" stroke-width="0.500000"/>
		<rect id="Square" x="696.872559" y="395.873047" rx="9.000000" width="46.508602" height="46.508602" stroke="#151A34" stroke-opacity="1.000000" stroke-width="0.500000"/>
		<rect id="Square" x="743.382324" y="395.873047" rx="9.000000" width="46.508602" height="46.508602" stroke="#151A34" stroke-opacity="1.000000" stroke-width="0.500000"/>
		<rect id="Square" x="789.890137" y="395.873047" rx="9.000000" width="46.508602" height="46.508602" stroke="#151A34" stroke-opacity="1.000000" stroke-width="0.500000"/>
		<rect id="Square" x="836.398926" y="395.873047" rx="9.000000" width="46.508602" height="46.508602" stroke="#151A34" stroke-opacity="1.000000" stroke-width="0.500000"/>
		<rect id="Square" x="882.907715" y="395.873047" rx="9.000000" width="46.508602" height="46.508602" stroke="#151A34" stroke-opacity="1.000000" stroke-width="0.500000"/>
		<rect id="Square" x="929.415527" y="395.873047" rx="9.000000" width="46.508602" height="46.508602" stroke="#151A34" stroke-opacity="1.000000" stroke-width="0.500000"/>
		<rect id="Square" x="975.924805" y="395.873047" rx="9.000000" width="46.508602" height="46.508602" stroke="#151A34" stroke-opacity="1.000000" stroke-width="0.500000"/>
		<rect id="Square" x="1022.434570" y="395.873047" rx="9.000000" width="46.508602" height="46.508602" stroke="#151A34" stroke-opacity="1.000000" stroke-width="0.500000"/>
		<rect id="Square" x="92.261719" y="442.381836" rx="9.000000" width="46.508602" height="46.508602" stroke="#151A34" stroke-opacity="1.000000" stroke-width="0.500000"/>
		<rect id="Square" x="138.770020" y="442.381836" rx="9.000000" width="46.508602" height="46.508602" stroke="#151A34" stroke-opacity="1.000000" stroke-width="0.500000"/>
		<rect id="Square" x="185.278809" y="442.381836" rx="9.000000" width="46.508602" height="46.508602" stroke="#151A34" stroke-opacity="1.000000" stroke-width="0.500000"/>
		<rect id="Square" x="231.787598" y="442.381836" rx="9.000000" width="46.508602" height="46.508602" stroke="#151A34" stroke-opacity="1.000000" stroke-width="0.500000"/>
		<rect id="Square" x="278.296387" y="442.381836" rx="9.000000" width="46.508602" height="46.508602" stroke="#151A34" stroke-opacity="1.000000" stroke-width="0.500000"/>
		<rect id="Square" x="324.804199" y="442.381836" rx="9.000000" width="46.508602" height="46.508602" stroke="#151A34" stroke-opacity="1.000000" stroke-width="0.500000"/>
		<rect id="Square" x="371.312988" y="442.381836" rx="9.000000" width="46.508602" height="46.508602" stroke="#151A34" stroke-opacity="1.000000" stroke-width="0.500000"/>
		<rect id="Square" x="417.821777" y="442.381836" rx="9.000000" width="46.508602" height="46.508602" stroke="#151A34" stroke-opacity="1.000000" stroke-width="0.500000"/>
		<rect id="Square" x="464.330566" y="442.381836" rx="9.000000" width="46.508602" height="46.508602" fill="#151A34" fill-opacity="1.000000"/>
		<rect id="Square" x="464.330566" y="442.381836" rx="9.000000" width="46.508602" height="46.508602" stroke="#151A34" stroke-opacity="1.000000" stroke-width="0.500000"/>
		<rect id="Square" x="510.839355" y="442.381836" rx="9.000000" width="46.508602" height="46.508602" stroke="#151A34" stroke-opacity="1.000000" stroke-width="0.500000"/>
		<rect id="Square" x="557.347168" y="442.381836" rx="9.000000" width="46.508602" height="46.508602" stroke="#151A34" stroke-opacity="1.000000" stroke-width="0.500000"/>
		<rect id="Square" x="603.855957" y="442.381836" rx="9.000000" width="46.508602" height="46.508602" stroke="#151A34" stroke-opacity="1.000000" stroke-width="0.500000"/>
		<rect id="Square" x="650.364746" y="442.381836" rx="9.000000" width="46.508602" height="46.508602" stroke="#151A34" stroke-opacity="1.000000" stroke-width="0.500000"/>
		<rect id="Square" x="696.872559" y="442.381836" rx="9.000000" width="46.508602" height="46.508602" stroke="#151A34" stroke-opacity="1.000000" stroke-width="0.500000"/>
		<rect id="Square" x="743.382324" y="442.381836" rx="9.000000" width="46.508602" height="46.508602" stroke="#151A34" stroke-opacity="1.000000" stroke-width="0.500000"/>
		<rect id="Square" x="789.890137" y="442.381836" rx="9.000000" width="46.508602" height="46.508602" stroke="#151A34" stroke-opacity="1.000000" stroke-width="0.500000"/>
		<rect id="Square" x="836.398926" y="442.381836" rx="9.000000" width="46.508602" height="46.508602" stroke="#151A34" stroke-opacity="1.000000" stroke-width="0.500000"/>
		<rect id="Square" x="882.907715" y="442.381836" rx="9.000000" width="46.508602" height="46.508602" stroke="#151A34" stroke-opacity="1.000000" stroke-width="0.500000"/>
		<rect id="Square" x="929.416992" y="442.381836" rx="9.000000" width="46.508602" height="46.508602" stroke="#151A34" stroke-opacity="1.000000" stroke-width="0.500000"/>
		<rect id="Square" x="975.924805" y="442.381836" rx="9.000000" width="46.508602" height="46.508602" stroke="#151A34" stroke-opacity="1.000000" stroke-width="0.500000"/>
		<rect id="Square" x="1022.434570" y="442.381836" rx="9.000000" width="46.508602" height="46.508602" stroke="#151A34" stroke-opacity="1.000000" stroke-width="0.500000"/>
		<rect id="Square" x="92.261719" y="488.890137" rx="9.000000" width="46.508602" height="46.508602" stroke="#151A34" stroke-opacity="1.000000" stroke-width="0.500000"/>
		<rect id="Square" x="138.770020" y="488.890137" rx="9.000000" width="46.508602" height="46.508602" stroke="#151A34" stroke-opacity="1.000000" stroke-width="0.500000"/>
		<rect id="Square" x="185.278809" y="488.890137" rx="9.000000" width="46.508602" height="46.508602" stroke="#151A34" stroke-opacity="1.000000" stroke-width="0.500000"/>
		<rect id="Square" x="231.787598" y="488.890137" rx="9.000000" width="46.508602" height="46.508602" stroke="#151A34" stroke-opacity="1.000000" stroke-width="0.500000"/>
		<rect id="Square" x="278.296387" y="488.890137" rx="9.000000" width="46.508602" height="46.508602" fill="#151A34" fill-opacity="1.000000"/>
		<rect id="Square" x="278.296387" y="488.890137" rx="9.000000" width="46.508602" height="46.508602" stroke="#151A34" stroke-opacity="1.000000" stroke-width="0.500000"/>
		<rect id="Square" x="324.804199" y="488.890137" rx="9.000000" width="46.508602" height="46.508602" stroke="#151A34" stroke-opacity="1.000000" stroke-width="0.500000"/>
		<rect id="Square" x="371.312988" y="488.890137" rx="9.000000" width="46.508602" height="46.508602" stroke="#151A34" stroke-opacity="1.000000" stroke-width="0.500000"/>
		<rect id="Square" x="417.821777" y="488.890137" rx="9.000000" width="46.508602" height="46.508602" stroke="#151A34" stroke-opacity="1.000000" stroke-width="0.500000"/>
		<rect id="Square" x="464.330566" y="488.890137" rx="9.000000" width="46.508602" height="46.508602" stroke="#151A34" stroke-opacity="1.000000" stroke-width="0.500000"/>
		<rect id="Square" x="510.839355" y="488.890137" rx="9.000000" width="46.508602" height="46.508602" stroke="#151A34" stroke-opacity="1.000000" stroke-width="0.500000"/>
		<rect id="Square" x="557.347168" y="488.890137" rx="9.000000" width="46.508602" height="46.508602" stroke="#151A34" stroke-opacity="1.000000" stroke-width="0.500000"/>
		<rect id="Square" x="603.855957" y="488.890137" rx="9.000000" width="46.508602" height="46.508602" stroke="#151A34" stroke-opacity="1.000000" stroke-width="0.500000"/>
		<rect id="Square" x="650.364746" y="488.890137" rx="9.000000" width="46.508602" height="46.508602" stroke="#151A34" stroke-opacity="1.000000" stroke-width="0.500000"/>
		<rect id="Square" x="696.872559" y="488.890137" rx="9.000000" width="46.508602" height="46.508602" stroke="#151A34" stroke-opacity="1.000000" stroke-width="0.500000"/>
		<rect id="Square" x="743.382324" y="488.890137" rx="9.000000" width="46.508602" height="46.508602" stroke="#151A34" stroke-opacity="1.000000" stroke-width="0.500000"/>
		<rect id="Square" x="789.890137" y="488.890137" rx="9.000000" width="46.508602" height="46.508602" stroke="#151A34" stroke-opacity="1.000000" stroke-width="0.500000"/>
		<rect id="Square" x="836.398926" y="488.890137" rx="9.000000" width="46.508602" height="46.508602" stroke="#151A34" stroke-opacity="1.000000" stroke-width="0.500000"/>
		<rect id="Square" x="882.907715" y="488.890137" rx="9.000000" width="46.508602" height="46.508602" stroke="#151A34" stroke-opacity="1.000000" stroke-width="0.500000"/>
		<rect id="Square" x="929.415527" y="488.890137" rx="9.000000" width="46.508602" height="46.508602" stroke="#151A34" stroke-opacity="1.000000" stroke-width="0.500000"/>
		<rect id="Square" x="975.924805" y="488.890137" rx="9.000000" width="46.508602" height="46.508602" stroke="#151A34" stroke-opacity="1.000000" stroke-width="0.500000"/>
		<rect id="Square" x="1022.434570" y="488.890137" rx="9.000000" width="46.508602" height="46.508602" stroke="#151A34" stroke-opacity="1.000000" stroke-width="0.500000"/>
		<rect id="Square" x="92.261719" y="535.398926" rx="9.000000" width="46.508602" height="46.508602" stroke="#151A34" stroke-opacity="1.000000" stroke-width="0.500000"/>
		<rect id="Square" x="138.770020" y="535.398926" rx="9.000000" width="46.508602" height="46.508602" stroke="#151A34" stroke-opacity="1.000000" stroke-width="0.500000"/>
		<rect id="Square" x="185.278809" y="535.398926" rx="9.000000" width="46.508602" height="46.508602" stroke="#151A34" stroke-opacity="1.000000" stroke-width="0.500000"/>
		<rect id="Square" x="231.787598" y="535.398926" rx="9.000000" width="46.508602" height="46.508602" stroke="#151A34" stroke-opacity="1.000000" stroke-width="0.500000"/>
		<rect id="Square" x="278.296387" y="535.398926" rx="9.000000" width="46.508602" height="46.508602" stroke="#151A34" stroke-opacity="1.000000" stroke-width="0.500000"/>
		<rect id="Square" x="324.804199" y="535.398926" rx="9.000000" width="46.508602" height="46.508602" stroke="#151A34" stroke-opacity="1.000000" stroke-width="0.500000"/>
		<rect id="Square" x="371.312988" y="535.398926" rx="9.000000" width="46.508602" height="46.508602" stroke="#151A34" stroke-opacity="1.000000" stroke-width="0.500000"/>
		<rect id="Square" x="417.821777" y="535.398926" rx="9.000000" width="46.508602" height="46.508602" stroke="#151A34" stroke-opacity="1.000000" stroke-width="0.500000"/>
		<rect id="Square" x="464.330566" y="535.398926" rx="9.000000" width="46.508602" height="46.508602" stroke="#151A34" stroke-opacity="1.000000" stroke-width="0.500000"/>
		<rect id="Square" x="510.839355" y="535.398926" rx="9.000000" width="46.508602" height="46.508602" stroke="#151A34" stroke-opacity="1.000000" stroke-width="0.500000"/>
		<rect id="Square" x="557.347168" y="535.398926" rx="9.000000" width="46.508602" height="46.508602" stroke="#151A34" stroke-opacity="1.000000" stroke-width="0.500000"/>
		<rect id="Square" x="603.855957" y="535.398926" rx="9.000000" width="46.508602" height="46.508602" stroke="#151A34" stroke-opacity="1.000000" stroke-width="0.500000"/>
		<rect id="Square" x="650.364746" y="535.398926" rx="9.000000" width="46.508602" height="46.508602" stroke="#151A34" stroke-opacity="1.000000" stroke-width="0.500000"/>
		<rect id="Square" x="696.872559" y="535.398926" rx="9.000000" width="46.508602" height="46.508602" stroke="#151A34" stroke-opacity="1.000000" stroke-width="0.500000"/>
		<rect id="Square" x="743.382324" y="535.398926" rx="9.000000" width="46.508602" height="46.508602" stroke="#151A34" stroke-opacity="1.000000" stroke-width="0.500000"/>
		<rect id="Square" x="789.890137" y="535.398926" rx="9.000000" width="46.508602" height="46.508602" stroke="#151A34" stroke-opacity="1.000000" stroke-width="0.500000"/>
		<rect id="Square" x="836.398926" y="535.398926" rx="9.000000" width="46.508602" height="46.508602" stroke="#151A34" stroke-opacity="1.000000" stroke-width="0.500000"/>
		<rect id="Square" x="882.907715" y="535.398926" rx="9.000000" width="46.508602" height="46.508602" stroke="#151A34" stroke-opacity="1.000000" stroke-width="0.500000"/>
		<rect id="Square" x="929.415527" y="535.398926" rx="9.000000" width="46.508602" height="46.508602" stroke="#151A34" stroke-opacity="1.000000" stroke-width="0.500000"/>
		<rect id="Square" x="975.924805" y="535.398926" rx="9.000000" width="46.508602" height="46.508602" stroke="#151A34" stroke-opacity="1.000000" stroke-width="0.500000"/>
		<rect id="Square" x="1022.434570" y="535.398926" rx="9.000000" width="46.508602" height="46.508602" stroke="#151A34" stroke-opacity="1.000000" stroke-width="0.500000"/>
		<rect id="Square" x="92.261719" y="581.907715" rx="9.000000" width="46.508602" height="46.508602" stroke="#151A34" stroke-opacity="1.000000" stroke-width="0.500000"/>
		<rect id="Square" x="138.770020" y="581.907715" rx="9.000000" width="46.508602" height="46.508602" stroke="#151A34" stroke-opacity="1.000000" stroke-width="0.500000"/>
		<rect id="Square" x="185.278809" y="581.907715" rx="9.000000" width="46.508602" height="46.508602" stroke="#151A34" stroke-opacity="1.000000" stroke-width="0.500000"/>
		<rect id="Square" x="231.787598" y="581.907715" rx="9.000000" width="46.508602" height="46.508602" stroke="#151A34" stroke-opacity="1.000000" stroke-width="0.500000"/>
		<rect id="Square" x="278.296387" y="581.907715" rx="9.000000" width="46.508602" height="46.508602" stroke="#151A34" stroke-opacity="1.000000" stroke-width="0.500000"/>
		<rect id="Square" x="324.804199" y="581.907715" rx="9.000000" width="46.508602" height="46.508602" stroke="#151A34" stroke-opacity="1.000000" stroke-width="0.500000"/>
		<rect id="Square" x="371.312988" y="581.907715" rx="9.000000" width="46.508602" height="46.508602" stroke="#151A34" stroke-opacity="1.000000" stroke-width="0.500000"/>
		<rect id="Square" x="417.821777" y="581.907715" rx="9.000000" width="46.508602" height="46.508602" stroke="#151A34" stroke-opacity="1.000000" stroke-width="0.500000"/>
		<rect id="Square" x="464.330566" y="581.907715" rx="9.000000" width="46.508602" height="46.508602" stroke="#151A34" stroke-opacity="1.000000" stroke-width="0.500000"/>
		<rect id="Square" x="510.839355" y="581.907715" rx="9.000000" width="46.508602" height="46.508602" stroke="#151A34" stroke-opacity="1.000000" stroke-width="0.500000"/>
		<rect id="Square" x="557.347168" y="581.907715" rx="9.000000" width="46.508602" height="46.508602" stroke="#151A34" stroke-opacity="1.000000" stroke-width="0.500000"/>
		<rect id="Square" x="603.855957" y="581.907715" rx="9.000000" width="46.508602" height="46.508602" stroke="#151A34" stroke-opacity="1.000000" stroke-width="0.500000"/>
		<rect id="Square" x="650.364746" y="581.907715" rx="9.000000" width="46.508602" height="46.508602" stroke="#151A34" stroke-opacity="1.000000" stroke-width="0.500000"/>
		<rect id="Square" x="696.872559" y="581.907715" rx="9.000000" width="46.508602" height="46.508602" stroke="#151A34" stroke-opacity="1.000000" stroke-width="0.500000"/>
		<rect id="Square" x="743.382324" y="581.907715" rx="9.000000" width="46.508602" height="46.508602" stroke="#151A34" stroke-opacity="1.000000" stroke-width="0.500000"/>
		<rect id="Square" x="789.890137" y="581.907715" rx="9.000000" width="46.508602" height="46.508602" stroke="#151A34" stroke-opacity="1.000000" stroke-width="0.500000"/>
		<rect id="Square" x="836.398926" y="581.907715" rx="9.000000" width="46.508602" height="46.508602" stroke="#151A34" stroke-opacity="1.000000" stroke-width="0.500000"/>
		<rect id="Square" x="882.907715" y="581.907715" rx="9.000000" width="46.508602" height="46.508602" stroke="#151A34" stroke-opacity="1.000000" stroke-width="0.500000"/>
		<rect id="Square" x="929.415527" y="581.907715" rx="9.000000" width="46.508602" height="46.508602" stroke="#151A34" stroke-opacity="1.000000" stroke-width="0.500000"/>
		<rect id="Square" x="975.924805" y="581.907715" rx="9.000000" width="46.508602" height="46.508602" stroke="#151A34" stroke-opacity="1.000000" stroke-width="0.500000"/>
		<rect id="Square" x="1022.434570" y="581.907715" rx="9.000000" width="46.508602" height="46.508602" stroke="#151A34" stroke-opacity="1.000000" stroke-width="0.500000"/>
		<rect id="Square" x="92.261719" y="628.416504" rx="9.000000" width="46.508602" height="46.508602" stroke="#151A34" stroke-opacity="1.000000" stroke-width="0.500000"/>
		<rect id="Square" x="138.770020" y="628.416504" rx="9.000000" width="46.508602" height="46.508602" stroke="#151A34" stroke-opacity="1.000000" stroke-width="0.500000"/>
		<rect id="Square" x="185.278809" y="628.416504" rx="9.000000" width="46.508602" height="46.508602" stroke="#151A34" stroke-opacity="1.000000" stroke-width="0.500000"/>
		<rect id="Square" x="231.787598" y="628.416504" rx="9.000000" width="46.508602" height="46.508602" stroke="#151A34" stroke-opacity="1.000000" stroke-width="0.500000"/>
		<rect id="Square" x="278.296387" y="628.416504" rx="9.000000" width="46.508602" height="46.508602" stroke="#151A34" stroke-opacity="1.000000" stroke-width="0.500000"/>
		<rect id="Square" x="324.804199" y="628.416504" rx="9.000000" width="46.508602" height="46.508602" stroke="#151A34" stroke-opacity="1.000000" stroke-width="0.500000"/>
		<rect id="Square" x="371.312988" y="628.416504" rx="9.000000" width="46.508602" height="46.508602" stroke="#151A34" stroke-opacity="1.000000" stroke-width="0.500000"/>
		<rect id="Square" x="417.821777" y="628.416504" rx="9.000000" width="46.508602" height="46.508602" stroke="#151A34" stroke-opacity="1.000000" stroke-width="0.500000"/>
		<rect id="Square" x="464.330566" y="628.416504" rx="9.000000" width="46.508602" height="46.508602" stroke="#151A34" stroke-opacity="1.000000" stroke-width="0.500000"/>
		<rect id="Square" x="510.839355" y="628.416504" rx="9.000000" width="46.508602" height="46.508602" stroke="#151A34" stroke-opacity="1.000000" stroke-width="0.500000"/>
		<rect id="Square" x="557.347168" y="628.416504" rx="9.000000" width="46.508602" height="46.508602" stroke="#151A34" stroke-opacity="1.000000" stroke-width="0.500000"/>
		<rect id="Square" x="603.855957" y="628.416504" rx="9.000000" width="46.508602" height="46.508602" stroke="#151A34" stroke-opacity="1.000000" stroke-width="0.500000"/>
		<rect id="Square" x="650.364746" y="628.416504" rx="9.000000" width="46.508602" height="46.508602" stroke="#151A34" stroke-opacity="1.000000" stroke-width="0.500000"/>
		<rect id="Square" x="696.872559" y="628.416504" rx="9.000000" width="46.508602" height="46.508602" stroke="#151A34" stroke-opacity="1.000000" stroke-width="0.500000"/>
		<rect id="Square" x="743.382324" y="628.416504" rx="9.000000" width="46.508602" height="46.508602" stroke="#151A34" stroke-opacity="1.000000" stroke-width="0.500000"/>
		<rect id="Square" x="789.890137" y="628.416504" rx="9.000000" width="46.508602" height="46.508602" stroke="#151A34" stroke-opacity="1.000000" stroke-width="0.500000"/>
		<rect id="Square" x="836.398926" y="628.416504" rx="9.000000" width="46.508602" height="46.508602" stroke="#151A34" stroke-opacity="1.000000" stroke-width="0.500000"/>
		<rect id="Square" x="882.907715" y="628.416504" rx="9.000000" width="46.508602" height="46.508602" stroke="#151A34" stroke-opacity="1.000000" stroke-width="0.500000"/>
		<rect id="Square" x="929.415527" y="628.416504" rx="9.000000" width="46.508602" height="46.508602" stroke="#151A34" stroke-opacity="1.000000" stroke-width="0.500000"/>
		<rect id="Square" x="975.924805" y="628.416504" rx="9.000000" width="46.508602" height="46.508602" stroke="#151A34" stroke-opacity="1.000000" stroke-width="0.500000"/>
		<rect id="Square" x="1022.434570" y="628.416504" rx="9.000000" width="46.508602" height="46.508602" stroke="#151A34" stroke-opacity="1.000000" stroke-width="0.500000"/>
		<rect id="Square" x="92.261719" y="674.925293" rx="9.000000" width="46.508602" height="46.508602" stroke="#151A34" stroke-opacity="1.000000" stroke-width="0.500000"/>
		<rect id="Square" x="138.770020" y="674.925293" rx="9.000000" width="46.508602" height="46.508602" stroke="#151A34" stroke-opacity="1.000000" stroke-width="0.500000"/>
		<rect id="Square" x="185.278809" y="674.925293" rx="9.000000" width="46.508602" height="46.508602" stroke="#151A34" stroke-opacity="1.000000" stroke-width="0.500000"/>
		<rect id="Square" x="231.787598" y="674.925293" rx="9.000000" width="46.508602" height="46.508602" stroke="#151A34" stroke-opacity="1.000000" stroke-width="0.500000"/>
		<rect id="Square" x="278.296387" y="674.925293" rx="9.000000" width="46.508602" height="46.508602" stroke="#151A34" stroke-opacity="1.000000" stroke-width="0.500000"/>
		<rect id="Square" x="324.804199" y="674.925293" rx="9.000000" width="46.508602" height="46.508602" stroke="#151A34" stroke-opacity="1.000000" stroke-width="0.500000"/>
		<rect id="Square" x="371.312988" y="674.925293" rx="9.000000" width="46.508602" height="46.508602" stroke="#151A34" stroke-opacity="1.000000" stroke-width="0.500000"/>
		<rect id="Square" x="417.821777" y="674.925293" rx="9.000000" width="46.508602" height="46.508602" stroke="#151A34" stroke-opacity="1.000000" stroke-width="0.500000"/>
		<rect id="Square" x="464.330566" y="674.925293" rx="9.000000" width="46.508602" height="46.508602" stroke="#151A34" stroke-opacity="1.000000" stroke-width="0.500000"/>
		<rect id="Square" x="510.839355" y="674.925293" rx="9.000000" width="46.508602" height="46.508602" stroke="#151A34" stroke-opacity="1.000000" stroke-width="0.500000"/>
		<rect id="Square" x="557.347168" y="674.925293" rx="9.000000" width="46.508602" height="46.508602" stroke="#151A34" stroke-opacity="1.000000" stroke-width="0.500000"/>
		<rect id="Square" x="603.855957" y="674.925293" rx="9.000000" width="46.508602" height="46.508602" stroke="#151A34" stroke-opacity="1.000000" stroke-width="0.500000"/>
		<rect id="Square" x="650.364746" y="674.925293" rx="9.000000" width="46.508602" height="46.508602" stroke="#151A34" stroke-opacity="1.000000" stroke-width="0.500000"/>
		<rect id="Square" x="696.872559" y="674.925293" rx="9.000000" width="46.508602" height="46.508602" stroke="#151A34" stroke-opacity="1.000000" stroke-width="0.500000"/>
		<rect id="Square" x="743.382324" y="674.925293" rx="9.000000" width="46.508602" height="46.508602" stroke="#151A34" stroke-opacity="1.000000" stroke-width="0.500000"/>
		<rect id="Square" x="789.890137" y="674.925293" rx="9.000000" width="46.508602" height="46.508602" stroke="#151A34" stroke-opacity="1.000000" stroke-width="0.500000"/>
		<rect id="Square" x="836.398926" y="674.925293" rx="9.000000" width="46.508602" height="46.508602" stroke="#151A34" stroke-opacity="1.000000" stroke-width="0.500000"/>
		<rect id="Square" x="882.907715" y="674.925293" rx="9.000000" width="46.508602" height="46.508602" stroke="#151A34" stroke-opacity="1.000000" stroke-width="0.500000"/>
		<rect id="Square" x="929.415527" y="674.925293" rx="9.000000" width="46.508602" height="46.508602" stroke="#151A34" stroke-opacity="1.000000" stroke-width="0.500000"/>
		<rect id="Square" x="975.924805" y="674.925293" rx="9.000000" width="46.508602" height="46.508602" stroke="#151A34" stroke-opacity="1.000000" stroke-width="0.500000"/>
		<rect id="Square" x="1022.434570" y="674.925293" rx="9.000000" width="46.508602" height="46.508602" stroke="#151A34" stroke-opacity="1.000000" stroke-width="0.500000"/>
	</g>
</svg>
