<svg width="1921.885742" height="1008.885742" viewBox="0 0 1921.89 1008.89" fill="none" xmlns="http://www.w3.org/2000/svg" xmlns:xlink="http://www.w3.org/1999/xlink">
	<desc>
			Created with Pixso.
	</desc>
	<defs>
		<radialGradient gradientTransform="translate(960.943 570.232) rotate(90) scale(293.711 399.432)" cx="0.000000" cy="0.000000" r="1.000000" id="paint_radial_2039_2015_0" gradientUnits="userSpaceOnUse">
			<stop stop-color="#060A23"/>
			<stop offset="1.000000" stop-color="#060A23" stop-opacity="0.000000"/>
		</radialGradient>
	</defs>
	<mask id="mask2039_2015" mask-type="alpha" maskUnits="userSpaceOnUse" x="0.942871" y="0.942871" width="1920.000000" height="1007.000000">
		<rect id="Gradient" x="0.942871" y="0.942871" width="1920.000000" height="1007.000000" fill="url(#paint_radial_2039_2015_0)" fill-opacity="1.000000"/>
		<rect id="Gradient" x="0.471680" y="0.471436" width="1920.942871" height="1007.942871" stroke="#0A101F" stroke-opacity="1.000000" stroke-width="0.942857"/>
	</mask>
	<g mask="url(#mask2039_2015)">
		<rect id="Square" x="431.261719" y="244.821655" rx="9.000000" width="46.508602" height="46.508602" stroke="#151A34" stroke-opacity="1.000000" stroke-width="0.500000"/>
		<rect id="Square" x="477.770020" y="244.821655" rx="9.000000" width="46.508602" height="46.508602" stroke="#151A34" stroke-opacity="1.000000" stroke-width="0.500000"/>
		<rect id="Square" x="524.278809" y="244.821655" rx="9.000000" width="46.508602" height="46.508602" stroke="#151A34" stroke-opacity="1.000000" stroke-width="0.500000"/>
		<rect id="Square" x="570.787598" y="244.821655" rx="9.000000" width="46.508602" height="46.508602" stroke="#151A34" stroke-opacity="1.000000" stroke-width="0.500000"/>
		<rect id="Square" x="617.296387" y="244.821655" rx="9.000000" width="46.508602" height="46.508602" stroke="#151A34" stroke-opacity="1.000000" stroke-width="0.500000"/>
		<rect id="Square" x="663.804688" y="244.821655" rx="9.000000" width="46.508602" height="46.508602" stroke="#151A34" stroke-opacity="1.000000" stroke-width="0.500000"/>
		<rect id="Square" x="710.313477" y="244.821655" rx="9.000000" width="46.508602" height="46.508602" stroke="#151A34" stroke-opacity="1.000000" stroke-width="0.500000"/>
		<rect id="Square" x="756.821777" y="244.821655" rx="9.000000" width="46.508602" height="46.508602" stroke="#151A34" stroke-opacity="1.000000" stroke-width="0.500000"/>
		<rect id="Square" x="803.330566" y="244.821655" rx="9.000000" width="46.508602" height="46.508602" stroke="#151A34" stroke-opacity="1.000000" stroke-width="0.500000"/>
		<rect id="Square" x="849.839355" y="244.821655" rx="9.000000" width="46.508602" height="46.508602" stroke="#151A34" stroke-opacity="1.000000" stroke-width="0.500000"/>
		<rect id="Square" x="896.347656" y="244.821655" rx="9.000000" width="46.508602" height="46.508602" stroke="#151A34" stroke-opacity="1.000000" stroke-width="0.500000"/>
		<rect id="Square" x="942.855957" y="244.821655" rx="9.000000" width="46.508602" height="46.508602" stroke="#151A34" stroke-opacity="1.000000" stroke-width="0.500000"/>
		<rect id="Square" x="989.364746" y="244.821655" rx="9.000000" width="46.508602" height="46.508602" stroke="#151A34" stroke-opacity="1.000000" stroke-width="0.500000"/>
		<rect id="Square" x="1035.873047" y="244.821655" rx="9.000000" width="46.508602" height="46.508602" stroke="#151A34" stroke-opacity="1.000000" stroke-width="0.500000"/>
		<rect id="Square" x="1082.382324" y="244.821655" rx="9.000000" width="46.508602" height="46.508602" stroke="#151A34" stroke-opacity="1.000000" stroke-width="0.500000"/>
		<rect id="Square" x="1128.890137" y="244.821655" rx="9.000000" width="46.508602" height="46.508602" stroke="#151A34" stroke-opacity="1.000000" stroke-width="0.500000"/>
		<rect id="Square" x="1175.398926" y="244.821655" rx="9.000000" width="46.508602" height="46.508602" stroke="#151A34" stroke-opacity="1.000000" stroke-width="0.500000"/>
		<rect id="Square" x="1221.908203" y="244.821655" rx="9.000000" width="46.508602" height="46.508602" stroke="#151A34" stroke-opacity="1.000000" stroke-width="0.500000"/>
		<rect id="Square" x="1268.416016" y="244.821655" rx="9.000000" width="46.508602" height="46.508602" stroke="#151A34" stroke-opacity="1.000000" stroke-width="0.500000"/>
		<rect id="Square" x="1314.924805" y="244.821655" rx="9.000000" width="46.508602" height="46.508602" stroke="#151A34" stroke-opacity="1.000000" stroke-width="0.500000"/>
		<rect id="Square" x="1361.434570" y="244.821655" rx="9.000000" width="46.508602" height="46.508602" stroke="#151A34" stroke-opacity="1.000000" stroke-width="0.500000"/>
		<rect id="Square" x="431.261719" y="291.330322" rx="9.000000" width="46.508602" height="46.508602" stroke="#151A34" stroke-opacity="1.000000" stroke-width="0.500000"/>
		<rect id="Square" x="477.770020" y="291.330322" rx="9.000000" width="46.508602" height="46.508602" stroke="#151A34" stroke-opacity="1.000000" stroke-width="0.500000"/>
		<rect id="Square" x="524.278809" y="291.330322" rx="9.000000" width="46.508602" height="46.508602" fill="#151A34" fill-opacity="1.000000"/>
		<rect id="Square" x="524.278809" y="291.330322" rx="9.000000" width="46.508602" height="46.508602" stroke="#151A34" stroke-opacity="1.000000" stroke-width="0.500000"/>
		<rect id="Square" x="570.787598" y="291.330322" rx="9.000000" width="46.508602" height="46.508602" stroke="#151A34" stroke-opacity="1.000000" stroke-width="0.500000"/>
		<rect id="Square" x="617.296387" y="291.330322" rx="9.000000" width="46.508602" height="46.508602" stroke="#151A34" stroke-opacity="1.000000" stroke-width="0.500000"/>
		<rect id="Square" x="663.804688" y="291.330322" rx="9.000000" width="46.508602" height="46.508602" stroke="#151A34" stroke-opacity="1.000000" stroke-width="0.500000"/>
		<rect id="Square" x="710.313477" y="291.330322" rx="9.000000" width="46.508602" height="46.508602" stroke="#151A34" stroke-opacity="1.000000" stroke-width="0.500000"/>
		<rect id="Square" x="756.821777" y="291.330322" rx="9.000000" width="46.508602" height="46.508602" stroke="#151A34" stroke-opacity="1.000000" stroke-width="0.500000"/>
		<rect id="Square" x="803.330566" y="291.330322" rx="9.000000" width="46.508602" height="46.508602" stroke="#151A34" stroke-opacity="1.000000" stroke-width="0.500000"/>
		<rect id="Square" x="849.839355" y="291.330322" rx="9.000000" width="46.508602" height="46.508602" fill="#151A34" fill-opacity="1.000000"/>
		<rect id="Square" x="849.839355" y="291.330322" rx="9.000000" width="46.508602" height="46.508602" stroke="#151A34" stroke-opacity="1.000000" stroke-width="0.500000"/>
		<rect id="Square" x="896.347656" y="291.330322" rx="9.000000" width="46.508602" height="46.508602" stroke="#151A34" stroke-opacity="1.000000" stroke-width="0.500000"/>
		<rect id="Square" x="942.855957" y="291.330322" rx="9.000000" width="46.508602" height="46.508602" stroke="#151A34" stroke-opacity="1.000000" stroke-width="0.500000"/>
		<rect id="Square" x="989.364746" y="291.330322" rx="9.000000" width="46.508602" height="46.508602" stroke="#151A34" stroke-opacity="1.000000" stroke-width="0.500000"/>
		<rect id="Square" x="1035.873047" y="291.330322" rx="9.000000" width="46.508602" height="46.508602" stroke="#151A34" stroke-opacity="1.000000" stroke-width="0.500000"/>
		<rect id="Square" x="1082.382324" y="291.330322" rx="9.000000" width="46.508602" height="46.508602" stroke="#151A34" stroke-opacity="1.000000" stroke-width="0.500000"/>
		<rect id="Square" x="1128.890137" y="291.330322" rx="9.000000" width="46.508602" height="46.508602" stroke="#151A34" stroke-opacity="1.000000" stroke-width="0.500000"/>
		<rect id="Square" x="1175.398926" y="291.330322" rx="9.000000" width="46.508602" height="46.508602" stroke="#151A34" stroke-opacity="1.000000" stroke-width="0.500000"/>
		<rect id="Square" x="1221.908203" y="291.330322" rx="9.000000" width="46.508602" height="46.508602" stroke="#151A34" stroke-opacity="1.000000" stroke-width="0.500000"/>
		<rect id="Square" x="1268.416016" y="291.330322" rx="9.000000" width="46.508602" height="46.508602" stroke="#151A34" stroke-opacity="1.000000" stroke-width="0.500000"/>
		<rect id="Square" x="1314.924805" y="291.330322" rx="9.000000" width="46.508602" height="46.508602" stroke="#151A34" stroke-opacity="1.000000" stroke-width="0.500000"/>
		<rect id="Square" x="1361.434570" y="291.330322" rx="9.000000" width="46.508602" height="46.508602" stroke="#151A34" stroke-opacity="1.000000" stroke-width="0.500000"/>
		<rect id="Square" x="431.261719" y="337.838867" rx="9.000000" width="46.508602" height="46.508602" stroke="#151A34" stroke-opacity="1.000000" stroke-width="0.500000"/>
		<rect id="Square" x="477.770020" y="337.838867" rx="9.000000" width="46.508602" height="46.508602" stroke="#151A34" stroke-opacity="1.000000" stroke-width="0.500000"/>
		<rect id="Square" x="524.278809" y="337.838867" rx="9.000000" width="46.508602" height="46.508602" stroke="#151A34" stroke-opacity="1.000000" stroke-width="0.500000"/>
		<rect id="Square" x="570.787598" y="337.838867" rx="9.000000" width="46.508602" height="46.508602" stroke="#151A34" stroke-opacity="1.000000" stroke-width="0.500000"/>
		<rect id="Square" x="617.296387" y="337.838867" rx="9.000000" width="46.508602" height="46.508602" stroke="#151A34" stroke-opacity="1.000000" stroke-width="0.500000"/>
		<rect id="Square" x="663.804688" y="337.838867" rx="9.000000" width="46.508602" height="46.508602" stroke="#151A34" stroke-opacity="1.000000" stroke-width="0.500000"/>
		<rect id="Square" x="710.313477" y="337.838867" rx="9.000000" width="46.508602" height="46.508602" stroke="#151A34" stroke-opacity="1.000000" stroke-width="0.500000"/>
		<rect id="Square" x="756.821777" y="337.838867" rx="9.000000" width="46.508602" height="46.508602" stroke="#151A34" stroke-opacity="1.000000" stroke-width="0.500000"/>
		<rect id="Square" x="803.330566" y="337.838867" rx="9.000000" width="46.508602" height="46.508602" stroke="#151A34" stroke-opacity="1.000000" stroke-width="0.500000"/>
		<rect id="Square" x="849.839355" y="337.838867" rx="9.000000" width="46.508602" height="46.508602" stroke="#151A34" stroke-opacity="1.000000" stroke-width="0.500000"/>
		<rect id="Square" x="896.347656" y="337.838867" rx="9.000000" width="46.508602" height="46.508602" stroke="#151A34" stroke-opacity="1.000000" stroke-width="0.500000"/>
		<rect id="Square" x="942.855957" y="337.838867" rx="9.000000" width="46.508602" height="46.508602" stroke="#151A34" stroke-opacity="1.000000" stroke-width="0.500000"/>
		<rect id="Square" x="989.364746" y="337.838867" rx="9.000000" width="46.508602" height="46.508602" stroke="#151A34" stroke-opacity="1.000000" stroke-width="0.500000"/>
		<rect id="Square" x="1035.873047" y="337.838867" rx="9.000000" width="46.508602" height="46.508602" stroke="#151A34" stroke-opacity="1.000000" stroke-width="0.500000"/>
		<rect id="Square" x="1082.382324" y="337.838867" rx="9.000000" width="46.508602" height="46.508602" stroke="#151A34" stroke-opacity="1.000000" stroke-width="0.500000"/>
		<rect id="Square" x="1128.890137" y="337.838867" rx="9.000000" width="46.508602" height="46.508602" stroke="#151A34" stroke-opacity="1.000000" stroke-width="0.500000"/>
		<rect id="Square" x="1175.398926" y="337.838867" rx="9.000000" width="46.508602" height="46.508602" fill="#151A34" fill-opacity="1.000000"/>
		<rect id="Square" x="1175.398926" y="337.838867" rx="9.000000" width="46.508602" height="46.508602" stroke="#151A34" stroke-opacity="1.000000" stroke-width="0.500000"/>
		<rect id="Square" x="1221.908203" y="337.838867" rx="9.000000" width="46.508602" height="46.508602" stroke="#151A34" stroke-opacity="1.000000" stroke-width="0.500000"/>
		<rect id="Square" x="1268.416016" y="337.838867" rx="9.000000" width="46.508602" height="46.508602" stroke="#151A34" stroke-opacity="1.000000" stroke-width="0.500000"/>
		<rect id="Square" x="1314.924805" y="337.838867" rx="9.000000" width="46.508602" height="46.508602" stroke="#151A34" stroke-opacity="1.000000" stroke-width="0.500000"/>
		<rect id="Square" x="1361.434570" y="337.838867" rx="9.000000" width="46.508602" height="46.508602" stroke="#151A34" stroke-opacity="1.000000" stroke-width="0.500000"/>
		<rect id="Square" x="431.261719" y="384.347717" rx="9.000000" width="46.508602" height="46.508602" stroke="#151A34" stroke-opacity="1.000000" stroke-width="0.500000"/>
		<rect id="Square" x="477.770020" y="384.347717" rx="9.000000" width="46.508602" height="46.508602" stroke="#151A34" stroke-opacity="1.000000" stroke-width="0.500000"/>
		<rect id="Square" x="524.278809" y="384.347717" rx="9.000000" width="46.508602" height="46.508602" stroke="#151A34" stroke-opacity="1.000000" stroke-width="0.500000"/>
		<rect id="Square" x="570.787598" y="384.347717" rx="9.000000" width="46.508602" height="46.508602" stroke="#151A34" stroke-opacity="1.000000" stroke-width="0.500000"/>
		<rect id="Square" x="617.296387" y="384.347717" rx="9.000000" width="46.508602" height="46.508602" stroke="#151A34" stroke-opacity="1.000000" stroke-width="0.500000"/>
		<rect id="Square" x="663.804688" y="384.347717" rx="9.000000" width="46.508602" height="46.508602" stroke="#151A34" stroke-opacity="1.000000" stroke-width="0.500000"/>
		<rect id="Square" x="710.313477" y="384.347717" rx="9.000000" width="46.508602" height="46.508602" stroke="#151A34" stroke-opacity="1.000000" stroke-width="0.500000"/>
		<rect id="Square" x="756.821777" y="384.347717" rx="9.000000" width="46.508602" height="46.508602" stroke="#151A34" stroke-opacity="1.000000" stroke-width="0.500000"/>
		<rect id="Square" x="803.330566" y="384.347717" rx="9.000000" width="46.508602" height="46.508602" stroke="#151A34" stroke-opacity="1.000000" stroke-width="0.500000"/>
		<rect id="Square" x="849.839355" y="384.347717" rx="9.000000" width="46.508602" height="46.508602" stroke="#151A34" stroke-opacity="1.000000" stroke-width="0.500000"/>
		<rect id="Square" x="896.347656" y="384.347717" rx="9.000000" width="46.508602" height="46.508602" stroke="#151A34" stroke-opacity="1.000000" stroke-width="0.500000"/>
		<rect id="Square" x="942.855957" y="384.347717" rx="9.000000" width="46.508602" height="46.508602" stroke="#151A34" stroke-opacity="1.000000" stroke-width="0.500000"/>
		<rect id="Square" x="989.364746" y="384.347717" rx="9.000000" width="46.508602" height="46.508602" stroke="#151A34" stroke-opacity="1.000000" stroke-width="0.500000"/>
		<rect id="Square" x="1035.873047" y="384.347717" rx="9.000000" width="46.508602" height="46.508602" stroke="#151A34" stroke-opacity="1.000000" stroke-width="0.500000"/>
		<rect id="Square" x="1082.382324" y="384.347717" rx="9.000000" width="46.508602" height="46.508602" stroke="#151A34" stroke-opacity="1.000000" stroke-width="0.500000"/>
		<rect id="Square" x="1128.890137" y="384.347717" rx="9.000000" width="46.508602" height="46.508602" stroke="#151A34" stroke-opacity="1.000000" stroke-width="0.500000"/>
		<rect id="Square" x="1175.398926" y="384.347717" rx="9.000000" width="46.508602" height="46.508602" stroke="#151A34" stroke-opacity="1.000000" stroke-width="0.500000"/>
		<rect id="Square" x="1221.908203" y="384.347717" rx="9.000000" width="46.508602" height="46.508602" stroke="#151A34" stroke-opacity="1.000000" stroke-width="0.500000"/>
		<rect id="Square" x="1268.416016" y="384.347717" rx="9.000000" width="46.508602" height="46.508602" stroke="#151A34" stroke-opacity="1.000000" stroke-width="0.500000"/>
		<rect id="Square" x="1314.924805" y="384.347717" rx="9.000000" width="46.508602" height="46.508602" stroke="#151A34" stroke-opacity="1.000000" stroke-width="0.500000"/>
		<rect id="Square" x="1361.434570" y="384.347717" rx="9.000000" width="46.508602" height="46.508602" stroke="#151A34" stroke-opacity="1.000000" stroke-width="0.500000"/>
		<rect id="Square" x="431.261719" y="430.855957" rx="9.000000" width="46.508602" height="46.508602" stroke="#151A34" stroke-opacity="1.000000" stroke-width="0.500000"/>
		<rect id="Square" x="477.770020" y="430.855957" rx="9.000000" width="46.508602" height="46.508602" stroke="#151A34" stroke-opacity="1.000000" stroke-width="0.500000"/>
		<rect id="Square" x="524.278809" y="430.855957" rx="9.000000" width="46.508602" height="46.508602" stroke="#151A34" stroke-opacity="1.000000" stroke-width="0.500000"/>
		<rect id="Square" x="570.787598" y="430.855957" rx="9.000000" width="46.508602" height="46.508602" fill="#151A34" fill-opacity="1.000000"/>
		<rect id="Square" x="570.787598" y="430.855957" rx="9.000000" width="46.508602" height="46.508602" stroke="#151A34" stroke-opacity="1.000000" stroke-width="0.500000"/>
		<rect id="Square" x="617.296387" y="430.855957" rx="9.000000" width="46.508602" height="46.508602" stroke="#151A34" stroke-opacity="1.000000" stroke-width="0.500000"/>
		<rect id="Square" x="663.804688" y="430.855957" rx="9.000000" width="46.508602" height="46.508602" stroke="#151A34" stroke-opacity="1.000000" stroke-width="0.500000"/>
		<rect id="Square" x="710.313477" y="430.855957" rx="9.000000" width="46.508602" height="46.508602" stroke="#151A34" stroke-opacity="1.000000" stroke-width="0.500000"/>
		<rect id="Square" x="756.821777" y="430.855957" rx="9.000000" width="46.508602" height="46.508602" stroke="#151A34" stroke-opacity="1.000000" stroke-width="0.500000"/>
		<rect id="Square" x="803.330566" y="430.855957" rx="9.000000" width="46.508602" height="46.508602" stroke="#151A34" stroke-opacity="1.000000" stroke-width="0.500000"/>
		<rect id="Square" x="849.839355" y="430.855957" rx="9.000000" width="46.508602" height="46.508602" stroke="#151A34" stroke-opacity="1.000000" stroke-width="0.500000"/>
		<rect id="Square" x="896.347656" y="430.855957" rx="9.000000" width="46.508602" height="46.508602" stroke="#151A34" stroke-opacity="1.000000" stroke-width="0.500000"/>
		<rect id="Square" x="942.855957" y="430.855957" rx="9.000000" width="46.508602" height="46.508602" stroke="#151A34" stroke-opacity="1.000000" stroke-width="0.500000"/>
		<rect id="Square" x="989.364746" y="430.855957" rx="9.000000" width="46.508602" height="46.508602" fill="#151A34" fill-opacity="1.000000"/>
		<rect id="Square" x="989.364746" y="430.855957" rx="9.000000" width="46.508602" height="46.508602" stroke="#151A34" stroke-opacity="1.000000" stroke-width="0.500000"/>
		<rect id="Square" x="1035.873047" y="430.855957" rx="9.000000" width="46.508602" height="46.508602" stroke="#151A34" stroke-opacity="1.000000" stroke-width="0.500000"/>
		<rect id="Square" x="1082.382324" y="430.855957" rx="9.000000" width="46.508602" height="46.508602" stroke="#151A34" stroke-opacity="1.000000" stroke-width="0.500000"/>
		<rect id="Square" x="1128.890137" y="430.855957" rx="9.000000" width="46.508602" height="46.508602" stroke="#151A34" stroke-opacity="1.000000" stroke-width="0.500000"/>
		<rect id="Square" x="1175.398926" y="430.855957" rx="9.000000" width="46.508602" height="46.508602" stroke="#151A34" stroke-opacity="1.000000" stroke-width="0.500000"/>
		<rect id="Square" x="1221.908203" y="430.855957" rx="9.000000" width="46.508602" height="46.508602" stroke="#151A34" stroke-opacity="1.000000" stroke-width="0.500000"/>
		<rect id="Square" x="1268.416992" y="430.855957" rx="9.000000" width="46.508602" height="46.508602" stroke="#151A34" stroke-opacity="1.000000" stroke-width="0.500000"/>
		<rect id="Square" x="1314.924805" y="430.855957" rx="9.000000" width="46.508602" height="46.508602" stroke="#151A34" stroke-opacity="1.000000" stroke-width="0.500000"/>
		<rect id="Square" x="1361.434570" y="430.855957" rx="9.000000" width="46.508602" height="46.508602" stroke="#151A34" stroke-opacity="1.000000" stroke-width="0.500000"/>
		<rect id="Square" x="431.261719" y="477.364807" rx="9.000000" width="46.508602" height="46.508602" stroke="#151A34" stroke-opacity="1.000000" stroke-width="0.500000"/>
		<rect id="Square" x="477.770020" y="477.364807" rx="9.000000" width="46.508602" height="46.508602" stroke="#151A34" stroke-opacity="1.000000" stroke-width="0.500000"/>
		<rect id="Square" x="524.278809" y="477.364807" rx="9.000000" width="46.508602" height="46.508602" stroke="#151A34" stroke-opacity="1.000000" stroke-width="0.500000"/>
		<rect id="Square" x="570.787598" y="477.364807" rx="9.000000" width="46.508602" height="46.508602" stroke="#151A34" stroke-opacity="1.000000" stroke-width="0.500000"/>
		<rect id="Square" x="617.296387" y="477.364807" rx="9.000000" width="46.508602" height="46.508602" stroke="#151A34" stroke-opacity="1.000000" stroke-width="0.500000"/>
		<rect id="Square" x="663.804688" y="477.364807" rx="9.000000" width="46.508602" height="46.508602" stroke="#151A34" stroke-opacity="1.000000" stroke-width="0.500000"/>
		<rect id="Square" x="710.313477" y="477.364807" rx="9.000000" width="46.508602" height="46.508602" stroke="#151A34" stroke-opacity="1.000000" stroke-width="0.500000"/>
		<rect id="Square" x="756.821777" y="477.364807" rx="9.000000" width="46.508602" height="46.508602" stroke="#151A34" stroke-opacity="1.000000" stroke-width="0.500000"/>
		<rect id="Square" x="803.330566" y="477.364807" rx="9.000000" width="46.508602" height="46.508602" stroke="#151A34" stroke-opacity="1.000000" stroke-width="0.500000"/>
		<rect id="Square" x="849.839355" y="477.364807" rx="9.000000" width="46.508602" height="46.508602" stroke="#151A34" stroke-opacity="1.000000" stroke-width="0.500000"/>
		<rect id="Square" x="896.347656" y="477.364807" rx="9.000000" width="46.508602" height="46.508602" stroke="#151A34" stroke-opacity="1.000000" stroke-width="0.500000"/>
		<rect id="Square" x="942.855957" y="477.364807" rx="9.000000" width="46.508602" height="46.508602" stroke="#151A34" stroke-opacity="1.000000" stroke-width="0.500000"/>
		<rect id="Square" x="989.364746" y="477.364807" rx="9.000000" width="46.508602" height="46.508602" stroke="#151A34" stroke-opacity="1.000000" stroke-width="0.500000"/>
		<rect id="Square" x="1035.873047" y="477.364807" rx="9.000000" width="46.508602" height="46.508602" stroke="#151A34" stroke-opacity="1.000000" stroke-width="0.500000"/>
		<rect id="Square" x="1082.382324" y="477.364807" rx="9.000000" width="46.508602" height="46.508602" stroke="#151A34" stroke-opacity="1.000000" stroke-width="0.500000"/>
		<rect id="Square" x="1128.890137" y="477.364807" rx="9.000000" width="46.508602" height="46.508602" stroke="#151A34" stroke-opacity="1.000000" stroke-width="0.500000"/>
		<rect id="Square" x="1175.398926" y="477.364807" rx="9.000000" width="46.508602" height="46.508602" stroke="#151A34" stroke-opacity="1.000000" stroke-width="0.500000"/>
		<rect id="Square" x="1221.908203" y="477.364807" rx="9.000000" width="46.508602" height="46.508602" stroke="#151A34" stroke-opacity="1.000000" stroke-width="0.500000"/>
		<rect id="Square" x="1268.416016" y="477.364807" rx="9.000000" width="46.508602" height="46.508602" fill="#151A34" fill-opacity="1.000000"/>
		<rect id="Square" x="1268.416016" y="477.364807" rx="9.000000" width="46.508602" height="46.508602" stroke="#151A34" stroke-opacity="1.000000" stroke-width="0.500000"/>
		<rect id="Square" x="1314.924805" y="477.364807" rx="9.000000" width="46.508602" height="46.508602" stroke="#151A34" stroke-opacity="1.000000" stroke-width="0.500000"/>
		<rect id="Square" x="1361.434570" y="477.364807" rx="9.000000" width="46.508602" height="46.508602" stroke="#151A34" stroke-opacity="1.000000" stroke-width="0.500000"/>
		<rect id="Square" x="431.261719" y="523.873169" rx="9.000000" width="46.508602" height="46.508602" stroke="#151A34" stroke-opacity="1.000000" stroke-width="0.500000"/>
		<rect id="Square" x="477.770020" y="523.873169" rx="9.000000" width="46.508602" height="46.508602" stroke="#151A34" stroke-opacity="1.000000" stroke-width="0.500000"/>
		<rect id="Square" x="524.278809" y="523.873169" rx="9.000000" width="46.508602" height="46.508602" stroke="#151A34" stroke-opacity="1.000000" stroke-width="0.500000"/>
		<rect id="Square" x="570.787598" y="523.873169" rx="9.000000" width="46.508602" height="46.508602" stroke="#151A34" stroke-opacity="1.000000" stroke-width="0.500000"/>
		<rect id="Square" x="617.296387" y="523.873169" rx="9.000000" width="46.508602" height="46.508602" stroke="#151A34" stroke-opacity="1.000000" stroke-width="0.500000"/>
		<rect id="Square" x="663.804688" y="523.873169" rx="9.000000" width="46.508602" height="46.508602" stroke="#151A34" stroke-opacity="1.000000" stroke-width="0.500000"/>
		<rect id="Square" x="710.313477" y="523.873169" rx="9.000000" width="46.508602" height="46.508602" stroke="#151A34" stroke-opacity="1.000000" stroke-width="0.500000"/>
		<rect id="Square" x="756.821777" y="523.873169" rx="9.000000" width="46.508602" height="46.508602" stroke="#151A34" stroke-opacity="1.000000" stroke-width="0.500000"/>
		<rect id="Square" x="803.330566" y="523.873169" rx="9.000000" width="46.508602" height="46.508602" stroke="#151A34" stroke-opacity="1.000000" stroke-width="0.500000"/>
		<rect id="Square" x="849.839355" y="523.873169" rx="9.000000" width="46.508602" height="46.508602" stroke="#151A34" stroke-opacity="1.000000" stroke-width="0.500000"/>
		<rect id="Square" x="896.347656" y="523.873169" rx="9.000000" width="46.508602" height="46.508602" stroke="#151A34" stroke-opacity="1.000000" stroke-width="0.500000"/>
		<rect id="Square" x="942.855957" y="523.873169" rx="9.000000" width="46.508602" height="46.508602" stroke="#151A34" stroke-opacity="1.000000" stroke-width="0.500000"/>
		<rect id="Square" x="989.364746" y="523.873169" rx="9.000000" width="46.508602" height="46.508602" stroke="#151A34" stroke-opacity="1.000000" stroke-width="0.500000"/>
		<rect id="Square" x="1035.873047" y="523.873169" rx="9.000000" width="46.508602" height="46.508602" stroke="#151A34" stroke-opacity="1.000000" stroke-width="0.500000"/>
		<rect id="Square" x="1082.382324" y="523.873169" rx="9.000000" width="46.508602" height="46.508602" stroke="#151A34" stroke-opacity="1.000000" stroke-width="0.500000"/>
		<rect id="Square" x="1128.890137" y="523.873169" rx="9.000000" width="46.508602" height="46.508602" stroke="#151A34" stroke-opacity="1.000000" stroke-width="0.500000"/>
		<rect id="Square" x="1175.398926" y="523.873169" rx="9.000000" width="46.508602" height="46.508602" stroke="#151A34" stroke-opacity="1.000000" stroke-width="0.500000"/>
		<rect id="Square" x="1221.908203" y="523.873169" rx="9.000000" width="46.508602" height="46.508602" stroke="#151A34" stroke-opacity="1.000000" stroke-width="0.500000"/>
		<rect id="Square" x="1268.416016" y="523.873169" rx="9.000000" width="46.508602" height="46.508602" stroke="#151A34" stroke-opacity="1.000000" stroke-width="0.500000"/>
		<rect id="Square" x="1314.924805" y="523.873169" rx="9.000000" width="46.508602" height="46.508602" stroke="#151A34" stroke-opacity="1.000000" stroke-width="0.500000"/>
		<rect id="Square" x="1361.434570" y="523.873169" rx="9.000000" width="46.508602" height="46.508602" stroke="#151A34" stroke-opacity="1.000000" stroke-width="0.500000"/>
		<rect id="Square" x="431.261719" y="570.381836" rx="9.000000" width="46.508602" height="46.508602" stroke="#151A34" stroke-opacity="1.000000" stroke-width="0.500000"/>
		<rect id="Square" x="477.770020" y="570.381836" rx="9.000000" width="46.508602" height="46.508602" stroke="#151A34" stroke-opacity="1.000000" stroke-width="0.500000"/>
		<rect id="Square" x="524.278809" y="570.381836" rx="9.000000" width="46.508602" height="46.508602" stroke="#151A34" stroke-opacity="1.000000" stroke-width="0.500000"/>
		<rect id="Square" x="570.787598" y="570.381836" rx="9.000000" width="46.508602" height="46.508602" stroke="#151A34" stroke-opacity="1.000000" stroke-width="0.500000"/>
		<rect id="Square" x="617.296387" y="570.381836" rx="9.000000" width="46.508602" height="46.508602" stroke="#151A34" stroke-opacity="1.000000" stroke-width="0.500000"/>
		<rect id="Square" x="663.804688" y="570.381836" rx="9.000000" width="46.508602" height="46.508602" stroke="#151A34" stroke-opacity="1.000000" stroke-width="0.500000"/>
		<rect id="Square" x="710.313477" y="570.381836" rx="9.000000" width="46.508602" height="46.508602" stroke="#151A34" stroke-opacity="1.000000" stroke-width="0.500000"/>
		<rect id="Square" x="756.821777" y="570.381836" rx="9.000000" width="46.508602" height="46.508602" stroke="#151A34" stroke-opacity="1.000000" stroke-width="0.500000"/>
		<rect id="Square" x="803.330566" y="570.381836" rx="9.000000" width="46.508602" height="46.508602" fill="#151A34" fill-opacity="1.000000"/>
		<rect id="Square" x="803.330566" y="570.381836" rx="9.000000" width="46.508602" height="46.508602" stroke="#151A34" stroke-opacity="1.000000" stroke-width="0.500000"/>
		<rect id="Square" x="849.839355" y="570.381836" rx="9.000000" width="46.508602" height="46.508602" stroke="#151A34" stroke-opacity="1.000000" stroke-width="0.500000"/>
		<rect id="Square" x="896.347656" y="570.381836" rx="9.000000" width="46.508602" height="46.508602" stroke="#151A34" stroke-opacity="1.000000" stroke-width="0.500000"/>
		<rect id="Square" x="942.855957" y="570.381836" rx="9.000000" width="46.508602" height="46.508602" stroke="#151A34" stroke-opacity="1.000000" stroke-width="0.500000"/>
		<rect id="Square" x="989.364746" y="570.381836" rx="9.000000" width="46.508602" height="46.508602" stroke="#151A34" stroke-opacity="1.000000" stroke-width="0.500000"/>
		<rect id="Square" x="1035.873047" y="570.381836" rx="9.000000" width="46.508602" height="46.508602" stroke="#151A34" stroke-opacity="1.000000" stroke-width="0.500000"/>
		<rect id="Square" x="1082.382324" y="570.381836" rx="9.000000" width="46.508602" height="46.508602" stroke="#151A34" stroke-opacity="1.000000" stroke-width="0.500000"/>
		<rect id="Square" x="1128.890137" y="570.381836" rx="9.000000" width="46.508602" height="46.508602" stroke="#151A34" stroke-opacity="1.000000" stroke-width="0.500000"/>
		<rect id="Square" x="1175.398926" y="570.381836" rx="9.000000" width="46.508602" height="46.508602" stroke="#151A34" stroke-opacity="1.000000" stroke-width="0.500000"/>
		<rect id="Square" x="1221.908203" y="570.381836" rx="9.000000" width="46.508602" height="46.508602" stroke="#151A34" stroke-opacity="1.000000" stroke-width="0.500000"/>
		<rect id="Square" x="1268.416992" y="570.381836" rx="9.000000" width="46.508602" height="46.508602" stroke="#151A34" stroke-opacity="1.000000" stroke-width="0.500000"/>
		<rect id="Square" x="1314.924805" y="570.381836" rx="9.000000" width="46.508602" height="46.508602" stroke="#151A34" stroke-opacity="1.000000" stroke-width="0.500000"/>
		<rect id="Square" x="1361.434570" y="570.381836" rx="9.000000" width="46.508602" height="46.508602" stroke="#151A34" stroke-opacity="1.000000" stroke-width="0.500000"/>
		<rect id="Square" x="431.261719" y="616.890198" rx="9.000000" width="46.508602" height="46.508602" stroke="#151A34" stroke-opacity="1.000000" stroke-width="0.500000"/>
		<rect id="Square" x="477.770020" y="616.890198" rx="9.000000" width="46.508602" height="46.508602" stroke="#151A34" stroke-opacity="1.000000" stroke-width="0.500000"/>
		<rect id="Square" x="524.278809" y="616.890198" rx="9.000000" width="46.508602" height="46.508602" stroke="#151A34" stroke-opacity="1.000000" stroke-width="0.500000"/>
		<rect id="Square" x="570.787598" y="616.890198" rx="9.000000" width="46.508602" height="46.508602" stroke="#151A34" stroke-opacity="1.000000" stroke-width="0.500000"/>
		<rect id="Square" x="617.296387" y="616.890198" rx="9.000000" width="46.508602" height="46.508602" fill="#151A34" fill-opacity="1.000000"/>
		<rect id="Square" x="617.296387" y="616.890198" rx="9.000000" width="46.508602" height="46.508602" stroke="#151A34" stroke-opacity="1.000000" stroke-width="0.500000"/>
		<rect id="Square" x="663.804688" y="616.890198" rx="9.000000" width="46.508602" height="46.508602" stroke="#151A34" stroke-opacity="1.000000" stroke-width="0.500000"/>
		<rect id="Square" x="710.313477" y="616.890198" rx="9.000000" width="46.508602" height="46.508602" stroke="#151A34" stroke-opacity="1.000000" stroke-width="0.500000"/>
		<rect id="Square" x="756.821777" y="616.890198" rx="9.000000" width="46.508602" height="46.508602" stroke="#151A34" stroke-opacity="1.000000" stroke-width="0.500000"/>
		<rect id="Square" x="803.330566" y="616.890198" rx="9.000000" width="46.508602" height="46.508602" stroke="#151A34" stroke-opacity="1.000000" stroke-width="0.500000"/>
		<rect id="Square" x="849.839355" y="616.890198" rx="9.000000" width="46.508602" height="46.508602" stroke="#151A34" stroke-opacity="1.000000" stroke-width="0.500000"/>
		<rect id="Square" x="896.347656" y="616.890198" rx="9.000000" width="46.508602" height="46.508602" stroke="#151A34" stroke-opacity="1.000000" stroke-width="0.500000"/>
		<rect id="Square" x="942.855957" y="616.890198" rx="9.000000" width="46.508602" height="46.508602" stroke="#151A34" stroke-opacity="1.000000" stroke-width="0.500000"/>
		<rect id="Square" x="989.364746" y="616.890198" rx="9.000000" width="46.508602" height="46.508602" stroke="#151A34" stroke-opacity="1.000000" stroke-width="0.500000"/>
		<rect id="Square" x="1035.873047" y="616.890198" rx="9.000000" width="46.508602" height="46.508602" stroke="#151A34" stroke-opacity="1.000000" stroke-width="0.500000"/>
		<rect id="Square" x="1082.382324" y="616.890198" rx="9.000000" width="46.508602" height="46.508602" stroke="#151A34" stroke-opacity="1.000000" stroke-width="0.500000"/>
		<rect id="Square" x="1128.890137" y="616.890198" rx="9.000000" width="46.508602" height="46.508602" stroke="#151A34" stroke-opacity="1.000000" stroke-width="0.500000"/>
		<rect id="Square" x="1175.398926" y="616.890198" rx="9.000000" width="46.508602" height="46.508602" stroke="#151A34" stroke-opacity="1.000000" stroke-width="0.500000"/>
		<rect id="Square" x="1221.908203" y="616.890198" rx="9.000000" width="46.508602" height="46.508602" stroke="#151A34" stroke-opacity="1.000000" stroke-width="0.500000"/>
		<rect id="Square" x="1268.416016" y="616.890198" rx="9.000000" width="46.508602" height="46.508602" stroke="#151A34" stroke-opacity="1.000000" stroke-width="0.500000"/>
		<rect id="Square" x="1314.924805" y="616.890198" rx="9.000000" width="46.508602" height="46.508602" stroke="#151A34" stroke-opacity="1.000000" stroke-width="0.500000"/>
		<rect id="Square" x="1361.434570" y="616.890198" rx="9.000000" width="46.508602" height="46.508602" stroke="#151A34" stroke-opacity="1.000000" stroke-width="0.500000"/>
		<rect id="Square" x="431.261719" y="663.398926" rx="9.000000" width="46.508602" height="46.508602" stroke="#151A34" stroke-opacity="1.000000" stroke-width="0.500000"/>
		<rect id="Square" x="477.770020" y="663.398926" rx="9.000000" width="46.508602" height="46.508602" stroke="#151A34" stroke-opacity="1.000000" stroke-width="0.500000"/>
		<rect id="Square" x="524.278809" y="663.398926" rx="9.000000" width="46.508602" height="46.508602" stroke="#151A34" stroke-opacity="1.000000" stroke-width="0.500000"/>
		<rect id="Square" x="570.787598" y="663.398926" rx="9.000000" width="46.508602" height="46.508602" stroke="#151A34" stroke-opacity="1.000000" stroke-width="0.500000"/>
		<rect id="Square" x="617.296387" y="663.398926" rx="9.000000" width="46.508602" height="46.508602" stroke="#151A34" stroke-opacity="1.000000" stroke-width="0.500000"/>
		<rect id="Square" x="663.804688" y="663.398926" rx="9.000000" width="46.508602" height="46.508602" stroke="#151A34" stroke-opacity="1.000000" stroke-width="0.500000"/>
		<rect id="Square" x="710.313477" y="663.398926" rx="9.000000" width="46.508602" height="46.508602" stroke="#151A34" stroke-opacity="1.000000" stroke-width="0.500000"/>
		<rect id="Square" x="756.821777" y="663.398926" rx="9.000000" width="46.508602" height="46.508602" stroke="#151A34" stroke-opacity="1.000000" stroke-width="0.500000"/>
		<rect id="Square" x="803.330566" y="663.398926" rx="9.000000" width="46.508602" height="46.508602" stroke="#151A34" stroke-opacity="1.000000" stroke-width="0.500000"/>
		<rect id="Square" x="849.839355" y="663.398926" rx="9.000000" width="46.508602" height="46.508602" stroke="#151A34" stroke-opacity="1.000000" stroke-width="0.500000"/>
		<rect id="Square" x="896.347656" y="663.398926" rx="9.000000" width="46.508602" height="46.508602" stroke="#151A34" stroke-opacity="1.000000" stroke-width="0.500000"/>
		<rect id="Square" x="942.855957" y="663.398926" rx="9.000000" width="46.508602" height="46.508602" stroke="#151A34" stroke-opacity="1.000000" stroke-width="0.500000"/>
		<rect id="Square" x="989.364746" y="663.398926" rx="9.000000" width="46.508602" height="46.508602" stroke="#151A34" stroke-opacity="1.000000" stroke-width="0.500000"/>
		<rect id="Square" x="1035.873047" y="663.398926" rx="9.000000" width="46.508602" height="46.508602" stroke="#151A34" stroke-opacity="1.000000" stroke-width="0.500000"/>
		<rect id="Square" x="1082.382324" y="663.398926" rx="9.000000" width="46.508602" height="46.508602" stroke="#151A34" stroke-opacity="1.000000" stroke-width="0.500000"/>
		<rect id="Square" x="1128.890137" y="663.398926" rx="9.000000" width="46.508602" height="46.508602" stroke="#151A34" stroke-opacity="1.000000" stroke-width="0.500000"/>
		<rect id="Square" x="1175.398926" y="663.398926" rx="9.000000" width="46.508602" height="46.508602" stroke="#151A34" stroke-opacity="1.000000" stroke-width="0.500000"/>
		<rect id="Square" x="1221.908203" y="663.398926" rx="9.000000" width="46.508602" height="46.508602" stroke="#151A34" stroke-opacity="1.000000" stroke-width="0.500000"/>
		<rect id="Square" x="1268.416016" y="663.398926" rx="9.000000" width="46.508602" height="46.508602" stroke="#151A34" stroke-opacity="1.000000" stroke-width="0.500000"/>
		<rect id="Square" x="1314.924805" y="663.398926" rx="9.000000" width="46.508602" height="46.508602" stroke="#151A34" stroke-opacity="1.000000" stroke-width="0.500000"/>
		<rect id="Square" x="1361.434570" y="663.398926" rx="9.000000" width="46.508602" height="46.508602" stroke="#151A34" stroke-opacity="1.000000" stroke-width="0.500000"/>
		<rect id="Square" x="431.261719" y="709.907593" rx="9.000000" width="46.508602" height="46.508602" stroke="#151A34" stroke-opacity="1.000000" stroke-width="0.500000"/>
		<rect id="Square" x="477.770020" y="709.907593" rx="9.000000" width="46.508602" height="46.508602" stroke="#151A34" stroke-opacity="1.000000" stroke-width="0.500000"/>
		<rect id="Square" x="524.278809" y="709.907593" rx="9.000000" width="46.508602" height="46.508602" stroke="#151A34" stroke-opacity="1.000000" stroke-width="0.500000"/>
		<rect id="Square" x="570.787598" y="709.907593" rx="9.000000" width="46.508602" height="46.508602" stroke="#151A34" stroke-opacity="1.000000" stroke-width="0.500000"/>
		<rect id="Square" x="617.296387" y="709.907593" rx="9.000000" width="46.508602" height="46.508602" stroke="#151A34" stroke-opacity="1.000000" stroke-width="0.500000"/>
		<rect id="Square" x="663.804688" y="709.907593" rx="9.000000" width="46.508602" height="46.508602" stroke="#151A34" stroke-opacity="1.000000" stroke-width="0.500000"/>
		<rect id="Square" x="710.313477" y="709.907593" rx="9.000000" width="46.508602" height="46.508602" stroke="#151A34" stroke-opacity="1.000000" stroke-width="0.500000"/>
		<rect id="Square" x="756.821777" y="709.907593" rx="9.000000" width="46.508602" height="46.508602" stroke="#151A34" stroke-opacity="1.000000" stroke-width="0.500000"/>
		<rect id="Square" x="803.330566" y="709.907593" rx="9.000000" width="46.508602" height="46.508602" stroke="#151A34" stroke-opacity="1.000000" stroke-width="0.500000"/>
		<rect id="Square" x="849.839355" y="709.907593" rx="9.000000" width="46.508602" height="46.508602" stroke="#151A34" stroke-opacity="1.000000" stroke-width="0.500000"/>
		<rect id="Square" x="896.347656" y="709.907593" rx="9.000000" width="46.508602" height="46.508602" stroke="#151A34" stroke-opacity="1.000000" stroke-width="0.500000"/>
		<rect id="Square" x="942.855957" y="709.907593" rx="9.000000" width="46.508602" height="46.508602" stroke="#151A34" stroke-opacity="1.000000" stroke-width="0.500000"/>
		<rect id="Square" x="989.364746" y="709.907593" rx="9.000000" width="46.508602" height="46.508602" stroke="#151A34" stroke-opacity="1.000000" stroke-width="0.500000"/>
		<rect id="Square" x="1035.873047" y="709.907593" rx="9.000000" width="46.508602" height="46.508602" stroke="#151A34" stroke-opacity="1.000000" stroke-width="0.500000"/>
		<rect id="Square" x="1082.382324" y="709.907593" rx="9.000000" width="46.508602" height="46.508602" stroke="#151A34" stroke-opacity="1.000000" stroke-width="0.500000"/>
		<rect id="Square" x="1128.890137" y="709.907593" rx="9.000000" width="46.508602" height="46.508602" stroke="#151A34" stroke-opacity="1.000000" stroke-width="0.500000"/>
		<rect id="Square" x="1175.398926" y="709.907593" rx="9.000000" width="46.508602" height="46.508602" stroke="#151A34" stroke-opacity="1.000000" stroke-width="0.500000"/>
		<rect id="Square" x="1221.908203" y="709.907593" rx="9.000000" width="46.508602" height="46.508602" stroke="#151A34" stroke-opacity="1.000000" stroke-width="0.500000"/>
		<rect id="Square" x="1268.416016" y="709.907593" rx="9.000000" width="46.508602" height="46.508602" stroke="#151A34" stroke-opacity="1.000000" stroke-width="0.500000"/>
		<rect id="Square" x="1314.924805" y="709.907593" rx="9.000000" width="46.508602" height="46.508602" stroke="#151A34" stroke-opacity="1.000000" stroke-width="0.500000"/>
		<rect id="Square" x="1361.434570" y="709.907593" rx="9.000000" width="46.508602" height="46.508602" stroke="#151A34" stroke-opacity="1.000000" stroke-width="0.500000"/>
		<rect id="Square" x="431.261719" y="756.416321" rx="9.000000" width="46.508602" height="46.508602" stroke="#151A34" stroke-opacity="1.000000" stroke-width="0.500000"/>
		<rect id="Square" x="477.770020" y="756.416321" rx="9.000000" width="46.508602" height="46.508602" stroke="#151A34" stroke-opacity="1.000000" stroke-width="0.500000"/>
		<rect id="Square" x="524.278809" y="756.416321" rx="9.000000" width="46.508602" height="46.508602" stroke="#151A34" stroke-opacity="1.000000" stroke-width="0.500000"/>
		<rect id="Square" x="570.787598" y="756.416321" rx="9.000000" width="46.508602" height="46.508602" stroke="#151A34" stroke-opacity="1.000000" stroke-width="0.500000"/>
		<rect id="Square" x="617.296387" y="756.416321" rx="9.000000" width="46.508602" height="46.508602" stroke="#151A34" stroke-opacity="1.000000" stroke-width="0.500000"/>
		<rect id="Square" x="663.804688" y="756.416321" rx="9.000000" width="46.508602" height="46.508602" stroke="#151A34" stroke-opacity="1.000000" stroke-width="0.500000"/>
		<rect id="Square" x="710.313477" y="756.416321" rx="9.000000" width="46.508602" height="46.508602" stroke="#151A34" stroke-opacity="1.000000" stroke-width="0.500000"/>
		<rect id="Square" x="756.821777" y="756.416321" rx="9.000000" width="46.508602" height="46.508602" stroke="#151A34" stroke-opacity="1.000000" stroke-width="0.500000"/>
		<rect id="Square" x="803.330566" y="756.416321" rx="9.000000" width="46.508602" height="46.508602" stroke="#151A34" stroke-opacity="1.000000" stroke-width="0.500000"/>
		<rect id="Square" x="849.839355" y="756.416321" rx="9.000000" width="46.508602" height="46.508602" stroke="#151A34" stroke-opacity="1.000000" stroke-width="0.500000"/>
		<rect id="Square" x="896.347656" y="756.416321" rx="9.000000" width="46.508602" height="46.508602" stroke="#151A34" stroke-opacity="1.000000" stroke-width="0.500000"/>
		<rect id="Square" x="942.855957" y="756.416321" rx="9.000000" width="46.508602" height="46.508602" stroke="#151A34" stroke-opacity="1.000000" stroke-width="0.500000"/>
		<rect id="Square" x="989.364746" y="756.416321" rx="9.000000" width="46.508602" height="46.508602" stroke="#151A34" stroke-opacity="1.000000" stroke-width="0.500000"/>
		<rect id="Square" x="1035.873047" y="756.416321" rx="9.000000" width="46.508602" height="46.508602" stroke="#151A34" stroke-opacity="1.000000" stroke-width="0.500000"/>
		<rect id="Square" x="1082.382324" y="756.416321" rx="9.000000" width="46.508602" height="46.508602" stroke="#151A34" stroke-opacity="1.000000" stroke-width="0.500000"/>
		<rect id="Square" x="1128.890137" y="756.416321" rx="9.000000" width="46.508602" height="46.508602" stroke="#151A34" stroke-opacity="1.000000" stroke-width="0.500000"/>
		<rect id="Square" x="1175.398926" y="756.416321" rx="9.000000" width="46.508602" height="46.508602" stroke="#151A34" stroke-opacity="1.000000" stroke-width="0.500000"/>
		<rect id="Square" x="1221.908203" y="756.416321" rx="9.000000" width="46.508602" height="46.508602" stroke="#151A34" stroke-opacity="1.000000" stroke-width="0.500000"/>
		<rect id="Square" x="1268.416016" y="756.416321" rx="9.000000" width="46.508602" height="46.508602" stroke="#151A34" stroke-opacity="1.000000" stroke-width="0.500000"/>
		<rect id="Square" x="1314.924805" y="756.416321" rx="9.000000" width="46.508602" height="46.508602" stroke="#151A34" stroke-opacity="1.000000" stroke-width="0.500000"/>
		<rect id="Square" x="1361.434570" y="756.416321" rx="9.000000" width="46.508602" height="46.508602" stroke="#151A34" stroke-opacity="1.000000" stroke-width="0.500000"/>
		<rect id="Square" x="431.261719" y="802.925049" rx="9.000000" width="46.508602" height="46.508602" stroke="#151A34" stroke-opacity="1.000000" stroke-width="0.500000"/>
		<rect id="Square" x="477.770020" y="802.925049" rx="9.000000" width="46.508602" height="46.508602" stroke="#151A34" stroke-opacity="1.000000" stroke-width="0.500000"/>
		<rect id="Square" x="524.278809" y="802.925049" rx="9.000000" width="46.508602" height="46.508602" stroke="#151A34" stroke-opacity="1.000000" stroke-width="0.500000"/>
		<rect id="Square" x="570.787598" y="802.925049" rx="9.000000" width="46.508602" height="46.508602" stroke="#151A34" stroke-opacity="1.000000" stroke-width="0.500000"/>
		<rect id="Square" x="617.296387" y="802.925049" rx="9.000000" width="46.508602" height="46.508602" stroke="#151A34" stroke-opacity="1.000000" stroke-width="0.500000"/>
		<rect id="Square" x="663.804688" y="802.925049" rx="9.000000" width="46.508602" height="46.508602" stroke="#151A34" stroke-opacity="1.000000" stroke-width="0.500000"/>
		<rect id="Square" x="710.313477" y="802.925049" rx="9.000000" width="46.508602" height="46.508602" stroke="#151A34" stroke-opacity="1.000000" stroke-width="0.500000"/>
		<rect id="Square" x="756.821777" y="802.925049" rx="9.000000" width="46.508602" height="46.508602" stroke="#151A34" stroke-opacity="1.000000" stroke-width="0.500000"/>
		<rect id="Square" x="803.330566" y="802.925049" rx="9.000000" width="46.508602" height="46.508602" stroke="#151A34" stroke-opacity="1.000000" stroke-width="0.500000"/>
		<rect id="Square" x="849.839355" y="802.925049" rx="9.000000" width="46.508602" height="46.508602" stroke="#151A34" stroke-opacity="1.000000" stroke-width="0.500000"/>
		<rect id="Square" x="896.347656" y="802.925049" rx="9.000000" width="46.508602" height="46.508602" stroke="#151A34" stroke-opacity="1.000000" stroke-width="0.500000"/>
		<rect id="Square" x="942.855957" y="802.925049" rx="9.000000" width="46.508602" height="46.508602" stroke="#151A34" stroke-opacity="1.000000" stroke-width="0.500000"/>
		<rect id="Square" x="989.364746" y="802.925049" rx="9.000000" width="46.508602" height="46.508602" stroke="#151A34" stroke-opacity="1.000000" stroke-width="0.500000"/>
		<rect id="Square" x="1035.873047" y="802.925049" rx="9.000000" width="46.508602" height="46.508602" stroke="#151A34" stroke-opacity="1.000000" stroke-width="0.500000"/>
		<rect id="Square" x="1082.382324" y="802.925049" rx="9.000000" width="46.508602" height="46.508602" stroke="#151A34" stroke-opacity="1.000000" stroke-width="0.500000"/>
		<rect id="Square" x="1128.890137" y="802.925049" rx="9.000000" width="46.508602" height="46.508602" stroke="#151A34" stroke-opacity="1.000000" stroke-width="0.500000"/>
		<rect id="Square" x="1175.398926" y="802.925049" rx="9.000000" width="46.508602" height="46.508602" stroke="#151A34" stroke-opacity="1.000000" stroke-width="0.500000"/>
		<rect id="Square" x="1221.908203" y="802.925049" rx="9.000000" width="46.508602" height="46.508602" stroke="#151A34" stroke-opacity="1.000000" stroke-width="0.500000"/>
		<rect id="Square" x="1268.416016" y="802.925049" rx="9.000000" width="46.508602" height="46.508602" stroke="#151A34" stroke-opacity="1.000000" stroke-width="0.500000"/>
		<rect id="Square" x="1314.924805" y="802.925049" rx="9.000000" width="46.508602" height="46.508602" stroke="#151A34" stroke-opacity="1.000000" stroke-width="0.500000"/>
		<rect id="Square" x="1361.434570" y="802.925049" rx="9.000000" width="46.508602" height="46.508602" stroke="#151A34" stroke-opacity="1.000000" stroke-width="0.500000"/>
	</g>
</svg>
