<svg width="902.500000" height="206.000000" viewBox="0 0 902.5 206" fill="none" xmlns="http://www.w3.org/2000/svg" xmlns:xlink="http://www.w3.org/1999/xlink">
	<desc>
			Created with Pixso.
	</desc>
	<defs>
		<linearGradient x1="0.000000" y1="153.250000" x2="770.000000" y2="153.250000" id="paint_linear_2045_91_0" gradientUnits="userSpaceOnUse">
			<stop stop-color="#191E38"/>
			<stop offset="1.000000" stop-color="#191E38" stop-opacity="0.000000"/>
		</linearGradient>
		<linearGradient x1="0.500000" y1="142.000000" x2="770.500000" y2="142.000000" id="paint_linear_2045_92_0" gradientUnits="userSpaceOnUse">
			<stop stop-color="#191E38"/>
			<stop offset="1.000000" stop-color="#191E38" stop-opacity="0.000000"/>
		</linearGradient>
		<linearGradient x1="0.500000" y1="119.500000" x2="770.500000" y2="119.500000" id="paint_linear_2045_93_0" gradientUnits="userSpaceOnUse">
			<stop stop-color="#191E38"/>
			<stop offset="1.000000" stop-color="#191E38" stop-opacity="0.000000"/>
		</linearGradient>
		<linearGradient x1="0.500000" y1="95.500000" x2="770.500000" y2="95.500000" id="paint_linear_2045_94_0" gradientUnits="userSpaceOnUse">
			<stop stop-color="#191E38"/>
			<stop offset="1.000000" stop-color="#191E38" stop-opacity="0.000000"/>
		</linearGradient>
		<linearGradient x1="0.500000" y1="72.500000" x2="770.500000" y2="72.500000" id="paint_linear_2045_95_0" gradientUnits="userSpaceOnUse">
			<stop stop-color="#191E38"/>
			<stop offset="1.000000" stop-color="#191E38" stop-opacity="0.000000"/>
		</linearGradient>
		<linearGradient x1="9.499969" y1="42.251465" x2="902.499756" y2="42.251465" id="paint_linear_2045_96_0" gradientUnits="userSpaceOnUse">
			<stop stop-color="#191E38"/>
			<stop offset="1.000000" stop-color="#191E38" stop-opacity="0.000000"/>
		</linearGradient>
		<linearGradient x1="72.500000" y1="42.250000" x2="319.500000" y2="42.250000" id="paint_linear_2045_155_0" gradientUnits="userSpaceOnUse">
			<stop offset="0.124648" stop-color="#191E38" stop-opacity="0.000000"/>
			<stop offset="0.370984" stop-color="#CE7EDC"/>
			<stop offset="0.708250" stop-color="#191E38" stop-opacity="0.000000"/>
		</linearGradient>
		<filter id="filter_2045_104_dd" x="598.500000" y="26.500000" width="36.000000" height="36.000000" filterUnits="userSpaceOnUse" color-interpolation-filters="sRGB">
			<feFlood flood-opacity="0" result="BackgroundImageFix"/>
			<feBlend mode="normal" in="SourceGraphic" in2="BackgroundImageFix" result="shape"/>
			<feColorMatrix in="SourceAlpha" type="matrix" values="0 0 0 0 0 0 0 0 0 0 0 0 0 0 0 0 0 0 127 0" result="hardAlpha"/>
			<feOffset dx="0" dy="0"/>
			<feGaussianBlur stdDeviation="13.9"/>
			<feComposite in2="hardAlpha" operator="arithmetic" k2="-1" k3="1"/>
			<feColorMatrix type="matrix" values="0 0 0 0 0.098039 0 0 0 0 0.11765 0 0 0 0 0.21961 0 0 0 0.4 0"/>
			<feBlend mode="normal" in2="shape" result="effect_innerShadow_1"/>
		</filter>
		<filter id="filter_2045_105_dd" x="552.500000" y="144.500000" width="22.000000" height="22.000000" filterUnits="userSpaceOnUse" color-interpolation-filters="sRGB">
			<feFlood flood-opacity="0" result="BackgroundImageFix"/>
			<feBlend mode="normal" in="SourceGraphic" in2="BackgroundImageFix" result="shape"/>
			<feColorMatrix in="SourceAlpha" type="matrix" values="0 0 0 0 0 0 0 0 0 0 0 0 0 0 0 0 0 0 127 0" result="hardAlpha"/>
			<feOffset dx="0" dy="0"/>
			<feGaussianBlur stdDeviation="13.9"/>
			<feComposite in2="hardAlpha" operator="arithmetic" k2="-1" k3="1"/>
			<feColorMatrix type="matrix" values="0 0 0 0 0.098039 0 0 0 0 0.11765 0 0 0 0 0.21961 0 0 0 0.4 0"/>
			<feBlend mode="normal" in2="shape" result="effect_innerShadow_1"/>
		</filter>
		<filter id="filter_2045_106_dd" x="636.500000" y="100.500000" width="28.000000" height="28.000000" filterUnits="userSpaceOnUse" color-interpolation-filters="sRGB">
			<feFlood flood-opacity="0" result="BackgroundImageFix"/>
			<feBlend mode="normal" in="SourceGraphic" in2="BackgroundImageFix" result="shape"/>
			<feColorMatrix in="SourceAlpha" type="matrix" values="0 0 0 0 0 0 0 0 0 0 0 0 0 0 0 0 0 0 127 0" result="hardAlpha"/>
			<feOffset dx="0" dy="0"/>
			<feGaussianBlur stdDeviation="13.9"/>
			<feComposite in2="hardAlpha" operator="arithmetic" k2="-1" k3="1"/>
			<feColorMatrix type="matrix" values="0 0 0 0 0.098039 0 0 0 0 0.11765 0 0 0 0 0.21961 0 0 0 0.4 0"/>
			<feBlend mode="normal" in2="shape" result="effect_innerShadow_1"/>
		</filter>
	</defs>
	<path id="Vector 1" d="M770 205.5L595.33 205.5C577.83 205.5 561.04 198.54 548.66 186.16L482.83 120.33C470.45 107.95 453.66 101 436.16 101L0 101" stroke="url(#paint_linear_2045_91_0)" stroke-opacity="1.000000" stroke-width="1.000000"/>
	<path id="Vector 2" d="M770.5 183.5L591.41 183.5C576.57 183.5 562.16 178.49 550.51 169.3L481.98 115.19C470.33 106 455.92 101 441.08 101L0.5 101" stroke="url(#paint_linear_2045_92_0)" stroke-opacity="1.000000" stroke-width="1.000000"/>
	<path id="Vector 3" d="M770.5 161L586.09 161C574.56 161 563.23 157.97 553.23 152.23L479.26 109.76C469.26 104.02 457.93 101 446.4 101L0.5 101" stroke="url(#paint_linear_2045_93_0)" stroke-opacity="1.000000" stroke-width="1.000000"/>
	<path id="Vector 4" d="M770.5 137L579.55 137C572.23 137 564.96 135.78 558.05 133.4L474.44 104.59C467.53 102.21 460.26 101 452.95 101L0.5 101" stroke="url(#paint_linear_2045_94_0)" stroke-opacity="1.000000" stroke-width="1.000000"/>
	<path id="Vector 5" d="M770.5 114L568.5 114L464 101L0.5 101" stroke="url(#paint_linear_2045_95_0)" stroke-opacity="1.000000" stroke-width="1.000000"/>
	<path id="Vector 6" d="M902.5 0.5L692.03 0.5C676.65 0.5 661.75 5.87 649.9 15.69L565.36 85.8C553.52 95.62 538.61 101 523.23 101L9.5 101" stroke="url(#paint_linear_2045_96_0)" stroke-opacity="1.000000" stroke-width="1.000000"/>
	<path id="Vector 13" d="M547.03 101L9.49 101" stroke="url(#paint_linear_2045_155_0)" stroke-opacity="1.000000" stroke-width="1.000000"/>
	<g filter="url(#filter_2045_104_dd)">
		<rect id="Rectangle 40321" x="598.500000" y="26.500000" rx="10.000000" width="36.000000" height="36.000000" fill="#060A23" fill-opacity="1.000000"/>
	</g>
	<rect id="Rectangle 40321" x="599.000000" y="27.000000" rx="10.000000" width="35.000000" height="35.000000" stroke="#191E38" stroke-opacity="1.000000" stroke-width="1.000000"/>
	<g filter="url(#filter_2045_105_dd)">
		<rect id="Rectangle 40322" x="552.500000" y="144.500000" rx="6.000000" width="22.000000" height="22.000000" fill="#060A23" fill-opacity="1.000000"/>
	</g>
	<rect id="Rectangle 40322" x="553.000000" y="145.000000" rx="6.000000" width="21.000000" height="21.000000" stroke="#191E38" stroke-opacity="1.000000" stroke-width="1.000000"/>
	<g filter="url(#filter_2045_106_dd)">
		<rect id="Rectangle 40323" x="636.500000" y="100.500000" rx="8.000000" width="28.000000" height="28.000000" fill="#060A23" fill-opacity="1.000000"/>
	</g>
	<rect id="Rectangle 40323" x="637.000000" y="101.000000" rx="8.000000" width="27.000000" height="27.000000" stroke="#191E38" stroke-opacity="1.000000" stroke-width="1.000000"/>
	<path id="Vector" d="M623.46 42.33C623.77 40.25 622.19 39.14 620.03 38.4L620.73 35.59L619.02 35.16L618.34 37.9C617.89 37.78 617.43 37.68 616.97 37.57L617.65 34.82L615.95 34.4L615.25 37.2C614.87 37.12 614.51 37.03 614.15 36.95L614.16 36.94L611.8 36.35L611.34 38.18C611.34 38.18 612.61 38.47 612.59 38.48C613.28 38.66 613.4 39.11 613.38 39.48L612.58 42.68C612.63 42.69 612.69 42.71 612.76 42.73C612.7 42.72 612.64 42.71 612.58 42.69L611.46 47.17C611.38 47.38 611.16 47.7 610.68 47.58C610.7 47.6 609.44 47.27 609.44 47.27L608.59 49.23L610.81 49.78C611.23 49.88 611.63 49.99 612.03 50.1L611.32 52.94L613.03 53.36L613.73 50.55C614.2 50.68 614.65 50.79 615.09 50.9L614.4 53.7L616.11 54.13L616.81 51.29C619.73 51.84 621.92 51.62 622.84 48.98C623.59 46.86 622.81 45.64 621.27 44.84C622.39 44.58 623.23 43.85 623.46 42.33L623.46 42.33L623.46 42.33ZM619.55 47.81C619.02 49.93 615.45 48.78 614.29 48.49L615.23 44.73C616.39 45.02 620.1 45.59 619.55 47.81L619.55 47.81ZM620.08 42.3C619.6 44.23 616.62 43.25 615.66 43.01L616.51 39.59C617.47 39.83 620.58 40.28 620.08 42.3L620.08 42.3Z" fill="#252B4E" fill-opacity="1.000000" fill-rule="nonzero"/>
	<path id="Vector" d="M563.52 150.74L561.03 152.2L561.94 152.75L563.52 151.82L565.09 152.75L566.01 152.2L563.52 150.74ZM560.36 154.75L560.36 153.67L561.28 153.13L560.36 152.59L559.45 153.13L559.45 154.21L560.36 154.75ZM563.52 152.59L562.6 153.13L563.52 153.67L564.44 153.13L563.52 152.59ZM566.67 152.59L565.75 153.13L566.67 153.67L566.67 154.75L567.59 154.21L567.59 153.13L566.67 152.59ZM566.01 155.14L566.01 154.06L566.01 154.06L565.09 153.51L563.51 154.44L561.95 153.51L561.03 154.06L561.03 155.14L562.6 156.06L562.6 157.92L563.52 158.46L564.44 157.92L564.44 156.06L566.01 155.14ZM567.59 154.98L566.67 155.52L566.67 157.37L565.09 158.3L565.09 159.38L567.59 157.92L567.59 154.98ZM560.37 157.37L560.36 155.52L559.45 154.98L559.45 157.92L561.94 159.38L561.94 158.3L560.37 157.37ZM566.01 156.99L565.09 157.53L565.09 156.45L566.01 155.91L566.01 156.99ZM561.94 156.45L561.03 155.91L561.03 156.99L561.94 157.53L561.94 156.45ZM563.52 159.23L562.6 158.69L562.6 159.77L563.52 160.31L564.44 159.77L564.44 158.69L563.52 159.23Z" fill="#252B4E" fill-opacity="1.000000" fill-rule="evenodd"/>
	<path id="Vector" d="M650.76 118.37C650.99 118.24 651.14 117.98 651.16 117.69L651.14 115.54L651.17 114.11L651.13 111.99C651.13 111.72 651.28 111.47 651.53 111.3L652.98 110.5C653.21 110.37 653.52 110.36 653.78 110.51L655.21 111.33C655.44 111.47 655.6 111.71 655.61 112.02L655.62 113.67C655.62 113.93 655.47 114.19 655.22 114.35L653.77 115.15C653.54 115.29 653.23 115.3 652.97 115.15L652.02 114.6L652.03 116.05L653 116.61C653.23 116.75 653.52 116.76 653.8 116.62L656.46 115.11C656.69 114.97 656.84 114.72 656.86 114.42L656.84 111.28C656.86 110.99 656.69 110.74 656.47 110.61L653.78 109.06C653.55 108.93 653.25 108.91 652.98 109.05L650.3 110.6C650.07 110.73 649.92 110.99 649.9 111.28L649.91 113.38L649.91 114.83L649.92 116.93C649.92 117.2 649.77 117.46 649.52 117.62L648.1 118.44C647.87 118.57 647.56 118.58 647.3 118.43L645.87 117.61C645.64 117.47 645.48 117.23 645.47 116.92L645.44 115.3C645.45 115.04 645.59 114.78 645.84 114.62L647.27 113.8C647.5 113.67 647.81 113.66 648.06 113.8L648.98 114.33L648.98 112.88L648.03 112.34C647.81 112.21 647.51 112.19 647.24 112.33L644.55 113.87C644.32 114.01 644.18 114.27 644.16 114.56L644.16 117.65C644.16 117.92 644.31 118.19 644.57 118.34L647.28 119.91C647.51 120.04 647.81 120.06 648.08 119.91L650.76 118.37Z" fill="#252B4E" fill-opacity="1.000000" fill-rule="nonzero"/>
</svg>
