<svg width="870.500000" height="219.500000" viewBox="0 0 870.5 219.5" fill="none" xmlns="http://www.w3.org/2000/svg" xmlns:xlink="http://www.w3.org/1999/xlink">
	<desc>
			Created with Pixso.
	</desc>
	<defs>
		<linearGradient x1="870.500000" y1="66.250000" x2="100.499878" y2="66.250000" id="paint_linear_2045_97_0" gradientUnits="userSpaceOnUse">
			<stop stop-color="#191E38"/>
			<stop offset="1.000000" stop-color="#191E38" stop-opacity="0.000000"/>
		</linearGradient>
		<linearGradient x1="870.000000" y1="77.500000" x2="100.000000" y2="77.500000" id="paint_linear_2045_98_0" gradientUnits="userSpaceOnUse">
			<stop stop-color="#191E38"/>
			<stop offset="1.000000" stop-color="#191E38" stop-opacity="0.000000"/>
		</linearGradient>
		<linearGradient x1="870.000000" y1="100.000061" x2="100.000000" y2="100.000061" id="paint_linear_2045_99_0" gradientUnits="userSpaceOnUse">
			<stop stop-color="#191E38"/>
			<stop offset="1.000000" stop-color="#191E38" stop-opacity="0.000000"/>
		</linearGradient>
		<linearGradient x1="870.000000" y1="124.000000" x2="99.999939" y2="124.000000" id="paint_linear_2045_100_0" gradientUnits="userSpaceOnUse">
			<stop stop-color="#191E38"/>
			<stop offset="1.000000" stop-color="#191E38" stop-opacity="0.000000"/>
		</linearGradient>
		<linearGradient x1="870.000000" y1="147.000000" x2="99.999939" y2="147.000000" id="paint_linear_2045_101_0" gradientUnits="userSpaceOnUse">
			<stop stop-color="#191E38"/>
			<stop offset="1.000000" stop-color="#191E38" stop-opacity="0.000000"/>
		</linearGradient>
		<linearGradient x1="860.999756" y1="177.248535" x2="-32.000061" y2="177.248535" id="paint_linear_2045_102_0" gradientUnits="userSpaceOnUse">
			<stop stop-color="#191E38"/>
			<stop offset="1.000000" stop-color="#191E38" stop-opacity="0.000000"/>
		</linearGradient>
		<linearGradient x1="553.000000" y1="174.500000" x2="440.500000" y2="174.500000" id="paint_linear_2045_157_0" gradientUnits="userSpaceOnUse">
			<stop stop-color="#191E38" stop-opacity="0.000000"/>
			<stop offset="0.486666" stop-color="#CAA9E0"/>
			<stop offset="1.000000" stop-color="#191E38" stop-opacity="0.000000"/>
		</linearGradient>
		<filter id="filter_2045_107_dd" x="240.000000" y="156.000000" width="36.000000" height="36.000000" filterUnits="userSpaceOnUse" color-interpolation-filters="sRGB">
			<feFlood flood-opacity="0" result="BackgroundImageFix"/>
			<feBlend mode="normal" in="SourceGraphic" in2="BackgroundImageFix" result="shape"/>
			<feColorMatrix in="SourceAlpha" type="matrix" values="0 0 0 0 0 0 0 0 0 0 0 0 0 0 0 0 0 0 127 0" result="hardAlpha"/>
			<feOffset dx="0" dy="0"/>
			<feGaussianBlur stdDeviation="13.9"/>
			<feComposite in2="hardAlpha" operator="arithmetic" k2="-1" k3="1"/>
			<feColorMatrix type="matrix" values="0 0 0 0 0.098039 0 0 0 0 0.11765 0 0 0 0 0.21961 0 0 0 0.4 0"/>
			<feBlend mode="normal" in2="shape" result="effect_innerShadow_1"/>
		</filter>
		<filter id="filter_2045_108_dd" x="287.000000" y="74.000000" width="22.000000" height="22.000000" filterUnits="userSpaceOnUse" color-interpolation-filters="sRGB">
			<feFlood flood-opacity="0" result="BackgroundImageFix"/>
			<feBlend mode="normal" in="SourceGraphic" in2="BackgroundImageFix" result="shape"/>
			<feColorMatrix in="SourceAlpha" type="matrix" values="0 0 0 0 0 0 0 0 0 0 0 0 0 0 0 0 0 0 127 0" result="hardAlpha"/>
			<feOffset dx="0" dy="0"/>
			<feGaussianBlur stdDeviation="13.9"/>
			<feComposite in2="hardAlpha" operator="arithmetic" k2="-1" k3="1"/>
			<feColorMatrix type="matrix" values="0 0 0 0 0.098039 0 0 0 0 0.11765 0 0 0 0 0.21961 0 0 0 0.4 0"/>
			<feBlend mode="normal" in2="shape" result="effect_innerShadow_1"/>
		</filter>
		<filter id="filter_2045_109_dd" x="186.000000" y="0.000000" width="28.000000" height="28.000000" filterUnits="userSpaceOnUse" color-interpolation-filters="sRGB">
			<feFlood flood-opacity="0" result="BackgroundImageFix"/>
			<feBlend mode="normal" in="SourceGraphic" in2="BackgroundImageFix" result="shape"/>
			<feColorMatrix in="SourceAlpha" type="matrix" values="0 0 0 0 0 0 0 0 0 0 0 0 0 0 0 0 0 0 127 0" result="hardAlpha"/>
			<feOffset dx="0" dy="0"/>
			<feGaussianBlur stdDeviation="13.9"/>
			<feComposite in2="hardAlpha" operator="arithmetic" k2="-1" k3="1"/>
			<feColorMatrix type="matrix" values="0 0 0 0 0.098039 0 0 0 0 0.11765 0 0 0 0 0.21961 0 0 0 0.4 0"/>
			<feBlend mode="normal" in2="shape" result="effect_innerShadow_1"/>
		</filter>
	</defs>
	<path id="Vector 7" d="M0 14L275.16 14C292.66 14 309.45 20.95 321.83 33.33L387.66 99.16C400.04 111.54 416.83 118.5 434.33 118.5L870.5 118.5" stroke="url(#paint_linear_2045_97_0)" stroke-opacity="1.000000" stroke-width="1.000000"/>
	<path id="Vector 8" d="M25 36L279.08 36C293.92 36 308.33 41 319.98 50.19L388.51 104.3C400.16 113.49 414.57 118.5 429.41 118.5L870 118.5" stroke="url(#paint_linear_2045_98_0)" stroke-opacity="1.000000" stroke-width="1.000000"/>
	<path id="Vector 9" d="M51.5 58.5L284.4 58.5C295.93 58.5 307.26 61.52 317.26 67.26L391.23 109.73C401.23 115.47 412.56 118.5 424.1 118.5L870 118.5" stroke="url(#paint_linear_2045_99_0)" stroke-opacity="1.000000" stroke-width="1.000000"/>
	<path id="Vector 10" d="M70 82.5L290.95 82.5C298.26 82.5 305.53 83.71 312.44 86.09L396.05 114.9C402.97 117.28 410.23 118.5 417.55 118.5L870 118.5" stroke="url(#paint_linear_2045_100_0)" stroke-opacity="1.000000" stroke-width="1.000000"/>
	<path id="Vector 11" d="M86.5 105.5L302 105.5L406.5 118.5L870 118.5" stroke="url(#paint_linear_2045_101_0)" stroke-opacity="1.000000" stroke-width="1.000000"/>
	<path id="Vector 12" d="M133.5 219L178.46 219C193.84 219 208.74 213.62 220.59 203.8L305.13 133.69C316.97 123.87 331.88 118.5 347.26 118.5L861 118.5" stroke="url(#paint_linear_2045_102_0)" stroke-opacity="1.000000" stroke-width="1.000000"/>
	<path id="Vector 14" d="M323.46 118.5L861 118.5" stroke="url(#paint_linear_2045_157_0)" stroke-opacity="1.000000" stroke-width="1.000000"/>
	<g filter="url(#filter_2045_107_dd)">
		<rect id="Rectangle 40324" x="240.000000" y="156.000000" rx="10.000000" width="36.000000" height="36.000000" fill="#060A23" fill-opacity="1.000000"/>
	</g>
	<rect id="Rectangle 40324" x="240.500000" y="156.500000" rx="10.000000" width="35.000000" height="35.000000" stroke="#191E38" stroke-opacity="1.000000" stroke-width="1.000000"/>
	<g filter="url(#filter_2045_108_dd)">
		<rect id="Rectangle 40325" x="287.000000" y="74.000000" rx="6.000000" width="22.000000" height="22.000000" fill="#060A23" fill-opacity="1.000000"/>
	</g>
	<rect id="Rectangle 40325" x="287.500000" y="74.500000" rx="6.000000" width="21.000000" height="21.000000" stroke="#191E38" stroke-opacity="1.000000" stroke-width="1.000000"/>
	<g filter="url(#filter_2045_109_dd)">
		<rect id="Rectangle 40326" x="186.000000" rx="8.000000" width="28.000000" height="28.000000" fill="#060A23" fill-opacity="1.000000"/>
	</g>
	<rect id="Rectangle 40326" x="186.500000" y="0.500000" rx="8.000000" width="27.000000" height="27.000000" stroke="#191E38" stroke-opacity="1.000000" stroke-width="1.000000"/>
	<path id="Vector" d="M197.16 10.79C197 10.56 195.48 9.46 193.27 6.81C193.09 6.58 192.94 6.4 192.95 6.4C192.98 6.4 197.26 10.09 197.7 10.6L197.83 10.74L197.82 10.97C197.82 11.1 197.79 11.23 197.73 11.34C197.67 11.46 197.59 11.57 197.49 11.65C197.24 11.88 196.93 12.01 196.45 12.07C196.15 12.11 196.04 12.16 195.92 12.29C195.81 12.41 195.77 12.57 195.74 12.97C195.69 13.58 195.61 13.84 195.32 14.45C195.04 15.04 194.98 15.26 195.03 15.58C195.09 15.96 195.31 16.24 195.82 16.59C196.21 16.85 196.39 17.02 196.48 17.23C196.54 17.36 196.55 17.4 196.55 17.62C196.55 17.96 196.49 18.09 196.26 18.34C195.89 18.73 195.22 19.05 194.41 19.24C194.07 19.31 194.05 19.31 194.05 19.24C194.05 19.14 193.92 18.89 193.7 18.55C193.45 18.15 193.35 17.96 193.25 17.66C193.14 17.32 193.11 17.09 193.13 16.73C193.14 16.4 193.18 16.25 193.31 15.98C193.42 15.77 193.49 15.67 193.91 15.15C194.64 14.25 194.9 13.72 194.99 12.98C195.07 12.32 195.19 12 195.45 11.72C195.6 11.55 195.63 11.48 195.63 11.36C195.63 11.34 195.64 11.33 195.65 11.3C195.68 11.22 195.75 11.05 195.6 10.71C194.58 8.9 194.46 8.68 194.47 8.68C194.47 8.68 194.47 8.68 194.47 8.69C194.87 9.29 195.27 9.89 195.66 10.5C196.12 11.31 196.17 11.3 196.26 11.38C196.26 11.38 196.32 11.44 196.47 11.44C196.66 11.43 196.84 11.38 197.01 11.29C197.25 11.16 197.3 10.98 197.16 10.79ZM197.21 7.46C197.11 7.47 197.12 7.48 197.32 7.51L197.32 7.51C198.04 7.62 198.6 7.9 199.18 8.45C199.43 8.68 199.68 8.98 200.09 9.52C201.02 10.72 201.41 11.05 202.18 11.31C202.64 11.45 203.1 11.52 203.92 11.57C204.82 11.61 205.16 11.69 205.48 11.9C205.67 12.02 205.82 12.18 205.94 12.37L206.02 12.5L206 12.36C205.94 11.84 205.56 11.1 205.08 10.56L204.99 10.46L204.95 10.66C204.84 11.16 204.6 11.52 204.37 11.52C204.32 11.52 204.27 11.5 204.22 11.47C204.18 11.44 204.14 11.4 204.12 11.35C204.07 11.24 204.07 11.19 204.14 11.06C204.28 10.81 204.31 10.47 204.25 10.03C204.23 9.9 204.2 9.78 204.18 9.77C204.13 9.71 203.75 9.48 203.5 9.37C202.6 8.96 201.53 8.82 200.47 8.99L200.22 9.03L200.05 8.84C199.39 8.11 198.77 7.7 198.1 7.54C197.81 7.47 197.38 7.43 197.21 7.46ZM204.53 7.89C204.44 8.11 204.39 8.35 204.37 8.7L204.37 8.7C204.35 8.93 204.34 9.01 204.31 9.02C204.27 9.04 204.22 9.02 203.88 8.89C203.66 8.81 203.1 8.65 203.09 8.66C203.17 8.71 203.25 8.75 203.34 8.79C203.53 8.87 203.7 8.96 203.87 9.06C204.45 9.4 204.54 9.59 204.54 10.41C204.54 10.82 204.54 10.87 204.49 10.99C204.42 11.16 204.43 11.19 204.51 11.04C204.65 10.77 204.7 10.5 204.71 10.08C204.72 9.81 204.73 9.76 204.76 9.72C204.81 9.68 204.82 9.68 204.88 9.71C204.98 9.76 205.44 10.12 205.64 10.31L205.8 10.46L205.64 10.25C205.55 10.13 205.3 9.86 205.09 9.65C204.64 9.19 204.61 9.13 204.54 8.71C204.49 8.37 204.51 8.09 204.58 7.88C204.6 7.8 204.62 7.74 204.62 7.74C204.58 7.79 204.56 7.84 204.53 7.89ZM197.11 8.08C197.05 8.71 197.3 9.55 197.7 10.1C198.01 10.53 198.5 10.86 198.85 10.89C199.09 10.91 199.16 10.84 199.05 10.68C198.91 10.47 198.72 10.14 198.68 10C198.65 9.91 198.58 9.66 198.53 9.43C198.37 8.65 198.2 8.35 197.82 8.12C197.68 8.04 197.39 7.93 197.21 7.9L197.12 7.88L197.11 8.08ZM201.34 11.69C201.34 12.79 202 13.44 203.88 14.19C205.13 14.69 205.64 14.95 206.02 15.27C206.36 15.56 206.56 15.94 206.57 16.33C206.58 16.41 206.59 16.46 206.61 16.46C206.66 16.44 206.85 16.01 206.91 15.78C206.99 15.48 207.02 14.91 206.97 14.61C206.8 13.56 206.09 12.79 204.95 12.42C204.59 12.3 204.2 12.22 203.5 12.12C202.32 11.94 201.89 11.81 201.51 11.51C201.43 11.45 201.36 11.39 201.35 11.39C201.35 11.39 201.34 11.53 201.34 11.69ZM197.62 12.75C197.69 12.5 197.91 12.26 198.13 12.19C198.33 12.15 198.53 12.17 198.71 12.24C198.99 12.38 199.18 12.69 199.14 12.92C199.09 13.19 198.64 13.41 198.12 13.42C197.86 13.42 197.76 13.38 197.66 13.25C197.6 13.17 197.58 12.9 197.62 12.75ZM198.64 12.34C198.78 12.42 198.81 12.54 198.74 12.66C198.68 12.74 198.51 12.81 198.39 12.81C198.2 12.81 198 12.68 198 12.56C198 12.31 198.39 12.18 198.64 12.34ZM202.47 14.11C202.51 14.24 202.54 14.37 202.56 14.5C202.71 15.39 202.24 16.11 201.33 16.39C201.23 16.42 200.85 16.49 200.48 16.55C199.73 16.68 199.4 16.77 199.07 16.93C198.83 17.04 198.54 17.21 198.56 17.23C198.6 17.23 198.64 17.22 198.68 17.2C199.1 17.05 199.57 16.97 200.28 16.94C200.57 16.92 200.89 16.9 201 16.89C201.64 16.81 202.08 16.61 202.42 16.27C202.6 16.09 202.74 15.88 202.82 15.64C202.88 15.48 202.88 15.42 202.88 15.13C202.88 14.84 202.88 14.79 202.81 14.61C202.73 14.38 202.63 14.2 202.51 14.07L202.42 13.97L202.47 14.11ZM203.42 16.02C203.17 15.49 203.11 14.98 203.25 14.5C203.27 14.44 203.29 14.4 203.3 14.4C203.32 14.4 203.38 14.43 203.43 14.47C203.55 14.55 203.78 14.68 204.39 15.01C205.16 15.43 205.6 15.75 205.89 16.12C206.15 16.44 206.32 16.8 206.39 17.25C206.44 17.5 206.41 18.11 206.35 18.37C206.14 19.17 205.66 19.8 204.98 20.17C204.88 20.23 204.79 20.27 204.78 20.27C204.77 20.27 204.81 20.18 204.86 20.07C205.09 19.59 205.12 19.12 204.94 18.61C204.84 18.29 204.62 17.9 204.18 17.25C203.67 16.49 203.55 16.29 203.42 16.02ZM194.34 16.85C194.36 16.95 194.35 17.05 194.3 17.14C194.2 17.3 194.02 17.36 193.89 17.26C193.81 17.2 193.8 17.1 193.87 17C193.94 16.9 193.94 16.85 193.85 16.8C193.8 16.77 193.77 16.74 193.77 16.7C193.77 16.57 194.02 16.52 194.18 16.62C194.26 16.68 194.32 16.76 194.34 16.85ZM196.37 18.9C197.07 18.31 197.93 17.9 198.72 17.77C199.13 17.72 199.54 17.73 199.94 17.82C200.45 17.95 200.9 18.23 201.14 18.58C201.37 18.91 201.47 19.2 201.57 19.85C201.61 20.11 201.65 20.37 201.67 20.43C201.74 20.76 201.89 21.03 202.08 21.17C202.37 21.38 202.88 21.39 203.38 21.2C203.43 21.18 203.49 21.16 203.54 21.15C203.56 21.17 203.31 21.34 203.13 21.42C202.92 21.54 202.69 21.59 202.45 21.59C202 21.59 201.62 21.36 201.3 20.88C201.18 20.69 201.08 20.48 200.99 20.27C200.65 19.51 200.49 19.28 200.1 19.02C199.76 18.8 199.32 18.76 198.99 18.92C198.56 19.13 198.44 19.68 198.75 20.03C198.9 20.18 199.09 20.28 199.29 20.31C199.37 20.32 199.45 20.31 199.53 20.29C199.61 20.27 199.68 20.23 199.75 20.17C199.81 20.12 199.86 20.05 199.89 19.97C199.93 19.9 199.94 19.82 199.94 19.74C199.94 19.51 199.85 19.38 199.63 19.28C199.33 19.14 199 19.3 199 19.58C199 19.7 199.06 19.78 199.18 19.84C199.26 19.87 199.26 19.87 199.19 19.86C198.92 19.8 198.85 19.47 199.07 19.25C199.34 18.98 199.9 19.1 200.09 19.46C200.17 19.61 200.18 19.92 200.11 20.1C199.95 20.51 199.5 20.73 199.03 20.61C198.72 20.53 198.59 20.44 198.21 20.05C197.55 19.38 197.3 19.25 196.34 19.1L196.16 19.07L196.37 18.9Z" fill="#252B4E" fill-opacity="1.000000" fill-rule="evenodd"/>
	<path id="Union" d="M302.037 81.4956L300.683 82.1855L294.141 85.5176C294.119 85.3486 294.108 85.1787 294.108 85.0088C294.109 84.3301 294.287 83.6631 294.625 83.0742C294.963 82.4854 295.449 81.9951 296.035 81.6519C296.62 81.3086 297.286 81.1245 297.964 81.1172C298.643 81.1104 299.312 81.2808 299.905 81.6118L300.68 81.2168L300.796 81.1577C300.085 80.6421 299.247 80.333 298.372 80.2646C297.497 80.1958 296.62 80.3706 295.838 80.7695C295.056 81.168 294.399 81.7754 293.941 82.5234C293.483 83.272 293.24 84.1323 293.24 85.0103C293.24 85.1313 293.245 85.252 293.254 85.3726C293.267 85.5425 293.229 85.7129 293.146 85.8618C293.062 86.0107 292.936 86.1318 292.784 86.209L292.375 86.4175L292.375 87.3901L293.579 86.7764L293.969 86.5776L294.353 86.3818L301.249 82.8682L302.023 82.4736L303.625 81.6572L303.625 80.6855L302.037 81.4956ZM294.744 87.1519L303.625 82.6304L303.625 83.5996L303.216 83.8081C303.063 83.8857 302.938 84.0063 302.854 84.1553C302.771 84.3042 302.733 84.4746 302.746 84.6445C302.755 84.7656 302.76 84.8877 302.76 85.0103C302.759 85.8877 302.517 86.748 302.058 87.4961C301.599 88.2441 300.943 88.8511 300.161 89.2495C299.379 89.6479 298.502 89.8223 297.627 89.7539C296.752 89.6851 295.914 89.376 295.204 88.8604L296.044 88.4321L296.092 88.4067C296.685 88.7393 297.354 88.9106 298.034 88.9043C298.713 88.8979 299.379 88.7139 299.966 88.3706C300.553 88.0273 301.039 87.5366 301.377 86.9473C301.716 86.3574 301.894 85.6899 301.895 85.0103C301.895 84.8389 301.883 84.668 301.861 84.498L295.313 87.8345L293.958 88.5249L292.375 89.3315L292.375 88.3599L293.97 87.5474L294.744 87.1519Z" clip-rule="evenodd" fill="#252B4E" fill-opacity="1.000000" fill-rule="evenodd"/>
	<path id="Union" d="M264.18 166.7L266.71 166.7L261.45 171.91C259.54 173.8 256.45 173.8 254.54 171.91L249.28 166.7L251.81 166.7L255.81 170.66C256.39 171.23 257.18 171.55 257.99 171.55C258.81 171.55 259.6 171.23 260.18 170.66L264.18 166.7ZM251.78 181.19L249.25 181.19L254.54 175.95C256.45 174.06 259.54 174.06 261.45 175.95L266.75 181.19L264.22 181.19L260.18 177.2C259.6 176.63 258.82 176.3 258 176.3C257.18 176.3 256.39 176.63 255.81 177.2L251.78 181.19Z" fill="#252B4E" fill-opacity="1.000000" fill-rule="evenodd"/>
</svg>
