<svg width="202.447998" height="31.999939" viewBox="0 0 202.448 31.9999" fill="none" xmlns="http://www.w3.org/2000/svg" xmlns:xlink="http://www.w3.org/1999/xlink">
	<desc>
			Created with Pixso.
	</desc>
	<defs/>
	<path id="Union" d="M5.44019 5.5061L20.7446 5.5061L20.7446 8.60016L17.5142 8.60016L17.5142 24.3592L14.4861 24.3592L14.4861 8.60016L5.44019 8.60016L5.44019 5.5061Z" clip-rule="evenodd" fill="#652FFF" fill-opacity="1.000000" fill-rule="evenodd"/>
	<mask id="mask2001_2160" mask-type="alpha" maskUnits="userSpaceOnUse" x="0.000000" y="0.000000" width="18.036865" height="31.708984">
		<path id="Vector" d="M0 0L18.03 0L18.03 31.7L0 31.7L0 0Z" fill="#000000" fill-opacity="1.000000" fill-rule="nonzero"/>
	</mask>
	<g mask="url(#mask2001_2160)">
		<path id="Vector" d="M8.56 26.61C5.21 24.27 3.02 20.38 3.02 16C3.02 8.84 8.84 3.02 16 3.02C16.51 3.02 17.01 3.05 17.51 3.11L17.51 0.07C17.01 0.02 16.5 0 16 0C13.84 0 11.74 0.42 9.77 1.25C7.86 2.06 6.15 3.21 4.68 4.68C3.21 6.15 2.06 7.86 1.25 9.77C0.42 11.74 0 13.84 0 16C0 18.15 0.42 20.25 1.25 22.22C2.06 24.13 3.21 25.84 4.68 27.31C6.15 28.78 7.86 29.93 9.77 30.74C10.36 30.99 10.97 31.2 11.58 31.38L11.58 14.95L8.56 14.95L8.56 26.61Z" fill="#F5F2FC" fill-opacity="1.000000" fill-rule="nonzero"/>
	</g>
	<mask id="mask2001_2166" mask-type="alpha" maskUnits="userSpaceOnUse" x="13.963135" y="0.281860" width="18.036865" height="31.718079">
		<path id="Vector" d="M13.96 0.28L32 0.28L32 31.99L13.96 31.99L13.96 0.28Z" fill="#000000" fill-opacity="1.000000" fill-rule="nonzero"/>
	</mask>
	<g mask="url(#mask2001_2166)">
		<path id="Vector" d="M30.74 9.77C29.93 7.86 28.78 6.15 27.31 4.68C25.84 3.21 24.13 2.06 22.22 1.25C21.63 1 21.02 0.79 20.4 0.61L20.4 17.04L23.43 17.04L23.43 5.37C26.78 7.72 28.97 11.61 28.97 16C28.97 23.15 23.15 28.96 16 28.96C15.48 28.96 14.98 28.94 14.48 28.88L14.48 31.92C14.98 31.97 15.49 32 16 32C18.15 32 20.25 31.57 22.22 30.74C24.13 29.93 25.84 28.78 27.31 27.31C28.78 25.84 29.93 24.13 30.74 22.22C31.57 20.25 32 18.15 32 16C32 13.84 31.57 11.74 30.74 9.77Z" fill="#F5F2FC" fill-opacity="1.000000" fill-rule="nonzero"/>
	</g>
	<path id="Vector" d="M44.47 11.22L39.1 11.22L39.1 7.46L53.87 7.46L53.87 11.22L48.49 11.22L48.49 26.25L44.47 26.25L44.47 11.22Z" fill="#F5F2FC" fill-opacity="1.000000" fill-rule="nonzero"/>
	<path id="Vector" d="M56.82 7.46L65.14 7.46C66.14 7.46 67.05 7.62 67.86 7.92C68.68 8.22 69.37 8.65 69.94 9.21C70.52 9.76 70.96 10.43 71.26 11.21C71.56 11.99 71.72 12.84 71.72 13.77C71.72 14.84 71.55 15.74 71.22 16.46C70.89 17.17 70.52 17.74 70.11 18.14C69.64 18.63 69.1 19 68.5 19.27L72.39 26.25L67.96 26.25L64.6 20.08L60.84 20.08L60.84 26.25L56.82 26.25L56.82 7.46ZM65 16.32C65.76 16.32 66.37 16.09 66.84 15.61C67.31 15.14 67.55 14.52 67.55 13.77C67.55 13.02 67.31 12.4 66.84 11.93C66.37 11.46 65.76 11.22 65 11.22L60.84 11.22L60.84 16.32L65 16.32Z" fill="#F5F2FC" fill-opacity="1.000000" fill-rule="nonzero"/>
	<path id="Vector" d="M80.71 7.46L85.28 7.46L92.52 26.25L88.22 26.25L86.61 21.96L79.36 21.96L77.76 26.25L73.46 26.25L80.71 7.46ZM85.28 18.33L83.05 12.16L82.94 12.16L80.71 18.33L85.28 18.33Z" fill="#F5F2FC" fill-opacity="1.000000" fill-rule="nonzero"/>
	<path id="Vector" d="M95.07 7.46L101.91 7.46C103.37 7.46 104.7 7.71 105.9 8.2C107.11 8.69 108.15 9.36 109.04 10.2C109.93 11.04 110.61 12.03 111.11 13.18C111.6 14.32 111.85 15.55 111.85 16.86C111.85 18.16 111.6 19.39 111.11 20.53C110.61 21.68 109.93 22.67 109.04 23.51C108.15 24.36 107.11 25.02 105.9 25.52C104.7 26.01 103.37 26.25 101.91 26.25L95.07 26.25L95.07 7.46ZM101.91 22.5C102.75 22.5 103.53 22.36 104.23 22.07C104.94 21.78 105.55 21.38 106.06 20.89C106.57 20.38 106.97 19.79 107.26 19.1C107.54 18.41 107.69 17.67 107.69 16.86C107.69 16.05 107.54 15.31 107.26 14.62C106.97 13.93 106.57 13.33 106.06 12.83C105.55 12.33 104.94 11.93 104.23 11.65C103.53 11.36 102.75 11.22 101.91 11.22L99.09 11.22L99.09 22.5L101.91 22.5Z" fill="#F5F2FC" fill-opacity="1.000000" fill-rule="nonzero"/>
	<path id="Vector" d="M115.48 7.46L129.43 7.46L129.43 11.22L119.49 11.22L119.49 14.84L127.29 14.84L127.29 18.47L119.49 18.47L119.49 22.5L129.7 22.5L129.7 26.25L115.48 26.25L115.48 7.46Z" fill="#F5F2FC" fill-opacity="1.000000" fill-rule="nonzero"/>
	<path id="Vector" d="M133.33 7.46L141.65 7.46C142.65 7.46 143.55 7.62 144.37 7.92C145.18 8.22 145.88 8.65 146.45 9.21C147.02 9.76 147.46 10.43 147.77 11.21C148.07 11.99 148.22 12.84 148.22 13.77C148.22 14.84 148.05 15.74 147.72 16.46C147.39 17.17 147.02 17.74 146.61 18.14C146.14 18.63 145.61 19 145 19.27L148.89 26.25L144.47 26.25L141.11 20.08L137.35 20.08L137.35 26.25L133.33 26.25L133.33 7.46ZM141.51 16.32C142.26 16.32 142.87 16.09 143.35 15.61C143.82 15.14 144.06 14.52 144.06 13.77C144.06 13.02 143.82 12.4 143.35 11.93C142.87 11.46 142.26 11.22 141.51 11.22L137.35 11.22L137.35 16.32L141.51 16.32Z" fill="#F5F2FC" fill-opacity="1.000000" fill-rule="nonzero"/>
	<path id="Vector" d="M157.62 26.65C156.4 26.65 155.34 26.5 154.43 26.2C153.53 25.9 152.77 25.56 152.17 25.18C151.45 24.75 150.85 24.26 150.37 23.71L153.05 21.01C153.37 21.39 153.76 21.73 154.21 22.04C154.58 22.29 155.04 22.52 155.59 22.72C156.13 22.93 156.76 23.03 157.48 23.03C158.55 23.03 159.34 22.83 159.83 22.41C160.32 22 160.57 21.49 160.57 20.89C160.57 20.35 160.34 19.92 159.87 19.61C159.4 19.3 158.82 19.02 158.13 18.77C157.43 18.51 156.67 18.25 155.87 17.99C155.06 17.72 154.31 17.37 153.62 16.93C152.92 16.49 152.34 15.93 151.87 15.24C151.41 14.55 151.18 13.66 151.18 12.56C151.18 11.83 151.33 11.13 151.64 10.46C151.96 9.78 152.41 9.2 152.99 8.7C153.57 8.2 154.28 7.8 155.13 7.5C155.98 7.21 156.94 7.06 158.02 7.06C159.06 7.06 159.98 7.19 160.77 7.46C161.57 7.73 162.22 8.03 162.75 8.35C163.35 8.72 163.88 9.14 164.33 9.61L161.64 12.29C161.36 11.99 161.05 11.72 160.71 11.48C160.4 11.29 160.03 11.11 159.6 10.94C159.17 10.77 158.69 10.68 158.15 10.68C157.13 10.68 156.41 10.86 155.98 11.22C155.55 11.58 155.33 12.03 155.33 12.56C155.33 13.1 155.57 13.53 156.03 13.84C156.5 14.15 157.08 14.43 157.78 14.69C158.48 14.94 159.23 15.19 160.03 15.47C160.84 15.74 161.59 16.09 162.29 16.52C162.99 16.96 163.57 17.52 164.03 18.21C164.49 18.9 164.73 19.8 164.73 20.89C164.73 21.66 164.57 22.39 164.25 23.09C163.92 23.79 163.45 24.4 162.84 24.92C162.22 25.45 161.47 25.87 160.59 26.19C159.72 26.5 158.73 26.65 157.62 26.65Z" fill="#F5F2FC" fill-opacity="1.000000" fill-rule="nonzero"/>
	<path id="Vector" d="M168.76 26.52C168.15 26.52 167.64 26.32 167.23 25.91C166.81 25.5 166.61 24.98 166.61 24.37C166.61 23.77 166.81 23.26 167.23 22.84C167.64 22.43 168.15 22.22 168.76 22.22C169.37 22.22 169.88 22.43 170.28 22.84C170.69 23.26 170.9 23.77 170.9 24.37C170.9 24.98 170.69 25.5 170.28 25.91C169.88 26.32 169.37 26.52 168.76 26.52Z" fill="#F5F2FC" fill-opacity="1.000000" fill-rule="nonzero"/>
	<path id="Vector" d="M174.4 7.46L178.42 7.46L178.42 26.25L174.4 26.25L174.4 7.46Z" fill="#F5F2FC" fill-opacity="1.000000" fill-rule="nonzero"/>
	<path id="Vector" d="M192.25 26.65C190.79 26.65 189.44 26.39 188.2 25.88C186.96 25.36 185.88 24.66 184.97 23.77C184.06 22.89 183.34 21.85 182.82 20.66C182.3 19.47 182.05 18.2 182.05 16.86C182.05 15.51 182.3 14.25 182.82 13.06C183.34 11.87 184.06 10.83 184.97 9.95C185.88 9.06 186.96 8.36 188.2 7.84C189.44 7.32 190.79 7.06 192.25 7.06C193.7 7.06 195.04 7.32 196.29 7.84C197.53 8.36 198.61 9.06 199.52 9.95C200.43 10.83 201.15 11.87 201.66 13.06C202.18 14.25 202.44 15.51 202.44 16.86C202.44 18.2 202.18 19.47 201.66 20.66C201.15 21.85 200.43 22.89 199.52 23.77C198.61 24.66 197.53 25.36 196.29 25.88C195.04 26.39 193.7 26.65 192.25 26.65ZM192.25 22.9C193.09 22.9 193.87 22.74 194.6 22.43C195.34 22.12 195.98 21.69 196.52 21.14C197.07 20.6 197.5 19.96 197.81 19.22C198.13 18.49 198.29 17.7 198.29 16.86C198.29 16.02 198.13 15.23 197.81 14.49C197.5 13.76 197.07 13.12 196.52 12.58C195.98 12.03 195.34 11.6 194.6 11.29C193.87 10.98 193.09 10.82 192.25 10.82C191.41 10.82 190.62 10.98 189.89 11.29C189.15 11.6 188.51 12.03 187.97 12.58C187.42 13.12 186.99 13.76 186.68 14.49C186.36 15.23 186.2 16.02 186.2 16.86C186.2 17.7 186.36 18.49 186.68 19.22C186.99 19.96 187.42 20.6 187.97 21.14C188.51 21.69 189.15 22.12 189.89 22.43C190.62 22.74 191.41 22.9 192.25 22.9Z" fill="#F5F2FC" fill-opacity="1.000000" fill-rule="nonzero"/>
</svg>
