<svg width="26.000000" height="26.000153" viewBox="0 0 26 26.0002" fill="none" xmlns="http://www.w3.org/2000/svg" xmlns:xlink="http://www.w3.org/1999/xlink">
	<desc>
			Created with Pixso.
	</desc>
	<defs/>
	<path id="Union" d="M4.42041 4.47363L16.8555 4.47363L16.8555 6.98758L14.2305 6.98758L14.2305 19.792L11.77 19.792L11.77 6.98758L4.42041 6.98758L4.42041 4.47363Z" clip-rule="evenodd" fill="#FFFFFF" fill-opacity="1.000000" fill-rule="evenodd"/>
	<mask id="mask2013_1049" mask-type="alpha" maskUnits="userSpaceOnUse" x="0.000000" y="0.000000" width="14.655273" height="25.763885">
		<path id="Vector" d="M0 0L14.65 0L14.65 25.76L0 25.76L0 0Z" fill="#000000" fill-opacity="1.000000" fill-rule="nonzero"/>
	</mask>
	<g mask="url(#mask2013_1049)">
		<path id="Vector" d="M6.95 21.62C4.23 19.71 2.46 16.56 2.46 13C2.46 7.18 7.18 2.46 13 2.46C13.41 2.46 13.82 2.48 14.23 2.53L14.23 0.05C13.82 0.01 13.41 0 13 0C11.24 0 9.54 0.34 7.93 1.02C6.39 1.67 5 2.61 3.8 3.8C2.61 5 1.67 6.39 1.02 7.93C0.34 9.54 0 11.24 0 13C0 14.75 0.34 16.45 1.02 18.06C1.67 19.6 2.61 20.99 3.8 22.19C5 23.38 6.39 24.32 7.93 24.97C8.42 25.18 8.91 25.35 9.41 25.49L9.41 12.14L6.95 12.14L6.95 21.62Z" fill="#FFFFFF" fill-opacity="1.000000" fill-rule="nonzero"/>
	</g>
	<mask id="mask2013_1054" mask-type="alpha" maskUnits="userSpaceOnUse" x="11.344727" y="0.228882" width="14.655273" height="25.771271">
		<path id="Vector" d="M11.34 0.22L26 0.22L26 26L11.34 26L11.34 0.22Z" fill="#000000" fill-opacity="1.000000" fill-rule="nonzero"/>
	</mask>
	<g mask="url(#mask2013_1054)">
		<path id="Vector" d="M24.97 7.93C24.32 6.39 23.38 5 22.19 3.8C20.99 2.61 19.6 1.67 18.06 1.02C17.57 0.81 17.08 0.64 16.58 0.49L16.58 13.85L19.04 13.85L19.04 4.37C21.76 6.27 23.53 9.43 23.53 13C23.53 18.81 18.81 23.53 12.99 23.53C12.58 23.53 12.17 23.51 11.76 23.46L11.76 25.94C12.17 25.97 12.58 26 12.99 26C14.75 26 16.45 25.65 18.06 24.97C19.6 24.32 20.99 23.38 22.19 22.19C23.38 20.99 24.32 19.6 24.97 18.06C25.65 16.45 26 14.75 26 13C26 11.24 25.65 9.54 24.97 7.93Z" fill="#FFFFFF" fill-opacity="1.000000" fill-rule="nonzero"/>
	</g>
</svg>
