<svg width="25.500000" height="22.000000" viewBox="0 0 25.5 22" fill="none" xmlns="http://www.w3.org/2000/svg" xmlns:xlink="http://www.w3.org/1999/xlink">
	<desc>
			Created with Pixso.
	</desc>
	<defs/>
	<path id="Vector" d="M19.58 5.27C19.91 5.39 20.16 5.78 20.16 6.12L20.16 9.16C20.16 9.67 19.75 10.08 19.25 10.08L2.75 10.08C2.24 10.08 1.83 9.67 1.83 9.16L1.83 6.12C1.83 5.78 2.09 5.39 2.41 5.27L10.66 1.97C10.84 1.89 11.15 1.89 11.33 1.97L19.58 5.27Z" stroke="#505880" stroke-opacity="1.000000" stroke-width="1.500000" stroke-linejoin="round"/>
	<path id="Vector" d="M1.83 20.16L1.83 17.41C1.83 16.91 2.24 16.5 2.75 16.5L19.25 16.5C19.75 16.5 20.16 16.91 20.16 17.41L20.16 20.16L1.83 20.16Z" stroke="#505880" stroke-opacity="1.000000" stroke-width="1.500000" stroke-linejoin="round"/>
	<path id="Vector" d="M10.08 10.08L3.66 10.08" stroke="#505880" stroke-opacity="1.000000" stroke-width="1.500000" stroke-linejoin="round" stroke-linecap="round"/>
	<path id="Vector" d="M13.75 10.08L7.33 10.08" stroke="#505880" stroke-opacity="1.000000" stroke-width="1.500000" stroke-linejoin="round" stroke-linecap="round"/>
	<path id="Vector" d="M17.41 10.08L11 10.08" stroke="#505880" stroke-opacity="1.000000" stroke-width="1.500000" stroke-linejoin="round" stroke-linecap="round"/>
	<path id="Vector" d="M21.08 10.08L14.66 10.08" stroke="#505880" stroke-opacity="1.000000" stroke-width="1.500000" stroke-linejoin="round" stroke-linecap="round"/>
	<path id="Vector" d="M24.75 10.08L18.33 10.08" stroke="#505880" stroke-opacity="1.000000" stroke-width="1.500000" stroke-linejoin="round" stroke-linecap="round"/>
	<path id="Vector" d="M0.91 20.16L21.08 20.16" stroke="#505880" stroke-opacity="1.000000" stroke-width="1.500000" stroke-linejoin="round" stroke-linecap="round"/>
	<path id="Vector" d="M11 7.79C10.24 7.79 9.62 7.17 9.62 6.41C9.62 5.65 10.24 5.04 11 5.04C11.75 5.04 12.37 5.65 12.37 6.41C12.37 7.17 11.75 7.79 11 7.79Z" stroke="#505880" stroke-opacity="1.000000" stroke-width="1.500000" stroke-linejoin="round"/>
	<g opacity="0.000000"/>
</svg>
