<svg width="22.000000" height="22.000000" viewBox="0 0 22 22" fill="none" xmlns="http://www.w3.org/2000/svg" xmlns:xlink="http://www.w3.org/1999/xlink">
	<desc>
			Created with Pixso.
	</desc>
	<defs/>
	<path id="Vector" d="M1.83 7.79L11.91 7.79" stroke="#505880" stroke-opacity="1.000000" stroke-width="1.500000" stroke-linejoin="round" stroke-linecap="round"/>
	<path id="Vector" d="M5.5 15.12L7.33 15.12" stroke="#505880" stroke-opacity="1.000000" stroke-width="1.500000" stroke-linejoin="round" stroke-linecap="round"/>
	<path id="Vector" d="M9.62 15.12L13.29 15.12" stroke="#505880" stroke-opacity="1.000000" stroke-width="1.500000" stroke-linejoin="round" stroke-linecap="round"/>
	<path id="Vector" d="M20.16 10.38L20.16 14.76C20.16 17.98 19.35 18.79 16.09 18.79L5.9 18.79C2.64 18.79 1.83 17.98 1.83 14.76L1.83 7.23C1.83 4.01 2.64 3.2 5.9 3.2L12.17 3.2" stroke="#505880" stroke-opacity="1.000000" stroke-width="1.500000" stroke-linejoin="round" stroke-linecap="round"/>
	<path id="Vector" d="M18.45 2.97C19.08 2.97 19.59 3.55 19.59 4.12C19.59 4.75 19.08 5.27 18.45 5.27L15.58 5.27L15.58 2.97L18.45 2.97Z" stroke="#505880" stroke-opacity="1.000000" stroke-width="1.500000" stroke-linejoin="round"/>
	<path id="Vector" d="M18.85 5.27C19.58 5.27 20.16 5.78 20.16 6.41C20.16 7.04 19.58 7.56 18.85 7.56L15.58 7.56L15.58 5.27L18.85 5.27Z" stroke="#505880" stroke-opacity="1.000000" stroke-width="1.500000" stroke-linejoin="round"/>
	<path id="Vector" d="M17.19 7.56L18.34 7.56" stroke="#505880" stroke-opacity="1.000000" stroke-width="1.500000" stroke-linejoin="round" stroke-linecap="round"/>
	<path id="Vector" d="M17.19 1.83L18.34 1.83" stroke="#505880" stroke-opacity="1.000000" stroke-width="1.500000" stroke-linejoin="round" stroke-linecap="round"/>
	<path id="Vector" d="M16.67 2.97L14.66 2.97" stroke="#505880" stroke-opacity="1.000000" stroke-width="1.500000" stroke-linejoin="round" stroke-linecap="round"/>
	<path id="Vector" d="M16.67 7.56L14.66 7.56" stroke="#505880" stroke-opacity="1.000000" stroke-width="1.500000" stroke-linejoin="round" stroke-linecap="round"/>
	<g opacity="0.000000"/>
</svg>
