<svg width="42.000000" height="42.000000" viewBox="0 0 42 42" fill="none" xmlns="http://www.w3.org/2000/svg" xmlns:xlink="http://www.w3.org/1999/xlink">
	<desc>
			Created with Pixso.
	</desc>
	<defs/>
	<path id="Union" d="M7.14111 7.22656L27.2283 7.22656L27.2283 11.2876L22.9878 11.2876L22.9878 31.9714L19.0132 31.9714L19.0132 11.2876L7.14111 11.2876L7.14111 7.22656Z" clip-rule="evenodd" fill="#FFFFFF" fill-opacity="1.000000" fill-rule="evenodd"/>
	<mask id="mask2039_445" mask-type="alpha" maskUnits="userSpaceOnUse" x="0.000000" y="0.000000" width="23.673828" height="41.618652">
		<path id="Vector" d="M0 0L23.67 0L23.67 41.61L0 41.61L0 0Z" fill="#000000" fill-opacity="1.000000" fill-rule="nonzero"/>
	</mask>
	<g mask="url(#mask2039_445)">
		<path id="Vector" d="M11.23 34.93C6.84 31.85 3.97 26.75 3.97 21C3.97 11.61 11.61 3.97 21 3.97C21.67 3.97 22.33 4.01 22.98 4.09L22.98 0.09C22.33 0.02 21.66 0 21 0C18.16 0 15.41 0.55 12.82 1.65C10.32 2.7 8.07 4.22 6.14 6.14C4.22 8.07 2.7 10.32 1.65 12.82C0.55 15.41 0 18.16 0 21C0 23.83 0.55 26.58 1.65 29.17C2.7 31.67 4.22 33.92 6.14 35.85C8.07 37.77 10.32 39.29 12.82 40.35C13.6 40.67 14.4 40.96 15.21 41.19L15.21 19.62L11.23 19.62L11.23 34.93Z" fill="#FFFFFF" fill-opacity="1.000000" fill-rule="nonzero"/>
	</g>
	<mask id="mask2039_450" mask-type="alpha" maskUnits="userSpaceOnUse" x="18.326172" y="0.369141" width="23.673828" height="41.630615">
		<path id="Vector" d="M18.32 0.36L42 0.36L42 41.99L18.32 41.99L18.32 0.36Z" fill="#000000" fill-opacity="1.000000" fill-rule="nonzero"/>
	</mask>
	<g mask="url(#mask2039_450)">
		<path id="Vector" d="M40.35 12.82C39.29 10.32 37.77 8.07 35.85 6.14C33.91 4.22 31.67 2.7 29.17 1.64C28.39 1.31 27.59 1.03 26.78 0.8L26.78 22.37L30.76 22.37L30.76 7.05C35.15 10.14 38.02 15.24 38.02 20.99C38.02 30.38 30.38 38.02 21 38.02C20.32 38.02 19.66 37.98 19.01 37.9L19.01 41.9C19.66 41.96 20.33 42 21 42C23.83 42 26.58 41.44 29.17 40.34C31.67 39.29 33.91 37.77 35.85 35.85C37.77 33.91 39.29 31.67 40.35 29.17C41.44 26.58 42 23.83 42 20.99C42 18.16 41.44 15.41 40.35 12.82Z" fill="#FFFFFF" fill-opacity="1.000000" fill-rule="nonzero"/>
	</g>
</svg>
