<svg width="88.325195" height="10.596436" viewBox="0 0 88.3252 10.5964" fill="none" xmlns="http://www.w3.org/2000/svg" xmlns:xlink="http://www.w3.org/1999/xlink">
	<desc>
			Created with Pixso.
	</desc>
	<defs/>
	<path id="Vector" d="M2.9 2.25L0 2.25L0 0.22L7.98 0.22L7.98 2.25L5.07 2.25L5.07 10.38L2.9 10.38L2.9 2.25Z" fill="#F5F2FC" fill-opacity="1.000000" fill-rule="nonzero"/>
	<path id="Vector" d="M9.58 0.22L14.08 0.22C14.62 0.22 15.11 0.3 15.55 0.46C15.99 0.63 16.36 0.86 16.67 1.16C16.98 1.46 17.22 1.82 17.39 2.24C17.55 2.66 17.63 3.12 17.63 3.62C17.63 4.2 17.54 4.69 17.36 5.08C17.18 5.47 16.98 5.77 16.76 5.99C16.51 6.25 16.22 6.45 15.89 6.6L18 10.38L15.6 10.38L13.79 7.04L11.75 7.04L11.75 10.38L9.58 10.38L9.58 0.22ZM14 5.01C14.41 5.01 14.74 4.88 15 4.62C15.25 4.36 15.38 4.03 15.38 3.62C15.38 3.22 15.25 2.89 15 2.63C14.74 2.37 14.41 2.25 14 2.25L11.75 2.25L11.75 5.01L14 5.01Z" fill="#F5F2FC" fill-opacity="1.000000" fill-rule="nonzero"/>
	<path id="Vector" d="M22.5 0.22L24.96 0.22L28.88 10.38L26.56 10.38L25.69 8.05L21.77 8.05L20.9 10.38L18.58 10.38L22.5 0.22ZM24.96 6.09L23.76 2.75L23.7 2.75L22.5 6.09L24.96 6.09Z" fill="#F5F2FC" fill-opacity="1.000000" fill-rule="nonzero"/>
	<path id="Vector" d="M41.29 0.22L48.84 0.22L48.84 2.25L43.47 2.25L43.47 4.2L47.68 4.2L47.68 6.17L43.47 6.17L43.47 8.34L48.98 8.34L48.98 10.38L41.29 10.38L41.29 0.22Z" fill="#F5F2FC" fill-opacity="1.000000" fill-rule="nonzero"/>
	<path id="Vector" d="M50.95 0.22L55.45 0.22C55.99 0.22 56.48 0.3 56.92 0.46C57.36 0.63 57.73 0.86 58.04 1.16C58.35 1.46 58.59 1.82 58.75 2.24C58.92 2.66 59 3.12 59 3.62C59 4.2 58.91 4.69 58.73 5.08C58.55 5.47 58.35 5.77 58.13 5.99C57.88 6.25 57.59 6.45 57.26 6.6L59.36 10.38L56.97 10.38L55.16 7.04L53.12 7.04L53.12 10.38L50.95 10.38L50.95 0.22ZM55.37 5.01C55.78 5.01 56.11 4.88 56.37 4.62C56.62 4.36 56.75 4.03 56.75 3.62C56.75 3.22 56.62 2.89 56.37 2.63C56.11 2.37 55.78 2.25 55.37 2.25L53.12 2.25L53.12 5.01L55.37 5.01Z" fill="#F5F2FC" fill-opacity="1.000000" fill-rule="nonzero"/>
	<path id="Vector" d="M64.08 10.59C63.42 10.59 62.85 10.51 62.36 10.35C61.87 10.18 61.46 10 61.14 9.79C60.75 9.56 60.42 9.3 60.16 9L61.61 7.54C61.79 7.75 61.99 7.93 62.24 8.1C62.44 8.23 62.69 8.36 62.98 8.47C63.28 8.58 63.62 8.63 64.01 8.63C64.59 8.63 65.01 8.52 65.28 8.3C65.54 8.08 65.68 7.8 65.68 7.47C65.68 7.18 65.55 6.95 65.3 6.79C65.05 6.62 64.73 6.46 64.36 6.33C63.98 6.19 63.57 6.05 63.14 5.91C62.7 5.76 62.29 5.57 61.92 5.34C61.54 5.1 61.23 4.79 60.97 4.42C60.72 4.05 60.6 3.56 60.6 2.97C60.6 2.57 60.68 2.2 60.85 1.83C61.02 1.47 61.26 1.15 61.58 0.89C61.89 0.61 62.28 0.4 62.74 0.24C63.2 0.08 63.72 0 64.3 0C64.86 0 65.36 0.07 65.79 0.22C66.22 0.36 66.57 0.52 66.85 0.69C67.18 0.9 67.47 1.12 67.71 1.38L66.26 2.83C66.1 2.66 65.94 2.52 65.75 2.39C65.59 2.29 65.38 2.19 65.15 2.09C64.92 2 64.66 1.96 64.37 1.96C63.82 1.96 63.43 2.05 63.2 2.25C62.96 2.44 62.85 2.68 62.85 2.97C62.85 3.26 62.97 3.49 63.23 3.66C63.48 3.83 63.79 3.98 64.17 4.12C64.55 4.26 64.95 4.4 65.39 4.54C65.82 4.69 66.23 4.88 66.61 5.11C66.98 5.35 67.3 5.65 67.55 6.03C67.8 6.4 67.93 6.88 67.93 7.47C67.93 7.89 67.84 8.29 67.66 8.66C67.49 9.04 67.24 9.37 66.9 9.66C66.57 9.94 66.16 10.17 65.69 10.34C65.22 10.51 64.68 10.59 64.08 10.59Z" fill="#F5F2FC" fill-opacity="1.000000" fill-rule="nonzero"/>
	<path id="Vector" d="M70.1 10.52C69.78 10.52 69.5 10.41 69.28 10.19C69.05 9.97 68.94 9.69 68.94 9.36C68.94 9.03 69.05 8.75 69.28 8.53C69.5 8.31 69.78 8.2 70.1 8.2C70.43 8.2 70.71 8.31 70.93 8.53C71.15 8.75 71.26 9.03 71.26 9.36C71.26 9.69 71.15 9.97 70.93 10.19C70.71 10.41 70.43 10.52 70.1 10.52Z" fill="#F5F2FC" fill-opacity="1.000000" fill-rule="nonzero"/>
	<path id="Vector" d="M73.15 0.22L75.33 0.22L75.33 10.38L73.15 10.38L73.15 0.22Z" fill="#F5F2FC" fill-opacity="1.000000" fill-rule="nonzero"/>
	<path id="Vector" d="M30.26 0.22L33.96 0.22C34.75 0.22 35.47 0.35 36.12 0.61C36.77 0.88 37.33 1.24 37.81 1.7C38.29 2.15 38.66 2.68 38.93 3.3C39.2 3.92 39.33 4.59 39.33 5.3C39.33 6 39.2 6.66 38.93 7.28C38.66 7.9 38.29 8.44 37.81 8.9C37.33 9.35 36.77 9.71 36.12 9.98C35.47 10.24 34.75 10.38 33.96 10.38L30.26 10.38L30.26 0.22ZM33.96 8.34C34.41 8.34 34.83 8.27 35.21 8.11C35.6 7.96 35.93 7.74 36.2 7.47C36.48 7.2 36.7 6.88 36.85 6.51C37 6.14 37.08 5.73 37.08 5.3C37.08 4.86 37 4.46 36.85 4.09C36.7 3.71 36.48 3.39 36.2 3.12C35.93 2.85 35.6 2.63 35.21 2.48C34.83 2.32 34.41 2.25 33.96 2.25L32.43 2.25L32.43 8.34L33.96 8.34Z" fill="#F5F2FC" fill-opacity="1.000000" fill-rule="nonzero"/>
	<path id="Vector" d="M82.81 10.59C82.02 10.59 81.29 10.45 80.62 10.17C79.95 9.89 79.36 9.51 78.87 9.03C78.38 8.55 77.99 7.99 77.71 7.35C77.43 6.71 77.29 6.02 77.29 5.3C77.29 4.57 77.43 3.88 77.71 3.24C77.99 2.6 78.38 2.04 78.87 1.56C79.36 1.08 79.95 0.7 80.62 0.42C81.29 0.14 82.02 0 82.81 0C83.59 0 84.32 0.14 84.99 0.42C85.66 0.7 86.25 1.08 86.74 1.56C87.23 2.04 87.62 2.6 87.9 3.24C88.18 3.88 88.32 4.57 88.32 5.3C88.32 6.02 88.18 6.71 87.9 7.35C87.62 7.99 87.23 8.55 86.74 9.03C86.25 9.51 85.66 9.89 84.99 10.17C84.32 10.45 83.59 10.59 82.81 10.59ZM82.81 8.56C83.26 8.56 83.68 8.48 84.08 8.31C84.48 8.14 84.82 7.91 85.12 7.61C85.41 7.32 85.65 6.97 85.82 6.57C85.99 6.18 86.07 5.75 86.07 5.3C86.07 4.84 85.99 4.41 85.82 4.02C85.65 3.62 85.41 3.27 85.12 2.98C84.82 2.68 84.48 2.45 84.08 2.29C83.68 2.12 83.26 2.03 82.81 2.03C82.35 2.03 81.93 2.12 81.53 2.29C81.13 2.45 80.79 2.68 80.49 2.98C80.2 3.27 79.96 3.62 79.79 4.02C79.62 4.41 79.54 4.84 79.54 5.3C79.54 5.75 79.62 6.18 79.79 6.57C79.96 6.97 80.2 7.32 80.49 7.61C80.79 7.91 81.13 8.14 81.53 8.31C81.93 8.48 82.35 8.56 82.81 8.56Z" fill="#F5F2FC" fill-opacity="1.000000" fill-rule="nonzero"/>
</svg>
