<svg width="86.000000" height="86.000000" viewBox="0 0 86 86" fill="none" xmlns="http://www.w3.org/2000/svg" xmlns:xlink="http://www.w3.org/1999/xlink">
	<desc>
			Created with Pixso.
	</desc>
	<defs>
		<linearGradient x1="46.305336" y1="36.098763" x2="46.305336" y2="86.000000" id="paint_linear_2070_866_0" gradientUnits="userSpaceOnUse">
			<stop stop-color="#060A23"/>
			<stop offset="1.000000" stop-color="#060A23"/>
		</linearGradient>
		<linearGradient x1="45.767258" y1="37.222221" x2="45.767258" y2="79.000000" id="paint_linear_2070_847_0" gradientUnits="userSpaceOnUse">
			<stop stop-color="#060A23"/>
			<stop offset="1.000000" stop-color="#060A23"/>
		</linearGradient>
		<linearGradient x1="7.000015" y1="21.499985" x2="72.500015" y2="83.500000" id="paint_linear_2070_847_1" gradientUnits="userSpaceOnUse">
			<stop stop-color="#D8B5FF"/>
			<stop offset="0.176666" stop-color="#8BA8FF" stop-opacity="0.329412"/>
			<stop offset="0.356666" stop-color="#060B24" stop-opacity="0.301961"/>
			<stop offset="0.571749" stop-color="#060B24" stop-opacity="0.388235"/>
			<stop offset="0.786666" stop-color="#B542B9" stop-opacity="0.439216"/>
			<stop offset="1.000000" stop-color="#E5E5E8"/>
		</linearGradient>
	</defs>
	<rect id="Rectangle 40378" rx="25.000000" width="86.000000" height="86.000000" fill="url(#paint_linear_2070_866_0)" fill-opacity="0"/>
	<rect id="Rectangle 40378" x="0.500000" y="0.500000" rx="25.000000" width="85.000000" height="85.000000" stroke="#242944" stroke-opacity="1.000000" stroke-width="1.000000"/>
	<rect id="Rectangle 40377" x="7.000000" y="7.000000" rx="22.000000" width="72.000000" height="72.000000" fill="url(#paint_linear_2070_847_0)" fill-opacity="0"/>
	<rect id="Rectangle 40377" x="7.000000" y="7.000000" rx="22.000000" width="72.000000" height="72.000000" fill="url(#paint_linear_2070_847_1)" fill-opacity="1.000000"/>
	<rect id="Rectangle 40377" x="7.500000" y="7.500000" rx="22.000000" width="71.000000" height="71.000000" stroke="#242944" stroke-opacity="1.000000" stroke-width="1.000000"/>
	<path id="Union" d="M31.7808 31.8501L48.042 31.8501L48.042 35.1376L44.6089 35.1376L44.6089 51.8817L41.3916 51.8817L41.3916 35.1376L31.7808 35.1376L31.7808 31.8501Z" clip-rule="evenodd" fill="#FFFFFF" fill-opacity="1.000000" fill-rule="evenodd"/>
	<mask id="mask2070_857" mask-type="alpha" maskUnits="userSpaceOnUse" x="26.000000" y="26.000000" width="19.164551" height="33.691162">
		<path id="Vector" d="M26 26L45.16 26L45.16 59.69L26 59.69L26 26Z" fill="#000000" fill-opacity="1.000000" fill-rule="nonzero"/>
	</mask>
	<g mask="url(#mask2070_857)">
		<path id="Vector" d="M35.09 54.28C31.54 51.78 29.21 47.66 29.21 43C29.21 35.4 35.4 29.21 43 29.21C43.54 29.21 44.08 29.24 44.6 29.31L44.6 26.07C44.07 26.02 43.54 26 43 26C40.7 26 38.47 26.44 36.38 27.33C34.35 28.19 32.53 29.41 30.97 30.97C29.41 32.53 28.19 34.35 27.33 36.38C26.44 38.47 26 40.7 26 43C26 45.29 26.44 47.51 27.33 49.61C28.19 51.64 29.41 53.45 30.97 55.02C32.53 56.58 34.35 57.8 36.38 58.66C37.01 58.93 37.65 59.15 38.31 59.34L38.31 41.88L35.09 41.88L35.09 54.28Z" fill="#FFFFFF" fill-opacity="1.000000" fill-rule="nonzero"/>
	</g>
	<mask id="mask2070_862" mask-type="alpha" maskUnits="userSpaceOnUse" x="40.835449" y="26.299072" width="19.164551" height="33.700928">
		<path id="Vector" d="M40.83 26.29L60 26.29L60 60L40.83 60L40.83 26.29Z" fill="#000000" fill-opacity="1.000000" fill-rule="nonzero"/>
	</mask>
	<g mask="url(#mask2070_862)">
		<path id="Vector" d="M58.66 36.38C57.8 34.35 56.58 32.53 55.02 30.97C53.45 29.41 51.64 28.19 49.61 27.33C48.98 27.06 48.34 26.84 47.68 26.65L47.68 44.11L50.9 44.11L50.9 31.71C54.45 34.21 56.78 38.33 56.78 42.99C56.78 50.59 50.59 56.78 43 56.78C42.45 56.78 41.91 56.74 41.39 56.68L41.39 59.92C41.92 59.97 42.45 60 43 60C45.29 60 47.52 59.55 49.61 58.66C51.64 57.8 53.45 56.58 55.02 55.02C56.58 53.45 57.8 51.64 58.66 49.61C59.55 47.51 60 45.29 60 42.99C60 40.7 59.55 38.47 58.66 36.38Z" fill="#FFFFFF" fill-opacity="1.000000" fill-rule="nonzero"/>
	</g>
</svg>
