<svg width="22.000000" height="22.000000" viewBox="0 0 22 22" fill="none" xmlns="http://www.w3.org/2000/svg" xmlns:xlink="http://www.w3.org/1999/xlink">
	<desc>
			Created with Pixso.
	</desc>
	<defs/>
	<path id="Vector" d="M7.33 10.45C7.33 11.15 7.88 11.73 8.55 11.73L9.92 11.73C10.51 11.73 10.99 11.22 10.99 10.61C10.99 9.94 10.69 9.7 10.26 9.55L8.06 8.78C7.62 8.62 7.33 8.38 7.33 7.71C7.33 7.1 7.81 6.59 8.39 6.59L9.77 6.59C10.45 6.6 11 7.17 11 7.88" stroke="#3F4567" stroke-opacity="1.000000" stroke-width="2.000000" stroke-linejoin="round" stroke-linecap="round"/>
	<path id="Vector" d="M9.16 11.77L9.84 11.77" stroke="#3F4567" stroke-opacity="1.000000" stroke-width="2.000000" stroke-linejoin="round" stroke-linecap="round"/>
	<path id="Vector" d="M9.16 5.87L9.88 5.87" stroke="#3F4567" stroke-opacity="1.000000" stroke-width="2.000000" stroke-linejoin="round" stroke-linecap="round"/>
	<path id="Vector" d="M9.15 16.48C5.11 16.48 1.83 13.2 1.83 9.15C1.83 5.11 5.11 1.83 9.15 1.83C13.2 1.83 16.48 5.11 16.48 9.15C16.48 13.2 13.2 16.48 9.15 16.48Z" stroke="#3F4567" stroke-opacity="1.000000" stroke-width="2.000000" stroke-linejoin="round"/>
	<path id="Vector" d="M11.89 18.22C12.72 19.38 14.07 20.14 15.61 20.14C18.11 20.14 20.14 18.11 20.14 15.61C20.14 14.08 19.39 12.74 18.25 11.91" stroke="#3F4567" stroke-opacity="1.000000" stroke-width="2.000000" stroke-linejoin="round" stroke-linecap="round"/>
	<g opacity="0.000000"/>
</svg>
