<svg width="22.000000" height="22.000000" viewBox="0 0 22 22" fill="none" xmlns="http://www.w3.org/2000/svg" xmlns:xlink="http://www.w3.org/1999/xlink">
	<desc>
			Created with Pixso.
	</desc>
	<defs/>
	<path id="Vector" d="M14.66 20.16C18.35 20.16 19.01 18.69 19.2 16.89L19.89 9.56C20.13 7.32 19.49 5.5 15.58 5.5L6.41 5.5C2.5 5.5 1.86 7.32 2.1 9.56L2.79 16.89C2.98 18.69 3.64 20.16 7.33 20.16L14.66 20.16Z" stroke="#3F4567" stroke-opacity="1.000000" stroke-width="2.000000" stroke-linejoin="round"/>
	<path id="Vector" d="M7.33 5.49L7.33 4.76C7.33 3.14 7.33 1.83 10.26 1.83L11.73 1.83C14.66 1.83 14.66 3.14 14.66 4.76L14.66 5.49" stroke="#3F4567" stroke-opacity="1.000000" stroke-width="2.000000" stroke-linejoin="round" stroke-linecap="round"/>
	<path id="Vector" d="M12.83 12.83C12.83 12.84 12.83 12.84 12.83 12.85C12.83 13.85 12.82 14.66 11 14.66C9.18 14.66 9.16 13.86 9.16 12.86L9.16 11.91C9.16 11 9.16 11 10.08 11L11.91 11C12.83 11 12.83 11 12.83 11.91L12.83 12.83Z" stroke="#3F4567" stroke-opacity="1.000000" stroke-width="2.000000" stroke-linejoin="round"/>
	<path id="Vector" d="M19.84 10.08C17.72 11.62 15.3 12.54 12.83 12.85" stroke="#3F4567" stroke-opacity="1.000000" stroke-width="2.000000" stroke-linejoin="round" stroke-linecap="round"/>
	<path id="Vector" d="M2.4 10.33C4.46 11.74 6.79 12.59 9.16 12.86" stroke="#3F4567" stroke-opacity="1.000000" stroke-width="2.000000" stroke-linejoin="round" stroke-linecap="round"/>
	<g opacity="0.000000"/>
</svg>
