<svg width="22.000000" height="22.000000" viewBox="0 0 22 22" fill="none" xmlns="http://www.w3.org/2000/svg" xmlns:xlink="http://www.w3.org/1999/xlink">
	<desc>
			Created with Pixso.
	</desc>
	<defs/>
	<path id="Vector" d="M2.99 11C2.27 10.12 1.83 9.01 1.83 7.79C1.83 5.02 4.09 2.75 6.87 2.75L11.45 2.75C14.22 2.75 16.5 5.02 16.5 7.79C16.5 10.56 14.23 12.83 11.45 12.83L9.16 12.83" stroke="#3F4567" stroke-opacity="1.000000" stroke-width="2.000000" stroke-linejoin="round" stroke-linecap="round"/>
	<path id="Vector" d="M19 11C19.72 11.87 20.16 12.98 20.16 14.2C20.16 16.97 17.9 19.25 15.12 19.25L10.54 19.25C7.77 19.25 5.5 16.97 5.5 14.2C5.5 11.44 7.76 9.16 10.54 9.16L12.83 9.16" stroke="#3F4567" stroke-opacity="1.000000" stroke-width="2.000000" stroke-linejoin="round" stroke-linecap="round"/>
	<g opacity="0.000000"/>
</svg>
