<svg width="20.000000" height="20.000000" viewBox="0 0 20 20" fill="none" xmlns="http://www.w3.org/2000/svg" xmlns:xlink="http://www.w3.org/1999/xlink">
	<desc>
			Created with Pixso.
	</desc>
	<defs>
		<linearGradient x1="10.000163" y1="1.666992" x2="10.000162" y2="18.325354" id="paint_linear_11_316_0" gradientUnits="userSpaceOnUse">
			<stop stop-color="#D8B5FF"/>
			<stop offset="0.195000" stop-color="#8BA8FF"/>
			<stop offset="0.545000" stop-color="#B542B9"/>
			<stop offset="1.000000" stop-color="#E5E5E8"/>
		</linearGradient>
	</defs>
	<path id="Vector" d="M18.33 13.49L18.33 6.5C18.33 3.47 16.52 1.66 13.49 1.66L6.51 1.66C3.47 1.66 1.66 3.47 1.66 6.5L1.66 13.48C1.66 16.51 3.47 18.32 6.5 18.32L13.49 18.32C16.52 18.33 18.33 16.52 18.33 13.49ZM9.55 15.44L5.98 11.86C5.85 11.74 5.8 11.58 5.8 11.42C5.8 11.26 5.85 11.1 5.98 10.98C6.22 10.74 6.62 10.74 6.86 10.98L9.37 13.49L9.37 5C9.37 4.65 9.65 4.37 10 4.37C10.34 4.37 10.62 4.65 10.62 5L10.62 13.49L13.13 10.98C13.37 10.74 13.77 10.74 14.01 10.98C14.25 11.22 14.25 11.62 14.01 11.86L10.44 15.44C10.32 15.55 10.16 15.62 10 15.62C9.83 15.62 9.67 15.55 9.55 15.44Z" fill="#505880" fill-opacity="1.000000" fill-rule="nonzero"/>
	<path id="Vector" d="M18.33 13.49L18.33 6.5C18.33 3.47 16.52 1.66 13.49 1.66L6.51 1.66C3.47 1.66 1.66 3.47 1.66 6.5L1.66 13.48C1.66 16.51 3.47 18.32 6.5 18.32L13.49 18.32C16.52 18.33 18.33 16.52 18.33 13.49ZM9.55 15.44L5.98 11.86C5.85 11.74 5.8 11.58 5.8 11.42C5.8 11.26 5.85 11.1 5.98 10.98C6.22 10.74 6.62 10.74 6.86 10.98L9.37 13.49L9.37 5C9.37 4.65 9.65 4.37 10 4.37C10.34 4.37 10.62 4.65 10.62 5L10.62 13.49L13.13 10.98C13.37 10.74 13.77 10.74 14.01 10.98C14.25 11.22 14.25 11.62 14.01 11.86L10.44 15.44C10.32 15.55 10.16 15.62 10 15.62C9.83 15.62 9.67 15.55 9.55 15.44Z" fill="url(#paint_linear_11_316_0)" fill-opacity="0" fill-rule="nonzero"/>
	<g opacity="0.000000"/>
</svg>
