<svg width="20.000000" height="20.000000" viewBox="0 0 20 20" fill="none" xmlns="http://www.w3.org/2000/svg" xmlns:xlink="http://www.w3.org/1999/xlink">
	<desc>
			Created with Pixso.
	</desc>
	<defs/>
	<path id="Vector" d="M13.49 1.66L6.5 1.66C3.47 1.66 1.66 3.47 1.66 6.5L1.66 13.48C1.66 16.52 3.47 18.33 6.5 18.33L13.48 18.33C16.51 18.33 18.32 16.52 18.32 13.49L18.32 6.5C18.33 3.47 16.52 1.66 13.49 1.66ZM15.44 10.44L11.86 14.01C11.74 14.14 11.58 14.2 11.42 14.2C11.26 14.2 11.1 14.14 10.98 14.01C10.74 13.77 10.74 13.37 10.98 13.13L13.49 10.62L5 10.62C4.65 10.62 4.37 10.34 4.37 10C4.37 9.65 4.65 9.37 5 9.37L13.49 9.37L10.98 6.86C10.74 6.62 10.74 6.22 10.98 5.98C11.22 5.74 11.62 5.74 11.86 5.98L15.44 9.55C15.55 9.67 15.62 9.83 15.62 10C15.62 10.16 15.55 10.32 15.44 10.44Z" fill="#E5E5E8" fill-opacity="1.000000" fill-rule="nonzero"/>
	<g opacity="0.000000"/>
</svg>
