<svg width="24.000000" height="24.000000" viewBox="0 0 24 24" fill="none" xmlns="http://www.w3.org/2000/svg" xmlns:xlink="http://www.w3.org/1999/xlink">
	<desc>
			Created with Pixso.
	</desc>
	<defs/>
	<rect id="rotate-right" rx="-0.500000" width="23.000000" height="23.000000" transform="translate(0.500000 0.500000)" fill="#FFFFFF" fill-opacity="0"/>
	<path id="Vector" d="M16.19 2L7.8 2C4.16 2 2 4.17 2 7.81L2 16.18C2 19.83 4.16 22 7.8 22L16.17 22C19.82 22 21.99 19.83 21.99 16.19L21.99 7.81C22 4.17 19.83 2 16.19 2ZM12 18.58C8.83 18.58 6.25 16 6.25 12.83C6.25 9.72 8.73 7.19 11.8 7.08L11.44 6.65C11.16 6.34 11.2 5.86 11.5 5.59C11.82 5.32 12.29 5.35 12.57 5.66L14.23 7.56C14.25 7.58 14.25 7.6 14.28 7.62C14.32 7.68 14.36 7.75 14.37 7.82C14.38 7.86 14.4 7.9 14.41 7.94C14.42 8.03 14.41 8.13 14.4 8.22C14.37 8.3 14.34 8.38 14.3 8.46C14.29 8.47 14.28 8.5 14.26 8.52C14.23 8.58 14.16 8.63 14.11 8.67C14.11 8.67 14.09 8.67 14.09 8.68L12.16 10.1C11.82 10.34 11.36 10.27 11.11 9.93C10.87 9.6 10.94 9.14 11.26 8.89L11.67 8.59C9.48 8.75 7.74 10.59 7.74 12.83C7.74 15.17 9.65 17.08 11.99 17.08C14.33 17.08 16.24 15.17 16.24 12.83C16.24 11.99 15.99 11.17 15.53 10.47C15.29 10.13 15.38 9.66 15.74 9.43C16.08 9.2 16.54 9.29 16.78 9.64C17.41 10.59 17.75 11.69 17.75 12.83C17.75 16 15.16 18.58 12 18.58Z" fill="#53DC58" fill-opacity="1.000000" fill-rule="nonzero"/>
	<g opacity="0.000000"/>
</svg>
