<svg width="31.006348" height="31.767578" viewBox="0 0 31.0063 31.7676" fill="none" xmlns="http://www.w3.org/2000/svg" xmlns:xlink="http://www.w3.org/1999/xlink">
	<desc>
			Created with Pixso.
	</desc>
	<defs>
		<linearGradient x1="15.424678" y1="10.188128" x2="15.424678" y2="21.509197" id="paint_linear_2127_506_0" gradientUnits="userSpaceOnUse">
			<stop stop-color="#A2C0E6"/>
			<stop offset="1.000000" stop-color="#406CB1"/>
		</linearGradient>
	</defs>
	<path id="Vector" d="M15.46 0C15.46 0 24.6 -0.42 29.44 8.95L14.68 8.95C14.68 8.95 11.89 8.86 9.52 12.31C8.83 13.76 8.1 15.25 8.92 18.19C7.73 16.14 2.62 7.04 2.62 7.04C2.62 7.04 6.23 0.37 15.46 0Z" fill="#C6352E" fill-opacity="1.000000" fill-rule="nonzero"/>
	<path id="Vector" d="M28.97 23.8C28.97 23.8 24.75 32.09 14.37 31.69C15.65 29.42 21.76 18.64 21.76 18.64C21.76 18.64 23.23 16.22 21.49 12.39C20.61 11.06 19.71 9.67 16.8 8.93C19.14 8.9 29.41 8.93 29.41 8.93C29.41 8.93 33.27 15.46 28.97 23.8Z" fill="#F4D911" fill-opacity="1.000000" fill-rule="nonzero"/>
	<path id="Vector" d="M2.01 23.87C2.01 23.87 -2.91 16 2.62 7.03C3.9 9.29 10 20.08 10 20.08C10 20.08 11.32 22.59 15.43 22.96C17 22.85 18.64 22.75 20.72 20.55C19.57 22.63 14.41 31.7 14.41 31.7C14.41 31.7 6.94 31.84 2.01 23.87Z" fill="#81B354" fill-opacity="1.000000" fill-rule="nonzero"/>
	<path id="Vector" d="M14.37 31.76L16.45 22.92C16.45 22.92 18.73 22.74 20.65 20.59C19.46 22.73 14.37 31.76 14.37 31.76Z" fill="#7BAA50" fill-opacity="1.000000" fill-rule="nonzero"/>
	<path id="Vector" d="M8.5 15.98C8.5 12.08 11.6 8.92 15.42 8.92C19.24 8.92 22.34 12.08 22.34 15.98C22.34 19.88 19.24 23.04 15.42 23.04C11.6 23.04 8.5 19.88 8.5 15.98Z" fill="#FFFFFF" fill-opacity="1.000000" fill-rule="nonzero"/>
	<path id="Vector" d="M9.66 15.98C9.66 12.73 12.24 10.1 15.42 10.1C18.6 10.1 21.18 12.73 21.18 15.98C21.18 19.22 18.6 21.86 15.42 21.86C12.24 21.86 9.66 19.22 9.66 15.98Z" fill="url(#paint_linear_2127_506_0)" fill-opacity="1.000000" fill-rule="nonzero"/>
	<path id="Vector" d="M29.41 8.93L20.86 11.49C20.86 11.49 19.57 9.56 16.8 8.93C19.2 8.92 29.41 8.93 29.41 8.93Z" fill="#E7CE12" fill-opacity="1.000000" fill-rule="nonzero"/>
	<path id="Vector" d="M8.76 17.87C7.55 15.75 2.62 7.04 2.62 7.04L8.95 13.44C8.95 13.44 8.3 14.8 8.54 16.76L8.76 17.87Z" fill="#BC332C" fill-opacity="1.000000" fill-rule="nonzero"/>
</svg>
