<svg width="22.000000" height="22.000000" viewBox="0 0 22 22" fill="none" xmlns="http://www.w3.org/2000/svg" xmlns:xlink="http://www.w3.org/1999/xlink">
	<desc>
			Created with Pixso.
	</desc>
	<defs/>
	<path id="Vector" d="M14.66 15.67C14.66 18.88 13.38 20.16 10.17 20.16L6.32 20.16C3.11 20.16 1.83 18.88 1.83 15.67L1.83 11.82C1.83 8.61 3.11 7.33 6.32 7.33L10.17 7.33C13.38 7.33 14.66 8.61 14.66 11.82L14.66 15.67Z" stroke="#3F4567" stroke-opacity="1.000000" stroke-width="2.000000" stroke-linejoin="round"/>
	<path id="Vector" d="M20.16 10.17C20.16 13.38 18.88 14.66 15.67 14.66L14.66 14.66L14.66 11.82C14.66 8.61 13.38 7.33 10.17 7.33L7.33 7.33L7.33 6.32C7.33 3.11 8.61 1.83 11.82 1.83L15.67 1.83C18.88 1.83 20.16 3.11 20.16 6.32L20.16 10.17Z" stroke="#3F4567" stroke-opacity="1.000000" stroke-width="2.000000" stroke-linejoin="round"/>
	<g opacity="0.000000"/>
</svg>
