<svg width="41.000000" height="41.000000" viewBox="0 0 41 41" fill="none" xmlns="http://www.w3.org/2000/svg" xmlns:xlink="http://www.w3.org/1999/xlink">
	<desc>
			Created with Pixso.
	</desc>
	<defs/>
	<path id="Rectangle 4103" d="M8.54 7.12C8.54 6.02 9.43 5.12 10.54 5.12L20.25 5.12C20.38 5.12 20.5 5.23 20.5 5.37L20.5 15.08C20.5 16.18 21.39 17.08 22.5 17.08L32.2 17.08C32.34 17.08 32.45 17.19 32.45 17.33L32.45 33.87C32.45 34.97 31.56 35.87 30.45 35.87L10.54 35.87C9.43 35.87 8.54 34.97 8.54 33.87L8.54 7.12Z" fill="#6B34FA" fill-opacity="1.000000" fill-rule="nonzero"/>
	<path id="Rectangle 4103" d="M8.54 7.12C8.54 6.02 9.43 5.12 10.54 5.12L20.25 5.12C20.38 5.12 20.5 5.23 20.5 5.37L20.5 15.08C20.5 16.18 21.39 17.08 22.5 17.08L32.2 17.08C32.34 17.08 32.45 17.19 32.45 17.33L32.45 33.87C32.45 34.97 31.56 35.87 30.45 35.87L10.54 35.87C9.43 35.87 8.54 34.97 8.54 33.87L8.54 7.12ZM31.2 34.62Q30.95 34.87 30.45 34.87L10.54 34.87Q10.04 34.87 9.79 34.62Q9.54 34.37 9.54 33.87L9.54 7.12Q9.54 6.62 9.79 6.37Q10.04 6.12 10.54 6.12L19.5 6.12L19.5 15.08Q19.5 16.58 20.25 17.33Q21 18.08 22.5 18.08L31.45 18.08L31.45 33.87Q31.45 34.37 31.2 34.62Z" fill="#6B34FA" fill-opacity="0.250000" fill-rule="evenodd"/>
	<path id="Vector 262" d="M22.2 14.37L22.2 5.72C22.2 5.5 22.47 5.39 22.63 5.55L32.03 14.94C32.18 15.1 32.07 15.37 31.85 15.37L23.2 15.37C22.65 15.37 22.2 14.92 22.2 14.37Z" fill="#FFFFFF" fill-opacity="1.000000" fill-rule="nonzero"/>
	<path id="Vector 262" d="M22.2 14.37C22.2 14.92 22.65 15.37 23.2 15.37L31.85 15.37C32.07 15.37 32.18 15.1 32.03 14.94L22.63 5.55C22.47 5.39 22.2 5.5 22.2 5.72L22.2 14.37Z" stroke="#FFFFFF" stroke-opacity="1.000000" stroke-width="1.000000"/>
	<path id="Vector 55" d="M14.54 23.54L14.52 23.56C14.24 23.56 14.02 23.34 14.02 23.06C14.02 22.78 14.24 22.56 14.52 22.56L14.54 22.58L14.54 23.54ZM24.75 22.58L24.77 22.56C25.05 22.56 25.27 22.78 25.27 23.06C25.27 23.34 25.05 23.56 24.77 23.56L24.75 23.54L24.75 22.58Z" fill="#FFFFFF" fill-opacity="1.000000" fill-rule="nonzero"/>
	<path id="Vector 55" d="M14.52 22.56L24.77 22.56L24.77 23.56L14.52 23.56L14.52 22.56ZM14.54 23.54L14.52 23.56C14.24 23.56 14.02 23.34 14.02 23.06C14.02 22.78 14.24 22.56 14.52 22.56L14.54 22.58L14.54 23.54ZM24.75 22.58L24.77 22.56C25.05 22.56 25.27 22.78 25.27 23.06C25.27 23.34 25.05 23.56 24.77 23.56L24.75 23.54L24.75 22.58Z" fill="#FFFFFF" fill-opacity="1.000000" fill-rule="evenodd"/>
	<path id="Vector 263" d="M14.54 28.66L14.52 28.68C14.24 28.68 14.02 28.46 14.02 28.18C14.02 27.9 14.24 27.68 14.52 27.68L14.54 27.7L14.54 28.66ZM23.04 27.7L23.06 27.68C23.34 27.68 23.56 27.9 23.56 28.18C23.56 28.46 23.34 28.68 23.06 28.68L23.04 28.66L23.04 27.7Z" fill="#FFFFFF" fill-opacity="1.000000" fill-rule="nonzero"/>
	<path id="Vector 263" d="M14.52 27.68L23.06 27.68L23.06 28.68L14.52 28.68L14.52 27.68ZM14.54 28.66L14.52 28.68C14.24 28.68 14.02 28.46 14.02 28.18C14.02 27.9 14.24 27.68 14.52 27.68L14.54 27.7L14.54 28.66ZM23.04 27.7L23.06 27.68C23.34 27.68 23.56 27.9 23.56 28.18C23.56 28.46 23.34 28.68 23.06 28.68L23.04 28.66L23.04 27.7Z" fill="#FFFFFF" fill-opacity="1.000000" fill-rule="evenodd"/>
</svg>
