<svg width="41.000000" height="41.000000" viewBox="0 0 41 41" fill="none" xmlns="http://www.w3.org/2000/svg" xmlns:xlink="http://www.w3.org/1999/xlink">
	<desc>
			Created with Pixso.
	</desc>
	<defs/>
	<path id="Vector 361" d="M19.77 24.6L14.82 35.12C14.47 35.86 14.3 36.22 14.37 36.42C14.42 36.58 14.56 36.71 14.73 36.74C14.93 36.79 15.28 36.57 15.97 36.14L20.07 33.57C20.23 33.48 20.3 33.43 20.38 33.41C20.46 33.39 20.53 33.39 20.61 33.41C20.69 33.43 20.77 33.48 20.92 33.57L25.02 36.14C25.71 36.57 26.06 36.79 26.26 36.74C26.43 36.71 26.57 36.58 26.63 36.42C26.69 36.22 26.52 35.86 26.17 35.12L21.22 24.6C20.99 24.1 20.87 23.86 20.71 23.78C20.58 23.72 20.41 23.72 20.28 23.78C20.12 23.86 20 24.1 19.77 24.6Z" fill="#FFFFFF" fill-opacity="1.000000" fill-rule="evenodd"/>
	<path id="Vector 361" d="M14.82 35.12C14.47 35.86 14.3 36.22 14.37 36.42C14.42 36.58 14.56 36.71 14.73 36.74C14.93 36.79 15.28 36.57 15.97 36.14L20.07 33.57C20.23 33.48 20.3 33.43 20.38 33.41C20.46 33.39 20.53 33.39 20.61 33.41C20.69 33.43 20.77 33.48 20.92 33.57L25.02 36.14C25.71 36.57 26.06 36.79 26.26 36.74C26.43 36.71 26.57 36.58 26.63 36.42C26.69 36.22 26.52 35.86 26.17 35.12L21.22 24.6C20.99 24.1 20.87 23.86 20.71 23.78C20.58 23.72 20.41 23.72 20.28 23.78C20.12 23.86 20 24.1 19.77 24.6L14.82 35.12Z" stroke="#FFFFFF" stroke-opacity="1.000000" stroke-width="2.000000"/>
	<path id="Vector 437" d="M20.5 18.79L20.5 15.37" stroke="#6B34FA" stroke-opacity="0.250000" stroke-width="2.000000" stroke-linecap="round"/>
	<path id="Rectangle 4214" d="M8.32 5.12L32.67 5.12C33.79 5.12 34.35 5.12 34.78 5.34C35.15 5.53 35.46 5.84 35.65 6.21C35.87 6.64 35.87 7.2 35.87 8.32L35.87 25.84C35.87 26.96 35.87 27.52 35.65 27.94C35.46 28.32 35.15 28.63 34.78 28.82C34.35 29.04 33.79 29.04 32.67 29.04L31.32 29.04C31.11 29.04 31.01 29.04 30.92 29C30.84 28.97 30.78 28.92 30.72 28.86C30.66 28.78 30.63 28.69 30.56 28.49L24.28 9.63C24.15 9.24 24.08 9.04 23.96 8.9C23.85 8.77 23.71 8.67 23.56 8.61C23.38 8.54 23.17 8.54 22.76 8.54L18.23 8.54C17.82 8.54 17.61 8.54 17.43 8.61C17.28 8.67 17.14 8.77 17.03 8.9C16.91 9.04 16.84 9.24 16.71 9.63L10.43 28.49C10.36 28.69 10.33 28.78 10.27 28.86C10.21 28.92 10.15 28.97 10.07 29C9.98 29.04 9.88 29.04 9.67 29.04L8.32 29.04C7.2 29.04 6.64 29.04 6.21 28.82C5.84 28.63 5.53 28.32 5.34 27.94C5.12 27.52 5.12 26.96 5.12 25.84L5.12 8.32C5.12 7.2 5.12 6.64 5.34 6.21C5.53 5.84 5.84 5.53 6.21 5.34C6.64 5.12 7.2 5.12 8.32 5.12Z" fill="#6B34FA" fill-opacity="1.000000" fill-rule="evenodd"/>
	<path id="Rectangle 4214" d="M32.67 5.12C33.79 5.12 34.35 5.12 34.78 5.34C35.15 5.53 35.46 5.84 35.65 6.21C35.87 6.64 35.87 7.2 35.87 8.32L35.87 25.84C35.87 26.96 35.87 27.52 35.65 27.94C35.46 28.32 35.15 28.63 34.78 28.82C34.35 29.04 33.79 29.04 32.67 29.04L31.32 29.04C31.11 29.04 31.01 29.04 30.92 29C30.84 28.97 30.78 28.92 30.72 28.86C30.66 28.78 30.63 28.69 30.56 28.49L24.28 9.63C24.15 9.24 24.08 9.04 23.96 8.9C23.85 8.77 23.71 8.67 23.56 8.61C23.38 8.54 23.17 8.54 22.76 8.54L18.23 8.54C17.82 8.54 17.61 8.54 17.43 8.61C17.28 8.67 17.14 8.77 17.03 8.9C16.91 9.04 16.84 9.24 16.71 9.63L10.43 28.49C10.36 28.69 10.33 28.78 10.27 28.86C10.21 28.92 10.15 28.97 10.07 29C9.98 29.04 9.88 29.04 9.67 29.04L8.32 29.04C7.2 29.04 6.64 29.04 6.21 28.82C5.84 28.63 5.53 28.32 5.34 27.94C5.12 27.52 5.12 26.96 5.12 25.84L5.12 8.32C5.12 7.2 5.12 6.64 5.34 6.21C5.53 5.84 5.84 5.53 6.21 5.34C6.64 5.12 7.2 5.12 8.32 5.12L32.67 5.12Z" stroke="#6B34FA" stroke-opacity="0.250000" stroke-width="2.000000"/>
</svg>
