<svg width="41.000000" height="41.000000" viewBox="0 0 41 41" fill="none" xmlns="http://www.w3.org/2000/svg" xmlns:xlink="http://www.w3.org/1999/xlink">
	<desc>
			Created with Pixso.
	</desc>
	<defs/>
	<path id="Ellipse 55" d="M20.64 5.12C24.62 5.16 28.24 6.71 30.95 9.22C33.91 11.96 35.54 15.6 35.82 19.33C36.13 23.36 34.85 27.14 32.52 30.06C30.02 33.22 26.51 35.13 22.81 35.69C18.82 36.3 14.96 35.32 11.86 33.21C8.52 30.95 6.36 27.6 5.52 23.95C4.62 20.07 5.28 16.2 7.09 12.97C7.13 12.9 7.22 12.88 7.29 12.92L17.39 18.72C17.47 18.76 17.49 18.85 17.45 18.92C17.07 19.67 16.98 20.5 17.16 21.26C17.36 22.14 17.88 22.86 18.57 23.33C19.31 23.83 20.19 24 21.01 23.88C21.9 23.75 22.65 23.28 23.17 22.63C23.73 21.92 23.97 21.07 23.91 20.24C23.84 19.34 23.43 18.55 22.82 17.98C22.2 17.41 21.43 17.11 20.64 17.07C20.56 17.07 20.5 17 20.5 16.92L20.5 5.27C20.5 5.19 20.56 5.12 20.64 5.12Z" fill="#6B34FA" fill-opacity="1.000000" fill-rule="evenodd"/>
	<path id="Ellipse 55" d="M20.64 17.07C21.43 17.11 22.2 17.41 22.82 17.98C23.43 18.55 23.84 19.34 23.91 20.24C23.97 21.07 23.73 21.92 23.17 22.63C22.65 23.28 21.9 23.75 21.01 23.88C20.19 24 19.31 23.83 18.57 23.33C17.88 22.86 17.36 22.14 17.16 21.26C16.98 20.5 17.07 19.67 17.45 18.92C17.49 18.85 17.47 18.76 17.39 18.72L7.29 12.92C7.22 12.88 7.13 12.9 7.09 12.97C5.28 16.2 4.62 20.07 5.52 23.95C6.36 27.6 8.52 30.95 11.86 33.21C14.96 35.32 18.82 36.3 22.81 35.69C26.51 35.13 30.02 33.22 32.52 30.06C34.85 27.14 36.13 23.36 35.82 19.33C35.54 15.6 33.91 11.96 30.95 9.22C28.24 6.71 24.62 5.16 20.64 5.12C20.56 5.12 20.5 5.19 20.5 5.27L20.5 16.92C20.5 17 20.56 17.07 20.64 17.07ZM25.68 7.27Q28.09 8.21 30.13 10.1L30.13 10.1Q32.16 11.98 33.28 14.29Q34.41 16.63 34.63 19.42Q34.84 22.18 34.09 24.64Q33.33 27.13 31.58 29.32Q29.87 31.48 27.64 32.77Q25.39 34.08 22.63 34.5Q19.9 34.92 17.39 34.36Q14.85 33.79 12.54 32.22Q10.25 30.67 8.79 28.55Q7.31 26.41 6.69 23.68Q6.08 21.04 6.42 18.53Q6.71 16.47 7.64 14.5L16.02 19.31Q15.94 19.6 15.9 19.9Q15.8 20.7 15.99 21.53Q16.19 22.41 16.66 23.1Q17.14 23.81 17.9 24.32Q18.64 24.83 19.46 25.01Q20.29 25.2 21.19 25.07Q22.08 24.93 22.81 24.51Q23.54 24.09 24.11 23.37Q24.67 22.67 24.92 21.87Q25.17 21.06 25.1 20.15Q25.04 19.25 24.68 18.49Q24.31 17.73 23.64 17.1Q23.02 16.53 22.3 16.23Q22 16.1 21.7 16.02L21.7 6.37Q23.8 6.53 25.68 7.27ZM20.82 15.88Q20.75 15.88 20.68 15.87L20.7 15.88Q20.76 15.88 20.82 15.88Z" fill="#6B34FA" fill-opacity="0.250000" fill-rule="evenodd"/>
	<path id="Ellipse 54" d="M14.65 30.93C17.28 32.4 20.24 32.77 22.98 32.19C25.99 31.55 28.49 29.83 30.17 27.52C31.98 25.04 32.68 22.08 32.39 19.25C32.07 16.19 30.62 13.52 28.49 11.61C26.25 9.59 23.45 8.57 20.65 8.54C20.56 8.54 20.5 8.6 20.5 8.69L20.5 16.93C20.5 17.02 20.56 17.09 20.64 17.09C21.46 17.12 22.21 17.45 22.78 17.96C23.43 18.55 23.8 19.33 23.89 20.14C23.98 21.01 23.73 21.84 23.26 22.5C22.74 23.21 22 23.66 21.2 23.83C20.4 24 19.6 23.88 18.92 23.52C18.85 23.48 18.76 23.51 18.71 23.58L14.59 30.72C14.55 30.79 14.57 30.88 14.65 30.93Z" fill="#FFFFFF" fill-opacity="1.000000" fill-rule="evenodd"/>
	<path id="Ellipse 54" d="M20.64 17.09C21.46 17.12 22.21 17.45 22.78 17.96C23.43 18.55 23.8 19.33 23.89 20.14C23.98 21.01 23.73 21.84 23.26 22.5C22.74 23.21 22 23.66 21.2 23.83C20.4 24 19.6 23.88 18.92 23.52C18.85 23.48 18.76 23.51 18.71 23.58L14.59 30.72C14.55 30.79 14.57 30.88 14.65 30.93C17.28 32.4 20.24 32.77 22.98 32.19C25.99 31.55 28.49 29.83 30.17 27.52C31.98 25.04 32.68 22.08 32.39 19.25C32.07 16.19 30.62 13.52 28.49 11.61C26.25 9.59 23.45 8.57 20.65 8.54C20.56 8.54 20.5 8.6 20.5 8.69L20.5 16.93C20.5 17.02 20.56 17.09 20.64 17.09ZM18.85 31.15Q20.74 31.44 22.73 31.02L22.73 31.02Q24.74 30.59 26.35 29.55Q27.97 28.5 29.2 26.82Q30.4 25.16 30.9 23.31Q31.41 21.44 31.19 19.37Q30.98 17.33 30.11 15.62Q29.24 13.89 27.69 12.5Q26.2 11.16 24.45 10.47Q23.15 9.95 21.7 9.8L21.7 16.03Q21.97 16.11 22.23 16.21Q22.96 16.51 23.58 17.07Q24.23 17.65 24.61 18.38Q24.99 19.12 25.08 20.01Q25.17 20.89 24.96 21.68Q24.75 22.48 24.23 23.21Q23.71 23.92 23.02 24.36Q22.33 24.82 21.45 25.01Q20.65 25.18 19.89 25.08Q19.59 25.04 19.3 24.96L16.19 30.36Q17.49 30.94 18.85 31.15ZM20.71 15.89Q20.7 15.89 20.7 15.89L20.69 15.89Q20.7 15.89 20.71 15.89Z" fill="#FFFFFF" fill-opacity="1.000000" fill-rule="evenodd"/>
</svg>
