<svg width="160.000000" height="56.000000" viewBox="0 0 160 56" fill="none" xmlns="http://www.w3.org/2000/svg" xmlns:xlink="http://www.w3.org/1999/xlink">
	<desc>
			Created with Pixso.
	</desc>
	<defs>
		<clipPath id="clip2048_3733">
			<rect id="Button" rx="27.500000" width="159.000000" height="55.000000" transform="translate(0.500000 0.500000)" fill="white" fill-opacity="0"/>
		</clipPath>
		<radialGradient gradientTransform="translate(160 51) rotate(-161.171) scale(158.021 39.2886)" cx="0.000000" cy="0.000000" r="1.000000" id="paint_radial_2048_3733_0" gradientUnits="userSpaceOnUse">
			<stop stop-color="#FFFFFF" stop-opacity="0.000000"/>
			<stop offset="0.526024" stop-color="#FFFFFF"/>
			<stop offset="1.000000" stop-color="#FFFFFF" stop-opacity="0.000000"/>
		</radialGradient>
	</defs>
	<g clip-path="url(#clip2048_3733)">
		<path id="Show All FAQs" d="M33.95 25.56L31.93 25.56C31.82 24.57 30.99 23.98 29.73 23.98C28.41 23.98 27.63 24.62 27.62 25.5C27.61 26.47 28.64 26.87 29.6 27.1L30.69 27.37C32.44 27.79 34.1 28.71 34.11 30.73C34.1 32.78 32.49 34.17 29.7 34.17C26.99 34.17 25.26 32.87 25.18 30.56L27.25 30.56C27.34 31.78 28.36 32.37 29.68 32.37C31.05 32.37 32 31.71 32 30.71C32 29.81 31.17 29.42 29.91 29.1L28.59 28.76C26.68 28.26 25.49 27.3 25.49 25.63C25.48 23.57 27.32 22.2 29.76 22.2C32.24 22.2 33.91 23.59 33.95 25.56ZM120.54 22.2C123.59 22.2 125.89 24.42 125.89 28.18C125.89 30.28 125.17 31.91 124 32.93L125.61 35L123.57 35L122.61 33.77C121.97 34.02 121.28 34.16 120.54 34.16C117.49 34.16 115.2 31.93 115.2 28.18C115.2 24.42 117.49 22.2 120.54 22.2ZM39.84 26.89C38.74 26.89 37.95 27.62 37.95 28.88L37.95 34L35.9 34L35.9 22.36L37.91 22.36L37.91 26.75L38.01 26.75C38.41 25.76 39.26 25.16 40.6 25.16C42.42 25.16 43.61 26.33 43.61 28.44L43.61 34L41.55 34L41.55 28.76C41.55 27.58 40.92 26.89 39.84 26.89ZM75.11 31.12L74.14 34L71.89 34L75.99 22.36L78.59 22.36L82.69 34L80.44 34L79.48 31.12L75.11 31.12ZM84.14 22.36L86.2 22.36L86.2 34L84.14 34L84.14 22.36ZM88.31 22.36L90.37 22.36L90.37 34L88.31 34L88.31 22.36ZM98.65 34L96.54 34L96.54 22.36L104 22.36L104 24.12L98.65 24.12L98.65 27.28L103.49 27.28L103.49 29.05L98.65 29.05L98.65 34ZM106.91 31.12L105.95 34L103.7 34L107.8 22.36L110.4 22.36L114.5 34L112.25 34L111.29 31.12L106.91 31.12ZM121.4 32.16L119.83 30.08L121.74 30.08L122.72 31.37C123.38 30.68 123.77 29.61 123.77 28.18C123.77 25.53 122.44 24.09 120.54 24.09C118.65 24.09 117.32 25.53 117.32 28.18C117.32 30.82 118.65 32.26 120.54 32.26C120.84 32.26 121.13 32.23 121.4 32.16ZM77.25 24.75L75.68 29.43L78.91 29.43L77.34 24.75L77.25 24.75ZM109.06 24.75L107.48 29.43L110.72 29.43L109.15 24.75L109.06 24.75ZM53.69 29.67C53.69 32.37 52.07 34.17 49.51 34.17C46.95 34.17 45.33 32.37 45.33 29.67C45.33 26.96 46.95 25.16 49.51 25.16C52.07 25.16 53.69 26.96 53.69 29.67ZM131.2 25.16C133.24 25.16 134.42 26.1 134.71 27.57L132.83 27.78C132.67 27.21 132.17 26.69 131.23 26.69C130.37 26.69 129.71 27.1 129.72 27.69C129.71 28.19 130.07 28.5 130.95 28.7L132.44 29.02C134.09 29.37 134.89 30.14 134.89 31.38C134.89 33.03 133.35 34.17 131.17 34.17C129.03 34.17 127.68 33.22 127.43 31.62L129.43 31.42C129.61 32.21 130.22 32.62 131.16 32.62C132.14 32.62 132.79 32.17 132.79 31.57C132.79 31.07 132.41 30.75 131.61 30.57L130.13 30.26C128.45 29.92 127.66 29.07 127.67 27.8C127.66 26.19 129.09 25.16 131.2 25.16ZM59.14 34L56.99 34L54.52 25.27L56.62 25.27L58.16 31.41L58.24 31.41L59.81 25.27L61.88 25.27L63.45 31.37L63.53 31.37L65.04 25.27L67.15 25.27L64.67 34L62.53 34L60.9 28.1L60.77 28.1L59.14 34ZM47.41 29.66C47.41 31.26 48.11 32.52 49.52 32.52C50.91 32.52 51.61 31.26 51.61 29.66C51.61 28.06 50.91 26.78 49.52 26.78C48.11 26.78 47.41 28.06 47.41 29.66Z" fill="#FFFFFF" fill-opacity="1.000000" fill-rule="evenodd"/>
	</g>
	<rect id="Button" rx="27.500000" width="159.000000" height="55.000000" transform="translate(0.500000 0.500000)" stroke="url(#paint_radial_2048_3733_0)" stroke-opacity="0.700000" stroke-width="1.000000"/>
</svg>
