<svg width="18.000000" height="18.000000" viewBox="0 0 18 18" fill="none" xmlns="http://www.w3.org/2000/svg" xmlns:xlink="http://www.w3.org/1999/xlink">
	<desc>
			Created with Pixso.
	</desc>
	<defs/>
	<path id="Vector" d="M2.06 13.98C1.75 13.98 1.5 13.73 1.5 13.42L1.5 9.14C1.46 7.11 2.22 5.19 3.63 3.75C5.04 2.32 6.93 1.53 8.96 1.53C13.11 1.53 16.5 4.91 16.5 9.07L16.5 13.34C16.5 13.65 16.24 13.91 15.93 13.91C15.63 13.91 15.37 13.65 15.37 13.34L15.37 9.07C15.37 5.54 12.5 2.66 8.96 2.66C7.23 2.66 5.62 3.33 4.43 4.54C3.23 5.76 2.59 7.39 2.62 9.13L2.62 13.41C2.62 13.73 2.37 13.98 2.06 13.98Z" fill="#FFFFFF" fill-opacity="1.000000" fill-rule="nonzero"/>
	<path id="Vector" d="M4.45 9.33L4.35 9.33C2.78 9.33 1.5 10.62 1.5 12.19L1.5 13.6C1.5 15.18 2.78 16.46 4.35 16.46L4.45 16.46C6.03 16.46 7.31 15.18 7.31 13.6L7.31 12.19C7.31 10.62 6.03 9.33 4.45 9.33Z" fill="#FFFFFF" fill-opacity="1.000000" fill-rule="nonzero"/>
	<path id="Vector" d="M13.64 9.33L13.54 9.33C11.97 9.33 10.68 10.62 10.68 12.19L10.68 13.6C10.68 15.18 11.97 16.46 13.54 16.46L13.64 16.46C15.21 16.46 16.5 15.18 16.5 13.6L16.5 12.19C16.5 10.62 15.21 9.33 13.64 9.33Z" fill="#FFFFFF" fill-opacity="1.000000" fill-rule="nonzero"/>
	<g opacity="0.000000"/>
</svg>
