<svg width="54" height="54" viewBox="0 0 54 54" fill="none" xmlns="http://www.w3.org/2000/svg">
<rect x="1" y="1" width="52" height="52" rx="13" stroke="#6D3EF4" stroke-opacity="0.22" stroke-width="2"/>
<rect x="1" y="1" width="52" height="52" rx="13" stroke="url(#paint0_radial_0_1)" stroke-opacity="0.7" stroke-width="2"/>
<path d="M32.635 31.2466C33.4166 30.7333 34.4433 31.2933 34.4433 32.2266V33.7316C34.4433 35.2133 33.2883 36.7999 31.9 37.2666L28.1783 38.5033C27.525 38.7249 26.4633 38.7249 25.8216 38.5033L22.1 37.2666C20.7 36.7999 19.5566 35.2133 19.5566 33.7316V32.2149C19.5566 31.2933 20.5833 30.7333 21.3533 31.2349L23.7566 32.7983C24.6783 33.4166 25.845 33.7199 27.0116 33.7199C28.1783 33.7199 29.345 33.4166 30.2666 32.7983L32.635 31.2466Z" fill="#6530FF"/>
<path d="M36.31 20.5366L29.3217 15.9516C28.0617 15.1232 25.985 15.1232 24.725 15.9516L17.7017 20.5366C15.45 21.9949 15.45 25.2966 17.7017 26.7666L19.5684 27.9799L24.725 31.3399C25.985 32.1682 28.0617 32.1682 29.3217 31.3399L34.4434 27.9799L36.0417 26.9299V30.4999C36.0417 30.9782 36.4384 31.3749 36.9167 31.3749C37.395 31.3749 37.7917 30.9782 37.7917 30.4999V24.7599C38.2584 23.2549 37.78 21.5049 36.31 20.5366Z" fill="#6530FF"/>
<defs>
<radialGradient id="paint0_radial_0_1" cx="0" cy="0" r="1" gradientUnits="userSpaceOnUse" gradientTransform="translate(54 49.1786) rotate(-135.747) scale(70.474 28.6704)">
<stop stop-color="white" stop-opacity="0"/>
<stop offset="0.526024" stop-color="white"/>
<stop offset="1" stop-color="white" stop-opacity="0"/>
</radialGradient>
</defs>
</svg>
