<svg width="54.000000" height="54.000000" viewBox="0 0 54 54" fill="none" xmlns="http://www.w3.org/2000/svg" xmlns:xlink="http://www.w3.org/1999/xlink">
	<desc>
			Created with Pixso.
	</desc>
	<defs>
		<radialGradient gradientTransform="translate(54 49.1786) rotate(-135.747) scale(70.474 28.6704)" cx="0.000000" cy="0.000000" r="1.000000" id="paint_radial_2087_1375_0" gradientUnits="userSpaceOnUse">
			<stop stop-color="#FFFFFF" stop-opacity="0.000000"/>
			<stop offset="0.526024" stop-color="#FFFFFF"/>
			<stop offset="1.000000" stop-color="#FFFFFF" stop-opacity="0.000000"/>
		</radialGradient>
	</defs>
	<rect id="Rectangle 40396" x="1.000000" y="1.000000" rx="14.000000" width="52.000000" height="52.000000" stroke="#6D3EF4" stroke-opacity="0.220000" stroke-width="2.000000"/>
	<rect id="Rectangle 40396" x="1.000000" y="1.000000" rx="14.000000" width="52.000000" height="52.000000" stroke="url(#paint_radial_2087_1375_0)" stroke-opacity="0.700000" stroke-width="2.000000"/>
	<rect id="lamp-on" rx="-0.500000" width="27.000000" height="27.000000" transform="translate(13.500000 13.500000)" fill="#FFFFFF" fill-opacity="0"/>
	<path id="Vector" d="M35.41 20.41C34.19 17.96 31.85 16.16 29.13 15.56C26.28 14.93 23.37 15.61 21.14 17.4C18.9 19.19 17.63 21.86 17.63 24.72C17.63 27.74 19.43 30.9 22.16 32.73L22.16 33.7C22.15 34.03 22.14 34.53 22.54 34.94C22.95 35.36 23.55 35.41 24.03 35.41L30.02 35.41C30.65 35.41 31.12 35.23 31.45 34.9C31.89 34.45 31.88 33.87 31.87 33.55L31.87 32.73C35.49 30.3 37.76 25.15 35.41 20.41Z" fill="#6530FF" fill-opacity="1.000000" fill-rule="nonzero"/>
	<path id="Vector" d="M30.8 38.66C30.73 38.66 30.65 38.65 30.58 38.63C28.23 37.96 25.77 37.96 23.42 38.63C22.99 38.74 22.54 38.5 22.42 38.07C22.29 37.63 22.55 37.18 22.98 37.06C25.62 36.32 28.39 36.32 31.03 37.06C31.46 37.19 31.72 37.63 31.59 38.07C31.48 38.43 31.15 38.66 30.8 38.66Z" fill="#6530FF" fill-opacity="1.000000" fill-rule="nonzero"/>
	<g opacity="0.000000"/>
</svg>
