<svg width="54.000000" height="54.000000" viewBox="0 0 54 54" fill="none" xmlns="http://www.w3.org/2000/svg" xmlns:xlink="http://www.w3.org/1999/xlink">
	<desc>
			Created with Pixso.
	</desc>
	<defs>
		<radialGradient gradientTransform="translate(54 49.1786) rotate(-135.747) scale(70.474 28.6704)" cx="0.000000" cy="0.000000" r="1.000000" id="paint_radial_2087_1370_0" gradientUnits="userSpaceOnUse">
			<stop stop-color="#FFFFFF" stop-opacity="0.000000"/>
			<stop offset="0.526024" stop-color="#FFFFFF"/>
			<stop offset="1.000000" stop-color="#FFFFFF" stop-opacity="0.000000"/>
		</radialGradient>
	</defs>
	<rect id="Rectangle 40312" x="1.000000" y="1.000000" rx="14.000000" width="52.000000" height="52.000000" stroke="#6D3EF4" stroke-opacity="0.220000" stroke-width="2.000000"/>
	<rect id="Rectangle 40312" x="1.000000" y="1.000000" rx="14.000000" width="52.000000" height="52.000000" stroke="url(#paint_radial_2087_1370_0)" stroke-opacity="0.700000" stroke-width="2.000000"/>
	<rect id="like-shapes" rx="-0.500000" width="27.000000" height="27.000000" transform="translate(13.500000 13.500000)" fill="#FFFFFF" fill-opacity="0"/>
	<g opacity="0.000000"/>
	<path id="Vector" d="M38.15 25.53L36.56 23.68C36.26 23.33 36.01 22.68 36.01 22.21L36.01 20.23C36.01 18.99 35 17.98 33.76 17.98L31.78 17.98C31.32 17.98 30.66 17.73 30.31 17.43L28.47 15.84C27.66 15.15 26.34 15.15 25.53 15.84L23.69 17.44C23.34 17.73 22.68 17.98 22.22 17.98L20.2 17.98C18.97 17.98 17.95 18.99 17.95 20.23L17.95 22.22C17.95 22.68 17.71 23.33 17.42 23.68L15.84 25.54C15.16 26.34 15.16 27.65 15.84 28.45L17.42 30.31C17.71 30.66 17.95 31.31 17.95 31.77L17.95 33.76C17.95 35 18.97 36.01 20.2 36.01L22.22 36.01C22.68 36.01 23.34 36.26 23.69 36.56L25.54 38.15C26.34 38.84 27.66 38.84 28.48 38.15L30.32 36.56C30.67 36.26 31.32 36.01 31.79 36.01L33.77 36.01C35.01 36.01 36.03 35 36.03 33.76L36.03 31.78C36.03 31.32 36.27 30.66 36.57 30.31L38.16 28.47C38.84 27.66 38.84 26.33 38.15 25.53ZM32.46 27L31.09 31.15C30.91 31.84 30.18 32.4 29.43 32.4L27.28 32.4C26.9 32.4 26.38 32.27 26.14 32.04L24.43 30.69C24.39 31.44 24.06 31.76 23.23 31.76L22.67 31.76C21.8 31.76 21.45 31.42 21.45 30.6L21.45 25.02C21.45 24.21 21.8 23.87 22.67 23.87L23.24 23.87C24.1 23.87 24.45 24.21 24.45 25.02L24.45 25.44L26.72 22.08C26.95 21.72 27.54 21.47 28.05 21.66C28.59 21.85 28.94 22.46 28.83 22.99L28.55 24.81C28.52 24.98 28.56 25.13 28.66 25.25C28.76 25.35 28.9 25.42 29.05 25.42L31.32 25.42C31.77 25.42 32.14 25.6 32.36 25.91C32.56 26.21 32.59 26.6 32.46 27Z" fill="#6530FF" fill-opacity="1.000000" fill-rule="nonzero"/>
</svg>
