<svg width="16.000000" height="16.000000" viewBox="0 0 16 16" fill="none" xmlns="http://www.w3.org/2000/svg" xmlns:xlink="http://www.w3.org/1999/xlink">
	<desc>
			Created with Pixso.
	</desc>
	<defs/>
	<rect id="scan" rx="-0.500000" width="15.000000" height="15.000000" transform="translate(0.500000 0.500000)" fill="#FFFFFF" fill-opacity="0"/>
	<path id="Vector" d="M1.33 6L1.33 4.33C1.33 2.67 2.67 1.33 4.33 1.33L5.99 1.33" stroke="#6932FC" stroke-opacity="1.000000" stroke-width="1.500000" stroke-linejoin="round" stroke-linecap="round"/>
	<path id="Vector" d="M10 1.33L11.66 1.33C13.32 1.33 14.66 2.67 14.66 4.33L14.66 6" stroke="#6932FC" stroke-opacity="1.000000" stroke-width="1.500000" stroke-linejoin="round" stroke-linecap="round"/>
	<path id="Vector" d="M14.66 10.66L14.66 11.66C14.66 13.32 13.32 14.66 11.66 14.66L10.66 14.66" stroke="#6932FC" stroke-opacity="1.000000" stroke-width="1.500000" stroke-linejoin="round" stroke-linecap="round"/>
	<path id="Vector" d="M5.99 14.66L4.33 14.66C2.67 14.66 1.33 13.32 1.33 11.66L1.33 10" stroke="#6932FC" stroke-opacity="1.000000" stroke-width="1.500000" stroke-linejoin="round" stroke-linecap="round"/>
	<path id="Vector" d="M11.33 9.66C11.33 11 10.66 11.66 9.33 11.66L6.66 11.66C5.33 11.66 4.66 11 4.66 9.66L4.66 6.33C4.66 5 5.33 4.33 6.66 4.33L9.33 4.33C10.66 4.33 11.33 5 11.33 6.33L11.33 9.66Z" stroke="#6932FC" stroke-opacity="1.000000" stroke-width="1.500000" stroke-linejoin="round"/>
	<path id="Vector" d="M12.66 8L3.33 8" stroke="#6932FC" stroke-opacity="1.000000" stroke-width="1.500000" stroke-linejoin="round" stroke-linecap="round"/>
	<g opacity="0.000000"/>
</svg>
