<svg width="24.398682" height="19.196289" viewBox="0 0 24.3987 19.1963" fill="none" xmlns="http://www.w3.org/2000/svg" xmlns:xlink="http://www.w3.org/1999/xlink">
	<desc>
			Created with Pixso.
	</desc>
	<defs/>
	<path id="“" d="M1 18.19L1 12.79C1 11.33 1.29 9.85 1.88 8.36C2.47 6.88 3.22 5.51 4.12 4.25C5.02 2.99 5.93 1.97 6.85 1.19L11.91 3.8C11.14 5.1 10.54 6.47 10.11 7.89C9.7 9.32 9.5 10.95 9.51 12.79L9.51 18.19L1 18.19ZM12.08 18.19L12.08 12.79C12.08 11.33 12.38 9.85 12.97 8.36C13.56 6.88 14.31 5.51 15.21 4.25C16.11 2.99 17.02 1.97 17.94 1.19L23 3.8C22.23 5.1 21.63 6.47 21.2 7.89C20.78 9.32 20.59 10.95 20.6 12.79L20.6 18.19L12.08 18.19Z" fill="#C6C6D7" fill-opacity="0.100000" fill-rule="nonzero"/>
	<path id="“" d="M12.04 7.99Q11.08 10.4 11.08 12.79L11.08 19.19L21.6 19.19L21.6 12.79Q21.58 10.17 22.16 8.18Q22.26 7.83 22.38 7.48Q22.96 5.84 23.86 4.31L24.39 3.4L17.8 0L17.29 0.43Q15.82 1.68 14.4 3.67Q14.39 3.67 14.39 3.68Q12.97 5.66 12.04 7.99ZM0.95 7.99Q0 10.4 0 12.79L0 19.19L10.51 19.19L10.51 12.79Q10.49 10.17 11.07 8.18Q11.17 7.83 11.3 7.48Q11.87 5.84 12.77 4.31L13.31 3.4L6.71 0L6.2 0.43Q4.73 1.68 3.31 3.67Q3.3 3.67 3.3 3.68Q1.88 5.66 0.95 7.99ZM1 17.19L1 12.79Q1 10.59 1.88 8.36Q2.77 6.14 4.12 4.25Q5.47 2.36 6.85 1.19L11.02 3.34L11.91 3.8Q11.65 4.23 11.42 4.67Q10.81 5.85 10.38 7.08L10.38 7.08Q10.23 7.48 10.11 7.89C9.7 9.32 9.5 10.95 9.51 12.79L9.51 18.19L1 18.19L1 17.19ZM12.08 17.19L12.08 12.79Q12.08 10.59 12.97 8.36Q13.86 6.14 15.21 4.25Q16.56 2.36 17.94 1.19L22.1 3.34L23 3.8Q22.74 4.23 22.51 4.67Q21.9 5.84 21.46 7.08Q21.32 7.48 21.2 7.89Q20.58 10.03 20.6 12.79L20.6 18.19L12.08 18.19L12.08 17.19Z" fill="#FFFFFF" fill-opacity="0.170000" fill-rule="evenodd"/>
</svg>
