<svg width="31.000000" height="31.000000" viewBox="0 0 31 31" fill="none" xmlns="http://www.w3.org/2000/svg" xmlns:xlink="http://www.w3.org/1999/xlink">
	<desc>
			Created with Pixso.
	</desc>
	<defs>
		<filter id="filter_2127_550_dd" x="-38.578125" y="-19.289062" width="108.156250" height="108.156250" filterUnits="userSpaceOnUse" color-interpolation-filters="sRGB">
			<feFlood flood-opacity="0" result="BackgroundImageFix"/>
			<feColorMatrix in="SourceAlpha" type="matrix" values="0 0 0 0 0 0 0 0 0 0 0 0 0 0 0 0 0 0 127 0" result="hardAlpha"/>
			<feOffset dx="0" dy="19.5312"/>
			<feGaussianBlur stdDeviation="13.0208"/>
			<feComposite in2="hardAlpha" operator="out" k2="-1" k3="1"/>
			<feColorMatrix type="matrix" values="0 0 0 0 0 0 0 0 0 0 0 0 0 0 0 0 0 0 0.27 0"/>
			<feBlend mode="normal" in2="BackgroundImageFix" result="effect_dropShadow_1"/>
			<feBlend mode="normal" in="SourceGraphic" in2="effect_dropShadow_1" result="shape"/>
		</filter>
		<filter id="filter_2127_682_dd" x="-32.079102" y="-22.860840" width="96.343262" height="96.859375" filterUnits="userSpaceOnUse" color-interpolation-filters="sRGB">
			<feFlood flood-opacity="0" result="BackgroundImageFix"/>
			<feColorMatrix in="SourceAlpha" type="matrix" values="0 0 0 0 0 0 0 0 0 0 0 0 0 0 0 0 0 0 127 0" result="hardAlpha"/>
			<feOffset dx="0" dy="9.76562"/>
			<feGaussianBlur stdDeviation="13.0208"/>
			<feComposite in2="hardAlpha" operator="out" k2="-1" k3="1"/>
			<feColorMatrix type="matrix" values="0 0 0 0 0 0 0 0 0 0 0 0 0 0 0 0 0 0 0.051 0"/>
			<feBlend mode="normal" in2="BackgroundImageFix" result="effect_dropShadow_1"/>
			<feBlend mode="normal" in="SourceGraphic" in2="effect_dropShadow_1" result="shape"/>
		</filter>
		<clipPath id="clip2127_548">
			<rect id="safari-3 1" rx="-0.500000" width="30.000000" height="30.000000" transform="translate(0.500000 0.500000)" fill="white" fill-opacity="0"/>
		</clipPath>
		<linearGradient x1="1502.046875" y1="3003.367188" x2="1502.046875" y2="0.242188" id="paint_linear_2127_550_0" gradientUnits="userSpaceOnUse">
			<stop offset="0.250000" stop-color="#DBDBDA"/>
			<stop offset="1.000000" stop-color="#FFFFFF"/>
		</linearGradient>
		<radialGradient gradientTransform="translate(1585.7 1085.22) rotate(0) scale(1695.4 1695.4)" cx="0.000000" cy="0.000000" r="1.000000" id="paint_radial_2127_551_0" gradientUnits="userSpaceOnUse">
			<stop stop-color="#2ABCE1"/>
			<stop offset="0.113630" stop-color="#2ABBE1"/>
			<stop offset="1.000000" stop-color="#3375F8"/>
		</radialGradient>
		<linearGradient x1="1364.247437" y1="993.146484" x2="715.971375" y2="2156.221436" id="paint_linear_2127_681_0" gradientUnits="userSpaceOnUse">
			<stop stop-color="#000000" stop-opacity="0.000000"/>
			<stop offset="1.000000" stop-color="#000000"/>
		</linearGradient>
	</defs>
	<rect id="safari-3 1" rx="-0.500000" width="30.000000" height="30.000000" transform="translate(0.500000 0.500000)" fill="#FFFFFF" fill-opacity="0"/>
	<g clip-path="url(#clip2127_548)">
		<g filter="url(#filter_2127_550_dd)">
			<path id="Vector" d="M30.51 15.25C30.51 23.55 23.79 30.27 15.5 30.27C7.2 30.27 0.48 23.55 0.48 15.25C0.48 6.96 7.2 0.24 15.5 0.24C23.79 0.24 30.51 6.96 30.51 15.25Z" fill="url(#paint_linear_2127_550_0)" fill-opacity="1.000000" fill-rule="evenodd"/>
		</g>
		<path id="Vector" d="M29.38 15.25C29.38 22.92 23.17 29.14 15.5 29.14C7.82 29.14 1.61 22.92 1.61 15.25C1.61 7.58 7.82 1.36 15.5 1.36C23.17 1.36 29.38 7.58 29.38 15.25Z" fill="url(#paint_radial_2127_551_0)" fill-opacity="1.000000" fill-rule="evenodd"/>
		<path id="Vector" d="M15.52 4.74C15.42 4.74 15.34 4.67 15.34 4.58L15.34 2.13C15.34 2.03 15.42 1.96 15.52 1.96C15.61 1.96 15.69 2.03 15.69 2.13L15.69 4.58C15.68 4.67 15.61 4.74 15.52 4.74Z" fill="#F3F3F3" fill-opacity="1.000000" fill-rule="nonzero"/>
		<path id="Vector" d="M15.52 4.75C15.41 4.75 15.33 4.67 15.33 4.58L15.33 2.13C15.33 2.03 15.41 1.95 15.52 1.95C15.62 1.95 15.71 2.03 15.71 2.13L15.71 4.58C15.71 4.67 15.61 4.75 15.52 4.75ZM15.52 1.97C15.44 1.97 15.35 2.04 15.35 2.13L15.35 4.58C15.35 4.66 15.42 4.73 15.52 4.73C15.6 4.73 15.68 4.66 15.68 4.58L15.68 2.13C15.67 2.04 15.6 1.97 15.52 1.97Z" fill="#FFFFFF" fill-opacity="1.000000" fill-rule="nonzero"/>
		<path id="Vector" d="M16.69 3.43C16.6 3.42 16.53 3.35 16.53 3.25L16.61 2.16C16.62 2.07 16.7 2 16.8 2.01C16.89 2.02 16.96 2.09 16.96 2.18L16.88 3.28C16.87 3.37 16.79 3.44 16.69 3.43Z" fill="#F3F3F3" fill-opacity="1.000000" fill-rule="nonzero"/>
		<path id="Vector" d="M16.69 3.44C16.59 3.43 16.52 3.35 16.52 3.25L16.6 2.16C16.61 2.07 16.69 1.99 16.8 2C16.9 2.01 16.97 2.09 16.97 2.18L16.89 3.28C16.88 3.38 16.8 3.45 16.69 3.44ZM16.8 2.02C16.71 2.02 16.63 2.08 16.63 2.16L16.55 3.25C16.55 3.33 16.61 3.4 16.7 3.42C16.79 3.42 16.87 3.36 16.87 3.28L16.95 2.18C16.95 2.1 16.88 2.03 16.8 2.02Z" fill="#FFFFFF" fill-opacity="1.000000" fill-rule="nonzero"/>
		<path id="Vector" d="M17.57 4.95C17.48 4.93 17.42 4.85 17.43 4.75L17.91 2.35C17.93 2.26 18.02 2.2 18.11 2.22C18.2 2.24 18.26 2.33 18.25 2.42L17.77 4.82C17.76 4.91 17.66 4.96 17.57 4.95L17.57 4.95Z" fill="#F3F3F3" fill-opacity="1.000000" fill-rule="nonzero"/>
		<path id="Vector" d="M17.57 4.96C17.47 4.94 17.41 4.85 17.42 4.75L17.9 2.35C17.92 2.26 18.02 2.18 18.12 2.21C18.23 2.23 18.29 2.33 18.28 2.42L17.79 4.82C17.77 4.92 17.68 4.98 17.57 4.96ZM18.12 2.23C18.04 2.22 17.96 2.27 17.93 2.35L17.45 4.75C17.44 4.84 17.49 4.92 17.58 4.94C17.66 4.95 17.75 4.91 17.77 4.82L18.25 2.42C18.26 2.33 18.2 2.26 18.12 2.23Z" fill="#FFFFFF" fill-opacity="1.000000" fill-rule="nonzero"/>
		<path id="Vector" d="M18.98 3.9C18.96 3.89 18.94 3.88 18.92 3.87C18.9 3.86 18.88 3.84 18.87 3.82C18.86 3.8 18.85 3.78 18.85 3.75C18.84 3.73 18.84 3.71 18.85 3.69L19.14 2.63C19.17 2.54 19.26 2.49 19.35 2.51C19.45 2.54 19.51 2.63 19.48 2.72L19.19 3.78C19.17 3.87 19.07 3.92 18.98 3.9Z" fill="#F3F3F3" fill-opacity="1.000000" fill-rule="nonzero"/>
		<path id="Vector" d="M18.98 3.91C18.89 3.89 18.81 3.78 18.85 3.69L19.14 2.63C19.17 2.54 19.27 2.48 19.37 2.5C19.46 2.52 19.53 2.63 19.5 2.72L19.2 3.78C19.18 3.87 19.08 3.93 18.98 3.91L18.98 3.91ZM19.37 2.54C19.28 2.51 19.19 2.56 19.17 2.64L18.87 3.7C18.85 3.78 18.9 3.86 18.99 3.89C19.07 3.91 19.17 3.86 19.19 3.78L19.48 2.72C19.5 2.64 19.45 2.56 19.37 2.54L19.37 2.54Z" fill="#FFFFFF" fill-opacity="1.000000" fill-rule="nonzero"/>
		<path id="Vector" d="M19.55 5.55C19.46 5.52 19.42 5.41 19.46 5.33L20.4 3.06C20.43 2.98 20.54 2.94 20.62 2.98C20.72 3.02 20.75 3.12 20.72 3.2L19.78 5.47C19.74 5.55 19.64 5.6 19.55 5.55L19.55 5.55Z" fill="#F3F3F3" fill-opacity="1.000000" fill-rule="nonzero"/>
		<path id="Vector" d="M19.55 5.56C19.51 5.55 19.47 5.51 19.45 5.47C19.43 5.42 19.43 5.37 19.45 5.33L20.39 3.06C20.42 2.97 20.53 2.94 20.63 2.97C20.68 2.99 20.71 3.02 20.73 3.07C20.75 3.11 20.76 3.16 20.74 3.21L19.8 5.47C19.75 5.56 19.65 5.61 19.55 5.56ZM20.62 2.99C20.54 2.96 20.45 2.99 20.41 3.08L19.47 5.34C19.44 5.42 19.48 5.5 19.57 5.54C19.65 5.57 19.74 5.54 19.78 5.46L20.72 3.19C20.74 3.12 20.7 3.03 20.62 2.99Z" fill="#FFFFFF" fill-opacity="1.000000" fill-rule="nonzero"/>
		<path id="Vector" d="M21.14 4.8C21.06 4.75 21.02 4.66 21.06 4.58L21.55 3.6C21.6 3.52 21.69 3.49 21.78 3.53C21.87 3.58 21.9 3.67 21.87 3.76L21.37 4.73C21.33 4.81 21.23 4.85 21.14 4.8L21.14 4.8Z" fill="#F3F3F3" fill-opacity="1.000000" fill-rule="nonzero"/>
		<path id="Vector" d="M21.14 4.81C21.04 4.77 21.01 4.66 21.06 4.57L21.55 3.59C21.6 3.5 21.7 3.46 21.79 3.51C21.89 3.56 21.92 3.66 21.88 3.76L21.38 4.73C21.34 4.82 21.23 4.86 21.14 4.81L21.14 4.81ZM21.78 3.53C21.7 3.5 21.61 3.52 21.57 3.6L21.08 4.58C21.04 4.65 21.08 4.74 21.15 4.79C21.23 4.82 21.33 4.8 21.36 4.72L21.85 3.74C21.89 3.67 21.85 3.58 21.78 3.53Z" fill="#FFFFFF" fill-opacity="1.000000" fill-rule="nonzero"/>
		<path id="Vector" d="M21.37 6.54C21.29 6.48 21.27 6.37 21.33 6.3L22.69 4.27C22.73 4.19 22.84 4.18 22.92 4.23C23 4.28 23.03 4.39 22.97 4.46L21.61 6.49C21.56 6.57 21.45 6.6 21.37 6.54Z" fill="#F3F3F3" fill-opacity="1.000000" fill-rule="nonzero"/>
		<path id="Vector" d="M21.37 6.55C21.29 6.49 21.27 6.37 21.31 6.29L22.67 4.26C22.73 4.18 22.84 4.16 22.93 4.21C23.01 4.27 23.04 4.39 22.99 4.47L21.63 6.5C21.57 6.58 21.45 6.61 21.37 6.55ZM22.92 4.24C22.85 4.19 22.75 4.2 22.7 4.27L21.34 6.3C21.29 6.37 21.31 6.47 21.38 6.51C21.45 6.56 21.56 6.55 21.61 6.48L22.97 4.46C23.01 4.39 22.99 4.28 22.92 4.24Z" fill="#FFFFFF" fill-opacity="1.000000" fill-rule="nonzero"/>
		<path id="Vector" d="M23.08 6.1C23.01 6.04 22.99 5.94 23.05 5.87L23.73 5.01C23.79 4.94 23.89 4.93 23.96 4.99C24.04 5.05 24.06 5.15 24 5.22L23.32 6.08C23.26 6.15 23.16 6.16 23.08 6.1Z" fill="#F3F3F3" fill-opacity="1.000000" fill-rule="nonzero"/>
		<path id="Vector" d="M23.07 6.11C22.99 6.06 22.98 5.94 23.04 5.86L23.72 5C23.78 4.92 23.89 4.91 23.98 4.98C24.06 5.04 24.07 5.15 24.01 5.23L23.33 6.09C23.27 6.17 23.16 6.18 23.07 6.11ZM23.95 5C23.88 4.94 23.79 4.95 23.73 5.02L23.05 5.88C23 5.95 23.01 6.04 23.08 6.1C23.16 6.16 23.25 6.15 23.31 6.08L23.99 5.22C24.04 5.15 24.02 5.05 23.95 5L23.95 5Z" fill="#FFFFFF" fill-opacity="1.000000" fill-rule="nonzero"/>
		<path id="Vector" d="M22.97 7.86C22.9 7.79 22.9 7.69 22.97 7.63L24.7 5.9C24.77 5.83 24.88 5.84 24.94 5.9C25 5.96 25.01 6.08 24.94 6.14L23.21 7.86C23.14 7.93 23.04 7.93 22.97 7.86Z" fill="#F3F3F3" fill-opacity="1.000000" fill-rule="nonzero"/>
		<path id="Vector" d="M22.96 7.87C22.92 7.84 22.9 7.79 22.9 7.75C22.9 7.7 22.92 7.65 22.96 7.62L24.69 5.89C24.73 5.86 24.77 5.84 24.82 5.84C24.87 5.84 24.92 5.86 24.95 5.89C24.98 5.93 25 5.97 25 6.02C25 6.07 24.98 6.12 24.95 6.15L23.21 7.87C23.18 7.91 23.13 7.93 23.08 7.93C23.04 7.93 22.99 7.91 22.96 7.87ZM24.94 5.9C24.88 5.84 24.77 5.84 24.72 5.9L22.98 7.63C22.92 7.69 22.92 7.79 22.98 7.85C23.04 7.91 23.14 7.91 23.2 7.85L24.94 6.13C25 6.07 25 5.97 24.94 5.9Z" fill="#FFFFFF" fill-opacity="1.000000" fill-rule="nonzero"/>
		<path id="Vector" d="M24.73 7.77C24.67 7.7 24.67 7.59 24.74 7.53L25.57 6.83C25.64 6.77 25.75 6.78 25.81 6.85C25.87 6.92 25.87 7.03 25.8 7.09L24.96 7.79C24.89 7.85 24.79 7.84 24.73 7.77Z" fill="#F3F3F3" fill-opacity="1.000000" fill-rule="nonzero"/>
		<path id="Vector" d="M24.72 7.78C24.65 7.7 24.66 7.58 24.73 7.52L25.56 6.82C25.63 6.75 25.75 6.76 25.82 6.84C25.89 6.92 25.88 7.04 25.81 7.1L24.97 7.8C24.9 7.87 24.79 7.86 24.72 7.78L24.72 7.78ZM25.79 6.85C25.74 6.78 25.64 6.78 25.57 6.83L24.74 7.53C24.68 7.59 24.67 7.69 24.73 7.76C24.79 7.83 24.88 7.83 24.95 7.78L25.78 7.08C25.85 7.02 25.85 6.92 25.79 6.85Z" fill="#FFFFFF" fill-opacity="1.000000" fill-rule="nonzero"/>
		<path id="Vector" d="M24.26 9.46C24.2 9.38 24.22 9.27 24.31 9.22L26.35 7.86C26.43 7.82 26.53 7.84 26.58 7.91C26.64 7.99 26.62 8.1 26.53 8.14L24.49 9.5C24.42 9.55 24.32 9.53 24.26 9.46Z" fill="#F3F3F3" fill-opacity="1.000000" fill-rule="nonzero"/>
		<path id="Vector" d="M24.25 9.46C24.19 9.38 24.21 9.26 24.29 9.2L26.33 7.84C26.42 7.78 26.53 7.8 26.59 7.9C26.65 7.98 26.63 8.1 26.55 8.16L24.5 9.52C24.42 9.58 24.31 9.55 24.25 9.46ZM26.57 7.92C26.52 7.85 26.43 7.83 26.36 7.87L24.32 9.23C24.25 9.28 24.22 9.38 24.28 9.46C24.33 9.53 24.42 9.55 24.49 9.5L26.53 8.14C26.6 8.09 26.62 7.99 26.57 7.92Z" fill="#FFFFFF" fill-opacity="1.000000" fill-rule="nonzero"/>
		<path id="Vector" d="M26.01 9.7C25.96 9.62 25.98 9.52 26.06 9.47L27.02 8.93C27.1 8.88 27.2 8.92 27.25 9C27.3 9.08 27.27 9.19 27.19 9.23L26.24 9.77C26.16 9.82 26.05 9.79 26.01 9.7L26.01 9.7Z" fill="#F3F3F3" fill-opacity="1.000000" fill-rule="nonzero"/>
		<path id="Vector" d="M25.99 9.72C25.95 9.62 25.97 9.52 26.05 9.47L27 8.93C27.09 8.88 27.2 8.92 27.25 9C27.3 9.09 27.27 9.2 27.19 9.25L26.24 9.79C26.16 9.83 26.04 9.8 25.99 9.72ZM27.24 9.01C27.19 8.93 27.1 8.91 27.03 8.95L26.08 9.49C26.01 9.54 25.98 9.63 26.02 9.7C26.06 9.79 26.16 9.81 26.23 9.76L27.18 9.22C27.25 9.19 27.27 9.09 27.24 9.01Z" fill="#FFFFFF" fill-opacity="1.000000" fill-rule="nonzero"/>
		<path id="Vector" d="M25.22 11.26C25.18 11.17 25.22 11.08 25.31 11.04L27.58 10.1C27.66 10.07 27.77 10.11 27.8 10.2C27.84 10.29 27.8 10.38 27.71 10.42L25.44 11.36C25.36 11.39 25.26 11.36 25.22 11.26Z" fill="#F3F3F3" fill-opacity="1.000000" fill-rule="nonzero"/>
		<path id="Vector" d="M25.21 11.28C25.17 11.18 25.21 11.08 25.3 11.03L27.57 10.09C27.61 10.07 27.66 10.08 27.71 10.1C27.75 10.12 27.78 10.15 27.8 10.2C27.84 10.29 27.8 10.4 27.71 10.44L25.44 11.38C25.4 11.4 25.35 11.4 25.3 11.38C25.26 11.36 25.23 11.32 25.21 11.28ZM27.78 10.21C27.74 10.13 27.65 10.09 27.58 10.11L25.31 11.05C25.23 11.09 25.2 11.18 25.23 11.26C25.27 11.35 25.36 11.38 25.43 11.36L27.7 10.42C27.78 10.38 27.81 10.29 27.78 10.21Z" fill="#FFFFFF" fill-opacity="1.000000" fill-rule="nonzero"/>
		<path id="Vector" d="M26.87 11.85C26.84 11.76 26.89 11.66 26.98 11.63L28.01 11.29C28.09 11.25 28.2 11.31 28.22 11.39C28.26 11.49 28.21 11.58 28.12 11.62L27.08 11.96C27 11.99 26.91 11.94 26.87 11.85L26.87 11.85Z" fill="#F3F3F3" fill-opacity="1.000000" fill-rule="nonzero"/>
		<path id="Vector" d="M26.86 11.86C26.83 11.77 26.87 11.66 26.98 11.63L28.01 11.29C28.11 11.25 28.21 11.31 28.25 11.41C28.28 11.5 28.24 11.6 28.13 11.64L27.1 11.98C27 12 26.9 11.96 26.86 11.86ZM28.22 11.42C28.2 11.33 28.11 11.29 28.02 11.31L26.99 11.65C26.91 11.67 26.87 11.77 26.9 11.85C26.92 11.93 27.02 11.98 27.1 11.96L28.13 11.62C28.21 11.58 28.25 11.5 28.22 11.42Z" fill="#FFFFFF" fill-opacity="1.000000" fill-rule="nonzero"/>
		<path id="Vector" d="M25.82 13.25C25.8 13.15 25.85 13.06 25.95 13.05L28.35 12.58C28.45 12.55 28.53 12.63 28.55 12.72C28.58 12.81 28.52 12.91 28.42 12.92L26.02 13.39C25.92 13.4 25.83 13.34 25.82 13.25L25.82 13.25Z" fill="#F3F3F3" fill-opacity="1.000000" fill-rule="nonzero"/>
		<path id="Vector" d="M25.79 13.25C25.77 13.14 25.84 13.05 25.94 13.02L28.34 12.55C28.43 12.53 28.53 12.6 28.55 12.71C28.58 12.81 28.5 12.91 28.41 12.93L26.01 13.4C25.91 13.42 25.82 13.35 25.79 13.25L25.79 13.25ZM28.53 12.72C28.52 12.64 28.43 12.58 28.35 12.59L25.95 13.06C25.87 13.07 25.81 13.16 25.83 13.25C25.84 13.33 25.92 13.39 26.01 13.38L28.41 12.91C28.49 12.88 28.55 12.8 28.53 12.72Z" fill="#FFFFFF" fill-opacity="1.000000" fill-rule="nonzero"/>
		<path id="Vector" d="M27.32 14.15C27.31 14.06 27.37 13.97 27.46 13.96L28.54 13.83C28.63 13.82 28.72 13.89 28.73 13.99C28.74 14.08 28.68 14.16 28.59 14.17L27.51 14.3C27.43 14.31 27.33 14.24 27.32 14.15Z" fill="#F3F3F3" fill-opacity="1.000000" fill-rule="nonzero"/>
		<path id="Vector" d="M27.31 14.15C27.3 14.04 27.37 13.95 27.46 13.94L28.54 13.81C28.63 13.8 28.73 13.87 28.74 13.97C28.75 14.08 28.68 14.17 28.59 14.19L27.51 14.31C27.41 14.33 27.32 14.26 27.31 14.15ZM28.73 13.99C28.72 13.9 28.63 13.83 28.55 13.85L27.47 13.97C27.39 13.99 27.33 14.07 27.34 14.15C27.36 14.23 27.44 14.3 27.52 14.29L28.6 14.16C28.68 14.15 28.74 14.07 28.73 13.99Z" fill="#FFFFFF" fill-opacity="1.000000" fill-rule="nonzero"/>
		<path id="Vector" d="M26.01 15.29C26.01 15.19 26.08 15.11 26.17 15.11L28.62 15.11C28.72 15.11 28.79 15.19 28.79 15.29C28.79 15.38 28.72 15.46 28.62 15.46L26.17 15.46C26.08 15.46 26.01 15.38 26.01 15.29Z" fill="#F3F3F3" fill-opacity="1.000000" fill-rule="nonzero"/>
		<path id="Vector" d="M25.99 15.29C25.99 15.18 26.08 15.1 26.17 15.1L28.62 15.1C28.72 15.1 28.8 15.18 28.8 15.29C28.8 15.39 28.72 15.48 28.62 15.48L26.17 15.48C26.08 15.48 25.99 15.39 25.99 15.29ZM28.77 15.3C28.77 15.22 28.7 15.14 28.62 15.14L26.17 15.14C26.09 15.14 26.02 15.21 26.02 15.3C26.02 15.38 26.09 15.46 26.17 15.46L28.62 15.46C28.7 15.45 28.77 15.38 28.77 15.3Z" fill="#FFFFFF" fill-opacity="1.000000" fill-rule="nonzero"/>
		<path id="Vector" d="M27.31 16.47C27.32 16.38 27.39 16.31 27.48 16.31L28.58 16.39C28.67 16.4 28.74 16.48 28.73 16.58C28.72 16.67 28.65 16.74 28.55 16.74L27.46 16.66C27.38 16.65 27.31 16.57 27.31 16.47Z" fill="#F3F3F3" fill-opacity="1.000000" fill-rule="nonzero"/>
		<path id="Vector" d="M27.3 16.47C27.31 16.37 27.39 16.3 27.48 16.3L28.58 16.38C28.67 16.39 28.75 16.47 28.74 16.58C28.73 16.68 28.65 16.75 28.55 16.75L27.46 16.67C27.37 16.66 27.3 16.57 27.3 16.47ZM28.73 16.58C28.74 16.5 28.67 16.41 28.59 16.41L27.5 16.33C27.41 16.33 27.34 16.39 27.33 16.48C27.32 16.57 27.39 16.65 27.47 16.65L28.56 16.73C28.65 16.73 28.72 16.66 28.73 16.58Z" fill="#FFFFFF" fill-opacity="1.000000" fill-rule="nonzero"/>
		<path id="Vector" d="M25.79 17.33C25.82 17.24 25.9 17.18 25.99 17.19L28.4 17.67C28.49 17.69 28.55 17.77 28.53 17.87C28.5 17.96 28.42 18.02 28.33 18.01L25.92 17.53C25.84 17.52 25.78 17.42 25.79 17.33Z" fill="#F3F3F3" fill-opacity="1.000000" fill-rule="nonzero"/>
		<path id="Vector" d="M25.78 17.33C25.81 17.22 25.9 17.16 25.99 17.18L28.4 17.66C28.49 17.68 28.56 17.78 28.54 17.88C28.52 17.99 28.42 18.04 28.33 18.03L25.92 17.55C25.83 17.53 25.77 17.43 25.78 17.33L25.78 17.33ZM28.52 17.88C28.53 17.8 28.48 17.72 28.4 17.69L25.99 17.21C25.91 17.2 25.83 17.25 25.81 17.34C25.79 17.42 25.84 17.51 25.92 17.53L28.33 18.01C28.42 18.02 28.49 17.96 28.52 17.88Z" fill="#FFFFFF" fill-opacity="1.000000" fill-rule="nonzero"/>
		<path id="Vector" d="M26.85 18.74C26.86 18.71 26.87 18.69 26.88 18.67C26.89 18.66 26.91 18.64 26.93 18.63C26.95 18.62 26.97 18.61 26.99 18.61C27.02 18.6 27.04 18.6 27.06 18.61L28.12 18.9C28.21 18.92 28.26 19.02 28.23 19.11C28.23 19.13 28.22 19.16 28.21 19.17C28.19 19.19 28.18 19.21 28.16 19.22C28.14 19.23 28.11 19.24 28.09 19.24C28.07 19.25 28.05 19.25 28.02 19.24L26.97 18.95C26.87 18.92 26.83 18.83 26.85 18.74Z" fill="#F3F3F3" fill-opacity="1.000000" fill-rule="nonzero"/>
		<path id="Vector" d="M26.84 18.74C26.86 18.64 26.97 18.57 27.06 18.61L28.12 18.9C28.21 18.92 28.27 19.03 28.25 19.12C28.22 19.22 28.12 19.29 28.02 19.25L26.97 18.96C26.87 18.94 26.82 18.84 26.84 18.74L26.84 18.74ZM28.21 19.12C28.24 19.04 28.19 18.95 28.11 18.92L27.05 18.63C26.97 18.61 26.89 18.65 26.86 18.75C26.84 18.83 26.89 18.92 26.97 18.95L28.02 19.24C28.11 19.25 28.19 19.21 28.21 19.12Z" fill="#FFFFFF" fill-opacity="1.000000" fill-rule="nonzero"/>
		<path id="Vector" d="M25.2 19.3C25.23 19.21 25.34 19.17 25.42 19.21L27.68 20.14C27.77 20.18 27.81 20.29 27.78 20.37C27.74 20.46 27.64 20.5 27.55 20.46L25.29 19.52C25.2 19.49 25.16 19.38 25.2 19.3Z" fill="#F3F3F3" fill-opacity="1.000000" fill-rule="nonzero"/>
		<path id="Vector" d="M25.18 19.29C25.2 19.24 25.24 19.21 25.28 19.19C25.32 19.17 25.37 19.17 25.42 19.18L27.68 20.12C27.78 20.16 27.81 20.26 27.78 20.37C27.76 20.41 27.73 20.45 27.68 20.47C27.64 20.49 27.59 20.49 27.54 20.47L25.28 19.53C25.18 19.49 25.15 19.38 25.18 19.29ZM27.75 20.36C27.79 20.27 27.75 20.18 27.67 20.14L25.41 19.21C25.33 19.17 25.24 19.22 25.21 19.3C25.17 19.38 25.21 19.48 25.29 19.51L27.55 20.45C27.64 20.47 27.73 20.44 27.75 20.36Z" fill="#FFFFFF" fill-opacity="1.000000" fill-rule="nonzero"/>
		<path id="Vector" d="M25.96 20.88C26.01 20.8 26.1 20.77 26.18 20.8L27.16 21.29C27.24 21.33 27.27 21.43 27.23 21.53C27.18 21.61 27.08 21.65 27 21.61L26.03 21.12C25.95 21.07 25.91 20.97 25.96 20.88Z" fill="#F3F3F3" fill-opacity="1.000000" fill-rule="nonzero"/>
		<path id="Vector" d="M25.95 20.87C25.99 20.78 26.1 20.74 26.19 20.79L27.17 21.28C27.26 21.33 27.3 21.44 27.25 21.53C27.2 21.62 27.1 21.66 27 21.61L26.03 21.12C25.94 21.08 25.9 20.97 25.95 20.87ZM27.21 21.52C27.25 21.43 27.23 21.34 27.14 21.31L26.17 20.81C26.1 20.78 26.01 20.81 25.96 20.88C25.92 20.97 25.95 21.06 26.03 21.09L27 21.59C27.09 21.62 27.18 21.6 27.21 21.52Z" fill="#FFFFFF" fill-opacity="1.000000" fill-rule="nonzero"/>
		<path id="Vector" d="M24.23 21.11C24.29 21.02 24.39 21 24.47 21.06L26.51 22.42C26.59 22.47 26.6 22.57 26.56 22.66C26.5 22.74 26.4 22.76 26.32 22.7L24.28 21.34C24.2 21.28 24.18 21.18 24.23 21.11Z" fill="#F3F3F3" fill-opacity="1.000000" fill-rule="nonzero"/>
		<path id="Vector" d="M24.22 21.09C24.28 21.01 24.4 20.99 24.48 21.04L26.52 22.4C26.6 22.46 26.63 22.56 26.57 22.66C26.51 22.74 26.39 22.76 26.31 22.71L24.27 21.35C24.18 21.29 24.16 21.18 24.22 21.09ZM26.53 22.64C26.58 22.57 26.57 22.47 26.5 22.42L24.46 21.06C24.39 21.01 24.29 21.04 24.25 21.11C24.2 21.18 24.21 21.28 24.28 21.33L26.32 22.69C26.39 22.74 26.49 22.71 26.53 22.64L26.53 22.64Z" fill="#FFFFFF" fill-opacity="1.000000" fill-rule="nonzero"/>
		<path id="Vector" d="M24.67 22.81C24.73 22.74 24.83 22.71 24.9 22.77L25.76 23.44C25.83 23.5 25.84 23.61 25.78 23.68C25.72 23.75 25.62 23.77 25.55 23.71L24.69 23.04C24.62 22.98 24.61 22.88 24.67 22.81Z" fill="#F3F3F3" fill-opacity="1.000000" fill-rule="nonzero"/>
		<path id="Vector" d="M24.66 22.8C24.72 22.71 24.83 22.7 24.92 22.76L25.77 23.43C25.85 23.49 25.87 23.61 25.81 23.69C25.75 23.77 25.63 23.78 25.55 23.72L24.69 23.05C24.61 23 24.6 22.88 24.66 22.8ZM25.78 23.68C25.84 23.61 25.83 23.51 25.76 23.45L24.9 22.78C24.83 22.74 24.74 22.75 24.68 22.82C24.62 22.89 24.63 22.98 24.7 23.04L25.56 23.71C25.63 23.76 25.72 23.75 25.78 23.68L25.78 23.68Z" fill="#FFFFFF" fill-opacity="1.000000" fill-rule="nonzero"/>
		<path id="Vector" d="M22.92 22.69C22.99 22.62 23.1 22.62 23.16 22.69L24.89 24.41C24.96 24.49 24.95 24.59 24.89 24.65C24.82 24.72 24.72 24.72 24.66 24.65L22.92 22.92C22.86 22.87 22.86 22.75 22.92 22.69Z" fill="#F3F3F3" fill-opacity="1.000000" fill-rule="nonzero"/>
		<path id="Vector" d="M22.92 22.68C22.96 22.64 23 22.63 23.05 22.63C23.1 22.63 23.14 22.64 23.18 22.68L24.91 24.4C24.95 24.44 24.97 24.48 24.97 24.53C24.97 24.58 24.95 24.63 24.91 24.66C24.88 24.7 24.83 24.71 24.79 24.71C24.74 24.71 24.69 24.7 24.66 24.66L22.92 22.94C22.84 22.87 22.84 22.75 22.92 22.68ZM24.89 24.64C24.95 24.58 24.95 24.47 24.89 24.41L23.16 22.69C23.1 22.63 22.99 22.63 22.93 22.69C22.87 22.75 22.87 22.85 22.93 22.91L24.67 24.64C24.73 24.71 24.82 24.71 24.89 24.64Z" fill="#FFFFFF" fill-opacity="1.000000" fill-rule="nonzero"/>
		<path id="Vector" d="M23.03 24.44C23.1 24.38 23.2 24.38 23.26 24.45L23.98 25.27C24.04 25.34 24.02 25.45 23.95 25.51C23.88 25.56 23.78 25.56 23.72 25.49L23 24.67C22.94 24.61 22.96 24.51 23.03 24.44Z" fill="#F3F3F3" fill-opacity="1.000000" fill-rule="nonzero"/>
		<path id="Vector" d="M23.01 24.44C23.1 24.37 23.2 24.38 23.27 24.45L23.99 25.27C24.06 25.34 24.05 25.46 23.96 25.53C23.88 25.6 23.78 25.59 23.71 25.52L22.99 24.7C22.93 24.61 22.93 24.5 23.01 24.44L23.01 24.44ZM23.95 25.51C24.02 25.45 24.02 25.35 23.98 25.28L23.26 24.46C23.2 24.4 23.11 24.39 23.04 24.45C22.97 24.51 22.97 24.6 23.01 24.67L23.73 25.49C23.79 25.56 23.88 25.56 23.95 25.51L23.95 25.51Z" fill="#FFFFFF" fill-opacity="1.000000" fill-rule="nonzero"/>
		<path id="Vector" d="M21.34 23.99C21.42 23.93 21.52 23.96 21.57 24.04L22.93 26.07C22.98 26.15 22.96 26.26 22.89 26.3C22.8 26.36 22.7 26.34 22.65 26.26L21.29 24.23C21.24 24.14 21.27 24.04 21.34 23.99L21.34 23.99Z" fill="#F3F3F3" fill-opacity="1.000000" fill-rule="nonzero"/>
		<path id="Vector" d="M21.34 23.98C21.42 23.92 21.54 23.95 21.6 24.03L22.96 26.06C23.01 26.14 22.99 26.26 22.9 26.32C22.82 26.37 22.7 26.35 22.64 26.27L21.28 24.24C21.22 24.14 21.24 24.04 21.34 23.98ZM22.89 26.29C22.96 26.24 22.98 26.15 22.93 26.08L21.57 24.05C21.52 23.98 21.43 23.97 21.35 24.02C21.28 24.06 21.25 24.16 21.3 24.23L22.66 26.26C22.71 26.32 22.82 26.34 22.89 26.29L22.89 26.29Z" fill="#FFFFFF" fill-opacity="1.000000" fill-rule="nonzero"/>
		<path id="Vector" d="M21.09 25.73C21.17 25.68 21.28 25.71 21.33 25.79L21.87 26.74C21.91 26.82 21.88 26.93 21.79 26.97C21.71 27.02 21.61 27 21.56 26.91L21.02 25.96C20.99 25.88 21.01 25.78 21.09 25.73L21.09 25.73Z" fill="#F3F3F3" fill-opacity="1.000000" fill-rule="nonzero"/>
		<path id="Vector" d="M21.09 25.72C21.18 25.67 21.29 25.69 21.34 25.78L21.88 26.73C21.92 26.81 21.9 26.93 21.81 26.97C21.71 27.02 21.61 27 21.56 26.91L21.02 25.96C20.97 25.88 21 25.78 21.09 25.72L21.09 25.72ZM21.79 26.96C21.87 26.91 21.9 26.82 21.85 26.75L21.31 25.8C21.27 25.73 21.17 25.71 21.1 25.74C21.03 25.79 21 25.88 21.04 25.95L21.58 26.9C21.62 26.97 21.72 27.01 21.79 26.96Z" fill="#FFFFFF" fill-opacity="1.000000" fill-rule="nonzero"/>
		<path id="Vector" d="M19.53 24.95C19.62 24.92 19.72 24.95 19.75 25.04L20.7 27.3C20.74 27.38 20.69 27.49 20.61 27.52C20.53 27.56 20.42 27.52 20.39 27.44L19.44 25.18C19.4 25.1 19.45 24.99 19.53 24.95Z" fill="#F3F3F3" fill-opacity="1.000000" fill-rule="nonzero"/>
		<path id="Vector" d="M19.53 24.94C19.62 24.91 19.73 24.94 19.78 25.04L20.73 27.3C20.74 27.35 20.74 27.4 20.72 27.44C20.7 27.48 20.67 27.52 20.62 27.54C20.53 27.57 20.42 27.54 20.38 27.44L19.43 25.18C19.39 25.1 19.44 24.99 19.53 24.94ZM20.6 27.51C20.68 27.48 20.72 27.38 20.68 27.31L19.73 25.05C19.7 24.97 19.6 24.93 19.52 24.97C19.44 25 19.4 25.1 19.44 25.17L20.39 27.43C20.43 27.51 20.52 27.55 20.6 27.51Z" fill="#FFFFFF" fill-opacity="1.000000" fill-rule="nonzero"/>
		<path id="Vector" d="M18.96 26.62C19.05 26.59 19.14 26.63 19.18 26.73L19.52 27.76C19.55 27.84 19.5 27.95 19.41 27.97C19.32 28 19.23 27.96 19.19 27.86L18.85 26.83C18.82 26.75 18.86 26.66 18.96 26.62L18.96 26.62Z" fill="#F3F3F3" fill-opacity="1.000000" fill-rule="nonzero"/>
		<path id="Vector" d="M18.94 26.61C18.99 26.59 19.04 26.59 19.08 26.61C19.13 26.63 19.16 26.67 19.18 26.71L19.52 27.75C19.55 27.84 19.5 27.95 19.4 27.98C19.36 28 19.31 28 19.26 27.98C19.22 27.96 19.18 27.92 19.17 27.88L18.83 26.84C18.8 26.75 18.85 26.64 18.94 26.61ZM19.4 27.96C19.48 27.93 19.53 27.84 19.51 27.76L19.17 26.73C19.14 26.64 19.05 26.61 18.97 26.63C18.89 26.66 18.84 26.75 18.86 26.83L19.2 27.86C19.21 27.88 19.22 27.9 19.23 27.92C19.25 27.93 19.26 27.95 19.28 27.96C19.3 27.96 19.32 27.97 19.34 27.97C19.36 27.97 19.38 27.97 19.4 27.96L19.4 27.96Z" fill="#FFFFFF" fill-opacity="1.000000" fill-rule="nonzero"/>
		<path id="Vector" d="M17.57 25.55C17.67 25.53 17.76 25.59 17.77 25.68L18.26 28.09C18.29 28.18 18.22 28.26 18.12 28.29C18.03 28.31 17.93 28.25 17.92 28.16L17.43 25.75C17.42 25.67 17.48 25.58 17.57 25.55L17.57 25.55Z" fill="#F3F3F3" fill-opacity="1.000000" fill-rule="nonzero"/>
		<path id="Vector" d="M17.57 25.54C17.68 25.52 17.77 25.59 17.79 25.68L18.29 28.09C18.31 28.18 18.24 28.29 18.15 28.3C18.04 28.32 17.95 28.25 17.92 28.16L17.43 25.75C17.41 25.66 17.47 25.56 17.57 25.54L17.57 25.54ZM18.12 28.27C18.2 28.26 18.26 28.18 18.25 28.09L17.76 25.68C17.75 25.6 17.65 25.54 17.57 25.56C17.49 25.58 17.43 25.66 17.44 25.75L17.94 28.16C17.96 28.24 18.04 28.29 18.12 28.27L18.12 28.27Z" fill="#FFFFFF" fill-opacity="1.000000" fill-rule="nonzero"/>
		<path id="Vector" d="M16.68 27.08C16.77 27.07 16.86 27.12 16.88 27.22L17.02 28.3C17.03 28.39 16.96 28.47 16.87 28.49C16.77 28.5 16.69 28.44 16.67 28.34L16.53 27.27C16.52 27.17 16.59 27.09 16.68 27.08Z" fill="#F3F3F3" fill-opacity="1.000000" fill-rule="nonzero"/>
		<path id="Vector" d="M16.68 27.07C16.79 27.05 16.88 27.12 16.89 27.22L17.03 28.3C17.04 28.39 16.97 28.49 16.87 28.5C16.76 28.51 16.67 28.44 16.66 28.34L16.52 27.27C16.5 27.17 16.57 27.08 16.68 27.07ZM16.86 28.47C16.94 28.46 17.01 28.38 17 28.3L16.86 27.22C16.84 27.14 16.76 27.08 16.68 27.09C16.6 27.1 16.53 27.18 16.54 27.27L16.68 28.34C16.69 28.43 16.77 28.49 16.86 28.47Z" fill="#FFFFFF" fill-opacity="1.000000" fill-rule="nonzero"/>
		<path id="Vector" d="M15.47 25.76C15.57 25.76 15.65 25.83 15.65 25.93L15.65 28.38C15.65 28.47 15.57 28.54 15.47 28.54C15.38 28.54 15.3 28.47 15.3 28.38L15.3 25.93C15.31 25.83 15.38 25.76 15.47 25.76Z" fill="#F3F3F3" fill-opacity="1.000000" fill-rule="nonzero"/>
		<path id="Vector" d="M15.47 25.75C15.58 25.75 15.66 25.83 15.66 25.93L15.66 28.38C15.66 28.47 15.58 28.56 15.47 28.56C15.37 28.56 15.28 28.47 15.28 28.38L15.28 25.93C15.28 25.83 15.38 25.75 15.47 25.75ZM15.47 28.53C15.55 28.53 15.64 28.46 15.64 28.38L15.64 25.93C15.64 25.85 15.57 25.78 15.47 25.78C15.39 25.78 15.31 25.85 15.31 25.93L15.31 28.38C15.32 28.46 15.39 28.53 15.47 28.53Z" fill="#FFFFFF" fill-opacity="1.000000" fill-rule="nonzero"/>
		<path id="Vector" d="M14.3 27.08C14.39 27.09 14.46 27.16 14.46 27.25L14.38 28.34C14.37 28.44 14.29 28.51 14.19 28.5C14.1 28.49 14.03 28.41 14.03 28.32L14.11 27.23C14.12 27.14 14.2 27.07 14.3 27.08Z" fill="#F3F3F3" fill-opacity="1.000000" fill-rule="nonzero"/>
		<path id="Vector" d="M14.3 27.07C14.4 27.08 14.47 27.16 14.47 27.25L14.39 28.34C14.38 28.44 14.3 28.52 14.19 28.51C14.09 28.5 14.02 28.41 14.02 28.32L14.1 27.23C14.11 27.12 14.19 27.05 14.3 27.07ZM14.19 28.49C14.27 28.49 14.36 28.43 14.36 28.34L14.44 27.25C14.44 27.17 14.38 27.1 14.29 27.09C14.2 27.09 14.12 27.15 14.12 27.23L14.04 28.32C14.04 28.4 14.11 28.47 14.19 28.49Z" fill="#FFFFFF" fill-opacity="1.000000" fill-rule="nonzero"/>
		<path id="Vector" d="M13.42 25.55C13.51 25.58 13.57 25.66 13.56 25.75L13.08 28.16C13.06 28.25 12.97 28.31 12.88 28.29C12.79 28.26 12.73 28.18 12.74 28.09L13.22 25.68C13.23 25.6 13.32 25.54 13.42 25.55Z" fill="#F3F3F3" fill-opacity="1.000000" fill-rule="nonzero"/>
		<path id="Vector" d="M13.42 25.54C13.52 25.56 13.58 25.66 13.57 25.75L13.09 28.16C13.07 28.25 12.97 28.32 12.87 28.3C12.76 28.27 12.7 28.18 12.71 28.09L13.2 25.68C13.22 25.59 13.31 25.53 13.42 25.54L13.42 25.54ZM12.87 28.27C12.95 28.29 13.03 28.24 13.06 28.16L13.54 25.75C13.55 25.67 13.5 25.59 13.41 25.56C13.32 25.55 13.24 25.6 13.22 25.68L12.74 28.09C12.73 28.18 12.79 28.25 12.87 28.27Z" fill="#FFFFFF" fill-opacity="1.000000" fill-rule="nonzero"/>
		<path id="Vector" d="M12.01 26.61C12.1 26.63 12.16 26.73 12.14 26.82L11.85 27.88C11.82 27.97 11.73 28.02 11.64 27.99C11.61 27.99 11.59 27.98 11.57 27.96C11.56 27.95 11.54 27.93 11.53 27.91C11.52 27.89 11.51 27.87 11.5 27.85C11.5 27.83 11.5 27.8 11.51 27.78L11.8 26.73C11.82 26.63 11.92 26.59 12.01 26.61Z" fill="#F3F3F3" fill-opacity="1.000000" fill-rule="nonzero"/>
		<path id="Vector" d="M12.01 26.6C12.1 26.62 12.18 26.73 12.14 26.82L11.85 27.88C11.82 27.97 11.72 28.03 11.62 28C11.53 27.98 11.46 27.88 11.5 27.78L11.79 26.73C11.81 26.63 11.91 26.57 12.01 26.6L12.01 26.6ZM11.62 27.97C11.71 27.99 11.8 27.95 11.82 27.86L12.12 26.81C12.14 26.73 12.09 26.64 12 26.62C11.92 26.6 11.82 26.64 11.8 26.73L11.51 27.78C11.5 27.86 11.54 27.95 11.62 27.97Z" fill="#FFFFFF" fill-opacity="1.000000" fill-rule="nonzero"/>
		<path id="Vector" d="M11.44 24.95C11.53 24.99 11.57 25.1 11.53 25.18L10.59 27.44C10.56 27.52 10.45 27.57 10.37 27.52C10.29 27.48 10.24 27.38 10.27 27.3L11.21 25.04C11.25 24.95 11.35 24.91 11.44 24.95Z" fill="#F3F3F3" fill-opacity="1.000000" fill-rule="nonzero"/>
		<path id="Vector" d="M11.44 24.94C11.48 24.96 11.52 24.99 11.54 25.04C11.56 25.08 11.56 25.13 11.54 25.18L10.6 27.44C10.57 27.54 10.46 27.57 10.36 27.54C10.31 27.52 10.28 27.48 10.26 27.44C10.24 27.4 10.23 27.35 10.25 27.3L11.19 25.04C11.24 24.94 11.34 24.9 11.44 24.94ZM10.37 27.51C10.45 27.55 10.54 27.51 10.58 27.43L11.52 25.17C11.55 25.08 11.51 25 11.42 24.97C11.34 24.93 11.25 24.97 11.21 25.05L10.27 27.31C10.25 27.38 10.29 27.48 10.37 27.51Z" fill="#FFFFFF" fill-opacity="1.000000" fill-rule="nonzero"/>
		<path id="Vector" d="M9.85 25.71C9.93 25.75 9.97 25.85 9.93 25.93L9.44 26.9C9.39 26.98 9.3 27.02 9.21 26.97C9.13 26.92 9.09 26.83 9.13 26.75L9.62 25.78C9.66 25.69 9.76 25.66 9.85 25.71Z" fill="#F3F3F3" fill-opacity="1.000000" fill-rule="nonzero"/>
		<path id="Vector" d="M9.85 25.69C9.95 25.74 9.98 25.85 9.93 25.94L9.44 26.91C9.39 27.01 9.29 27.04 9.2 27C9.1 26.95 9.07 26.84 9.11 26.75L9.61 25.78C9.65 25.68 9.76 25.65 9.85 25.69ZM9.21 26.97C9.29 27.01 9.38 26.98 9.42 26.9L9.91 25.93C9.95 25.86 9.91 25.76 9.84 25.72C9.76 25.68 9.66 25.71 9.63 25.79L9.14 26.76C9.1 26.83 9.14 26.93 9.21 26.97Z" fill="#FFFFFF" fill-opacity="1.000000" fill-rule="nonzero"/>
		<path id="Vector" d="M9.62 23.97C9.7 24.03 9.72 24.13 9.66 24.2L8.3 26.23C8.26 26.32 8.15 26.33 8.07 26.28C7.99 26.22 7.96 26.12 8.02 26.05L9.38 24.02C9.43 23.93 9.54 23.91 9.62 23.97Z" fill="#F3F3F3" fill-opacity="1.000000" fill-rule="nonzero"/>
		<path id="Vector" d="M9.62 23.96C9.7 24.02 9.72 24.13 9.68 24.22L8.32 26.25C8.26 26.33 8.15 26.35 8.06 26.29C7.98 26.23 7.95 26.12 8 26.03L9.36 24C9.42 23.92 9.54 23.9 9.62 23.96ZM8.07 26.27C8.14 26.32 8.25 26.3 8.29 26.23L9.65 24.2C9.7 24.13 9.68 24.04 9.61 23.99C9.54 23.95 9.43 23.96 9.38 24.03L8.02 26.05C7.98 26.12 8 26.22 8.07 26.27Z" fill="#FFFFFF" fill-opacity="1.000000" fill-rule="nonzero"/>
		<path id="Vector" d="M7.91 24.4C7.98 24.46 8 24.57 7.94 24.64L7.26 25.49C7.2 25.56 7.1 25.58 7.03 25.52C6.95 25.46 6.93 25.35 6.99 25.28L7.67 24.43C7.73 24.36 7.83 24.34 7.91 24.4Z" fill="#F3F3F3" fill-opacity="1.000000" fill-rule="nonzero"/>
		<path id="Vector" d="M7.92 24.39C8 24.45 8.01 24.57 7.95 24.65L7.27 25.51C7.21 25.59 7.1 25.6 7.01 25.53C6.93 25.47 6.92 25.35 6.98 25.27L7.66 24.41C7.72 24.33 7.83 24.32 7.92 24.39ZM7.04 25.51C7.11 25.56 7.2 25.55 7.26 25.48L7.94 24.63C7.99 24.56 7.98 24.46 7.91 24.4C7.83 24.34 7.74 24.36 7.68 24.43L7 25.28C6.95 25.35 6.97 25.46 7.04 25.51Z" fill="#FFFFFF" fill-opacity="1.000000" fill-rule="nonzero"/>
		<path id="Vector" d="M8.02 22.64C8.09 22.71 8.09 22.82 8.02 22.88L6.29 24.6C6.22 24.67 6.11 24.66 6.05 24.6C5.99 24.54 5.98 24.43 6.05 24.37L7.78 22.64C7.85 22.57 7.95 22.57 8.02 22.64Z" fill="#F3F3F3" fill-opacity="1.000000" fill-rule="nonzero"/>
		<path id="Vector" d="M8.03 22.63C8.07 22.67 8.09 22.71 8.09 22.76C8.09 22.81 8.07 22.86 8.03 22.89L6.3 24.61C6.26 24.65 6.22 24.67 6.17 24.67C6.12 24.67 6.07 24.65 6.04 24.61C6.01 24.58 5.99 24.53 5.99 24.49C5.99 24.44 6.01 24.39 6.04 24.36L7.78 22.63C7.81 22.6 7.86 22.58 7.91 22.58C7.95 22.58 8 22.6 8.03 22.63ZM6.05 24.6C6.11 24.66 6.22 24.66 6.27 24.6L8.01 22.88C8.07 22.82 8.07 22.71 8.01 22.66C7.95 22.6 7.85 22.6 7.79 22.66L6.05 24.38C5.99 24.44 5.99 24.53 6.05 24.6L6.05 24.6Z" fill="#FFFFFF" fill-opacity="1.000000" fill-rule="nonzero"/>
		<path id="Vector" d="M6.26 22.74C6.32 22.81 6.32 22.91 6.25 22.97L5.42 23.68C5.35 23.73 5.24 23.72 5.18 23.65C5.12 23.58 5.12 23.48 5.2 23.42L6.03 22.71C6.1 22.65 6.2 22.67 6.26 22.74Z" fill="#F3F3F3" fill-opacity="1.000000" fill-rule="nonzero"/>
		<path id="Vector" d="M6.27 22.73C6.34 22.81 6.33 22.92 6.26 22.98L5.43 23.69C5.36 23.76 5.24 23.75 5.17 23.66C5.1 23.58 5.11 23.46 5.18 23.41L6.02 22.7C6.09 22.63 6.2 22.64 6.27 22.73L6.27 22.73ZM5.2 23.65C5.25 23.72 5.35 23.72 5.42 23.68L6.25 22.97C6.31 22.91 6.32 22.82 6.26 22.75C6.2 22.68 6.11 22.68 6.04 22.73L5.21 23.43C5.14 23.49 5.14 23.58 5.2 23.65Z" fill="#FFFFFF" fill-opacity="1.000000" fill-rule="nonzero"/>
		<path id="Vector" d="M6.73 21.05C6.79 21.13 6.77 21.24 6.68 21.28L4.64 22.64C4.56 22.69 4.46 22.67 4.41 22.6C4.35 22.51 4.37 22.41 4.46 22.36L6.5 21C6.57 20.95 6.67 20.98 6.73 21.05L6.73 21.05Z" fill="#F3F3F3" fill-opacity="1.000000" fill-rule="nonzero"/>
		<path id="Vector" d="M6.74 21.05C6.8 21.13 6.78 21.25 6.7 21.31L4.66 22.67C4.57 22.73 4.46 22.7 4.4 22.61C4.34 22.53 4.36 22.41 4.44 22.35L6.49 20.99C6.57 20.93 6.69 20.95 6.74 21.05ZM4.42 22.58C4.47 22.66 4.56 22.68 4.63 22.63L6.67 21.27C6.74 21.22 6.77 21.13 6.71 21.05C6.66 20.98 6.57 20.95 6.5 21L4.46 22.36C4.39 22.42 4.37 22.51 4.42 22.58Z" fill="#FFFFFF" fill-opacity="1.000000" fill-rule="nonzero"/>
		<path id="Vector" d="M4.98 20.8C5.03 20.88 5.01 20.99 4.93 21.04L3.97 21.58C3.89 21.62 3.79 21.59 3.74 21.51C3.69 21.42 3.72 21.32 3.8 21.27L4.75 20.73C4.83 20.68 4.94 20.72 4.98 20.8L4.98 20.8Z" fill="#F3F3F3" fill-opacity="1.000000" fill-rule="nonzero"/>
		<path id="Vector" d="M5 20.79C5.04 20.88 5.02 20.99 4.94 21.04L3.99 21.58C3.9 21.62 3.79 21.59 3.74 21.51C3.69 21.41 3.72 21.31 3.8 21.26L4.75 20.72C4.83 20.67 4.95 20.71 5 20.79L5 20.79ZM3.75 21.49C3.8 21.58 3.89 21.6 3.96 21.55L4.91 21.01C4.98 20.97 5.01 20.87 4.97 20.8C4.93 20.72 4.83 20.7 4.76 20.74L3.81 21.28C3.74 21.32 3.72 21.41 3.75 21.49Z" fill="#FFFFFF" fill-opacity="1.000000" fill-rule="nonzero"/>
		<path id="Vector" d="M5.77 19.24C5.81 19.34 5.77 19.43 5.68 19.46L3.41 20.4C3.33 20.44 3.22 20.39 3.19 20.31C3.15 20.21 3.19 20.12 3.28 20.09L5.55 19.15C5.63 19.11 5.74 19.15 5.77 19.24Z" fill="#F3F3F3" fill-opacity="1.000000" fill-rule="nonzero"/>
		<path id="Vector" d="M5.78 19.23C5.82 19.32 5.78 19.43 5.69 19.48L3.42 20.41C3.38 20.43 3.33 20.43 3.29 20.41C3.24 20.39 3.21 20.35 3.19 20.31C3.15 20.21 3.19 20.11 3.28 20.06L5.55 19.12C5.59 19.11 5.64 19.11 5.69 19.13C5.73 19.15 5.77 19.18 5.78 19.23ZM3.21 20.3C3.25 20.38 3.34 20.41 3.41 20.39L5.68 19.45C5.76 19.42 5.79 19.32 5.76 19.24C5.72 19.16 5.63 19.12 5.56 19.15L3.29 20.09C3.21 20.12 3.18 20.21 3.21 20.3L3.21 20.3Z" fill="#FFFFFF" fill-opacity="1.000000" fill-rule="nonzero"/>
		<path id="Vector" d="M4.12 18.65C4.15 18.75 4.1 18.84 4.01 18.88L2.98 19.22C2.9 19.25 2.79 19.19 2.77 19.11C2.73 19.02 2.78 18.92 2.87 18.89L3.9 18.55C3.99 18.51 4.08 18.56 4.12 18.65Z" fill="#F3F3F3" fill-opacity="1.000000" fill-rule="nonzero"/>
		<path id="Vector" d="M4.13 18.64C4.16 18.74 4.12 18.84 4.01 18.88L2.98 19.22C2.88 19.25 2.78 19.19 2.74 19.1C2.71 19.01 2.76 18.9 2.86 18.87L3.89 18.53C3.99 18.5 4.09 18.55 4.13 18.64L4.13 18.64ZM2.77 19.09C2.79 19.17 2.88 19.22 2.97 19.19L4 18.85C4.08 18.83 4.12 18.74 4.09 18.66C4.07 18.57 3.97 18.53 3.89 18.55L2.86 18.89C2.78 18.92 2.74 19.01 2.77 19.09Z" fill="#FFFFFF" fill-opacity="1.000000" fill-rule="nonzero"/>
		<path id="Vector" d="M5.17 17.26C5.2 17.35 5.14 17.45 5.04 17.46L2.64 17.93C2.54 17.95 2.46 17.88 2.44 17.79C2.42 17.69 2.47 17.6 2.57 17.59L4.97 17.12C5.07 17.11 5.16 17.16 5.17 17.26Z" fill="#F3F3F3" fill-opacity="1.000000" fill-rule="nonzero"/>
		<path id="Vector" d="M5.2 17.26C5.22 17.36 5.15 17.46 5.05 17.48L2.65 17.95C2.56 17.97 2.46 17.9 2.44 17.8C2.41 17.69 2.49 17.6 2.58 17.58L4.98 17.11C5.08 17.08 5.17 17.15 5.2 17.26ZM2.46 17.79C2.47 17.87 2.56 17.93 2.64 17.92L5.04 17.45C5.12 17.43 5.18 17.34 5.16 17.26C5.15 17.18 5.07 17.12 4.98 17.13L2.58 17.6C2.5 17.62 2.44 17.7 2.46 17.79L2.46 17.79Z" fill="#FFFFFF" fill-opacity="1.000000" fill-rule="nonzero"/>
		<path id="Vector" d="M3.67 16.36C3.68 16.45 3.62 16.53 3.53 16.54L2.45 16.67C2.36 16.68 2.27 16.61 2.26 16.52C2.25 16.43 2.31 16.34 2.4 16.33L3.48 16.2C3.56 16.19 3.66 16.26 3.67 16.36Z" fill="#F3F3F3" fill-opacity="1.000000" fill-rule="nonzero"/>
		<path id="Vector" d="M3.68 16.36C3.69 16.46 3.62 16.56 3.53 16.57L2.45 16.7C2.36 16.71 2.26 16.64 2.25 16.53C2.24 16.43 2.31 16.33 2.4 16.32L3.48 16.19C3.58 16.18 3.67 16.25 3.68 16.36L3.68 16.36ZM2.26 16.52C2.27 16.6 2.36 16.67 2.44 16.66L3.52 16.53C3.6 16.52 3.66 16.44 3.65 16.36C3.64 16.27 3.55 16.2 3.47 16.21L2.39 16.34C2.31 16.36 2.25 16.44 2.26 16.52Z" fill="#FFFFFF" fill-opacity="1.000000" fill-rule="nonzero"/>
		<path id="Vector" d="M4.98 15.22C4.98 15.31 4.91 15.39 4.82 15.39L2.37 15.39C2.27 15.39 2.2 15.31 2.2 15.22C2.2 15.12 2.27 15.04 2.37 15.04L4.82 15.04C4.91 15.04 4.98 15.12 4.98 15.22L4.98 15.22Z" fill="#F3F3F3" fill-opacity="1.000000" fill-rule="nonzero"/>
		<path id="Vector" d="M5 15.22C5 15.32 4.91 15.41 4.82 15.41L2.37 15.41C2.27 15.41 2.19 15.32 2.19 15.22C2.19 15.11 2.27 15.03 2.37 15.03L4.82 15.03C4.91 15.03 5 15.11 5 15.22ZM2.22 15.21C2.22 15.29 2.29 15.37 2.37 15.37L4.82 15.37C4.9 15.37 4.97 15.3 4.97 15.21C4.97 15.12 4.9 15.04 4.82 15.04L2.37 15.04C2.29 15.05 2.22 15.12 2.22 15.21Z" fill="#FFFFFF" fill-opacity="1.000000" fill-rule="nonzero"/>
		<path id="Vector" d="M3.68 14.03C3.67 14.13 3.6 14.2 3.51 14.2L2.41 14.11C2.32 14.1 2.25 14.02 2.26 13.93C2.27 13.83 2.34 13.76 2.44 13.76L3.53 13.85C3.61 13.86 3.68 13.94 3.68 14.03Z" fill="#E2E2E2" fill-opacity="1.000000" fill-rule="nonzero"/>
		<path id="Vector" d="M3.69 14.03C3.68 14.14 3.6 14.21 3.51 14.21L2.41 14.13C2.32 14.11 2.24 14.03 2.25 13.93C2.26 13.82 2.35 13.75 2.44 13.75L3.53 13.83C3.62 13.85 3.69 13.94 3.69 14.03ZM2.26 13.93C2.25 14.01 2.32 14.09 2.4 14.09L3.49 14.17C3.58 14.17 3.65 14.11 3.66 14.02C3.67 13.94 3.6 13.86 3.52 13.86L2.43 13.77C2.35 13.77 2.27 13.85 2.26 13.93Z" fill="#FFFFFF" fill-opacity="1.000000" fill-rule="nonzero"/>
		<path id="Vector" d="M5.2 13.18C5.17 13.27 5.09 13.33 5 13.32L2.59 12.82C2.5 12.8 2.44 12.72 2.46 12.63C2.49 12.53 2.57 12.47 2.66 12.48L5.07 12.97C5.15 12.99 5.21 13.08 5.2 13.18Z" fill="#F3F3F3" fill-opacity="1.000000" fill-rule="nonzero"/>
		<path id="Vector" d="M5.21 13.18C5.18 13.28 5.09 13.34 5 13.33L2.59 12.85C2.5 12.82 2.43 12.73 2.45 12.63C2.47 12.52 2.57 12.46 2.66 12.47L5.07 12.95C5.16 12.98 5.22 13.07 5.21 13.18ZM2.47 12.63C2.46 12.71 2.51 12.79 2.59 12.81L5 13.29C5.08 13.31 5.16 13.26 5.18 13.16C5.2 13.08 5.15 13 5.07 12.98L2.66 12.5C2.57 12.48 2.5 12.54 2.47 12.63Z" fill="#FFFFFF" fill-opacity="1.000000" fill-rule="nonzero"/>
		<path id="Vector" d="M4.14 11.77C4.13 11.79 4.12 11.81 4.11 11.83C4.1 11.85 4.08 11.87 4.06 11.88C4.04 11.89 4.02 11.9 4 11.9C3.97 11.9 3.95 11.9 3.93 11.9L2.87 11.6C2.78 11.58 2.73 11.49 2.76 11.39C2.76 11.37 2.77 11.35 2.78 11.33C2.8 11.31 2.81 11.3 2.83 11.29C2.85 11.27 2.88 11.27 2.9 11.26C2.92 11.26 2.94 11.26 2.97 11.26L4.02 11.56C4.12 11.58 4.16 11.67 4.14 11.77Z" fill="#F3F3F3" fill-opacity="1.000000" fill-rule="nonzero"/>
		<path id="Vector" d="M4.15 11.77C4.13 11.86 4.02 11.93 3.93 11.9L2.87 11.6C2.78 11.58 2.72 11.48 2.74 11.38C2.77 11.29 2.87 11.22 2.97 11.25L4.02 11.55C4.12 11.57 4.17 11.66 4.15 11.77ZM2.78 11.38C2.76 11.46 2.8 11.56 2.88 11.58L3.94 11.87C4.02 11.9 4.1 11.85 4.13 11.76C4.15 11.67 4.1 11.58 4.02 11.56L2.97 11.26C2.88 11.25 2.8 11.3 2.78 11.38Z" fill="#FFFFFF" fill-opacity="1.000000" fill-rule="nonzero"/>
		<path id="Vector" d="M5.79 11.21C5.76 11.3 5.65 11.33 5.57 11.3L3.31 10.36C3.22 10.33 3.18 10.22 3.21 10.14C3.25 10.04 3.35 10.01 3.44 10.04L5.7 10.98C5.79 11.02 5.83 11.12 5.79 11.21Z" fill="#F3F3F3" fill-opacity="1.000000" fill-rule="nonzero"/>
		<path id="Vector" d="M5.81 11.22C5.79 11.26 5.75 11.3 5.71 11.32C5.67 11.34 5.62 11.34 5.57 11.32L3.31 10.38C3.21 10.35 3.18 10.24 3.21 10.14C3.23 10.09 3.26 10.06 3.31 10.04C3.35 10.02 3.4 10.02 3.45 10.03L5.71 10.97C5.81 11.02 5.84 11.12 5.81 11.22ZM3.24 10.15C3.2 10.23 3.24 10.33 3.32 10.36L5.58 11.3C5.66 11.33 5.75 11.29 5.78 11.21C5.82 11.12 5.78 11.03 5.7 10.99L3.44 10.06C3.35 10.03 3.26 10.07 3.24 10.15Z" fill="#FFFFFF" fill-opacity="1.000000" fill-rule="nonzero"/>
		<path id="Vector" d="M5.03 9.62C4.98 9.7 4.89 9.74 4.81 9.7L3.83 9.21C3.75 9.18 3.72 9.07 3.76 8.98C3.81 8.89 3.9 8.86 3.99 8.89L4.96 9.39C5.04 9.43 5.08 9.54 5.03 9.62Z" fill="#F3F3F3" fill-opacity="1.000000" fill-rule="nonzero"/>
		<path id="Vector" d="M5.04 9.63C5 9.73 4.89 9.76 4.8 9.72L3.82 9.22C3.73 9.18 3.69 9.07 3.74 8.98C3.79 8.88 3.89 8.85 3.99 8.89L4.96 9.39C5.05 9.42 5.09 9.54 5.04 9.63ZM3.78 8.99C3.74 9.07 3.76 9.16 3.85 9.2L4.82 9.69C4.89 9.73 4.98 9.69 5.03 9.62C5.07 9.54 5.04 9.45 4.96 9.41L3.98 8.92C3.9 8.88 3.81 8.91 3.78 8.99L3.78 8.99Z" fill="#FFFFFF" fill-opacity="1.000000" fill-rule="nonzero"/>
		<path id="Vector" d="M6.76 9.4C6.7 9.48 6.6 9.5 6.52 9.45L4.49 8.1C4.41 8.05 4.4 7.94 4.44 7.86C4.49 7.78 4.6 7.76 4.68 7.82L6.72 9.18C6.79 9.22 6.81 9.33 6.76 9.4Z" fill="#F3F3F3" fill-opacity="1.000000" fill-rule="nonzero"/>
		<path id="Vector" d="M6.77 9.41C6.71 9.49 6.59 9.52 6.51 9.47L4.48 8.11C4.4 8.05 4.37 7.94 4.43 7.85C4.49 7.77 4.61 7.75 4.69 7.79L6.72 9.15C6.81 9.21 6.83 9.33 6.77 9.41ZM4.46 7.86C4.41 7.93 4.42 8.04 4.49 8.09L6.53 9.45C6.6 9.49 6.7 9.47 6.74 9.4C6.79 9.33 6.78 9.22 6.71 9.18L4.67 7.82C4.6 7.77 4.5 7.79 4.46 7.86Z" fill="#FFFFFF" fill-opacity="1.000000" fill-rule="nonzero"/>
		<path id="Vector" d="M6.32 7.7C6.26 7.77 6.16 7.79 6.09 7.73L5.23 7.06C5.16 7.01 5.15 6.9 5.21 6.83C5.27 6.76 5.37 6.74 5.44 6.79L6.3 7.46C6.37 7.52 6.38 7.63 6.32 7.7Z" fill="#F3F3F3" fill-opacity="1.000000" fill-rule="nonzero"/>
		<path id="Vector" d="M6.33 7.71C6.27 7.79 6.16 7.8 6.08 7.75L5.22 7.08C5.14 7.02 5.12 6.9 5.18 6.82C5.24 6.74 5.36 6.72 5.44 6.78L6.3 7.45C6.38 7.51 6.39 7.63 6.33 7.71L6.33 7.71ZM5.21 6.83C5.15 6.9 5.16 6.99 5.23 7.05L6.09 7.72C6.16 7.77 6.25 7.76 6.31 7.69C6.37 7.62 6.36 7.52 6.29 7.46L5.43 6.79C5.36 6.75 5.27 6.76 5.21 6.83Z" fill="#FFFFFF" fill-opacity="1.000000" fill-rule="nonzero"/>
		<path id="Vector" d="M8.07 7.82C8 7.89 7.89 7.89 7.83 7.82L6.09 6.09C6.02 6.02 6.03 5.91 6.09 5.86C6.16 5.79 6.26 5.79 6.32 5.86L8.06 7.58C8.13 7.64 8.13 7.76 8.07 7.82L8.07 7.82Z" fill="#F3F3F3" fill-opacity="1.000000" fill-rule="nonzero"/>
		<path id="Vector" d="M8.07 7.83C8.04 7.86 7.99 7.88 7.94 7.88C7.89 7.88 7.85 7.86 7.81 7.83L6.08 6.1C6.04 6.07 6.02 6.02 6.02 5.97C6.02 5.93 6.04 5.88 6.08 5.84C6.11 5.81 6.16 5.79 6.2 5.79C6.25 5.79 6.3 5.81 6.33 5.84L8.07 7.57C8.15 7.64 8.15 7.76 8.07 7.83L8.07 7.83ZM6.1 5.87C6.04 5.93 6.04 6.03 6.1 6.09L7.83 7.82C7.89 7.87 8 7.87 8.06 7.82C8.12 7.76 8.12 7.65 8.06 7.59L6.32 5.86C6.26 5.8 6.17 5.8 6.1 5.87Z" fill="#FFFFFF" fill-opacity="1.000000" fill-rule="nonzero"/>
		<path id="Vector" d="M7.96 6.07C7.89 6.13 7.79 6.13 7.73 6.06L7.01 5.23C6.95 5.16 6.97 5.06 7.04 5C7.11 4.94 7.21 4.94 7.27 5.01L7.99 5.83C8.05 5.89 8.03 6 7.96 6.07Z" fill="#F3F3F3" fill-opacity="1.000000" fill-rule="nonzero"/>
		<path id="Vector" d="M7.98 6.07C7.89 6.14 7.79 6.13 7.72 6.06L7 5.23C6.93 5.16 6.94 5.05 7.03 4.98C7.11 4.91 7.21 4.92 7.28 4.99L8 5.81C8.06 5.89 8.06 6.01 7.98 6.07ZM7.04 5C6.97 5.06 6.97 5.15 7.01 5.22L7.73 6.04C7.79 6.1 7.88 6.11 7.95 6.06C8.02 6 8.02 5.9 7.98 5.83L7.26 5.01C7.2 4.94 7.11 4.94 7.04 5Z" fill="#FFFFFF" fill-opacity="1.000000" fill-rule="nonzero"/>
		<path id="Vector" d="M9.65 6.51C9.57 6.57 9.47 6.55 9.42 6.47L8.05 4.44C8 4.35 8.02 4.25 8.09 4.2C8.17 4.14 8.28 4.17 8.33 4.25L9.69 6.28C9.75 6.36 9.72 6.47 9.65 6.51Z" fill="#F3F3F3" fill-opacity="1.000000" fill-rule="nonzero"/>
		<path id="Vector" d="M9.65 6.53C9.57 6.58 9.45 6.56 9.39 6.48L8.03 4.45C7.98 4.37 8 4.25 8.09 4.19C8.18 4.13 8.29 4.16 8.35 4.24L9.71 6.27C9.77 6.36 9.75 6.47 9.65 6.53ZM8.1 4.21C8.03 4.26 8.01 4.35 8.06 4.43L9.42 6.45C9.47 6.53 9.56 6.54 9.64 6.49C9.71 6.44 9.74 6.35 9.69 6.28L8.33 4.26C8.28 4.19 8.18 4.17 8.1 4.21L8.1 4.21Z" fill="#FFFFFF" fill-opacity="1.000000" fill-rule="nonzero"/>
		<path id="Vector" d="M9.9 4.78C9.82 4.82 9.71 4.8 9.66 4.72L9.13 3.77C9.08 3.69 9.11 3.58 9.2 3.53C9.28 3.49 9.38 3.51 9.43 3.59L9.97 4.54C10.01 4.62 9.98 4.73 9.9 4.78Z" fill="#F3F3F3" fill-opacity="1.000000" fill-rule="nonzero"/>
		<path id="Vector" d="M9.9 4.79C9.81 4.84 9.7 4.81 9.65 4.73L9.11 3.78C9.07 3.7 9.09 3.58 9.18 3.53C9.28 3.49 9.38 3.51 9.43 3.59L9.97 4.54C10.02 4.62 9.99 4.73 9.9 4.79ZM9.2 3.55C9.12 3.59 9.09 3.69 9.14 3.76L9.68 4.71C9.72 4.78 9.82 4.8 9.89 4.77C9.96 4.72 9.99 4.62 9.95 4.55L9.41 3.6C9.37 3.53 9.27 3.5 9.2 3.55Z" fill="#FFFFFF" fill-opacity="1.000000" fill-rule="nonzero"/>
		<path id="Vector" d="M11.46 5.55C11.37 5.59 11.27 5.55 11.24 5.47L10.29 3.21C10.25 3.12 10.3 3.02 10.38 2.98C10.47 2.95 10.57 2.98 10.6 3.06L11.55 5.33C11.59 5.41 11.54 5.52 11.46 5.55L11.46 5.55Z" fill="#F3F3F3" fill-opacity="1.000000" fill-rule="nonzero"/>
		<path id="Vector" d="M11.46 5.56C11.37 5.6 11.26 5.56 11.21 5.47L10.26 3.21C10.25 3.16 10.25 3.11 10.27 3.07C10.29 3.02 10.32 2.99 10.37 2.97C10.46 2.94 10.57 2.97 10.62 3.06L11.57 5.33C11.6 5.41 11.55 5.52 11.46 5.56ZM10.39 2.99C10.31 3.03 10.27 3.12 10.31 3.19L11.26 5.46C11.3 5.54 11.39 5.57 11.47 5.54C11.55 5.5 11.59 5.41 11.55 5.34L10.6 3.08C10.56 2.99 10.47 2.96 10.39 2.99L10.39 2.99Z" fill="#FFFFFF" fill-opacity="1.000000" fill-rule="nonzero"/>
		<path id="Vector" d="M12.03 3.89C11.94 3.92 11.85 3.87 11.81 3.78L11.47 2.75C11.44 2.67 11.49 2.56 11.58 2.54C11.66 2.51 11.76 2.55 11.8 2.64L12.14 3.67C12.18 3.76 12.13 3.85 12.03 3.89Z" fill="#F3F3F3" fill-opacity="1.000000" fill-rule="nonzero"/>
		<path id="Vector" d="M12.05 3.9C12 3.91 11.95 3.91 11.91 3.89C11.86 3.87 11.83 3.84 11.81 3.79L11.47 2.76C11.44 2.67 11.49 2.56 11.59 2.52C11.63 2.51 11.68 2.51 11.73 2.53C11.77 2.55 11.81 2.59 11.82 2.63L12.16 3.66C12.19 3.76 12.14 3.86 12.05 3.9ZM11.59 2.55C11.51 2.57 11.46 2.67 11.48 2.75L11.82 3.78C11.85 3.86 11.94 3.9 12.02 3.87C12.1 3.85 12.15 3.76 12.13 3.67L11.79 2.64C11.78 2.62 11.77 2.6 11.76 2.59C11.74 2.57 11.73 2.56 11.71 2.55C11.69 2.54 11.67 2.54 11.65 2.54C11.63 2.54 11.61 2.54 11.59 2.55L11.59 2.55Z" fill="#FFFFFF" fill-opacity="1.000000" fill-rule="nonzero"/>
		<path id="Vector" d="M13.42 4.95C13.33 4.98 13.23 4.92 13.22 4.82L12.73 2.42C12.7 2.33 12.77 2.24 12.87 2.22C12.96 2.2 13.06 2.25 13.07 2.35L13.56 4.75C13.57 4.84 13.51 4.93 13.42 4.95Z" fill="#F3F3F3" fill-opacity="1.000000" fill-rule="nonzero"/>
		<path id="Vector" d="M13.42 4.96C13.31 4.99 13.22 4.92 13.2 4.82L12.7 2.42C12.68 2.33 12.75 2.22 12.84 2.21C12.95 2.18 13.04 2.26 13.07 2.35L13.56 4.75C13.58 4.85 13.52 4.94 13.42 4.96ZM12.87 2.23C12.79 2.24 12.73 2.33 12.74 2.42L13.23 4.82C13.24 4.91 13.34 4.96 13.42 4.94C13.5 4.93 13.56 4.85 13.55 4.75L13.06 2.35C13.03 2.27 12.95 2.22 12.87 2.23Z" fill="#FFFFFF" fill-opacity="1.000000" fill-rule="nonzero"/>
		<path id="Vector" d="M14.31 3.43C14.22 3.44 14.13 3.38 14.11 3.29L13.97 2.21C13.96 2.11 14.03 2.03 14.12 2.02C14.22 2.01 14.3 2.07 14.32 2.16L14.46 3.24C14.47 3.33 14.4 3.42 14.31 3.43Z" fill="#F3F3F3" fill-opacity="1.000000" fill-rule="nonzero"/>
		<path id="Vector" d="M14.31 3.44C14.2 3.45 14.11 3.38 14.1 3.29L13.96 2.21C13.95 2.11 14.02 2.02 14.12 2.01C14.23 2 14.32 2.07 14.33 2.16L14.47 3.24C14.49 3.33 14.42 3.43 14.31 3.44ZM14.13 2.03C14.05 2.04 13.98 2.13 13.99 2.21L14.13 3.29C14.15 3.37 14.23 3.43 14.31 3.42C14.39 3.4 14.46 3.32 14.45 3.24L14.31 2.16C14.3 2.08 14.22 2.02 14.13 2.03Z" fill="#FFFFFF" fill-opacity="1.000000" fill-rule="nonzero"/>
		<path id="Vector" d="M29.47 15.24C29.47 22.91 23.25 29.13 15.58 29.13C7.91 29.13 1.69 22.91 1.69 15.24C1.69 7.57 7.91 1.35 15.58 1.35C23.25 1.35 29.47 7.57 29.47 15.24Z" fill="url(#paint_linear_2127_681_0)" fill-opacity="0.200000" fill-rule="evenodd"/>
		<g filter="url(#filter_2127_682_dd)">
			<path id="Vector" d="M25.2 6.43L13.99 13.61L13.98 13.61L13.98 13.62L13.97 13.63L6.98 25.17L17.25 16.9L17.27 16.88L17.27 16.87L25.2 6.43L25.2 6.43Z" fill="#000000" fill-opacity="0.050000" fill-rule="nonzero"/>
		</g>
		<path id="Vector" d="M24.99 5.76L13.91 13.63L17.2 16.9L24.99 5.76Z" fill="#CD151E" fill-opacity="1.000000" fill-rule="nonzero"/>
		<path id="Vector" d="M13.92 13.61L15.58 15.24L24.99 5.76L13.92 13.61Z" fill="#FA5153" fill-opacity="1.000000" fill-rule="nonzero"/>
		<path id="Vector" d="M13.92 13.61L17.21 16.87L6.13 24.74L13.92 13.61L13.92 13.61Z" fill="#ACACAC" fill-opacity="1.000000" fill-rule="nonzero"/>
		<path id="Vector" d="M6.13 24.74L15.58 15.24L13.92 13.61L6.13 24.74Z" fill="#EEEEEE" fill-opacity="1.000000" fill-rule="nonzero"/>
	</g>
</svg>
