<svg width="22.000000" height="22.000000" viewBox="0 0 22 22" fill="none" xmlns="http://www.w3.org/2000/svg" xmlns:xlink="http://www.w3.org/1999/xlink">
	<desc>
			Created with Pixso.
	</desc>
	<defs/>
	<path id="Vector" d="M11.46 20.1C11.16 20.18 10.83 20.18 10.53 20.1C6.08 18.87 2.83 14.67 2.83 10.19L2.83 6.16C2.83 5.41 3.4 4.56 4.1 4.28L9.21 2.19C10.35 1.72 11.65 1.72 12.79 2.19L17.9 4.28C18.59 4.56 19.17 5.41 19.17 6.16L19.16 10.19C19.16 14.67 15.91 18.87 11.46 20.1Z" stroke="#6B34FA" stroke-opacity="1.000000" stroke-width="1.500000" stroke-linejoin="round"/>
	<path id="Vector" d="M11 11.45C9.98 11.45 9.16 10.63 9.16 9.62C9.16 8.61 9.98 7.79 11 7.79C12.01 7.79 12.83 8.61 12.83 9.62C12.83 10.63 12.01 11.45 11 11.45Z" stroke="#6B34FA" stroke-opacity="1.000000" stroke-width="1.500000" stroke-linejoin="round"/>
	<path id="Vector" d="M11 11.45L13.75 11.45" stroke="#6B34FA" stroke-opacity="1.000000" stroke-width="1.500000" stroke-linejoin="round" stroke-linecap="round"/>
	<g opacity="0.000000"/>
</svg>
