<svg width="16" height="16" viewBox="0 0 16 16" fill="none" xmlns="http://www.w3.org/2000/svg">
<g clip-path="url(#clip0_2116_282)">
<rect width="16" height="16" rx="8" fill="#F9F9F9"/>
<path d="M16 0H0V1.33333H16V0Z" fill="#D74B4B"/>
<path d="M16 2.93333H0V4.26666H16V2.93333Z" fill="#D74B4B"/>
<path d="M0 5.86667H16V7.2H0V5.86667Z" fill="#D74B4B"/>
<path d="M16 8.8H0V10.1333H16V8.8Z" fill="#D74B4B"/>
<path d="M0 11.7333H16V13.0667H0V11.7333Z" fill="#D74B4B"/>
<path d="M16 14.6667H0V16H16V14.6667Z" fill="#D74B4B"/>
<path d="M0 0H9.34965V10.1354H0V0Z" fill="#485CC2"/>
<path d="M1.54588 0.928362L1.62034 1.15922L1.8629 1.15869L1.66635 1.30084L1.74181 1.53137L1.54588 1.38836L1.34996 1.53137L1.42542 1.30084L1.22887 1.15869L1.47143 1.15922L1.54588 0.928362Z" fill="#F9F9F9"/>
<path d="M0.95367 2.49255L0.879218 2.26169L0.804765 2.49255L0.562199 2.49202L0.75875 2.63417L0.683289 2.8647L0.879218 2.72169L1.07515 2.8647L0.999685 2.63417L1.19624 2.49202L0.95367 2.49255Z" fill="#F9F9F9"/>
<path d="M1.54588 3.92836L1.62034 4.15922L1.8629 4.15869L1.66635 4.30084L1.74181 4.53137L1.54588 4.38836L1.34996 4.53137L1.42542 4.30084L1.22887 4.15869L1.47143 4.15922L1.54588 3.92836Z" fill="#F9F9F9"/>
<path d="M1.54588 6.92836L1.62034 7.15922L1.8629 7.15869L1.66635 7.30084L1.74181 7.53137L1.54588 7.38836L1.34996 7.53137L1.42542 7.30084L1.22887 7.15869L1.47143 7.15922L1.54588 6.92836Z" fill="#F9F9F9"/>
<path d="M0.879218 5.59503L0.95367 5.82589L1.19624 5.82536L0.999685 5.9675L1.07515 6.19803L0.879218 6.05503L0.683289 6.19803L0.75875 5.9675L0.562199 5.82536L0.804765 5.82589L0.879218 5.59503Z" fill="#F9F9F9"/>
<path d="M0.95367 8.49255L0.879218 8.26169L0.804765 8.49255L0.562199 8.49202L0.75875 8.63417L0.683289 8.8647L0.879218 8.72169L1.07515 8.8647L0.999685 8.63417L1.19624 8.49202L0.95367 8.49255Z" fill="#F9F9F9"/>
<path d="M3.54588 3.92836L3.62034 4.15922L3.8629 4.15869L3.66635 4.30084L3.74181 4.53137L3.54588 4.38836L3.34996 4.53137L3.42542 4.30084L3.22887 4.15869L3.47143 4.15922L3.54588 3.92836Z" fill="#F9F9F9"/>
<path d="M3.62034 7.15922L3.54588 6.92836L3.47143 7.15922L3.22887 7.15869L3.42542 7.30084L3.34996 7.53137L3.54588 7.38836L3.74181 7.53137L3.66635 7.30084L3.8629 7.15869L3.62034 7.15922Z" fill="#F9F9F9"/>
<path d="M2.54976 2.26169L2.62421 2.49255L2.86678 2.49202L2.67022 2.63417L2.74569 2.8647L2.54976 2.72169L2.35383 2.8647L2.42929 2.63417L2.23274 2.49202L2.4753 2.49255L2.54976 2.26169Z" fill="#F9F9F9"/>
<path d="M2.62421 5.82589L2.54976 5.59503L2.4753 5.82589L2.23274 5.82536L2.42929 5.9675L2.35383 6.19803L2.54976 6.05503L2.74569 6.19803L2.67022 5.9675L2.86678 5.82536L2.62421 5.82589Z" fill="#F9F9F9"/>
<path d="M2.54976 8.26169L2.62421 8.49255L2.86678 8.49202L2.67022 8.63417L2.74569 8.8647L2.54976 8.72169L2.35383 8.8647L2.42929 8.63417L2.23274 8.49202L2.4753 8.49255L2.54976 8.26169Z" fill="#F9F9F9"/>
<path d="M5.62034 4.15922L5.54589 3.92836L5.47143 4.15922L5.22887 4.15869L5.42542 4.30084L5.34996 4.53137L5.54589 4.38836L5.74182 4.53137L5.66635 4.30084L5.86291 4.15869L5.62034 4.15922Z" fill="#F9F9F9"/>
<path d="M5.54589 6.92836L5.62034 7.15922L5.86291 7.15869L5.66635 7.30084L5.74182 7.53137L5.54589 7.38836L5.34996 7.53137L5.42542 7.30084L5.22887 7.15869L5.47143 7.15922L5.54589 6.92836Z" fill="#F9F9F9"/>
<path d="M4.62421 2.49255L4.54976 2.26169L4.4753 2.49255L4.23274 2.49202L4.42929 2.63417L4.35383 2.8647L4.54976 2.72169L4.74569 2.8647L4.67022 2.63417L4.86678 2.49202L4.62421 2.49255Z" fill="#F9F9F9"/>
<path d="M4.54976 5.59503L4.62421 5.82589L4.86678 5.82536L4.67022 5.9675L4.74569 6.19803L4.54976 6.05503L4.35383 6.19803L4.42929 5.9675L4.23274 5.82536L4.4753 5.82589L4.54976 5.59503Z" fill="#F9F9F9"/>
<path d="M4.62421 8.49255L4.54976 8.26169L4.4753 8.49255L4.23274 8.49202L4.42929 8.63417L4.35383 8.8647L4.54976 8.72169L4.74569 8.8647L4.67022 8.63417L4.86678 8.49202L4.62421 8.49255Z" fill="#F9F9F9"/>
<path d="M7.54589 3.92836L7.62034 4.15922L7.86291 4.15869L7.66635 4.30084L7.74182 4.53137L7.54589 4.38836L7.34996 4.53137L7.42542 4.30084L7.22887 4.15869L7.47143 4.15922L7.54589 3.92836Z" fill="#F9F9F9"/>
<path d="M7.62034 7.15922L7.54589 6.92836L7.47143 7.15922L7.22887 7.15869L7.42542 7.30084L7.34996 7.53137L7.54589 7.38836L7.74182 7.53137L7.66635 7.30084L7.86291 7.15869L7.62034 7.15922Z" fill="#F9F9F9"/>
<path d="M6.54976 2.26169L6.62421 2.49255L6.86678 2.49202L6.67022 2.63417L6.74569 2.8647L6.54976 2.72169L6.35383 2.8647L6.42929 2.63417L6.23274 2.49202L6.4753 2.49255L6.54976 2.26169Z" fill="#F9F9F9"/>
<path d="M6.62421 5.82589L6.54976 5.59503L6.4753 5.82589L6.23274 5.82536L6.42929 5.9675L6.35383 6.19803L6.54976 6.05503L6.74569 6.19803L6.67022 5.9675L6.86678 5.82536L6.62421 5.82589Z" fill="#F9F9F9"/>
<path d="M6.54976 8.26169L6.62421 8.49255L6.86678 8.49202L6.67022 8.63417L6.74569 8.8647L6.54976 8.72169L6.35383 8.8647L6.42929 8.63417L6.23274 8.49202L6.4753 8.49255L6.54976 8.26169Z" fill="#F9F9F9"/>
<path d="M8.62421 2.49255L8.54976 2.26169L8.4753 2.49255L8.23274 2.49202L8.42929 2.63417L8.35383 2.8647L8.54976 2.72169L8.74569 2.8647L8.67023 2.63417L8.86678 2.49202L8.62421 2.49255Z" fill="#F9F9F9"/>
<path d="M8.54976 5.59503L8.62421 5.82589L8.86678 5.82536L8.67023 5.9675L8.74569 6.19803L8.54976 6.05503L8.35383 6.19803L8.42929 5.9675L8.23274 5.82536L8.4753 5.82589L8.54976 5.59503Z" fill="#F9F9F9"/>
<path d="M8.62421 8.49255L8.54976 8.26169L8.4753 8.49255L8.23274 8.49202L8.42929 8.63417L8.35383 8.8647L8.54976 8.72169L8.74569 8.8647L8.67023 8.63417L8.86678 8.49202L8.62421 8.49255Z" fill="#F9F9F9"/>
<path d="M3.62034 1.15922L3.54588 0.928362L3.47143 1.15922L3.22887 1.15869L3.42542 1.30084L3.34996 1.53137L3.54588 1.38836L3.74181 1.53137L3.66635 1.30084L3.8629 1.15869L3.62034 1.15922Z" fill="#F9F9F9"/>
<path d="M5.54589 0.928362L5.62034 1.15922L5.86291 1.15869L5.66635 1.30084L5.74182 1.53137L5.54589 1.38836L5.34996 1.53137L5.42542 1.30084L5.22887 1.15869L5.47143 1.15922L5.54589 0.928362Z" fill="#F9F9F9"/>
<path d="M7.62034 1.15922L7.54589 0.928362L7.47143 1.15922L7.22887 1.15869L7.42542 1.30084L7.34996 1.53137L7.54589 1.38836L7.74182 1.53137L7.66635 1.30084L7.86291 1.15869L7.62034 1.15922Z" fill="#F9F9F9"/>
</g>
<defs>
<clipPath id="clip0_2116_282">
<rect width="16" height="16" rx="8" fill="white"/>
</clipPath>
</defs>
</svg>
